# Blender 5.0.1
# www.blender.org
mtllib CasinoSign.mtl
o CasinoSign_CUText
v 0.431279 5.835863 0.478654
v 0.619220 5.835863 0.478654
v 0.927328 5.488670 0.478654
v 0.927328 5.792620 0.478654
v 0.892401 5.835863 0.478654
v 1.103212 5.835863 0.478654
v 1.066206 5.790541 0.478654
v 1.066206 5.234200 0.478654
v 0.931486 5.234200 0.478654
v 0.605083 5.587630 0.478654
v 0.605083 5.279522 0.478654
v 0.642089 5.234200 0.478654
v 0.431279 5.234200 0.478654
v 0.466622 5.278691 0.478654
v 0.466622 5.787630 0.478654
v 0.115270 5.835863 0.478654
v 0.367661 5.835863 0.478654
v 0.332318 5.792620 0.478654
v 0.332318 5.277443 0.478654
v 0.367661 5.234200 0.478654
v 0.115270 5.234200 0.478654
v 0.152692 5.279522 0.478654
v 0.152692 5.790541 0.478654
v 0.016726 5.845427 0.478654
v 0.016005 5.654813 0.478654
v -0.131420 5.703788 0.478654
v -0.252371 5.718294 0.478654
v -0.306236 5.691783 0.478654
v -0.289537 5.653143 0.478654
v -0.112742 5.583761 0.478654
v 0.000993 5.520395 0.478654
v 0.045686 5.439606 0.478654
v 0.037725 5.337706 0.478654
v -0.013356 5.270856 0.478654
v -0.103272 5.231936 0.478654
v -0.257474 5.226423 0.478654
v -0.437667 5.271361 0.478654
v -0.483067 5.222558 0.478654
v -0.483067 5.438358 0.478654
v -0.351196 5.370911 0.478654
v -0.183349 5.351645 0.478654
v -0.138183 5.376971 0.478654
v -0.161388 5.428124 0.478654
v -0.343247 5.493568 0.478654
v -0.440021 5.552574 0.478654
v -0.481669 5.621977 0.478654
v -0.486276 5.699248 0.478654
v -0.461374 5.759797 0.478654
v -0.391703 5.813597 0.478654
v -0.295366 5.839966 0.478654
v -0.179914 5.841657 0.478654
v -0.029129 5.804107 0.478654
v -1.002401 5.836279 0.478654
v -0.799491 5.836279 0.478654
v -0.505520 5.233784 0.478654
v -0.756247 5.233784 0.478654
v -0.720904 5.279522 0.478654
v -0.747931 5.341477 0.478654
v -1.035665 5.341477 0.478654
v -1.066850 5.279522 0.478654
v -1.031507 5.233784 0.478654
v -1.248971 5.233784 0.478654
v -0.982027 5.790957 0.478654
v -0.994085 5.451248 0.478654
v -0.793254 5.451248 0.478654
v -0.892630 5.666632 0.478654
v -1.240455 5.270724 0.478654
v -1.407986 5.225337 0.478654
v -1.614225 5.236079 0.478654
v -1.727210 5.289816 0.478654
v -1.792842 5.361259 0.478654
v -1.826617 5.462547 0.478654
v -1.828642 5.616436 0.478654
v -1.760416 5.754767 0.478654
v -1.616831 5.829845 0.478654
v -1.425510 5.840435 0.478654
v -1.279445 5.807996 0.478654
v -1.237744 5.845011 0.478654
v -1.237895 5.648565 0.478654
v -1.354879 5.698747 0.478654
v -1.475194 5.714137 0.478654
v -1.562364 5.698583 0.478654
v -1.632572 5.628779 0.478654
v -1.643635 5.484746 0.478654
v -1.604621 5.394108 0.478654
v -1.521373 5.354165 0.478654
v -1.332144 5.359503 0.478654
v -1.237794 5.393051 0.478654
v -0.131420 5.703788 0.342538
v -0.461374 5.759797 0.342538
v -1.332144 5.359503 0.342538
v -1.237794 5.393051 0.342538
v -0.391703 5.813597 0.342538
v -0.029129 5.804107 0.342538
v -1.237895 5.648565 0.342538
v -1.354879 5.698747 0.342538
v -0.505520 5.233784 0.342538
v -0.720904 5.279522 0.342538
v -0.013356 5.270856 0.342538
v -0.437667 5.271361 0.342538
v -1.035665 5.341477 0.342538
v -0.994085 5.451248 0.342538
v -1.760416 5.754767 0.342538
v -1.562364 5.698583 0.342538
v -1.066850 5.279522 0.342538
v -1.248971 5.233784 0.342538
v 0.115270 5.835863 0.342538
v 0.152692 5.790541 0.342538
v 0.016005 5.654813 0.342538
v 0.016726 5.845427 0.342538
v 0.605083 5.587630 0.342538
v 0.605083 5.279522 0.342538
v 0.927328 5.488670 0.342538
v 0.931486 5.234200 0.342538
v -0.351196 5.370911 0.342538
v -1.407986 5.225337 0.342538
v -1.614225 5.236079 0.342538
v -1.632572 5.628779 0.342538
v -1.643635 5.484746 0.342538
v -1.425510 5.840435 0.342538
v -1.279445 5.807996 0.342538
v -0.756247 5.233784 0.342538
v -0.982027 5.790957 0.342538
v -0.483067 5.438358 0.342538
v -1.828642 5.616436 0.342538
v 1.066206 5.234200 0.342538
v -0.103272 5.231936 0.342538
v 0.037725 5.337706 0.342538
v -0.295366 5.839966 0.342538
v -0.179914 5.841657 0.342538
v -0.252371 5.718294 0.342538
v -0.793254 5.451248 0.342538
v -1.240455 5.270724 0.342538
v -0.112742 5.583761 0.342538
v 0.000993 5.520395 0.342538
v 1.066206 5.790541 0.342538
v -0.183349 5.351645 0.342538
v 0.332318 5.277443 0.342538
v -0.343247 5.493568 0.342538
v -0.440021 5.552574 0.342538
v -1.475194 5.714137 0.342538
v -0.799491 5.836279 0.342538
v -0.892630 5.666632 0.342538
v -1.521373 5.354165 0.342538
v -1.792842 5.361259 0.342538
v -0.138183 5.376971 0.342538
v -0.161388 5.428124 0.342538
v -1.826617 5.462547 0.342538
v -1.604621 5.394108 0.342538
v 0.152692 5.279522 0.342538
v -0.306236 5.691783 0.342538
v -0.289537 5.653143 0.342538
v -0.486276 5.699248 0.342538
v 0.466622 5.278691 0.342538
v 0.466622 5.787630 0.342538
v 0.332318 5.792620 0.342538
v 0.115270 5.234200 0.342538
v 0.927328 5.792620 0.342538
v 1.103212 5.835863 0.342538
v -0.257474 5.226423 0.342538
v 0.367661 5.234200 0.342538
v 0.431279 5.835863 0.342538
v 0.892401 5.835863 0.342538
v -1.002401 5.836279 0.342538
v -0.483067 5.222558 0.342538
v -0.747931 5.341477 0.342538
v -1.237744 5.845011 0.342538
v 0.619220 5.835863 0.342538
v 0.045686 5.439606 0.342538
v -1.727210 5.289816 0.342538
v -0.481669 5.621977 0.342538
v 0.367661 5.835863 0.342538
v -1.616831 5.829845 0.342538
v -1.031507 5.233784 0.342538
v 0.642089 5.234200 0.342538
v 0.431279 5.234200 0.342538
v 1.393381 5.367751 0.361129
v 1.492063 5.341309 0.382768
v 1.321141 5.439991 0.361129
v 1.590745 5.367751 0.382768
v 1.294700 5.538673 0.361129
v 1.662985 5.439991 0.382768
v 1.321141 5.637355 0.361129
v 1.689427 5.538673 0.382768
v 1.393382 5.709595 0.361129
v 1.662985 5.637355 0.382768
v 1.492063 5.736036 0.361129
v 1.590745 5.709595 0.382768
v 1.590745 5.709595 0.361129
v 1.492063 5.736036 0.382768
v 1.662985 5.637355 0.361129
v 1.393382 5.709595 0.382768
v 1.689427 5.538673 0.361129
v 1.321141 5.637355 0.382768
v 1.662985 5.439991 0.361129
v 1.294700 5.538673 0.382768
v 1.492063 5.341309 0.361129
v 1.321141 5.439991 0.382768
v 1.590745 5.367751 0.361129
v 1.393381 5.367751 0.382768
v 1.368491 5.324639 0.361129
v 1.278029 5.415100 0.361129
v 1.244918 5.538673 0.361129
v 1.278029 5.662245 0.361129
v 1.368491 5.752707 0.361129
v 1.492063 5.785818 0.361129
v 1.615636 5.752707 0.361129
v 1.706097 5.662245 0.361129
v 1.739209 5.538673 0.361129
v 1.706097 5.415100 0.361129
v 1.492063 5.291527 0.361129
v 1.615636 5.324639 0.361129
v 1.368491 5.324639 0.344299
v 1.278029 5.415100 0.344299
v 1.244918 5.538673 0.344299
v 1.278029 5.662245 0.344299
v 1.368491 5.752707 0.344299
v 1.492063 5.785818 0.344299
v 1.615636 5.752707 0.344299
v 1.706097 5.662245 0.344299
v 1.739209 5.538673 0.344299
v 1.706097 5.415100 0.344299
v 1.492063 5.291527 0.344299
v 1.615636 5.324639 0.344299
v 1.321117 5.242585 0.344299
v 1.195976 5.367727 0.344299
v 1.150171 5.538673 0.344299
v 1.195976 5.709619 0.344299
v 1.321117 5.834760 0.344299
v 1.492063 5.880565 0.344299
v 1.663010 5.834760 0.344299
v 1.788151 5.709619 0.344299
v 1.833956 5.538673 0.344299
v 1.788151 5.367726 0.344299
v 1.492063 5.196780 0.344299
v 1.663010 5.242585 0.344299
v 1.393381 5.367751 0.450563
v 1.492063 5.341309 0.428924
v 1.321141 5.439991 0.450563
v 1.590745 5.367751 0.428924
v 1.294700 5.538673 0.450563
v 1.662985 5.439991 0.428924
v 1.321141 5.637355 0.450563
v 1.689427 5.538673 0.428924
v 1.393382 5.709595 0.450563
v 1.662985 5.637355 0.428924
v 1.492063 5.736036 0.450563
v 1.590745 5.709595 0.428924
v 1.590745 5.709595 0.450563
v 1.492063 5.736036 0.428924
v 1.662985 5.637355 0.450563
v 1.393382 5.709595 0.428924
v 1.689427 5.538673 0.450563
v 1.321141 5.637355 0.428924
v 1.662985 5.439991 0.450563
v 1.294700 5.538673 0.428924
v 1.492063 5.341309 0.450563
v 1.321141 5.439991 0.428924
v 1.590745 5.367751 0.450563
v 1.393381 5.367751 0.428924
v 1.368491 5.324639 0.450563
v 1.278029 5.415100 0.450563
v 1.244918 5.538673 0.450563
v 1.278029 5.662245 0.450563
v 1.368491 5.752707 0.450563
v 1.492063 5.785818 0.450563
v 1.615636 5.752707 0.450563
v 1.706097 5.662245 0.450563
v 1.739209 5.538673 0.450563
v 1.706097 5.415100 0.450563
v 1.492063 5.291527 0.450563
v 1.615636 5.324639 0.450563
v 1.368491 5.324639 0.467393
v 1.278029 5.415100 0.467393
v 1.244918 5.538673 0.467393
v 1.278029 5.662245 0.467393
v 1.368491 5.752707 0.467393
v 1.492063 5.785818 0.467393
v 1.615636 5.752707 0.467393
v 1.706097 5.662245 0.467393
v 1.739209 5.538673 0.467393
v 1.706097 5.415100 0.467393
v 1.492063 5.291527 0.467393
v 1.615636 5.324639 0.467393
v 1.321117 5.242585 0.467393
v 1.195976 5.367727 0.467393
v 1.150171 5.538673 0.467393
v 1.195976 5.709619 0.467393
v 1.321117 5.834760 0.467393
v 1.492063 5.880565 0.467393
v 1.663010 5.834760 0.467393
v 1.788151 5.709619 0.467393
v 1.833956 5.538673 0.467393
v 1.788151 5.367726 0.467393
v 1.492063 5.196780 0.467393
v 1.663010 5.242585 0.467393
v 1.663010 5.242585 0.405846
v 1.492063 5.196780 0.405846
v 1.788151 5.367726 0.405846
v 1.833956 5.538673 0.405846
v 1.788151 5.709619 0.405846
v 1.663010 5.834760 0.405846
v 1.492063 5.880565 0.405846
v 1.321117 5.834760 0.405846
v 1.195976 5.709619 0.405846
v 1.150171 5.538673 0.405846
v 1.195976 5.367727 0.405846
v 1.321117 5.242585 0.405846
v 1.356279 5.773858 0.344299
v 1.492063 5.810241 0.344299
v 1.256878 5.402889 0.344299
v 1.220495 5.538673 0.344299
v 1.763632 5.538673 0.344299
v 1.727249 5.402888 0.344299
v 1.627848 5.773858 0.344299
v 1.256878 5.674457 0.344299
v 1.627848 5.303487 0.344299
v 1.492063 5.267104 0.344299
v 1.356279 5.303488 0.344299
v 1.727249 5.674457 0.344299
v 1.355201 5.775726 0.467393
v 1.492063 5.812398 0.467393
v 1.255010 5.401810 0.467393
v 1.218338 5.538673 0.467393
v 1.765789 5.538673 0.467393
v 1.729117 5.401810 0.467393
v 1.628926 5.775726 0.467393
v 1.255010 5.675535 0.467393
v 1.628926 5.301620 0.467393
v 1.492063 5.264947 0.467393
v 1.355201 5.301620 0.467393
v 1.729117 5.675535 0.467393
vn -0.0000 -0.0000 1.0000
vn -0.0000 -0.0000 -1.0000
vn 0.1757 -0.9845 -0.0000
vn -0.9080 -0.4189 -0.0000
vn 1.0000 -0.0038 -0.0000
vn -0.0000 1.0000 -0.0000
vn -0.3942 -0.9190 -0.0000
vn -0.4634 0.8862 -0.0000
vn -0.7711 0.6367 -0.0000
vn -0.9107 -0.4131 -0.0000
vn -0.0000 -1.0000 -0.0000
vn -0.7346 -0.6785 -0.0000
vn -0.4891 0.8722 -0.0000
vn 0.0357 -0.9994 -0.0000
vn -0.8969 0.4423 -0.0000
vn -0.7711 -0.6367 -0.0000
vn -0.6638 0.7479 -0.0000
vn -0.3153 -0.9490 -0.0000
vn -0.7830 0.6220 -0.0000
vn -0.6694 0.7429 -0.0000
vn 1.0000 -0.0000 -0.0000
vn 1.0000 -0.0008 -0.0000
vn 0.8987 0.4385 -0.0000
vn 0.2416 0.9704 -0.0000
vn 0.7480 0.6638 -0.0000
vn 0.7743 -0.6328 -0.0000
vn -0.9018 0.4321 -0.0000
vn 0.9179 0.3967 -0.0000
vn 0.8932 -0.4496 -0.0000
vn -0.0520 -0.9986 -0.0000
vn -1.0000 -0.0000 -0.0000
vn 0.7746 -0.6325 -0.0000
vn 0.9971 -0.0766 -0.0000
vn -0.9999 -0.0132 -0.0000
vn 0.4416 -0.8972 -0.0000
vn 0.2168 0.9762 -0.0000
vn -0.7364 -0.6765 -0.0000
vn -0.0553 0.9985 -0.0000
vn -0.6112 0.7915 -0.0000
vn 0.9047 -0.4261 -0.0000
vn 0.4554 0.8903 -0.0000
vn -0.2640 0.9645 -0.0000
vn -0.2420 -0.9703 -0.0000
vn 0.9185 0.3954 -0.0000
vn 0.2615 -0.9652 -0.0000
vn -0.9121 -0.4100 -0.0000
vn -0.7913 0.6114 -0.0000
vn 0.3972 -0.9177 -0.0000
vn 0.7743 0.6328 -0.0000
vn -0.8066 -0.5911 -0.0000
vn 0.7946 -0.6072 -0.0000
vn 0.7913 0.6114 -0.0000
vn -0.0146 0.9999 -0.0000
vn 0.9998 -0.0217 -0.0000
vn -0.1191 -0.9929 -0.0000
vn -0.9486 -0.3163 -0.0000
vn -0.9248 0.3804 -0.0000
vn 0.3653 0.9309 -0.0000
vn -0.7779 -0.6283 -0.0000
vn -0.9982 -0.0595 -0.0000
vn 0.4867 0.8736 -0.0000
vn 0.8750 0.4841 -0.0000
vn 0.7746 0.6325 -0.0000
vn -0.0282 0.9996 -0.0000
vn 0.1140 0.9935 -0.0000
vn 0.7051 -0.7091 -0.0000
vn 0.9970 -0.0779 -0.0000
vn -0.8575 -0.5146 -0.0000
vn 0.7322 -0.6811 -0.0000
vn -0.3386 -0.9409 -0.0000
vn 0.4326 0.9016 -0.0000
vn -0.9166 -0.3998 -0.0000
vn -0.5206 -0.8538 -0.0000
vn -0.4295 -0.9031 -0.0000
vn -0.1269 -0.9919 -0.0000
vn -0.3350 0.9422 -0.0000
vn -0.2588 -0.9659 -0.0000
vn 0.2588 -0.9659 -0.0000
vn 0.7071 -0.7071 -0.0000
vn 0.9659 -0.2588 -0.0000
vn 0.9659 0.2588 -0.0000
vn -0.7071 0.7071 -0.0000
vn 0.7071 0.7071 -0.0000
vn -0.9659 0.2588 -0.0000
vn -0.2588 0.9659 -0.0000
vn 0.2588 0.9659 -0.0000
vn -0.9659 -0.2588 -0.0000
vn -0.7071 -0.7071 -0.0000
vt 0.913745 0.822210
vt 0.917245 0.810985
vt 0.917245 0.824810
vt 0.892056 0.788320
vt 0.914108 0.788320
vt 0.917245 0.775383
vt 0.917245 0.790890
vt 0.913957 0.778105
vt 0.873594 0.778105
vt 0.876822 0.822210
vt 0.899235 0.812025
vt 0.876882 0.812025
vt 0.873594 0.788015
vt 0.873594 0.809303
vt 0.873594 0.824810
vt 0.941255 0.833405
vt 0.925659 0.830071
vt 0.943970 0.830071
vt 0.928223 0.833252
vt 0.928223 0.871148
vt 0.941255 0.870995
vt 0.943970 0.874329
vt 0.925659 0.874329
vt 0.915675 0.921692
vt 0.918759 0.910654
vt 0.919053 0.924673
vt 0.889386 0.922857
vt 0.904785 0.924648
vt 0.896408 0.924673
vt 0.884264 0.918990
vt 0.908127 0.914446
vt 0.899372 0.915668
vt 0.882381 0.914569
vt 0.895431 0.913788
vt 0.882617 0.908879
vt 0.896594 0.910924
vt 0.909330 0.905594
vt 0.885550 0.903721
vt 0.917500 0.900787
vt 0.892495 0.899257
vt 0.920639 0.894787
vt 0.905604 0.894210
vt 0.882009 0.879504
vt 0.891763 0.890246
vt 0.882283 0.895376
vt 0.919932 0.887303
vt 0.907222 0.890417
vt 0.885364 0.883035
vt 0.903914 0.888613
vt 0.916142 0.882452
vt 0.909570 0.879705
vt 0.898378 0.879498
vt 0.789461 0.795019
vt 0.786173 0.808446
vt 0.786173 0.793520
vt 0.829883 0.830071
vt 0.829883 0.775383
vt 0.798480 0.801595
vt 0.814107 0.794132
vt 0.814107 0.808905
vt 0.822070 0.791073
vt 0.822070 0.812239
vt 0.826565 0.788779
vt 0.826565 0.814227
vt 0.829883 0.791379
vt 0.829883 0.811627
vt 0.868883 0.921518
vt 0.871898 0.909790
vt 0.871908 0.924241
vt 0.844405 0.923122
vt 0.858286 0.923903
vt 0.833989 0.917598
vt 0.863411 0.913481
vt 0.854682 0.914612
vt 0.848358 0.913467
vt 0.829040 0.907422
vt 0.843265 0.908332
vt 0.842463 0.897737
vt 0.829188 0.896102
vt 0.845295 0.891070
vt 0.831640 0.888652
vt 0.865063 0.888526
vt 0.871716 0.881996
vt 0.871908 0.890995
vt 0.851335 0.888132
vt 0.836402 0.883397
vt 0.844599 0.879445
vt 0.859562 0.878656
vt 0.922160 0.832671
vt 0.925659 0.843896
vt 0.900470 0.866560
vt 0.922522 0.866560
vt 0.925659 0.863991
vt 0.925659 0.879498
vt 0.922371 0.876776
vt 0.882009 0.876776
vt 0.885237 0.832671
vt 0.907650 0.842856
vt 0.885297 0.842856
vt 0.882009 0.866866
vt 0.882009 0.845578
vt 0.882009 0.830071
vt 0.946685 0.833405
vt 0.962281 0.830071
vt 0.959717 0.833252
vt 0.959717 0.871148
vt 0.946685 0.870995
vt 0.962281 0.874329
vt 0.922209 0.817577
vt 0.918830 0.820557
vt 0.919125 0.806538
vt 0.948498 0.818741
vt 0.941476 0.820557
vt 0.933099 0.820532
vt 0.953620 0.814874
vt 0.929757 0.810330
vt 0.938512 0.811552
vt 0.955503 0.810453
vt 0.942453 0.809672
vt 0.955267 0.804764
vt 0.941290 0.806808
vt 0.928554 0.801478
vt 0.952334 0.799605
vt 0.920384 0.796671
vt 0.945389 0.795141
vt 0.917245 0.790672
vt 0.932280 0.790094
vt 0.955875 0.775388
vt 0.955601 0.791260
vt 0.946121 0.786130
vt 0.917952 0.783187
vt 0.930662 0.786302
vt 0.952520 0.778919
vt 0.933970 0.784497
vt 0.921742 0.778336
vt 0.928314 0.775589
vt 0.939506 0.775383
vt 0.833172 0.810434
vt 0.829883 0.811933
vt 0.829883 0.797007
vt 0.873594 0.775383
vt 0.873594 0.830071
vt 0.842191 0.803858
vt 0.857817 0.811321
vt 0.857817 0.796548
vt 0.865781 0.814380
vt 0.865781 0.793214
vt 0.870276 0.816674
vt 0.870276 0.791226
vt 0.873594 0.814074
vt 0.873594 0.793826
vt 0.826015 0.881380
vt 0.829040 0.878656
vt 0.829031 0.893107
vt 0.801538 0.879775
vt 0.815418 0.878994
vt 0.791121 0.885299
vt 0.820543 0.889416
vt 0.811814 0.888285
vt 0.805490 0.889430
vt 0.786173 0.895475
vt 0.800397 0.894565
vt 0.799596 0.905161
vt 0.786321 0.906795
vt 0.802427 0.911828
vt 0.788772 0.914246
vt 0.822195 0.914371
vt 0.829040 0.911902
vt 0.828848 0.920901
vt 0.808467 0.914765
vt 0.793534 0.919500
vt 0.801731 0.923452
vt 0.816694 0.924241
vt 0.805923 0.966504
vt 0.815798 0.960116
vt 0.815798 0.966504
vt 0.825673 0.969736
vt 0.835549 0.952288
vt 0.835549 0.969736
vt 0.871121 0.962607
vt 0.861246 0.975610
vt 0.861246 0.962607
vt 0.972156 0.873781
vt 0.982031 0.856602
vt 0.982031 0.873781
vt 0.974681 0.795408
vt 0.981516 0.805421
vt 0.974681 0.805421
vt 0.965153 0.905724
vt 0.955278 0.917591
vt 0.955278 0.905724
vt 0.978787 0.960111
vt 0.975028 0.950098
vt 0.978787 0.950098
vt 0.839624 0.962301
vt 0.835549 0.962301
vt 0.950265 0.953538
vt 0.940390 0.973247
vt 0.940390 0.953538
vt 0.955278 0.959714
vt 0.965153 0.926094
vt 0.965153 0.959714
vt 0.955278 0.974382
vt 0.965153 0.970601
vt 0.965153 0.974382
vt 0.851371 0.939797
vt 0.841496 0.950507
vt 0.841496 0.939797
vt 0.965153 0.917591
vt 0.955278 0.926094
vt 0.851371 0.962615
vt 0.861246 0.958439
vt 0.861246 0.962615
vt 0.965153 0.879498
vt 0.955278 0.883369
vt 0.955278 0.879498
vt 0.796048 0.964584
vt 0.786173 0.973369
vt 0.786173 0.964584
vt 0.982324 0.970123
vt 0.978727 0.960111
vt 0.982324 0.960111
vt 0.891884 0.924673
vt 0.882009 0.928946
vt 0.882009 0.924673
vt 0.851371 0.975407
vt 0.930514 0.953846
vt 0.920639 0.974896
vt 0.920639 0.953846
vt 0.974083 0.949185
vt 0.983959 0.935768
vt 0.983959 0.949185
vt 0.881783 0.878656
vt 0.871908 0.927834
vt 0.871908 0.878656
vt 0.891884 0.928946
vt 0.882009 0.938162
vt 0.881783 0.927834
vt 0.871908 0.959956
vt 0.982319 0.960111
vt 0.982319 0.950098
vt 0.911634 0.924673
vt 0.901759 0.958386
vt 0.901759 0.924673
vt 0.984569 0.825825
vt 0.981516 0.815812
vt 0.984569 0.815812
vt 0.950265 0.949741
vt 0.940390 0.949741
vt 0.965750 0.779300
vt 0.955875 0.814497
vt 0.955875 0.779300
vt 0.982031 0.830071
vt 0.972156 0.843910
vt 0.972156 0.830071
vt 0.861246 0.958300
vt 0.871121 0.924241
vt 0.871121 0.958300
vt 0.978727 0.970123
vt 0.975028 0.960111
vt 0.975028 0.962353
vt 0.965153 0.971892
vt 0.965153 0.962353
vt 0.962281 0.840431
vt 0.796048 0.952288
vt 0.786173 0.956688
vt 0.786173 0.952288
vt 0.965153 0.883369
vt 0.955278 0.892406
vt 0.972156 0.848241
vt 0.962281 0.855026
vt 0.962281 0.848241
vt 0.965153 0.892406
vt 0.891884 0.953360
vt 0.882009 0.959603
vt 0.882009 0.953360
vt 0.901759 0.975560
vt 0.911634 0.958386
vt 0.911634 0.975560
vt 0.891884 0.975407
vt 0.901759 0.962682
vt 0.901759 0.975407
vt 0.891884 0.962682
vt 0.982772 0.795408
vt 0.974681 0.785395
vt 0.982772 0.785395
vt 0.891884 0.946067
vt 0.882009 0.946067
vt 0.851371 0.928659
vt 0.841496 0.928659
vt 0.851371 0.958439
vt 0.861246 0.924241
vt 0.975028 0.955097
vt 0.965153 0.955097
vt 0.982031 0.843910
vt 0.972156 0.856602
vt 0.930514 0.970082
vt 0.940390 0.970082
vt 0.839154 0.972313
vt 0.835549 0.972313
vt 0.975626 0.810459
vt 0.979257 0.820472
vt 0.975626 0.820472
vt 0.851371 0.950507
vt 0.841496 0.957710
vt 0.965750 0.775383
vt 0.955875 0.775383
vt 0.851371 0.957710
vt 0.841496 0.963002
vt 0.955168 0.969766
vt 0.951136 0.959753
vt 0.955168 0.959753
vt 0.891884 0.938162
vt 0.919805 0.970032
vt 0.911634 0.960019
vt 0.919805 0.960019
vt 0.796048 0.956688
vt 0.972156 0.840431
vt 0.891884 0.959603
vt 0.882009 0.962987
vt 0.983959 0.922098
vt 0.974083 0.935768
vt 0.974083 0.922098
vt 0.851371 0.963002
vt 0.841496 0.973100
vt 0.930514 0.974042
vt 0.940390 0.974042
vt 0.983959 0.908287
vt 0.974083 0.908287
vt 0.965750 0.828591
vt 0.975626 0.823279
vt 0.975626 0.828591
vt 0.796048 0.959718
vt 0.805923 0.952288
vt 0.805923 0.959718
vt 0.796048 0.966456
vt 0.805923 0.966456
vt 0.974681 0.775383
vt 0.983782 0.785395
vt 0.962281 0.879361
vt 0.972156 0.862073
vt 0.972156 0.879361
vt 0.930514 0.949741
vt 0.920639 0.949741
vt 0.825673 0.959646
vt 0.815798 0.972674
vt 0.815798 0.959646
vt 0.955278 0.970601
vt 0.805923 0.973185
vt 0.815798 0.973185
vt 0.796048 0.973201
vt 0.805923 0.973201
vt 0.965750 0.823279
vt 0.975626 0.817363
vt 0.851371 0.924241
vt 0.841496 0.924241
vt 0.891884 0.962987
vt 0.882009 0.973689
vt 0.965750 0.814497
vt 0.955875 0.829393
vt 0.965153 0.950098
vt 0.950265 0.959753
vt 0.983959 0.893938
vt 0.974083 0.893938
vt 0.871908 0.974397
vt 0.881783 0.959956
vt 0.881783 0.974397
vt 0.965750 0.817363
vt 0.972156 0.855026
vt 0.962281 0.862073
vt 0.805923 0.960116
vt 0.815798 0.952288
vt 0.983959 0.879498
vt 0.974083 0.879498
vt 0.825673 0.952288
vt 0.983086 0.809762
vt 0.981516 0.809762
vt 0.983086 0.802294
vt 0.981516 0.802294
vt 0.983086 0.795408
vt 0.981516 0.795408
vt 0.979946 0.811442
vt 0.981516 0.811442
vt 0.979946 0.818904
vt 0.981516 0.818904
vt 0.984656 0.795408
vt 0.983086 0.802340
vt 0.979946 0.825810
vt 0.981516 0.825810
vt 0.985171 0.865029
vt 0.983601 0.870826
vt 0.983601 0.865029
vt 0.984656 0.802340
vt 0.983086 0.809795
vt 0.984656 0.809795
vt 0.983086 0.815774
vt 0.049660 0.194848
vt 0.062155 0.182179
vt 0.066728 0.199485
vt 0.985171 0.857618
vt 0.983601 0.857618
vt 0.985171 0.850577
vt 0.983601 0.850577
vt 0.941664 0.918157
vt 0.950637 0.919325
vt 0.948083 0.921914
vt 0.941664 0.946204
vt 0.933318 0.949741
vt 0.934253 0.946204
vt 0.927834 0.921914
vt 0.933318 0.914620
vt 0.934253 0.918157
vt 0.955278 0.936885
vt 0.948083 0.942446
vt 0.951789 0.935938
vt 0.924128 0.935938
vt 0.920639 0.927475
vt 0.924128 0.928423
vt 0.955278 0.927475
vt 0.951789 0.928423
vt 0.942599 0.914620
vt 0.925280 0.919325
vt 0.925280 0.945035
vt 0.927834 0.942446
vt 0.950637 0.945035
vt 0.985180 0.913672
vt 0.983959 0.923024
vt 0.983959 0.913672
vt 0.985180 0.939248
vt 0.983959 0.948593
vt 0.983959 0.939248
vt 0.985180 0.886757
vt 0.986401 0.879498
vt 0.986401 0.886757
vt 0.985180 0.923024
vt 0.983959 0.930601
vt 0.985180 0.948593
vt 0.983959 0.956133
vt 0.984656 0.820911
vt 0.985877 0.812230
vt 0.985877 0.820911
vt 0.984656 0.802895
vt 0.985877 0.795408
vt 0.985877 0.802895
vt 0.985180 0.904854
vt 0.986401 0.896038
vt 0.986401 0.904854
vt 0.985180 0.905050
vt 0.983959 0.905050
vt 0.984656 0.812230
vt 0.985180 0.930601
vt 0.985180 0.896038
vt 0.877081 0.859534
vt 0.875589 0.872147
vt 0.871981 0.868489
vt 0.104507 0.118641
vt 0.113370 0.119719
vt 0.110800 0.122325
vt 0.840510 0.872147
vt 0.839019 0.859534
vt 0.844118 0.868489
vt 0.113370 0.145061
vt 0.104507 0.146138
vt 0.110800 0.142455
vt 0.875589 0.836580
vt 0.877081 0.849193
vt 0.871981 0.840238
vt 0.083802 0.137028
vt 0.087313 0.128706
vt 0.087313 0.136074
vt 0.090947 0.122325
vt 0.096299 0.115081
vt 0.097240 0.118641
vt 0.863149 0.873660
vt 0.851630 0.878656
vt 0.852950 0.873660
vt 0.117945 0.127752
vt 0.114433 0.136074
vt 0.114433 0.128706
vt 0.839019 0.849193
vt 0.840510 0.836580
vt 0.844118 0.840238
vt 0.852950 0.835068
vt 0.864469 0.830071
vt 0.863149 0.835068
vt 0.097240 0.146138
vt 0.088376 0.145061
vt 0.090947 0.142455
vt 0.970216 0.787579
vt 0.965750 0.787579
vt 0.911634 0.936601
vt 0.916099 0.949538
vt 0.911634 0.949538
vt 0.177187 0.175465
vt 0.180368 0.184022
vt 0.177187 0.184022
vt 0.974083 0.914818
vt 0.969618 0.902857
vt 0.974083 0.902857
vt 0.139053 0.200204
vt 0.142235 0.207671
vt 0.139053 0.207671
vt 0.139053 0.182486
vt 0.142235 0.190985
vt 0.139053 0.190985
vt 0.965750 0.800418
vt 0.970216 0.810459
vt 0.965750 0.810459
vt 0.177187 0.193222
vt 0.180368 0.200602
vt 0.177187 0.200602
vt 0.974083 0.889928
vt 0.969618 0.879498
vt 0.177612 0.084804
vt 0.180794 0.093952
vt 0.177612 0.093952
vt 0.965153 0.926827
vt 0.969618 0.939740
vt 0.965153 0.939740
vt 0.183550 0.166942
vt 0.180368 0.157730
vt 0.183550 0.157730
vt 0.841496 0.972692
vt 0.839926 0.966642
vt 0.841496 0.966642
vt 0.839926 0.959173
vt 0.841496 0.959173
vt 0.839926 0.952288
vt 0.841496 0.952288
vt 0.983601 0.836092
vt 0.982031 0.836092
vt 0.983601 0.843555
vt 0.982031 0.843555
vt 0.983601 0.857392
vt 0.982031 0.850460
vt 0.983601 0.850460
vt 0.983601 0.830071
vt 0.985171 0.835867
vt 0.983601 0.835867
vt 0.983601 0.864847
vt 0.982031 0.857392
vt 0.982031 0.864847
vt 0.076583 0.202163
vt 0.069369 0.194848
vt 0.081864 0.182179
vt 0.985171 0.843279
vt 0.983601 0.843279
vt 0.985171 0.850319
vt 0.983601 0.850319
vt 0.948083 0.886793
vt 0.942599 0.879498
vt 0.950637 0.884204
vt 0.924128 0.900817
vt 0.925280 0.909914
vt 0.920639 0.901764
vt 0.951789 0.900817
vt 0.955278 0.892354
vt 0.955278 0.901764
vt 0.924128 0.893301
vt 0.925280 0.884204
vt 0.927834 0.886793
vt 0.941664 0.911082
vt 0.950637 0.909914
vt 0.941664 0.883036
vt 0.933318 0.879498
vt 0.951789 0.893301
vt 0.948083 0.907325
vt 0.934253 0.911082
vt 0.927834 0.907325
vt 0.920639 0.892354
vt 0.934253 0.883036
vt 0.983959 0.887075
vt 0.985180 0.896427
vt 0.983959 0.896427
vt 0.982738 0.956724
vt 0.983959 0.966070
vt 0.982738 0.966070
vt 0.986392 0.857836
vt 0.985171 0.857836
vt 0.985180 0.887075
vt 0.982738 0.949185
vt 0.983959 0.956724
vt 0.985171 0.841638
vt 0.986392 0.850319
vt 0.985171 0.824817
vt 0.986392 0.832304
vt 0.985171 0.832304
vt 0.985171 0.867117
vt 0.986392 0.875933
vt 0.985171 0.875933
vt 0.986392 0.841638
vt 0.983959 0.974717
vt 0.982738 0.974717
vt 0.986392 0.867117
vt 0.815271 0.873813
vt 0.827671 0.872147
vt 0.816551 0.878656
vt 0.056725 0.142534
vt 0.049660 0.137028
vt 0.053063 0.136103
vt 0.815271 0.834914
vt 0.827671 0.836580
vt 0.824174 0.840126
vt 0.080398 0.136103
vt 0.079228 0.145061
vt 0.076736 0.142534
vt 0.804992 0.873813
vt 0.792592 0.872147
vt 0.796089 0.868601
vt 0.063069 0.118532
vt 0.071305 0.115081
vt 0.070393 0.118532
vt 0.056725 0.122245
vt 0.049660 0.127752
vt 0.054234 0.119719
vt 0.829314 0.859575
vt 0.834091 0.847854
vt 0.834091 0.860873
vt 0.070393 0.146248
vt 0.062157 0.149699
vt 0.063069 0.146248
vt 0.796089 0.840126
vt 0.803712 0.830071
vt 0.804992 0.834914
vt 0.790950 0.859575
vt 0.786173 0.847854
vt 0.790950 0.849152
vt 0.080398 0.128677
vt 0.079228 0.119719
vt 0.083802 0.127752
vt 0.974681 0.787579
vt 0.920565 0.936601
vt 0.920565 0.949538
vt 0.183550 0.175465
vt 0.183550 0.184022
vt 0.965153 0.914818
vt 0.965153 0.902857
vt 0.145417 0.200204
vt 0.145417 0.207671
vt 0.145417 0.182486
vt 0.145417 0.190985
vt 0.974681 0.800418
vt 0.974681 0.810459
vt 0.183550 0.193222
vt 0.183550 0.200602
vt 0.965153 0.889928
vt 0.183975 0.084804
vt 0.183975 0.093952
vt 0.974083 0.926827
vt 0.974083 0.939740
vt 0.177187 0.166942
vt 0.177187 0.157730
vt 0.845371 0.867219
vt 0.853409 0.871924
vt 0.862690 0.836803
vt 0.853409 0.836803
vt 0.845371 0.841508
vt 0.840730 0.849658
vt 0.875369 0.859069
vt 0.875369 0.849658
vt 0.862690 0.871924
vt 0.840730 0.859069
vt 0.870728 0.841508
vt 0.870728 0.867219
vt 0.822810 0.841508
vt 0.829314 0.849152
vt 0.827451 0.849658
vt 0.792812 0.859069
vt 0.792812 0.849658
vt 0.797453 0.841508
vt 0.805491 0.836803
vt 0.814772 0.871924
vt 0.805491 0.871924
vt 0.827451 0.859069
vt 0.814772 0.836803
vt 0.797453 0.867219
vt 0.824174 0.868601
vt 0.822810 0.867219
vt 0.871121 0.975610
vt 0.839624 0.952288
vt 0.950265 0.973247
vt 0.796048 0.973369
vt 0.861246 0.975407
vt 0.930514 0.974896
vt 0.981516 0.825825
vt 0.975028 0.970123
vt 0.975028 0.971892
vt 0.839154 0.962301
vt 0.979257 0.810459
vt 0.951136 0.969766
vt 0.911634 0.970032
vt 0.851371 0.973100
vt 0.983782 0.775383
vt 0.825673 0.972674
vt 0.891884 0.973689
vt 0.965750 0.829393
vt 0.955168 0.949741
vt 0.983086 0.815812
vt 0.979946 0.805421
vt 0.985171 0.870826
vt 0.984656 0.815774
vt 0.062155 0.202163
vt 0.056874 0.202163
vt 0.052300 0.199485
vt 0.049660 0.189493
vt 0.052300 0.184856
vt 0.056874 0.182179
vt 0.066728 0.184856
vt 0.069369 0.189493
vt 0.942599 0.949741
vt 0.920639 0.936885
vt 0.985180 0.879498
vt 0.985180 0.956133
vt 0.882009 0.860873
vt 0.105448 0.115081
vt 0.105448 0.149699
vt 0.882009 0.847854
vt 0.088376 0.119719
vt 0.864469 0.878656
vt 0.117945 0.137028
vt 0.851630 0.830071
vt 0.096299 0.149699
vt 0.970216 0.775383
vt 0.916099 0.936601
vt 0.180368 0.175465
vt 0.969618 0.914818
vt 0.142235 0.200204
vt 0.142235 0.182486
vt 0.970216 0.800418
vt 0.180368 0.193222
vt 0.969618 0.889928
vt 0.180794 0.084804
vt 0.969618 0.926827
vt 0.180368 0.166942
vt 0.839926 0.972692
vt 0.985171 0.830071
vt 0.982031 0.870826
vt 0.086438 0.184856
vt 0.086438 0.199485
vt 0.089078 0.189493
vt 0.089078 0.194848
vt 0.081864 0.202163
vt 0.072009 0.199485
vt 0.072009 0.184856
vt 0.076583 0.182179
vt 0.986392 0.850577
vt 0.986392 0.824817
vt 0.054234 0.145061
vt 0.816551 0.830071
vt 0.803712 0.878656
vt 0.062157 0.115081
vt 0.053063 0.128677
vt 0.071305 0.149699
vt 0.792592 0.836580
vt 0.786173 0.860873
vt 0.076736 0.122245
s 1
usemtl Texture
f 15/1/1 2/2/1 1/3/1
f 15/1/1 3/4/1 2/2/1
f 4/5/1 6/6/1 5/7/1
f 4/5/1 7/8/1 6/6/1
f 3/4/1 7/8/1 4/5/1
f 3/4/1 8/9/1 7/8/1
f 14/10/1 10/11/1 15/1/1
f 10/11/1 3/4/1 15/1/1
f 14/10/1 11/12/1 10/11/1
f 9/13/1 3/4/1 10/11/1
f 9/13/1 8/9/1 3/4/1
f 14/10/1 12/14/1 11/12/1
f 13/15/1 12/14/1 14/10/1
f 23/16/1 17/17/1 16/18/1
f 23/16/1 18/19/1 17/17/1
f 23/16/1 19/20/1 18/19/1
f 22/21/1 19/20/1 23/16/1
f 21/22/1 19/20/1 22/21/1
f 21/22/1 20/23/1 19/20/1
f 52/24/1 25/25/1 24/26/1
f 49/27/1 51/28/1 50/29/1
f 49/27/1 52/24/1 51/28/1
f 49/27/1 25/25/1 52/24/1
f 48/30/1 26/31/1 49/27/1
f 26/31/1 25/25/1 49/27/1
f 27/32/1 26/31/1 48/30/1
f 47/33/1 27/32/1 48/30/1
f 47/33/1 28/34/1 27/32/1
f 46/35/1 28/34/1 47/33/1
f 46/35/1 29/36/1 28/34/1
f 46/35/1 30/37/1 29/36/1
f 45/38/1 30/37/1 46/35/1
f 45/38/1 31/39/1 30/37/1
f 44/40/1 31/39/1 45/38/1
f 44/40/1 32/41/1 31/39/1
f 43/42/1 32/41/1 44/40/1
f 38/43/1 40/44/1 39/45/1
f 43/42/1 33/46/1 32/41/1
f 42/47/1 33/46/1 43/42/1
f 38/43/1 37/48/1 40/44/1
f 41/49/1 33/46/1 42/47/1
f 37/48/1 41/49/1 40/44/1
f 37/48/1 33/46/1 41/49/1
f 37/48/1 34/50/1 33/46/1
f 37/48/1 35/51/1 34/50/1
f 36/52/1 35/51/1 37/48/1
f 63/53/1 54/54/1 53/55/1
f 63/53/1 55/56/1 54/54/1
f 62/57/1 66/58/1 63/53/1
f 66/58/1 55/56/1 63/53/1
f 62/57/1 64/59/1 66/58/1
f 65/60/1 55/56/1 66/58/1
f 62/57/1 59/61/1 64/59/1
f 59/61/1 65/60/1 64/59/1
f 59/61/1 58/62/1 65/60/1
f 58/62/1 55/56/1 65/60/1
f 62/57/1 60/63/1 59/61/1
f 57/64/1 55/56/1 58/62/1
f 62/57/1 61/65/1 60/63/1
f 56/66/1 55/56/1 57/64/1
f 77/67/1 79/68/1 78/69/1
f 75/70/1 77/67/1 76/71/1
f 74/72/1 77/67/1 75/70/1
f 74/72/1 80/73/1 77/67/1
f 80/73/1 79/68/1 77/67/1
f 81/74/1 80/73/1 74/72/1
f 74/72/1 82/75/1 81/74/1
f 73/76/1 82/75/1 74/72/1
f 73/76/1 83/77/1 82/75/1
f 73/76/1 84/78/1 83/77/1
f 72/79/1 84/78/1 73/76/1
f 72/79/1 85/80/1 84/78/1
f 71/81/1 85/80/1 72/79/1
f 87/82/1 67/83/1 88/84/1
f 71/81/1 86/85/1 85/80/1
f 86/85/1 67/83/1 87/82/1
f 71/81/1 67/83/1 86/85/1
f 70/86/1 67/83/1 71/81/1
f 69/87/1 67/83/1 70/86/1
f 69/87/1 68/88/1 67/83/1
f 155/89/2 162/17/2 168/90/2
f 155/89/2 168/90/2 113/91/2
f 158/92/2 163/93/2 159/94/2
f 158/92/2 159/94/2 136/95/2
f 113/91/2 158/92/2 136/95/2
f 113/91/2 136/95/2 126/96/2
f 154/97/2 155/89/2 111/98/2
f 111/98/2 155/89/2 113/91/2
f 154/97/2 111/98/2 112/99/2
f 114/100/2 111/98/2 113/91/2
f 114/100/2 113/91/2 126/96/2
f 154/97/2 112/99/2 175/101/2
f 176/102/2 154/97/2 175/101/2
f 108/103/2 107/18/2 172/104/2
f 108/103/2 172/104/2 156/105/2
f 108/103/2 156/105/2 138/106/2
f 150/107/2 108/103/2 138/106/2
f 157/22/2 150/107/2 138/106/2
f 157/22/2 138/106/2 161/108/2
f 94/109/2 110/110/2 109/111/2
f 93/112/2 129/113/2 130/114/2
f 93/112/2 130/114/2 94/109/2
f 93/112/2 94/109/2 109/111/2
f 90/115/2 93/112/2 89/116/2
f 89/116/2 93/112/2 109/111/2
f 131/117/2 90/115/2 89/116/2
f 153/118/2 90/115/2 131/117/2
f 153/118/2 131/117/2 151/119/2
f 171/120/2 153/118/2 151/119/2
f 171/120/2 151/119/2 152/121/2
f 171/120/2 152/121/2 134/122/2
f 140/123/2 171/120/2 134/122/2
f 140/123/2 134/122/2 135/124/2
f 139/125/2 140/123/2 135/124/2
f 139/125/2 135/124/2 169/126/2
f 147/127/2 139/125/2 169/126/2
f 165/128/2 124/129/2 115/130/2
f 147/127/2 169/126/2 128/131/2
f 146/132/2 147/127/2 128/131/2
f 165/128/2 115/130/2 100/133/2
f 137/134/2 146/132/2 128/131/2
f 100/133/2 115/130/2 137/134/2
f 100/133/2 137/134/2 128/131/2
f 100/133/2 128/131/2 99/135/2
f 100/133/2 99/135/2 127/136/2
f 160/137/2 100/133/2 127/136/2
f 123/138/2 164/139/2 142/140/2
f 123/138/2 142/140/2 97/141/2
f 106/142/2 123/138/2 143/143/2
f 143/143/2 123/138/2 97/141/2
f 106/142/2 143/143/2 102/144/2
f 132/145/2 143/143/2 97/141/2
f 106/142/2 102/144/2 101/146/2
f 101/146/2 102/144/2 132/145/2
f 101/146/2 132/145/2 166/147/2
f 166/147/2 132/145/2 97/141/2
f 106/142/2 101/146/2 105/148/2
f 98/149/2 166/147/2 97/141/2
f 106/142/2 105/148/2 174/150/2
f 122/151/2 98/149/2 97/141/2
f 121/152/2 167/153/2 95/154/2
f 173/155/2 120/156/2 121/152/2
f 103/157/2 173/155/2 121/152/2
f 103/157/2 121/152/2 96/158/2
f 96/158/2 121/152/2 95/154/2
f 141/159/2 103/157/2 96/158/2
f 103/157/2 141/159/2 104/160/2
f 125/161/2 103/157/2 104/160/2
f 125/161/2 104/160/2 118/162/2
f 125/161/2 118/162/2 119/163/2
f 148/164/2 125/161/2 119/163/2
f 148/164/2 119/163/2 149/165/2
f 145/166/2 148/164/2 149/165/2
f 91/167/2 92/168/2 133/169/2
f 145/166/2 149/165/2 144/170/2
f 144/170/2 91/167/2 133/169/2
f 145/166/2 144/170/2 133/169/2
f 170/171/2 145/166/2 133/169/2
f 117/172/2 170/171/2 133/169/2
f 117/172/2 133/169/2 116/173/2
f 104/174/3 81/175/3 82/176/3
f 143/177/4 65/178/4 66/179/4
f 109/180/5 24/181/5 25/182/5
f 172/183/6 16/184/6 17/185/6
f 96/186/7 79/187/7 80/188/7
f 173/189/8 74/190/8 75/191/8
f 150/192/9 21/193/9 22/194/9
f 147/178/10 42/195/10 43/196/10
f 101/197/11 58/198/11 59/199/11
f 111/200/12 9/201/12 10/202/12
f 146/203/13 41/204/13 42/205/13
f 160/206/14 35/207/14 36/208/14
f 103/209/15 73/210/15 74/190/15
f 107/211/16 23/212/16 16/213/16
f 167/214/17 77/215/17 78/216/17
f 89/217/18 25/218/18 26/219/18
f 154/220/19 13/221/19 14/222/19
f 110/223/20 52/224/20 24/225/20
f 168/213/6 1/226/6 2/211/6
f 112/227/21 10/228/21 11/229/21
f 95/230/22 78/231/22 79/232/22
f 97/233/23 54/234/23 55/235/23
f 94/236/24 51/237/24 52/224/24
f 113/238/25 2/239/25 3/234/25
f 156/240/26 17/194/26 18/241/26
f 123/242/27 62/243/27 63/244/27
f 152/245/28 28/246/28 29/247/28
f 105/248/29 59/199/29 60/249/29
f 138/250/21 18/251/21 19/252/21
f 117/253/30 68/254/30 69/255/30
f 155/256/31 14/257/31 15/258/31
f 136/259/32 6/260/32 7/221/32
f 119/261/33 83/262/33 84/263/33
f 125/255/34 72/264/34 73/104/34
f 151/265/35 27/266/35 28/267/35
f 121/268/36 76/269/36 77/215/36
f 145/270/37 70/271/37 71/272/37
f 120/273/38 75/191/38 76/269/38
f 93/274/39 48/275/39 49/276/39
f 122/277/11 55/278/11 56/279/11
f 102/280/40 66/281/40 64/282/40
f 126/244/21 7/283/21 8/223/21
f 115/284/41 39/285/41 40/286/41
f 129/287/42 49/276/42 50/288/42
f 100/289/43 36/208/43 37/290/43
f 108/291/31 22/292/31 23/212/31
f 149/293/44 84/263/44 85/294/44
f 116/295/45 67/296/45 68/254/45
f 158/297/31 3/249/31 4/298/31
f 164/196/46 63/299/46 53/300/46
f 98/301/47 56/302/47 57/303/47
f 127/304/48 34/305/48 35/207/48
f 161/306/49 19/252/49 20/307/49
f 162/182/50 15/258/50 1/180/50
f 99/308/51 33/309/51 34/305/51
f 174/310/52 60/311/52 61/312/52
f 130/313/53 50/288/53 51/237/53
f 133/314/54 88/315/54 67/316/54
f 131/317/55 26/219/55 27/266/55
f 148/318/56 71/272/56 72/264/56
f 90/319/57 47/320/57 48/275/57
f 132/321/6 64/322/6 65/323/6
f 134/324/58 29/325/58 30/309/58
f 163/326/59 4/298/59 5/327/59
f 142/328/6 53/323/6 54/329/6
f 153/330/60 46/331/60 47/332/60
f 135/333/61 30/334/61 31/335/61
f 169/336/62 31/335/62 32/337/62
f 114/338/11 8/339/11 9/285/11
f 157/340/11 20/341/11 21/342/11
f 175/343/63 11/229/63 12/344/63
f 91/345/64 86/346/64 87/347/64
f 137/348/65 40/202/65 41/204/65
f 118/349/66 82/176/66 83/350/66
f 128/351/67 32/337/67 33/352/67
f 171/353/68 45/354/68 46/331/68
f 165/355/69 37/290/69 38/356/69
f 139/357/70 43/358/70 44/320/70
f 106/359/11 61/360/11 62/251/11
f 144/193/71 85/294/71 86/361/71
f 166/248/72 57/312/72 58/362/72
f 159/363/6 5/329/6 6/364/6
f 124/365/31 38/366/31 39/367/31
f 140/368/73 44/301/73 45/354/73
f 170/369/74 69/370/74 70/271/74
f 141/371/75 80/372/75 81/175/75
f 176/373/11 12/364/11 13/374/11
f 92/375/76 87/347/76 88/372/76
f 187/376/77 188/246/77 190/377/77
f 185/378/78 190/377/78 192/379/78
f 183/380/79 192/379/79 194/381/79
f 181/382/80 194/187/80 196/383/80
f 179/384/81 196/383/81 198/385/81
f 195/386/82 180/387/82 182/380/82
f 177/388/83 198/385/83 200/389/83
f 193/390/84 182/391/84 184/392/84
f 199/393/85 178/394/85 180/387/85
f 197/395/86 200/396/86 178/394/86
f 198/397/2 190/398/2 182/399/2
f 191/400/87 184/392/87 186/401/87
f 189/402/88 186/401/88 188/403/88
f 183/404/2 205/405/2 185/406/2
f 193/407/2 210/408/2 195/409/2
f 179/410/2 203/411/2 181/412/2
f 207/413/2 191/414/2 189/415/2
f 197/416/2 201/417/2 177/418/2
f 185/406/2 206/419/2 187/420/2
f 181/412/2 204/421/2 183/404/2
f 177/418/2 202/422/2 179/410/2
f 195/409/2 212/423/2 199/424/2
f 208/425/2 193/407/2 191/414/2
f 206/419/2 189/415/2 187/420/2
f 212/423/2 197/416/2 199/424/2
f 217/426/78 206/427/78 205/428/78
f 214/429/81 203/430/81 202/431/81
f 221/432/84 210/433/84 209/434/84
f 218/435/77 207/436/77 206/427/77
f 215/437/80 204/438/80 203/430/80
f 222/439/82 212/440/82 210/441/82
f 223/442/86 201/443/86 211/444/86
f 219/445/88 208/446/88 207/447/88
f 216/448/79 205/428/79 204/449/79
f 224/450/85 211/444/85 212/440/85
f 213/451/83 202/431/83 201/436/83
f 220/452/87 209/434/87 208/446/87
f 309/453/2 230/454/2 310/455/2
f 311/456/2 227/457/2 312/458/2
f 233/459/2 314/460/2 313/461/2
f 230/462/2 315/463/2 310/464/2
f 227/465/2 316/466/2 312/467/2
f 234/468/2 317/469/2 314/470/2
f 318/471/2 225/472/2 319/473/2
f 315/474/2 232/475/2 320/476/2
f 228/477/2 309/478/2 316/479/2
f 317/480/2 235/481/2 318/482/2
f 319/483/2 226/484/2 311/485/2
f 320/486/2 233/487/2 313/488/2
f 225/306/88 307/489/88 226/490/88
f 236/491/78 298/492/78 235/493/78
f 228/494/82 304/495/82 229/496/82
f 231/497/83 301/498/83 232/499/83
f 235/500/77 308/501/77 225/502/77
f 234/503/79 297/504/79 236/505/79
f 227/506/84 305/507/84 228/508/84
f 230/509/86 302/510/86 231/511/86
f 233/512/80 299/513/80 234/374/80
f 226/514/87 306/515/87 227/516/87
f 229/517/85 303/518/85 230/519/85
f 232/520/81 300/521/81 233/522/81
f 248/523/77 247/524/77 250/525/77
f 250/525/78 245/526/78 252/527/78
f 252/527/79 243/528/79 254/529/79
f 254/253/80 241/530/80 256/531/80
f 256/531/81 239/532/81 258/533/81
f 240/534/82 255/535/82 242/536/82
f 258/533/83 237/536/83 260/535/83
f 242/537/84 253/538/84 244/539/84
f 238/540/85 259/541/85 240/534/85
f 260/391/86 257/542/86 238/540/86
f 250/543/1 254/544/1 238/545/1
f 244/539/87 251/546/87 246/547/87
f 246/547/88 249/548/88 248/549/88
f 243/550/1 265/551/1 264/552/1
f 253/553/1 270/554/1 269/555/1
f 239/556/1 263/557/1 262/558/1
f 251/559/1 267/560/1 249/561/1
f 257/562/1 261/563/1 271/421/1
f 245/564/1 266/565/1 265/551/1
f 241/566/1 264/552/1 263/557/1
f 237/567/1 262/558/1 261/563/1
f 259/568/1 270/554/1 255/569/1
f 253/553/1 268/570/1 251/559/1
f 249/561/1 266/565/1 247/571/1
f 257/562/1 272/411/1 259/568/1
f 266/572/78 277/573/78 265/574/78
f 263/575/81 274/576/81 262/577/81
f 270/402/84 281/578/84 269/579/84
f 267/373/77 278/580/77 266/572/77
f 264/581/80 275/582/80 263/575/80
f 272/583/82 282/584/82 270/548/82
f 261/585/86 283/586/86 271/587/86
f 268/588/88 279/589/88 267/590/88
f 265/574/79 276/448/79 264/449/79
f 271/587/85 284/591/85 272/583/85
f 262/577/83 273/592/83 261/593/83
f 269/579/87 280/594/87 268/588/87
f 321/595/1 290/596/1 289/597/1
f 324/598/1 286/599/1 323/600/1
f 326/601/1 293/602/1 325/603/1
f 327/604/1 290/605/1 322/606/1
f 328/607/1 287/608/1 324/609/1
f 329/610/1 294/611/1 326/612/1
f 330/613/1 285/614/1 295/615/1
f 327/616/1 292/617/1 291/618/1
f 321/619/1 288/620/1 328/621/1
f 330/622/1 296/623/1 329/624/1
f 323/625/1 285/626/1 331/627/1
f 332/628/1 293/629/1 292/630/1
f 307/489/88 285/338/88 286/631/88
f 298/492/78 296/632/78 295/633/78
f 304/495/82 288/634/82 289/635/82
f 301/498/83 291/636/83 292/637/83
f 308/501/77 295/638/77 285/639/77
f 297/504/79 294/640/79 296/641/79
f 305/507/84 287/642/84 288/643/84
f 302/510/86 290/644/86 291/645/86
f 299/513/80 293/646/80 294/214/80
f 306/515/87 286/647/87 287/648/87
f 303/518/85 289/649/85 290/650/85
f 300/521/81 292/651/81 293/652/81
f 320/476/2 221/653/2 220/654/2
f 319/483/2 214/655/2 213/656/2
f 317/480/2 223/657/2 224/658/2
f 316/466/2 217/659/2 216/660/2
f 315/474/2 220/654/2 219/661/2
f 318/482/2 213/656/2 223/657/2
f 222/662/2 317/480/2 224/658/2
f 312/467/2 216/660/2 215/663/2
f 310/455/2 219/661/2 218/664/2
f 221/653/2 314/460/2 222/662/2
f 311/485/2 215/663/2 214/655/2
f 217/659/2 310/455/2 218/664/2
f 281/665/1 332/666/1 280/667/1
f 274/668/1 331/627/1 273/669/1
f 283/670/1 329/624/1 284/671/1
f 277/672/1 328/607/1 276/673/1
f 280/667/1 327/616/1 279/674/1
f 283/670/1 331/627/1 330/622/1
f 282/675/1 329/624/1 326/601/1
f 276/673/1 324/609/1 275/676/1
f 279/674/1 322/677/1 278/678/1
f 281/665/1 326/601/1 325/603/1
f 274/668/1 324/609/1 323/625/1
f 277/672/1 322/677/1 321/595/1
f 104/174/3 141/371/3 81/175/3
f 143/177/4 132/375/4 65/178/4
f 109/180/5 110/679/5 24/181/5
f 172/183/6 107/296/6 16/184/6
f 96/186/7 95/381/7 79/187/7
f 173/189/8 103/209/8 74/190/8
f 150/192/9 157/260/9 21/193/9
f 147/178/10 146/680/10 42/195/10
f 101/197/11 166/681/11 58/198/11
f 111/200/12 114/210/12 9/201/12
f 146/203/13 137/348/13 41/204/13
f 160/206/14 127/304/14 35/207/14
f 103/209/15 125/201/15 73/210/15
f 107/211/16 108/291/16 23/212/16
f 167/214/17 121/268/17 77/215/17
f 89/217/18 109/682/18 25/218/18
f 154/220/19 176/259/19 13/221/19
f 110/223/20 94/236/20 52/224/20
f 168/213/6 162/683/6 1/226/6
f 112/227/21 111/684/21 10/228/21
f 95/230/22 167/322/22 78/231/22
f 97/233/23 142/238/23 54/234/23
f 94/236/24 130/313/24 51/237/24
f 113/238/25 168/366/25 2/239/25
f 156/240/26 172/192/26 17/194/26
f 123/242/27 106/278/27 62/243/27
f 152/245/28 151/685/28 28/246/28
f 105/248/29 101/197/29 59/199/29
f 138/250/21 156/359/21 18/251/21
f 117/253/30 116/295/30 68/254/30
f 155/256/31 154/292/31 14/257/31
f 136/259/32 159/686/32 6/260/32
f 119/261/33 118/687/33 83/262/33
f 125/255/34 148/318/34 72/264/34
f 151/265/35 131/317/35 27/266/35
f 121/268/36 120/273/36 76/269/36
f 145/270/37 170/369/37 70/271/37
f 120/273/38 173/189/38 75/191/38
f 93/274/39 90/319/39 48/275/39
f 122/277/11 97/243/11 55/278/11
f 102/280/40 143/283/40 66/281/40
f 126/244/21 136/281/21 7/283/21
f 115/284/41 124/186/41 39/285/41
f 129/287/42 93/274/42 49/276/42
f 100/289/43 160/206/43 36/208/43
f 108/291/31 150/355/31 22/292/31
f 149/293/44 119/261/44 84/263/44
f 116/295/45 133/184/45 67/296/45
f 158/297/31 113/343/31 3/249/31
f 164/196/46 123/688/46 63/299/46
f 98/301/47 122/689/47 56/302/47
f 127/304/48 99/308/48 34/305/48
f 161/306/49 138/250/49 19/252/49
f 162/182/50 155/256/50 15/258/50
f 99/308/51 128/324/51 33/309/51
f 174/310/52 105/690/52 60/311/52
f 130/313/53 129/287/53 50/288/53
f 133/314/54 92/691/54 88/315/54
f 131/317/55 89/217/55 26/219/55
f 148/318/56 145/270/56 71/272/56
f 90/319/57 153/357/57 47/320/57
f 132/321/6 102/231/6 64/322/6
f 134/324/58 152/692/58 29/325/58
f 163/326/59 158/297/59 4/298/59
f 142/328/6 164/321/6 53/323/6
f 153/330/60 171/353/60 46/331/60
f 135/333/61 134/265/61 30/334/61
f 169/336/62 135/333/62 31/335/62
f 114/338/11 126/693/11 8/339/11
f 157/340/11 161/370/11 20/341/11
f 175/343/63 112/227/63 11/229/63
f 91/345/64 144/694/64 86/346/64
f 137/348/65 115/200/65 40/202/65
f 118/349/66 104/174/66 82/176/66
f 128/351/67 169/336/67 32/337/67
f 171/353/68 140/368/68 45/354/68
f 165/355/69 100/289/69 37/290/69
f 139/357/70 147/695/70 43/358/70
f 106/359/11 174/696/11 61/360/11
f 144/193/71 149/293/71 85/294/71
f 166/248/72 98/697/72 57/312/72
f 159/363/6 163/328/6 5/329/6
f 124/365/31 165/239/31 38/366/31
f 140/368/73 139/508/73 44/301/73
f 170/369/74 117/341/74 69/370/74
f 141/371/75 96/334/75 80/372/75
f 176/373/11 175/363/11 12/364/11
f 92/375/76 91/345/76 87/347/76
f 187/376/77 189/698/77 188/246/77
f 185/378/78 187/376/78 190/377/78
f 183/380/79 185/378/79 192/379/79
f 181/382/80 183/699/80 194/187/80
f 179/384/81 181/382/81 196/383/81
f 195/386/82 199/393/82 180/387/82
f 177/388/83 179/384/83 198/385/83
f 193/390/84 195/700/84 182/391/84
f 199/393/85 197/395/85 178/394/85
f 197/395/86 177/701/86 200/396/86
f 182/399/2 180/702/2 178/703/2
f 178/703/2 200/704/2 182/399/2
f 200/704/2 198/397/2 182/399/2
f 198/397/2 196/705/2 190/398/2
f 196/705/2 194/706/2 190/398/2
f 194/706/2 192/707/2 190/398/2
f 190/398/2 188/708/2 186/709/2
f 186/709/2 184/544/2 182/399/2
f 190/398/2 186/709/2 182/399/2
f 191/400/87 193/390/87 184/392/87
f 189/402/88 191/400/88 186/401/88
f 183/404/2 204/421/2 205/405/2
f 193/407/2 209/710/2 210/408/2
f 179/410/2 202/422/2 203/411/2
f 207/413/2 208/425/2 191/414/2
f 197/416/2 211/711/2 201/417/2
f 185/406/2 205/405/2 206/419/2
f 181/412/2 203/411/2 204/421/2
f 177/418/2 201/417/2 202/422/2
f 195/409/2 210/408/2 212/423/2
f 208/425/2 209/710/2 193/407/2
f 206/419/2 207/413/2 189/415/2
f 212/423/2 211/711/2 197/416/2
f 217/426/78 218/435/78 206/427/78
f 214/429/81 215/437/81 203/430/81
f 221/432/84 222/712/84 210/433/84
f 218/435/77 219/451/77 207/436/77
f 215/437/80 216/713/80 204/438/80
f 222/439/82 224/450/82 212/440/82
f 223/442/86 213/386/86 201/443/86
f 219/445/88 220/452/88 208/446/88
f 216/448/79 217/426/79 205/428/79
f 224/450/85 223/442/85 211/444/85
f 213/451/83 214/429/83 202/431/83
f 220/452/87 221/432/87 209/434/87
f 309/453/2 229/714/2 230/454/2
f 311/456/2 226/715/2 227/457/2
f 233/459/2 234/618/2 314/460/2
f 230/462/2 231/716/2 315/463/2
f 227/465/2 228/717/2 316/466/2
f 234/468/2 236/630/2 317/469/2
f 318/471/2 235/718/2 225/472/2
f 315/474/2 231/719/2 232/475/2
f 228/477/2 229/720/2 309/478/2
f 317/480/2 236/617/2 235/481/2
f 319/483/2 225/721/2 226/484/2
f 320/486/2 232/722/2 233/487/2
f 225/306/88 308/723/88 307/489/88
f 236/491/78 297/724/78 298/492/78
f 228/494/82 305/725/82 304/495/82
f 231/497/83 302/726/83 301/498/83
f 235/500/77 298/727/77 308/501/77
f 234/503/79 299/728/79 297/504/79
f 227/506/84 306/729/84 305/507/84
f 230/509/86 303/730/86 302/510/86
f 233/512/80 300/731/80 299/513/80
f 226/514/87 307/732/87 306/515/87
f 229/517/85 304/733/85 303/518/85
f 232/520/81 301/734/81 300/521/81
f 248/523/77 249/735/77 247/524/77
f 250/525/78 247/524/78 245/526/78
f 252/527/79 245/526/79 243/528/79
f 254/253/80 243/537/80 241/530/80
f 256/531/81 241/530/81 239/532/81
f 240/534/82 259/541/82 255/535/82
f 258/533/83 239/532/83 237/536/83
f 242/537/84 255/736/84 253/538/84
f 238/540/85 257/542/85 259/541/85
f 260/391/86 237/737/86 257/542/86
f 238/545/1 240/738/1 246/739/1
f 240/738/1 242/740/1 246/739/1
f 242/740/1 244/741/1 246/739/1
f 246/739/1 248/742/1 250/543/1
f 250/543/1 252/743/1 254/544/1
f 254/544/1 256/709/1 238/545/1
f 256/709/1 258/744/1 238/545/1
f 258/744/1 260/745/1 238/545/1
f 246/739/1 250/543/1 238/545/1
f 244/539/87 253/538/87 251/546/87
f 246/547/88 251/546/88 249/548/88
f 243/550/1 245/564/1 265/551/1
f 253/553/1 255/569/1 270/554/1
f 239/556/1 241/566/1 263/557/1
f 251/559/1 268/570/1 267/560/1
f 257/562/1 237/567/1 261/563/1
f 245/564/1 247/571/1 266/565/1
f 241/566/1 243/550/1 264/552/1
f 237/567/1 239/556/1 262/558/1
f 259/568/1 272/411/1 270/554/1
f 253/553/1 269/555/1 268/570/1
f 249/561/1 267/560/1 266/565/1
f 257/562/1 271/421/1 272/411/1
f 266/572/78 278/580/78 277/573/78
f 263/575/81 275/582/81 274/576/81
f 270/402/84 282/746/84 281/578/84
f 267/373/77 279/712/77 278/580/77
f 264/581/80 276/232/80 275/582/80
f 272/583/82 284/591/82 282/584/82
f 261/585/86 273/747/86 283/586/86
f 268/588/88 280/594/88 279/589/88
f 265/574/79 277/573/79 276/448/79
f 271/587/85 283/586/85 284/591/85
f 262/577/83 274/576/83 273/592/83
f 269/579/87 281/578/87 280/594/87
f 321/595/1 322/677/1 290/596/1
f 324/598/1 287/748/1 286/599/1
f 326/601/1 294/749/1 293/602/1
f 327/604/1 291/468/1 290/605/1
f 328/607/1 288/750/1 287/608/1
f 329/610/1 296/751/1 294/611/1
f 330/613/1 331/752/1 285/614/1
f 327/616/1 332/666/1 292/617/1
f 321/619/1 289/753/1 288/620/1
f 330/622/1 295/754/1 296/623/1
f 323/625/1 286/755/1 285/626/1
f 332/628/1 325/756/1 293/629/1
f 307/489/88 308/723/88 285/338/88
f 298/492/78 297/724/78 296/632/78
f 304/495/82 305/725/82 288/634/82
f 301/498/83 302/726/83 291/636/83
f 308/501/77 298/727/77 295/638/77
f 297/504/79 299/728/79 294/640/79
f 305/507/84 306/729/84 287/642/84
f 302/510/86 303/730/86 290/644/86
f 299/513/80 300/731/80 293/646/80
f 306/515/87 307/732/87 286/647/87
f 303/518/85 304/733/85 289/649/85
f 300/521/81 301/734/81 292/651/81
f 320/476/2 313/461/2 221/653/2
f 319/483/2 311/485/2 214/655/2
f 317/480/2 318/482/2 223/657/2
f 316/466/2 309/453/2 217/659/2
f 315/474/2 320/476/2 220/654/2
f 318/482/2 319/483/2 213/656/2
f 222/662/2 314/460/2 317/480/2
f 312/467/2 316/466/2 216/660/2
f 310/455/2 315/474/2 219/661/2
f 221/653/2 313/461/2 314/460/2
f 311/485/2 312/467/2 215/663/2
f 217/659/2 309/453/2 310/455/2
f 281/665/1 325/603/1 332/666/1
f 274/668/1 323/625/1 331/627/1
f 283/670/1 330/622/1 329/624/1
f 277/672/1 321/595/1 328/607/1
f 280/667/1 332/666/1 327/616/1
f 283/670/1 273/669/1 331/627/1
f 282/675/1 284/671/1 329/624/1
f 276/673/1 328/607/1 324/609/1
f 279/674/1 327/616/1 322/677/1
f 281/665/1 282/675/1 326/601/1
f 274/668/1 275/676/1 324/609/1
f 277/672/1 278/678/1 322/677/1
