# Blender 5.0.1
# www.blender.org
mtllib FrontTire.mtl
o Cylinder.001
v -0.212952 -0.094970 0.704765
v -0.137278 -0.094970 0.704765
v -0.212952 -0.053247 0.714288
v -0.137278 -0.053247 0.714288
v -0.212952 -0.019787 0.740971
v -0.137278 -0.019787 0.740971
v -0.212952 -0.001218 0.779530
v -0.137278 -0.001218 0.779530
v -0.212952 -0.001218 0.822326
v -0.137278 -0.001218 0.822326
v -0.212952 -0.019787 0.860885
v -0.137278 -0.019787 0.860885
v -0.212952 -0.053247 0.887568
v -0.137278 -0.053247 0.887568
v -0.212952 -0.094970 0.897091
v -0.137278 -0.094970 0.897091
v -0.212952 -0.136694 0.887568
v -0.137278 -0.136694 0.887568
v -0.212952 -0.170154 0.860885
v -0.137278 -0.170154 0.860885
v -0.212952 -0.188723 0.822326
v -0.137278 -0.188723 0.822326
v -0.212952 -0.188723 0.779530
v -0.137278 -0.188723 0.779530
v -0.212952 -0.170154 0.740971
v -0.137278 -0.170154 0.740971
v -0.212952 -0.136694 0.714288
v -0.137278 -0.136694 0.714288
v -0.212952 -0.094970 0.731064
v -0.212952 -0.064658 0.737983
v -0.212952 -0.040349 0.757368
v -0.212952 -0.026858 0.785382
v -0.212952 -0.026858 0.816474
v -0.212952 -0.040349 0.844487
v -0.212952 -0.064658 0.863873
v -0.212952 -0.094970 0.870792
v -0.212952 -0.125283 0.863873
v -0.212952 -0.149592 0.844487
v -0.212952 -0.163083 0.816474
v -0.212952 -0.163083 0.785382
v -0.212952 -0.149592 0.757368
v -0.212952 -0.125283 0.737983
v -0.183349 -0.094970 0.731064
v -0.183349 -0.064658 0.737983
v -0.183349 -0.125283 0.737983
v -0.183349 -0.040349 0.757368
v -0.183349 -0.026858 0.785382
v -0.183349 -0.026858 0.816474
v -0.183349 -0.040349 0.844487
v -0.183349 -0.064658 0.863873
v -0.183349 -0.094970 0.870792
v -0.183349 -0.125283 0.863873
v -0.183349 -0.149592 0.844487
v -0.183349 -0.163083 0.816474
v -0.183349 -0.163083 0.785382
v -0.183349 -0.149592 0.757368
v -0.183349 -0.094970 0.776620
v -0.183349 -0.084424 0.779027
v -0.183349 -0.075966 0.785772
v -0.183349 -0.071272 0.795519
v -0.183349 -0.071272 0.806337
v -0.183349 -0.075966 0.816084
v -0.183349 -0.084424 0.822828
v -0.183349 -0.094970 0.825236
v -0.183349 -0.105517 0.822828
v -0.183349 -0.113975 0.816084
v -0.183349 -0.118669 0.806337
v -0.183349 -0.118669 0.795519
v -0.183349 -0.113975 0.785772
v -0.183349 -0.105517 0.779027
v -0.192574 -0.094970 0.776620
v -0.192574 -0.084424 0.779027
v -0.192574 -0.105517 0.779027
v -0.192574 -0.075966 0.785772
v -0.192574 -0.071272 0.795519
v -0.192574 -0.071272 0.806337
v -0.192574 -0.075966 0.816084
v -0.192574 -0.084424 0.822828
v -0.192574 -0.094970 0.825236
v -0.192574 -0.105517 0.822828
v -0.192574 -0.113975 0.816084
v -0.192574 -0.118669 0.806337
v -0.192574 -0.118669 0.795519
v -0.192574 -0.113975 0.785772
v -0.174296 -0.094970 0.731064
v -0.174296 -0.064658 0.737983
v -0.174296 -0.040349 0.757368
v -0.174296 -0.026858 0.785382
v -0.174296 -0.026858 0.816474
v -0.174296 -0.040349 0.844487
v -0.174296 -0.064658 0.863873
v -0.174296 -0.094970 0.870792
v -0.174296 -0.125283 0.863873
v -0.174296 -0.149592 0.844487
v -0.174296 -0.163083 0.816474
v -0.174296 -0.163083 0.785382
v -0.174296 -0.149592 0.757368
v -0.174296 -0.125283 0.737983
v -0.174296 -0.094970 0.776620
v -0.174296 -0.084424 0.779027
v -0.174296 -0.075966 0.785772
v -0.174296 -0.071272 0.795519
v -0.174296 -0.071272 0.806337
v -0.174296 -0.075966 0.816084
v -0.174296 -0.084424 0.822828
v -0.174296 -0.094970 0.825236
v -0.174296 -0.105517 0.822828
v -0.174296 -0.113975 0.816084
v -0.174296 -0.118669 0.806337
v -0.174296 -0.118669 0.795519
v -0.174296 -0.113975 0.785772
v -0.174296 -0.105517 0.779027
v 0.244130 -0.094970 0.897966
v 0.168456 -0.094970 0.897966
v 0.244130 -0.053247 0.888443
v 0.168456 -0.053247 0.888443
v 0.244130 -0.019787 0.861760
v 0.168456 -0.019787 0.861760
v 0.244130 -0.001218 0.823201
v 0.168456 -0.001218 0.823201
v 0.244130 -0.001218 0.780405
v 0.168456 -0.001218 0.780405
v 0.244130 -0.019787 0.741846
v 0.168456 -0.019787 0.741846
v 0.244130 -0.053247 0.715163
v 0.168456 -0.053247 0.715163
v 0.244130 -0.094970 0.705640
v 0.168456 -0.094970 0.705640
v 0.244130 -0.136694 0.715163
v 0.168456 -0.136694 0.715163
v 0.244130 -0.170154 0.741846
v 0.168456 -0.170154 0.741846
v 0.244130 -0.188723 0.780405
v 0.168456 -0.188723 0.780405
v 0.244130 -0.188723 0.823201
v 0.168456 -0.188723 0.823201
v 0.244130 -0.170154 0.861760
v 0.168456 -0.170154 0.861760
v 0.244130 -0.136694 0.888443
v 0.168456 -0.136694 0.888443
v 0.244130 -0.094970 0.871667
v 0.244130 -0.064658 0.864748
v 0.244130 -0.040349 0.845363
v 0.244130 -0.026858 0.817349
v 0.244130 -0.026858 0.786257
v 0.244130 -0.040349 0.758244
v 0.244130 -0.064658 0.738858
v 0.244130 -0.094970 0.731939
v 0.244130 -0.125283 0.738858
v 0.244130 -0.149592 0.758244
v 0.244130 -0.163083 0.786257
v 0.244130 -0.163083 0.817349
v 0.244130 -0.149592 0.845363
v 0.244130 -0.125283 0.864748
v 0.214527 -0.094970 0.871667
v 0.214527 -0.064658 0.864748
v 0.214527 -0.125283 0.864748
v 0.214527 -0.040349 0.845363
v 0.214527 -0.026858 0.817349
v 0.214527 -0.026858 0.786257
v 0.214527 -0.040349 0.758244
v 0.214527 -0.064658 0.738858
v 0.214527 -0.094970 0.731939
v 0.214527 -0.125283 0.738858
v 0.214527 -0.149592 0.758244
v 0.214527 -0.163083 0.786257
v 0.214527 -0.163083 0.817349
v 0.214527 -0.149592 0.845363
v 0.214527 -0.094970 0.826111
v 0.214527 -0.084424 0.823704
v 0.214527 -0.075966 0.816959
v 0.214527 -0.071272 0.807212
v 0.214527 -0.071272 0.796394
v 0.214527 -0.075966 0.786647
v 0.214527 -0.084424 0.779903
v 0.214527 -0.094970 0.777495
v 0.214527 -0.105517 0.779903
v 0.214527 -0.113975 0.786647
v 0.214527 -0.118669 0.796394
v 0.214527 -0.118669 0.807212
v 0.214527 -0.113975 0.816959
v 0.214527 -0.105517 0.823704
v 0.223752 -0.094970 0.826111
v 0.223752 -0.084424 0.823704
v 0.223752 -0.105517 0.823704
v 0.223752 -0.075966 0.816959
v 0.223752 -0.071272 0.807212
v 0.223752 -0.071272 0.796394
v 0.223752 -0.075966 0.786647
v 0.223752 -0.084424 0.779903
v 0.223752 -0.094970 0.777495
v 0.223752 -0.105517 0.779903
v 0.223752 -0.113975 0.786647
v 0.223752 -0.118669 0.796394
v 0.223752 -0.118669 0.807212
v 0.223752 -0.113975 0.816959
v 0.205474 -0.094970 0.871667
v 0.205474 -0.064658 0.864748
v 0.205474 -0.040349 0.845363
v 0.205474 -0.026858 0.817349
v 0.205474 -0.026858 0.786257
v 0.205474 -0.040349 0.758244
v 0.205474 -0.064658 0.738858
v 0.205474 -0.094970 0.731939
v 0.205474 -0.125283 0.738858
v 0.205474 -0.149592 0.758244
v 0.205474 -0.163083 0.786257
v 0.205474 -0.163083 0.817349
v 0.205474 -0.149592 0.845363
v 0.205474 -0.125283 0.864748
v 0.205474 -0.094970 0.826111
v 0.205474 -0.084424 0.823704
v 0.205474 -0.075966 0.816959
v 0.205474 -0.071272 0.807212
v 0.205474 -0.071272 0.796394
v 0.205474 -0.075966 0.786647
v 0.205474 -0.084424 0.779903
v 0.205474 -0.094970 0.777495
v 0.205474 -0.105517 0.779903
v 0.205474 -0.113975 0.786647
v 0.205474 -0.118669 0.796394
v 0.205474 -0.118669 0.807212
v 0.205474 -0.113975 0.816959
v 0.205474 -0.105517 0.823704
vn -0.0000 -0.2225 0.9749
vn -0.0000 -0.6235 -0.7818
vn -0.0000 0.9010 0.4339
vn -0.0000 1.0000 -0.0000
vn -0.0000 -0.9010 0.4339
vn -0.0000 -0.2225 -0.9749
vn -0.0000 0.2225 0.9749
vn -0.0000 0.6235 -0.7818
vn -0.0000 0.6235 0.7818
vn -1.0000 -0.0000 -0.0000
vn -0.0000 0.2225 -0.9749
vn -0.0000 -0.6235 0.7818
vn -0.0000 -1.0000 -0.0000
vn -0.0000 -0.9010 -0.4339
vn 1.0000 -0.0000 -0.0000
vn -0.0000 0.9010 -0.4339
vn -0.0000 0.2226 0.9749
vn -0.0000 0.6234 0.7819
vn -0.0000 -0.2226 0.9749
vn -0.0000 -0.6234 0.7819
vn -0.0000 0.2226 -0.9749
vn -0.0000 0.6234 -0.7819
vn -0.0000 -0.2226 -0.9749
vn -0.0000 -0.6234 -0.7819
vt 0.006088 0.759161
vt 0.124423 0.759161
vt 0.124423 0.819457
vt 0.793666 0.720798
vt 0.793666 0.769419
vt 0.747374 0.769419
vt 0.385447 0.692238
vt 0.267112 0.692238
vt 0.267112 0.631941
vt 0.761531 0.333037
vt 0.761531 0.289231
vt 0.807822 0.289231
vt 0.880447 0.826885
vt 0.880447 0.870692
vt 0.866291 0.870692
vt 0.793666 0.813224
vt 0.747374 0.813224
vt 0.385447 0.819456
vt 0.267112 0.819456
vt 0.267112 0.759161
vt 0.866291 0.734460
vt 0.866291 0.778265
vt 0.819999 0.778265
vt 0.865709 0.066384
vt 0.747374 0.066384
vt 0.747374 0.006088
vt 0.834156 0.381658
vt 0.834156 0.333038
vt 0.880447 0.333038
vt 0.925393 0.816089
vt 0.941244 0.885541
vt 0.892624 0.885541
vt 0.067278 0.088347
vt 0.046183 0.132153
vt 0.006088 0.123001
vt 0.006088 0.189925
vt 0.046184 0.180773
vt 0.067279 0.224579
vt 0.152693 0.306838
vt 0.087448 0.291946
vt 0.105291 0.254894
vt 0.152693 0.265712
vt 0.200095 0.254893
vt 0.217939 0.291947
vt 0.270262 0.250220
vt 0.035125 0.062706
vt 0.087448 0.020980
vt 0.105293 0.058032
vt 0.967264 0.157170
vt 0.918645 0.157170
vt 0.934496 0.087718
vt 0.238109 0.224579
vt 0.259204 0.180774
vt 0.299298 0.189925
vt 0.259204 0.132152
vt 0.035126 0.250221
vt 0.152693 0.006088
vt 0.217938 0.020980
vt 0.200094 0.058032
vt 0.834156 0.289231
vt 0.880447 0.289231
vt 0.761531 0.455778
vt 0.761531 0.425463
vt 0.807822 0.425463
vt 0.006088 0.692238
vt 0.124423 0.692238
vt 0.616862 0.518473
vt 0.735197 0.518473
vt 0.735197 0.560198
vt 0.616862 0.391253
vt 0.735197 0.391253
vt 0.735197 0.458176
vt 0.865709 0.193603
vt 0.747374 0.193603
vt 0.747374 0.133308
vt 0.394363 0.901085
vt 0.345742 0.901085
vt 0.361595 0.831633
vt 0.793666 0.646678
vt 0.793666 0.676992
vt 0.747374 0.676992
vt 0.807822 0.676992
vt 0.807822 0.720798
vt 0.616862 0.289231
vt 0.735197 0.289231
vt 0.735197 0.330957
vt 0.735197 0.906375
vt 0.719344 0.975827
vt 0.702427 0.975827
vt 0.834156 0.425465
vt 0.880447 0.381658
vt 0.458080 0.306838
vt 0.340513 0.250221
vt 0.392835 0.020980
vt 0.616862 0.330957
vt 0.747374 0.720798
vt 0.006088 0.631941
vt 0.124423 0.631941
vt 0.866291 0.826885
vt 0.819999 0.870692
vt 0.385447 0.759161
vt 0.616862 0.458176
vt 0.747374 0.333037
vt 0.747374 0.289231
vt 0.299298 0.123001
vt 0.238108 0.088347
vt 0.515957 0.913261
vt 0.500104 0.982713
vt 0.483188 0.982713
vt 0.840943 0.277055
vt 0.824026 0.277055
vt 0.808173 0.207603
vt 0.908478 0.734460
vt 0.925395 0.734460
vt 0.941245 0.803912
vt 0.270261 0.062706
vt 0.152694 0.047214
vt 0.807822 0.769419
vt 0.807822 0.813224
vt 0.747374 0.425463
vt 0.747374 0.381657
vt 0.761531 0.381657
vt 0.807822 0.381657
vt 0.819999 0.826885
vt 0.819999 0.381658
vt 0.819999 0.333038
vt 0.807822 0.333037
vt 0.865709 0.133308
vt 0.880447 0.734460
vt 0.880447 0.778265
vt 0.604685 0.123001
vt 0.575648 0.062706
vt 0.523326 0.020981
vt 0.458080 0.006088
vt 0.340512 0.062706
vt 0.311475 0.123001
vt 0.311475 0.189925
vt 0.392836 0.291947
vt 0.575649 0.250220
vt 0.523326 0.291947
vt 0.604685 0.189925
vt 0.006088 0.819457
vt 0.385447 0.631941
vt 0.819999 0.734460
vt 0.865709 0.006088
vt 0.908476 0.816089
vt 0.951411 0.087719
vt 0.807822 0.455778
vt 0.616862 0.560198
vt 0.378511 0.831634
vt 0.747374 0.646678
vt 0.686577 0.906375
vt 0.880447 0.425465
vt 0.467337 0.913261
vt 0.856795 0.207603
vt 0.892624 0.803912
vt 0.953422 0.494776
vt 0.953422 0.423538
vt 0.967578 0.423538
vt 0.892624 0.608496
vt 0.892624 0.593254
vt 0.907050 0.593254
vt 0.194138 0.928504
vt 0.194138 0.945421
vt 0.179712 0.945421
vt 0.908474 0.423538
vt 0.925391 0.423538
vt 0.941245 0.492990
vt 0.194138 0.960662
vt 0.179712 0.960662
vt 0.877886 0.128218
vt 0.877886 0.112976
vt 0.892312 0.112976
vt 0.780143 0.277055
vt 0.763226 0.277055
vt 0.747374 0.207603
vt 0.020245 0.913263
vt 0.020245 0.977447
vt 0.006088 0.977447
vt 0.165556 0.945421
vt 0.165556 0.928504
vt 0.179712 0.928504
vt 0.365780 0.960661
vt 0.365780 0.945420
vt 0.379937 0.945420
vt 0.967578 0.821357
vt 0.967578 0.885541
vt 0.953421 0.885541
vt 0.394363 0.913262
vt 0.394363 0.928504
vt 0.379937 0.928504
vt 0.394363 0.945420
vt 0.394363 0.960661
vt 0.379937 0.960661
vt 0.260178 0.913262
vt 0.260178 0.977446
vt 0.246021 0.977446
vt 0.365780 0.928504
vt 0.365780 0.913262
vt 0.379937 0.913262
vt 0.847679 0.952321
vt 0.831827 0.882869
vt 0.880447 0.882869
vt 0.906468 0.128218
vt 0.906468 0.138765
vt 0.892312 0.138765
vt 0.528136 0.898864
vt 0.576756 0.898864
vt 0.560906 0.968316
vt 0.267112 0.901086
vt 0.282965 0.831634
vt 0.299882 0.831633
vt 0.906468 0.006088
vt 0.906468 0.070271
vt 0.892312 0.070271
vt 0.670412 0.844326
vt 0.637427 0.844326
vt 0.616862 0.801620
vt 0.979441 0.233530
vt 0.979441 0.169347
vt 0.993598 0.169347
vt 0.877886 0.080818
vt 0.877886 0.070271
vt 0.877886 0.096059
vt 0.892312 0.096059
vt 0.624202 0.786379
vt 0.690979 0.818537
vt 0.892624 0.640655
vt 0.892624 0.625412
vt 0.907050 0.625412
vt 0.206315 0.901085
vt 0.222167 0.831634
vt 0.239083 0.831633
vt 0.066886 0.831634
vt 0.115507 0.831634
vt 0.099655 0.901085
vt 0.877886 0.138765
vt 0.892312 0.128218
vt 0.907050 0.608496
vt 0.194138 0.913262
vt 0.979755 0.717014
vt 0.979755 0.652831
vt 0.993912 0.652831
vt 0.979441 0.157170
vt 0.979441 0.092987
vt 0.993598 0.092987
vt 0.089174 0.913263
vt 0.089174 0.977446
vt 0.075017 0.977446
vt 0.921206 0.608496
vt 0.921206 0.625412
vt 0.286511 0.913262
vt 0.286511 0.977446
vt 0.272355 0.977446
vt 0.953421 0.807483
vt 0.953421 0.736245
vt 0.967578 0.736245
vt 0.892312 0.080818
vt 0.906468 0.202949
vt 0.892312 0.202949
vt 0.953421 0.961902
vt 0.953421 0.897718
vt 0.967578 0.897718
vt 0.906468 0.096059
vt 0.906468 0.112976
vt 0.683639 0.786379
vt 0.670413 0.775831
vt 0.653922 0.772067
vt 0.637429 0.775831
vt 0.616862 0.818537
vt 0.624203 0.833778
vt 0.653920 0.848089
vt 0.683639 0.833779
vt 0.690979 0.801620
vt 0.906468 0.080818
vt 0.993911 0.897718
vt 0.993911 0.961900
vt 0.979754 0.961900
vt 0.967578 0.494776
vt 0.892624 0.492990
vt 0.795996 0.207603
vt 0.006088 0.913263
vt 0.953421 0.821357
vt 0.246021 0.913262
vt 0.864596 0.952321
vt 0.543989 0.968316
vt 0.315733 0.901086
vt 0.892312 0.006088
vt 0.993598 0.233530
vt 0.907050 0.640655
vt 0.254935 0.901085
vt 0.082739 0.901086
vt 0.179712 0.913262
vt 0.993912 0.717014
vt 0.993598 0.157170
vt 0.075017 0.913263
vt 0.272355 0.913262
vt 0.967578 0.807483
vt 0.967578 0.961902
vt 0.979754 0.897718
vt 0.735197 0.108110
vt 0.616862 0.108110
vt 0.616862 0.047814
vt 0.834156 0.678477
vt 0.834156 0.629856
vt 0.880447 0.629856
vt 0.397624 0.692237
vt 0.515959 0.692237
vt 0.515959 0.759161
vt 0.574428 0.631941
vt 0.574428 0.675746
vt 0.528136 0.675746
vt 0.747374 0.542076
vt 0.747374 0.498269
vt 0.761531 0.498269
vt 0.834156 0.586051
vt 0.880447 0.586051
vt 0.735197 0.047814
vt 0.616862 0.006088
vt 0.761531 0.634501
vt 0.761531 0.590696
vt 0.807822 0.590696
vt 0.136600 0.692238
vt 0.254935 0.692238
vt 0.254935 0.759161
vt 0.574428 0.724369
vt 0.574428 0.768173
vt 0.528136 0.768173
vt 0.908476 0.967170
vt 0.892624 0.897718
vt 0.941244 0.897718
vt 0.259204 0.445079
vt 0.238109 0.401274
vt 0.270262 0.375633
vt 0.217939 0.333906
vt 0.200095 0.370960
vt 0.152693 0.360141
vt 0.035126 0.375632
vt 0.087449 0.333906
vt 0.105293 0.370959
vt 0.067279 0.401274
vt 0.046184 0.445080
vt 0.006088 0.435928
vt 0.006088 0.502852
vt 0.299298 0.435928
vt 0.299298 0.502852
vt 0.259204 0.493701
vt 0.918645 0.169347
vt 0.967265 0.169347
vt 0.951414 0.238800
vt 0.046183 0.493700
vt 0.067278 0.537506
vt 0.035125 0.563147
vt 0.105293 0.567821
vt 0.152693 0.319015
vt 0.270261 0.563147
vt 0.217939 0.604872
vt 0.200096 0.567820
vt 0.574428 0.798488
vt 0.528136 0.798488
vt 0.866291 0.437641
vt 0.866291 0.481448
vt 0.819999 0.481448
vt 0.735197 0.175033
vt 0.616862 0.175033
vt 0.735197 0.277055
vt 0.616862 0.277055
vt 0.616862 0.235330
vt 0.735197 0.699594
vt 0.616862 0.699594
vt 0.616862 0.632671
vt 0.397624 0.759161
vt 0.515959 0.819456
vt 0.145517 0.831633
vt 0.194138 0.831633
vt 0.178285 0.901085
vt 0.761531 0.467955
vt 0.807822 0.467955
vt 0.819999 0.722283
vt 0.819999 0.678477
vt 0.136600 0.759161
vt 0.254935 0.819456
vt 0.933383 0.358683
vt 0.949236 0.289231
vt 0.966153 0.289232
vt 0.528136 0.724369
vt 0.458080 0.319015
vt 0.575648 0.375632
vt 0.523326 0.604873
vt 0.735197 0.759890
vt 0.616862 0.759890
vt 0.834156 0.722283
vt 0.880447 0.678477
vt 0.735197 0.235330
vt 0.761531 0.542076
vt 0.807822 0.498269
vt 0.397624 0.631941
vt 0.515959 0.631941
vt 0.735197 0.632671
vt 0.616862 0.572375
vt 0.588584 0.631941
vt 0.588584 0.675746
vt 0.087448 0.604873
vt 0.152694 0.578639
vt 0.406541 0.982713
vt 0.422394 0.913261
vt 0.439309 0.913262
vt 0.763226 0.825400
vt 0.780143 0.825401
vt 0.795996 0.894853
vt 0.925391 0.574619
vt 0.908474 0.574618
vt 0.892624 0.505167
vt 0.152693 0.619765
vt 0.238108 0.537506
vt 0.819999 0.629856
vt 0.819999 0.586051
vt 0.880447 0.481448
vt 0.880447 0.530068
vt 0.866291 0.530068
vt 0.819999 0.530068
vt 0.807822 0.542076
vt 0.588584 0.724369
vt 0.588584 0.768173
vt 0.866291 0.573874
vt 0.819999 0.573874
vt 0.136600 0.631941
vt 0.254935 0.631941
vt 0.747374 0.634501
vt 0.747374 0.590696
vt 0.311475 0.502852
vt 0.340513 0.563147
vt 0.392835 0.604872
vt 0.458080 0.619765
vt 0.575649 0.563147
vt 0.604685 0.502852
vt 0.604685 0.435928
vt 0.523325 0.333906
vt 0.340512 0.375633
vt 0.392835 0.333906
vt 0.311475 0.435928
vt 0.528136 0.631941
vt 0.735197 0.006088
vt 0.807822 0.634501
vt 0.925393 0.967170
vt 0.934498 0.238799
vt 0.819999 0.437641
vt 0.397624 0.819456
vt 0.161369 0.901084
vt 0.136600 0.819456
vt 0.982003 0.358683
vt 0.880447 0.722283
vt 0.735197 0.572375
vt 0.455160 0.982713
vt 0.747374 0.894853
vt 0.941245 0.505167
vt 0.603089 0.898864
vt 0.603089 0.963048
vt 0.588933 0.963048
vt 0.735197 0.804225
vt 0.735197 0.819467
vt 0.720772 0.819467
vt 0.325021 0.928504
vt 0.325021 0.913262
vt 0.339447 0.913262
vt 0.925395 0.722283
vt 0.908478 0.722283
vt 0.892624 0.652831
vt 0.892624 0.411361
vt 0.892624 0.396120
vt 0.907050 0.396120
vt 0.897554 0.229654
vt 0.897554 0.244896
vt 0.883128 0.244896
vt 0.483190 0.831633
vt 0.500107 0.831633
vt 0.515959 0.901085
vt 0.032422 0.977447
vt 0.032422 0.913263
vt 0.046578 0.913263
vt 0.353604 0.913262
vt 0.353604 0.928504
vt 0.339447 0.928504
vt 0.921206 0.353415
vt 0.921206 0.363963
vt 0.907050 0.363963
vt 0.139222 0.977446
vt 0.139222 0.913262
vt 0.153379 0.913262
vt 0.892624 0.379203
vt 0.907050 0.379203
vt 0.892624 0.363963
vt 0.892624 0.353415
vt 0.907050 0.353415
vt 0.219688 0.977446
vt 0.219688 0.913262
vt 0.233845 0.913262
vt 0.921206 0.379203
vt 0.921206 0.396120
vt 0.951413 0.006088
vt 0.967265 0.075541
vt 0.918645 0.075541
vt 0.706615 0.830015
vt 0.706615 0.819467
vt 0.795994 0.976481
vt 0.747374 0.976481
vt 0.763224 0.907030
vt 0.455160 0.831632
vt 0.439308 0.901084
vt 0.422391 0.901085
vt 0.979755 0.571136
vt 0.979755 0.506953
vt 0.993912 0.506953
vt 0.528136 0.840217
vt 0.548702 0.814428
vt 0.594913 0.824975
vt 0.993598 0.006088
vt 0.993598 0.070272
vt 0.979442 0.070272
vt 0.325021 0.960661
vt 0.325021 0.945421
vt 0.339447 0.945421
vt 0.897554 0.261813
vt 0.883128 0.261813
vt 0.602253 0.840217
vt 0.535476 0.872375
vt 0.735197 0.772067
vt 0.735197 0.787310
vt 0.720772 0.787310
vt 0.054709 0.831634
vt 0.038857 0.901085
vt 0.021941 0.901086
vt 0.665483 0.929718
vt 0.616862 0.929718
vt 0.632714 0.860266
vt 0.735197 0.830015
vt 0.720772 0.830015
vt 0.720772 0.804225
vt 0.967578 0.652831
vt 0.967578 0.724069
vt 0.953421 0.724069
vt 0.921206 0.289231
vt 0.706615 0.894198
vt 0.706615 0.804225
vt 0.706615 0.787310
vt 0.101350 0.977446
vt 0.101350 0.913263
vt 0.115507 0.913263
vt 0.993912 0.430594
vt 0.993912 0.494776
vt 0.979755 0.494776
vt 0.897554 0.277055
vt 0.883128 0.277055
vt 0.298688 0.977446
vt 0.298688 0.913262
vt 0.312845 0.913262
vt 0.967578 0.506953
vt 0.967578 0.578191
vt 0.953421 0.578191
vt 0.868972 0.261813
vt 0.868972 0.244896
vt 0.565195 0.886687
vt 0.581688 0.882922
vt 0.594913 0.872376
vt 0.602253 0.857134
vt 0.581686 0.814428
vt 0.565194 0.810665
vt 0.535477 0.824977
vt 0.528136 0.857134
vt 0.548702 0.882923
vt 0.353604 0.945421
vt 0.353604 0.960661
vt 0.339447 0.960661
vt 0.979754 0.885540
vt 0.979754 0.821357
vt 0.993911 0.821357
vt 0.588933 0.898864
vt 0.941245 0.652831
vt 0.907050 0.411361
vt 0.883128 0.229654
vt 0.467337 0.901085
vt 0.046578 0.977447
vt 0.153379 0.977446
vt 0.233845 0.977446
vt 0.934497 0.006088
vt 0.780141 0.907029
vt 0.406539 0.831632
vt 0.993912 0.571136
vt 0.979442 0.006088
vt 0.720772 0.772067
vt 0.006088 0.831634
vt 0.649631 0.860266
vt 0.953421 0.652831
vt 0.907050 0.289231
vt 0.720772 0.894198
vt 0.115507 0.977446
vt 0.979755 0.430594
vt 0.312845 0.977446
vt 0.953421 0.506953
vt 0.993911 0.885540
s 1
usemtl Tire_mat
f 17/1/1 18/2/1 16/3/1
f 49/4/2 50/5/2 35/6/2
f 11/7/3 12/8/3 10/9/3
f 54/10/4 55/11/4 40/12/4
f 87/13/5 88/14/5 47/15/5
f 50/5/6 51/16/6 36/17/6
f 15/18/7 16/19/7 14/20/7
f 43/21/1 44/22/1 30/23/1
f 5/24/8 6/25/8 4/26/8
f 56/27/9 45/28/9 42/29/9
f 110/30/10 96/31/10 95/32/10
f 32/33/10 33/34/10 9/35/10
f 11/36/10 34/37/10 35/38/10
f 17/39/10 15/40/10 36/41/10
f 37/42/10 38/43/10 19/44/10
f 21/45/10 19/44/10 38/43/10
f 7/46/10 5/47/10 31/48/10
f 92/49/10 91/50/10 105/51/10
f 39/52/10 40/53/10 23/54/10
f 23/54/10 40/53/10 41/55/10
f 13/56/10 35/38/10 36/41/10
f 3/57/10 1/58/10 29/59/10
f 45/28/7 43/60/7 29/61/7
f 51/62/11 52/63/11 37/64/11
f 19/65/12 20/66/12 18/2/12
f 23/67/13 24/68/13 22/69/13
f 27/70/2 28/71/2 26/72/2
f 9/73/4 10/74/4 8/75/4
f 94/76/10 93/77/10 107/78/10
f 47/79/13 48/80/13 33/81/13
f 89/82/14 90/83/14 49/4/14
f 3/84/11 4/85/11 2/86/11
f 9/35/10 33/34/10 34/37/10
f 97/87/10 111/88/10 112/89/10
f 55/90/3 56/27/3 41/91/3
f 14/92/15 18/93/15 26/94/15
f 1/95/6 2/86/6 28/71/6
f 48/80/14 49/4/14 34/96/14
f 21/97/5 22/98/5 20/66/5
f 46/99/5 47/15/5 32/100/5
f 13/101/9 14/20/9 12/8/9
f 25/102/14 26/72/14 24/68/14
f 95/103/4 96/104/4 55/11/4
f 25/105/10 41/55/10 42/106/10
f 85/107/10 99/108/10 100/109/10
f 101/110/10 102/111/10 88/112/10
f 103/113/10 104/114/10 90/115/10
f 27/116/10 42/106/10 29/59/10
f 30/117/10 31/48/10 5/47/10
f 91/118/6 92/119/6 51/16/6
f 93/120/8 94/121/8 53/122/8
f 52/63/8 53/122/8 38/123/8
f 44/22/12 46/99/12 31/124/12
f 97/125/9 98/126/9 45/28/9
f 53/122/16 54/10/16 39/127/16
f 7/128/16 8/75/16 6/25/16
f 85/129/1 86/130/1 44/22/1
f 6/131/15 26/94/15 4/132/15
f 4/132/15 26/94/15 2/133/15
f 2/133/15 26/94/15 28/134/15
f 26/94/15 18/93/15 24/135/15
f 24/135/15 18/93/15 22/136/15
f 22/136/15 18/93/15 20/137/15
f 18/93/15 14/92/15 16/138/15
f 14/92/15 10/139/15 12/140/15
f 10/139/15 26/94/15 8/141/15
f 8/141/15 26/94/15 6/131/15
f 17/1/1 16/3/1 15/142/1
f 49/4/2 35/6/2 34/96/2
f 11/7/3 10/9/3 9/143/3
f 54/10/4 40/12/4 39/127/4
f 87/13/5 47/15/5 46/99/5
f 50/5/6 36/17/6 35/6/6
f 15/18/7 14/20/7 13/101/7
f 43/21/1 30/23/1 29/144/1
f 5/24/8 4/26/8 3/145/8
f 56/27/9 42/29/9 41/91/9
f 110/30/10 95/32/10 109/146/10
f 32/33/10 9/35/10 7/46/10
f 11/36/10 35/38/10 13/56/10
f 17/39/10 36/41/10 37/42/10
f 37/42/10 19/44/10 17/39/10
f 21/45/10 38/43/10 39/52/10
f 7/46/10 31/48/10 32/33/10
f 92/49/10 105/51/10 106/147/10
f 39/52/10 23/54/10 21/45/10
f 23/54/10 41/55/10 25/105/10
f 13/56/10 36/41/10 15/40/10
f 3/57/10 29/59/10 30/117/10
f 45/28/7 29/61/7 42/29/7
f 51/62/11 37/64/11 36/148/11
f 19/65/12 18/2/12 17/1/12
f 23/67/13 22/69/13 21/149/13
f 27/70/2 26/72/2 25/102/2
f 9/73/4 8/75/4 7/128/4
f 94/76/10 107/78/10 108/150/10
f 47/79/13 33/81/13 32/151/13
f 89/82/14 49/4/14 48/80/14
f 3/84/11 2/86/11 1/95/11
f 9/35/10 34/37/10 11/36/10
f 97/87/10 112/89/10 98/152/10
f 55/90/3 41/91/3 40/153/3
f 14/92/15 26/94/15 10/139/15
f 1/95/6 28/71/6 27/70/6
f 48/80/14 34/96/14 33/81/14
f 21/97/5 20/66/5 19/65/5
f 46/99/5 32/100/5 31/124/5
f 13/101/9 12/8/9 11/7/9
f 25/102/14 24/68/14 23/67/14
f 95/103/4 55/11/4 54/10/4
f 25/105/10 42/106/10 27/116/10
f 85/107/10 100/109/10 86/154/10
f 101/110/10 88/112/10 87/155/10
f 103/113/10 90/115/10 89/156/10
f 27/116/10 29/59/10 1/58/10
f 30/117/10 5/47/10 3/57/10
f 91/118/6 51/16/6 50/5/6
f 93/120/8 53/122/8 52/63/8
f 52/63/8 38/123/8 37/64/8
f 44/22/12 31/124/12 30/23/12
f 97/125/9 45/28/9 56/27/9
f 53/122/16 39/127/16 38/123/16
f 7/128/16 6/25/16 5/24/16
f 85/129/1 44/22/1 43/21/1
f 101/157/9 87/158/9 46/159/9
f 81/160/5 82/161/5 67/162/5
f 74/163/16 75/164/16 60/165/16
f 66/166/10 67/167/10 54/168/10
f 75/164/4 76/169/4 61/170/4
f 83/171/14 84/172/14 69/173/14
f 68/174/10 69/175/10 56/176/10
f 88/177/6 102/178/6 60/179/6
f 102/180/16 101/181/16 59/182/16
f 106/183/17 105/184/17 63/185/17
f 103/186/1 89/187/1 48/188/1
f 76/189/3 77/190/3 62/191/3
f 78/192/17 79/193/17 64/194/17
f 105/195/5 91/196/5 50/197/5
f 104/198/3 103/199/3 61/200/3
f 77/190/18 78/192/18 63/185/18
f 61/201/10 48/202/10 47/203/10
f 110/204/13 109/205/13 67/206/13
f 46/207/10 44/208/10 58/209/10
f 51/210/10 64/211/10 65/212/10
f 86/213/14 100/214/14 58/215/14
f 81/216/10 79/217/10 76/218/10
f 99/219/4 85/220/4 43/221/4
f 71/222/11 72/223/11 58/215/11
f 84/172/2 73/224/2 70/225/2
f 76/218/10 75/226/10 83/227/10
f 79/228/19 80/229/19 65/230/19
f 49/231/10 62/232/10 63/233/10
f 43/234/10 45/235/10 70/236/10
f 82/237/13 83/171/13 68/238/13
f 80/229/20 81/160/20 66/239/20
f 72/240/8 74/163/8 59/182/8
f 90/241/8 104/242/8 62/243/8
f 92/244/4 106/245/4 64/246/4
f 96/247/1 110/248/1 68/249/1
f 108/250/20 107/251/20 65/230/20
f 107/252/14 93/253/14 52/254/14
f 94/255/9 108/256/9 66/257/9
f 73/224/6 71/222/6 57/258/6
f 109/205/6 95/259/6 54/260/6
f 111/261/8 97/262/8 56/263/8
f 112/264/2 111/265/2 69/173/2
f 73/266/10 75/226/10 71/267/10
f 71/267/10 75/226/10 72/268/10
f 72/268/10 75/226/10 74/269/10
f 76/218/10 79/217/10 77/270/10
f 77/270/10 79/217/10 78/271/10
f 79/217/10 81/216/10 80/272/10
f 81/216/10 83/227/10 82/273/10
f 83/227/10 73/266/10 84/274/10
f 100/214/11 99/275/11 57/258/11
f 83/227/10 75/226/10 73/266/10
f 98/276/5 112/277/5 70/278/5
f 101/157/9 46/159/9 59/279/9
f 81/160/5 67/162/5 66/239/5
f 74/163/16 60/165/16 59/182/16
f 66/166/10 54/168/10 53/280/10
f 75/164/4 61/170/4 60/165/4
f 83/171/14 69/173/14 68/238/14
f 68/174/10 56/176/10 55/281/10
f 88/177/6 60/179/6 47/282/6
f 102/180/16 59/182/16 60/165/16
f 106/183/17 63/185/17 64/194/17
f 103/186/1 48/188/1 61/283/1
f 76/189/3 62/191/3 61/200/3
f 78/192/17 64/194/17 63/185/17
f 105/195/5 50/197/5 63/284/5
f 104/198/3 61/200/3 62/191/3
f 77/190/18 63/185/18 62/191/18
f 61/201/10 47/203/10 60/285/10
f 110/204/13 67/206/13 68/238/13
f 46/207/10 58/209/10 59/286/10
f 51/210/10 65/212/10 52/287/10
f 86/213/14 58/215/14 44/288/14
f 99/219/4 43/221/4 57/289/4
f 71/222/11 58/215/11 57/258/11
f 84/172/2 70/225/2 69/173/2
f 76/218/10 83/227/10 81/216/10
f 79/228/19 65/230/19 64/290/19
f 49/231/10 63/233/10 50/291/10
f 43/234/10 70/236/10 57/292/10
f 82/237/13 68/238/13 67/206/13
f 80/229/20 66/239/20 65/230/20
f 72/240/8 59/182/8 58/293/8
f 90/241/8 62/243/8 49/294/8
f 92/244/4 64/246/4 51/295/4
f 96/247/1 68/249/1 55/296/1
f 108/250/20 65/230/20 66/239/20
f 107/252/14 52/254/14 65/297/14
f 94/255/9 66/257/9 53/298/9
f 73/224/6 57/258/6 70/225/6
f 109/205/6 54/260/6 67/206/6
f 111/261/8 56/263/8 69/299/8
f 112/264/2 69/173/2 70/225/2
f 100/214/11 57/258/11 58/215/11
f 98/276/5 70/278/5 45/300/5
f 129/301/6 130/302/6 128/303/6
f 161/304/12 162/305/12 147/306/12
f 123/307/16 124/308/16 122/309/16
f 166/310/4 167/311/4 152/312/4
f 199/313/14 200/314/14 159/315/14
f 162/305/1 163/316/1 148/317/1
f 127/318/11 128/303/11 126/319/11
f 155/320/6 156/321/6 142/322/6
f 117/323/9 118/324/9 116/325/9
f 168/326/8 157/327/8 154/328/8
f 222/329/15 208/330/15 207/331/15
f 144/332/15 145/333/15 121/334/15
f 123/335/15 146/336/15 147/337/15
f 129/338/15 127/339/15 148/340/15
f 149/341/15 150/342/15 131/343/15
f 133/344/15 131/343/15 150/342/15
f 119/345/15 117/346/15 143/347/15
f 204/348/15 203/349/15 217/350/15
f 151/351/15 152/352/15 135/353/15
f 135/353/15 152/352/15 153/354/15
f 125/355/15 147/337/15 148/340/15
f 115/356/15 113/357/15 141/358/15
f 157/327/11 155/359/11 141/360/11
f 163/361/7 164/362/7 149/363/7
f 131/364/2 132/365/2 130/302/2
f 135/366/13 136/367/13 134/368/13
f 139/369/12 140/370/12 138/371/12
f 121/372/4 122/309/4 120/373/4
f 206/374/15 205/375/15 219/376/15
f 159/315/13 160/377/13 145/378/13
f 201/379/5 202/380/5 161/304/5
f 115/381/7 116/325/7 114/382/7
f 121/334/15 145/333/15 146/336/15
f 209/383/15 223/384/15 224/385/15
f 167/311/16 168/326/16 153/386/16
f 126/387/10 130/388/10 138/389/10
f 113/390/1 114/391/1 140/370/1
f 160/392/5 161/304/5 146/393/5
f 133/394/14 134/368/14 132/365/14
f 158/395/14 159/315/14 144/396/14
f 125/397/8 126/398/8 124/308/8
f 137/399/5 138/371/5 136/400/5
f 207/401/4 208/402/4 167/311/4
f 137/403/15 153/354/15 154/404/15
f 197/405/15 211/406/15 212/407/15
f 213/408/15 214/409/15 200/410/15
f 215/411/15 216/412/15 202/413/15
f 139/414/15 154/404/15 141/358/15
f 142/415/15 143/347/15 117/346/15
f 203/416/1 204/417/1 163/316/1
f 205/418/9 206/419/9 165/420/9
f 164/362/9 165/420/9 150/421/9
f 156/321/2 158/395/2 143/422/2
f 209/423/8 210/424/8 157/327/8
f 165/420/3 166/425/3 151/426/3
f 119/427/3 120/428/3 118/324/3
f 197/429/6 198/430/6 156/321/6
f 118/431/10 138/389/10 116/432/10
f 116/432/10 138/389/10 114/433/10
f 114/433/10 138/389/10 140/434/10
f 138/389/10 130/388/10 136/435/10
f 136/435/10 130/388/10 134/436/10
f 134/436/10 130/388/10 132/437/10
f 130/388/10 126/387/10 128/438/10
f 126/387/10 122/439/10 124/440/10
f 122/439/10 138/389/10 120/441/10
f 120/441/10 138/389/10 118/431/10
f 129/301/6 128/303/6 127/318/6
f 161/304/12 147/306/12 146/393/12
f 123/307/16 122/309/16 121/372/16
f 166/310/4 152/312/4 151/442/4
f 199/313/14 159/315/14 158/395/14
f 162/305/1 148/317/1 147/306/1
f 127/318/11 126/319/11 125/443/11
f 155/320/6 142/322/6 141/444/6
f 117/323/9 116/325/9 115/381/9
f 168/326/8 154/328/8 153/386/8
f 222/329/15 207/331/15 221/445/15
f 144/332/15 121/334/15 119/345/15
f 123/335/15 147/337/15 125/355/15
f 129/338/15 148/340/15 149/341/15
f 149/341/15 131/343/15 129/338/15
f 133/344/15 150/342/15 151/351/15
f 119/345/15 143/347/15 144/332/15
f 204/348/15 217/350/15 218/446/15
f 151/351/15 135/353/15 133/344/15
f 135/353/15 153/354/15 137/403/15
f 125/355/15 148/340/15 127/339/15
f 115/356/15 141/358/15 142/415/15
f 157/327/11 141/360/11 154/328/11
f 163/361/7 149/363/7 148/447/7
f 131/364/2 130/302/2 129/301/2
f 135/366/13 134/368/13 133/394/13
f 139/369/12 138/371/12 137/399/12
f 121/372/4 120/373/4 119/448/4
f 206/374/15 219/376/15 220/449/15
f 159/315/13 145/378/13 144/396/13
f 201/379/5 161/304/5 160/392/5
f 115/381/7 114/382/7 113/450/7
f 121/334/15 146/336/15 123/335/15
f 209/383/15 224/385/15 210/451/15
f 167/311/16 153/386/16 152/312/16
f 126/387/10 138/389/10 122/439/10
f 113/390/1 140/370/1 139/369/1
f 160/392/5 146/393/5 145/452/5
f 133/394/14 132/365/14 131/364/14
f 158/395/14 144/396/14 143/422/14
f 125/397/8 124/308/8 123/307/8
f 137/399/5 136/400/5 135/453/5
f 207/401/4 167/311/4 166/310/4
f 137/403/15 154/404/15 139/414/15
f 197/405/15 212/407/15 198/454/15
f 213/408/15 200/410/15 199/455/15
f 215/411/15 202/413/15 201/456/15
f 139/414/15 141/358/15 113/357/15
f 142/415/15 117/346/15 115/356/15
f 203/416/1 163/316/1 162/305/1
f 205/418/9 165/420/9 164/362/9
f 164/362/9 150/421/9 149/363/9
f 156/321/2 143/422/2 142/322/2
f 209/423/8 157/327/8 168/326/8
f 165/420/3 151/426/3 150/421/3
f 119/427/3 118/324/3 117/323/3
f 197/429/6 156/321/6 155/320/6
f 213/457/8 199/458/8 158/459/8
f 193/460/14 194/461/14 179/462/14
f 186/463/3 187/464/3 172/465/3
f 178/466/15 179/467/15 166/468/15
f 187/469/4 188/470/4 173/471/4
f 195/472/5 196/473/5 181/474/5
f 180/475/15 181/476/15 168/477/15
f 200/478/1 214/479/1 172/480/1
f 214/481/3 213/482/3 171/483/3
f 218/484/21 217/485/21 175/486/21
f 215/487/6 201/488/6 160/489/6
f 188/470/16 189/490/16 174/491/16
f 190/492/21 191/493/21 176/494/21
f 217/495/14 203/496/14 162/497/14
f 216/498/16 215/499/16 173/471/16
f 189/490/22 190/492/22 175/486/22
f 173/500/15 160/501/15 159/502/15
f 222/503/13 221/504/13 179/462/13
f 158/505/15 156/506/15 170/507/15
f 163/508/15 176/509/15 177/510/15
f 198/511/5 212/512/5 170/513/5
f 193/514/15 191/515/15 188/516/15
f 211/517/4 197/518/4 155/519/4
f 183/520/7 184/521/7 170/522/7
f 196/473/12 185/523/12 182/524/12
f 188/516/15 187/525/15 195/526/15
f 191/527/23 192/528/23 177/529/23
f 161/530/15 174/531/15 175/532/15
f 155/533/15 157/534/15 182/535/15
f 194/461/13 195/536/13 180/537/13
f 192/528/24 193/460/24 178/538/24
f 184/521/9 186/463/9 171/483/9
f 202/539/9 216/540/9 174/541/9
f 204/542/4 218/484/4 176/494/4
f 208/543/6 222/503/6 180/537/6
f 220/544/24 219/545/24 177/529/24
f 219/546/5 205/547/5 164/548/5
f 206/549/8 220/550/8 178/551/8
f 185/523/1 183/552/1 169/553/1
f 221/554/1 207/555/1 166/556/1
f 223/557/9 209/558/9 168/559/9
f 224/560/12 223/561/12 181/474/12
f 185/562/15 187/525/15 183/563/15
f 183/563/15 187/525/15 184/564/15
f 184/564/15 187/525/15 186/565/15
f 188/516/15 191/515/15 189/566/15
f 189/566/15 191/515/15 190/567/15
f 191/515/15 193/514/15 192/568/15
f 193/514/15 195/526/15 194/569/15
f 195/526/15 185/562/15 196/570/15
f 212/571/7 211/572/7 169/573/7
f 195/526/15 187/525/15 185/562/15
f 210/574/14 224/575/14 182/576/14
f 213/457/8 158/459/8 171/577/8
f 193/460/14 179/462/14 178/538/14
f 186/463/3 172/465/3 171/483/3
f 178/466/15 166/468/15 165/578/15
f 187/469/4 173/471/4 172/579/4
f 195/472/5 181/474/5 180/580/5
f 180/475/15 168/477/15 167/581/15
f 200/478/1 172/480/1 159/582/1
f 214/481/3 171/483/3 172/465/3
f 218/484/21 175/486/21 176/494/21
f 215/487/6 160/489/6 173/583/6
f 188/470/16 174/491/16 173/471/16
f 190/492/21 176/494/21 175/486/21
f 217/495/14 162/497/14 175/584/14
f 216/498/16 173/471/16 174/491/16
f 189/490/22 175/486/22 174/491/22
f 173/500/15 159/502/15 172/585/15
f 222/503/13 179/462/13 180/537/13
f 158/505/15 170/507/15 171/586/15
f 163/508/15 177/510/15 164/587/15
f 198/511/5 170/513/5 156/588/5
f 211/517/4 155/519/4 169/589/4
f 183/520/7 170/522/7 169/573/7
f 196/473/12 182/524/12 181/474/12
f 188/516/15 195/526/15 193/514/15
f 191/527/23 177/529/23 176/590/23
f 161/530/15 175/532/15 162/591/15
f 155/533/15 182/535/15 169/592/15
f 194/461/13 180/537/13 179/462/13
f 192/528/24 178/538/24 177/529/24
f 184/521/9 171/483/9 170/522/9
f 202/539/9 174/541/9 161/593/9
f 204/542/4 176/494/4 163/594/4
f 208/543/6 180/537/6 167/595/6
f 220/544/24 177/529/24 178/538/24
f 219/546/5 164/548/5 177/596/5
f 206/549/8 178/551/8 165/597/8
f 185/523/1 169/553/1 182/524/1
f 221/554/1 166/556/1 179/598/1
f 223/557/9 168/559/9 181/599/9
f 224/560/12 181/474/12 182/524/12
f 212/571/7 169/573/7 170/522/7
f 210/574/14 182/576/14 157/600/14
