# Blender 5.0.1
# www.blender.org
mtllib FrontLeftTire.mtl
o Cylinder.002
v 0.244130 -0.094970 0.897966
v 0.168456 -0.094970 0.897966
v 0.244130 -0.053247 0.888443
v 0.168456 -0.053247 0.888443
v 0.244130 -0.019787 0.861760
v 0.168456 -0.019787 0.861760
v 0.244130 -0.001218 0.823201
v 0.168456 -0.001218 0.823201
v 0.244130 -0.001218 0.780405
v 0.168456 -0.001218 0.780405
v 0.244130 -0.019787 0.741846
v 0.168456 -0.019787 0.741846
v 0.244130 -0.053247 0.715163
v 0.168456 -0.053247 0.715163
v 0.244130 -0.094970 0.705640
v 0.168456 -0.094970 0.705640
v 0.244130 -0.136694 0.715163
v 0.168456 -0.136694 0.715163
v 0.244130 -0.170154 0.741846
v 0.168456 -0.170154 0.741846
v 0.244130 -0.188723 0.780405
v 0.168456 -0.188723 0.780405
v 0.244130 -0.188723 0.823201
v 0.168456 -0.188723 0.823201
v 0.244130 -0.170154 0.861760
v 0.168456 -0.170154 0.861760
v 0.244130 -0.136694 0.888443
v 0.168456 -0.136694 0.888443
v 0.244130 -0.094970 0.871667
v 0.244130 -0.064658 0.864748
v 0.244130 -0.040349 0.845363
v 0.244130 -0.026858 0.817349
v 0.244130 -0.026858 0.786257
v 0.244130 -0.040349 0.758244
v 0.244130 -0.064658 0.738858
v 0.244130 -0.094970 0.731939
v 0.244130 -0.125283 0.738858
v 0.244130 -0.149592 0.758244
v 0.244130 -0.163083 0.786257
v 0.244130 -0.163083 0.817349
v 0.244130 -0.149592 0.845363
v 0.244130 -0.125283 0.864748
v 0.214527 -0.094970 0.871667
v 0.214527 -0.064658 0.864748
v 0.214527 -0.125283 0.864748
v 0.214527 -0.040349 0.845363
v 0.214527 -0.026858 0.817349
v 0.214527 -0.026858 0.786257
v 0.214527 -0.040349 0.758244
v 0.214527 -0.064658 0.738858
v 0.214527 -0.094970 0.731939
v 0.214527 -0.125283 0.738858
v 0.214527 -0.149592 0.758244
v 0.214527 -0.163083 0.786257
v 0.214527 -0.163083 0.817349
v 0.214527 -0.149592 0.845363
v 0.214527 -0.094970 0.826111
v 0.214527 -0.084424 0.823704
v 0.214527 -0.075966 0.816959
v 0.214527 -0.071272 0.807212
v 0.214527 -0.071272 0.796394
v 0.214527 -0.075966 0.786647
v 0.214527 -0.084424 0.779903
v 0.214527 -0.094970 0.777495
v 0.214527 -0.105517 0.779903
v 0.214527 -0.113975 0.786647
v 0.214527 -0.118669 0.796394
v 0.214527 -0.118669 0.807212
v 0.214527 -0.113975 0.816959
v 0.214527 -0.105517 0.823704
v 0.223752 -0.094970 0.826111
v 0.223752 -0.084424 0.823704
v 0.223752 -0.105517 0.823704
v 0.223752 -0.075966 0.816959
v 0.223752 -0.071272 0.807212
v 0.223752 -0.071272 0.796394
v 0.223752 -0.075966 0.786647
v 0.223752 -0.084424 0.779903
v 0.223752 -0.094970 0.777495
v 0.223752 -0.105517 0.779903
v 0.223752 -0.113975 0.786647
v 0.223752 -0.118669 0.796394
v 0.223752 -0.118669 0.807212
v 0.223752 -0.113975 0.816959
v 0.205474 -0.094970 0.871667
v 0.205474 -0.064658 0.864748
v 0.205474 -0.040349 0.845363
v 0.205474 -0.026858 0.817349
v 0.205474 -0.026858 0.786257
v 0.205474 -0.040349 0.758244
v 0.205474 -0.064658 0.738858
v 0.205474 -0.094970 0.731939
v 0.205474 -0.125283 0.738858
v 0.205474 -0.149592 0.758244
v 0.205474 -0.163083 0.786257
v 0.205474 -0.163083 0.817349
v 0.205474 -0.149592 0.845363
v 0.205474 -0.125283 0.864748
v 0.205474 -0.094970 0.826111
v 0.205474 -0.084424 0.823704
v 0.205474 -0.075966 0.816959
v 0.205474 -0.071272 0.807212
v 0.205474 -0.071272 0.796394
v 0.205474 -0.075966 0.786647
v 0.205474 -0.084424 0.779903
v 0.205474 -0.094970 0.777495
v 0.205474 -0.105517 0.779903
v 0.205474 -0.113975 0.786647
v 0.205474 -0.118669 0.796394
v 0.205474 -0.118669 0.807212
v 0.205474 -0.113975 0.816959
v 0.205474 -0.105517 0.823704
vn -0.0000 -0.2225 -0.9749
vn -0.0000 -0.6235 0.7818
vn -0.0000 0.9010 -0.4339
vn -0.0000 1.0000 -0.0000
vn -0.0000 -0.9010 -0.4339
vn -0.0000 -0.2225 0.9749
vn -0.0000 0.2225 -0.9749
vn -0.0000 0.6235 0.7818
vn -0.0000 0.6235 -0.7818
vn 1.0000 -0.0000 -0.0000
vn -0.0000 0.2225 0.9749
vn -0.0000 -0.6235 -0.7818
vn -0.0000 -1.0000 -0.0000
vn -0.0000 -0.9010 0.4339
vn -1.0000 -0.0000 -0.0000
vn -0.0000 0.9010 0.4339
vn -0.0000 0.2226 -0.9749
vn -0.0000 0.6234 -0.7819
vn -0.0000 -0.2226 -0.9749
vn -0.0000 -0.6234 -0.7819
vt 0.735197 0.108110
vt 0.616862 0.108110
vt 0.616862 0.047814
vt 0.834156 0.678477
vt 0.834156 0.629856
vt 0.880447 0.629856
vt 0.397624 0.692237
vt 0.515959 0.692237
vt 0.515959 0.759161
vt 0.574428 0.631941
vt 0.574428 0.675746
vt 0.528136 0.675746
vt 0.747374 0.542076
vt 0.747374 0.498269
vt 0.761531 0.498269
vt 0.834156 0.586051
vt 0.880447 0.586051
vt 0.735197 0.047814
vt 0.616862 0.006088
vt 0.761531 0.634501
vt 0.761531 0.590696
vt 0.807822 0.590696
vt 0.136600 0.692238
vt 0.254935 0.692238
vt 0.254935 0.759161
vt 0.574428 0.724369
vt 0.574428 0.768173
vt 0.528136 0.768173
vt 0.908476 0.967170
vt 0.892624 0.897718
vt 0.941244 0.897718
vt 0.259204 0.445079
vt 0.238109 0.401274
vt 0.270262 0.375633
vt 0.217939 0.333906
vt 0.200095 0.370960
vt 0.152693 0.360141
vt 0.035126 0.375632
vt 0.087449 0.333906
vt 0.105293 0.370959
vt 0.067279 0.401274
vt 0.046184 0.445080
vt 0.006088 0.435928
vt 0.006088 0.502852
vt 0.299298 0.435928
vt 0.299298 0.502852
vt 0.259204 0.493701
vt 0.918645 0.169347
vt 0.967265 0.169347
vt 0.951414 0.238800
vt 0.046183 0.493700
vt 0.067278 0.537506
vt 0.035125 0.563147
vt 0.105293 0.567821
vt 0.152693 0.319015
vt 0.270261 0.563147
vt 0.217939 0.604872
vt 0.200096 0.567820
vt 0.574428 0.798488
vt 0.528136 0.798488
vt 0.866291 0.437641
vt 0.866291 0.481448
vt 0.819999 0.481448
vt 0.735197 0.175033
vt 0.616862 0.175033
vt 0.735197 0.277055
vt 0.616862 0.277055
vt 0.616862 0.235330
vt 0.735197 0.699594
vt 0.616862 0.699594
vt 0.616862 0.632671
vt 0.397624 0.759161
vt 0.515959 0.819456
vt 0.145517 0.831633
vt 0.194138 0.831633
vt 0.178285 0.901085
vt 0.761531 0.467955
vt 0.807822 0.467955
vt 0.819999 0.722283
vt 0.819999 0.678477
vt 0.136600 0.759161
vt 0.254935 0.819456
vt 0.933383 0.358683
vt 0.949236 0.289231
vt 0.966153 0.289232
vt 0.528136 0.724369
vt 0.458080 0.319015
vt 0.575648 0.375632
vt 0.523326 0.604873
vt 0.735197 0.759890
vt 0.616862 0.759890
vt 0.834156 0.722283
vt 0.880447 0.678477
vt 0.735197 0.235330
vt 0.761531 0.542076
vt 0.807822 0.498269
vt 0.397624 0.631941
vt 0.515959 0.631941
vt 0.735197 0.632671
vt 0.616862 0.572375
vt 0.588584 0.631941
vt 0.588584 0.675746
vt 0.087448 0.604873
vt 0.152694 0.578639
vt 0.406541 0.982713
vt 0.422394 0.913261
vt 0.439309 0.913262
vt 0.763226 0.825400
vt 0.780143 0.825401
vt 0.795996 0.894853
vt 0.925391 0.574619
vt 0.908474 0.574618
vt 0.892624 0.505167
vt 0.152693 0.619765
vt 0.238108 0.537506
vt 0.819999 0.629856
vt 0.819999 0.586051
vt 0.880447 0.481448
vt 0.880447 0.530068
vt 0.866291 0.530068
vt 0.819999 0.530068
vt 0.807822 0.542076
vt 0.588584 0.724369
vt 0.588584 0.768173
vt 0.866291 0.573874
vt 0.819999 0.573874
vt 0.136600 0.631941
vt 0.254935 0.631941
vt 0.747374 0.634501
vt 0.747374 0.590696
vt 0.311475 0.502852
vt 0.340513 0.563147
vt 0.392835 0.604872
vt 0.458080 0.619765
vt 0.575649 0.563147
vt 0.604685 0.502852
vt 0.604685 0.435928
vt 0.523325 0.333906
vt 0.340512 0.375633
vt 0.392835 0.333906
vt 0.311475 0.435928
vt 0.528136 0.631941
vt 0.735197 0.006088
vt 0.807822 0.634501
vt 0.925393 0.967170
vt 0.934498 0.238799
vt 0.819999 0.437641
vt 0.397624 0.819456
vt 0.161369 0.901084
vt 0.136600 0.819456
vt 0.982003 0.358683
vt 0.880447 0.722283
vt 0.735197 0.572375
vt 0.455160 0.982713
vt 0.747374 0.894853
vt 0.941245 0.505167
vt 0.603089 0.898864
vt 0.603089 0.963048
vt 0.588933 0.963048
vt 0.735197 0.804225
vt 0.735197 0.819467
vt 0.720772 0.819467
vt 0.325021 0.928504
vt 0.325021 0.913262
vt 0.339447 0.913262
vt 0.925395 0.722283
vt 0.908478 0.722283
vt 0.892624 0.652831
vt 0.892624 0.411361
vt 0.892624 0.396120
vt 0.907050 0.396120
vt 0.897554 0.229654
vt 0.897554 0.244896
vt 0.883128 0.244896
vt 0.483190 0.831633
vt 0.500107 0.831633
vt 0.515959 0.901085
vt 0.032422 0.977447
vt 0.032422 0.913263
vt 0.046578 0.913263
vt 0.353604 0.913262
vt 0.353604 0.928504
vt 0.339447 0.928504
vt 0.921206 0.353415
vt 0.921206 0.363963
vt 0.907050 0.363963
vt 0.139222 0.977446
vt 0.139222 0.913262
vt 0.153379 0.913262
vt 0.892624 0.379203
vt 0.907050 0.379203
vt 0.892624 0.363963
vt 0.892624 0.353415
vt 0.907050 0.353415
vt 0.219688 0.977446
vt 0.219688 0.913262
vt 0.233845 0.913262
vt 0.921206 0.379203
vt 0.921206 0.396120
vt 0.951413 0.006088
vt 0.967265 0.075541
vt 0.918645 0.075541
vt 0.706615 0.830015
vt 0.706615 0.819467
vt 0.795994 0.976481
vt 0.747374 0.976481
vt 0.763224 0.907030
vt 0.455160 0.831632
vt 0.439308 0.901084
vt 0.422391 0.901085
vt 0.979755 0.571136
vt 0.979755 0.506953
vt 0.993912 0.506953
vt 0.528136 0.840217
vt 0.548702 0.814428
vt 0.594913 0.824975
vt 0.993598 0.006088
vt 0.993598 0.070272
vt 0.979442 0.070272
vt 0.325021 0.960661
vt 0.325021 0.945421
vt 0.339447 0.945421
vt 0.897554 0.261813
vt 0.883128 0.261813
vt 0.602253 0.840217
vt 0.535476 0.872375
vt 0.735197 0.772067
vt 0.735197 0.787310
vt 0.720772 0.787310
vt 0.054709 0.831634
vt 0.038857 0.901085
vt 0.021941 0.901086
vt 0.665483 0.929718
vt 0.616862 0.929718
vt 0.632714 0.860266
vt 0.735197 0.830015
vt 0.720772 0.830015
vt 0.720772 0.804225
vt 0.967578 0.652831
vt 0.967578 0.724069
vt 0.953421 0.724069
vt 0.921206 0.289231
vt 0.706615 0.894198
vt 0.706615 0.804225
vt 0.706615 0.787310
vt 0.101350 0.977446
vt 0.101350 0.913263
vt 0.115507 0.913263
vt 0.993912 0.430594
vt 0.993912 0.494776
vt 0.979755 0.494776
vt 0.897554 0.277055
vt 0.883128 0.277055
vt 0.298688 0.977446
vt 0.298688 0.913262
vt 0.312845 0.913262
vt 0.967578 0.506953
vt 0.967578 0.578191
vt 0.953421 0.578191
vt 0.868972 0.261813
vt 0.868972 0.244896
vt 0.565195 0.886687
vt 0.581688 0.882922
vt 0.594913 0.872376
vt 0.602253 0.857134
vt 0.581686 0.814428
vt 0.565194 0.810665
vt 0.535477 0.824977
vt 0.528136 0.857134
vt 0.548702 0.882923
vt 0.353604 0.945421
vt 0.353604 0.960661
vt 0.339447 0.960661
vt 0.979754 0.885540
vt 0.979754 0.821357
vt 0.993911 0.821357
vt 0.588933 0.898864
vt 0.941245 0.652831
vt 0.907050 0.411361
vt 0.883128 0.229654
vt 0.467337 0.901085
vt 0.046578 0.977447
vt 0.153379 0.977446
vt 0.233845 0.977446
vt 0.934497 0.006088
vt 0.780141 0.907029
vt 0.406539 0.831632
vt 0.993912 0.571136
vt 0.979442 0.006088
vt 0.720772 0.772067
vt 0.006088 0.831634
vt 0.649631 0.860266
vt 0.953421 0.652831
vt 0.907050 0.289231
vt 0.720772 0.894198
vt 0.115507 0.977446
vt 0.979755 0.430594
vt 0.312845 0.977446
vt 0.953421 0.506953
vt 0.993911 0.885540
s 1
usemtl Tire_mat
f 17/1/1 18/2/1 16/3/1
f 49/4/2 50/5/2 35/6/2
f 11/7/3 12/8/3 10/9/3
f 54/10/4 55/11/4 40/12/4
f 87/13/5 88/14/5 47/15/5
f 50/5/6 51/16/6 36/17/6
f 15/18/7 16/3/7 14/19/7
f 43/20/1 44/21/1 30/22/1
f 5/23/8 6/24/8 4/25/8
f 56/26/9 45/27/9 42/28/9
f 110/29/10 96/30/10 95/31/10
f 32/32/10 33/33/10 9/34/10
f 11/35/10 34/36/10 35/37/10
f 17/38/10 15/39/10 36/40/10
f 37/41/10 38/42/10 19/43/10
f 21/44/10 19/43/10 38/42/10
f 7/45/10 5/46/10 31/47/10
f 92/48/10 91/49/10 105/50/10
f 39/51/10 40/52/10 23/53/10
f 23/53/10 40/52/10 41/54/10
f 13/55/10 35/37/10 36/40/10
f 3/56/10 1/57/10 29/58/10
f 45/27/7 43/59/7 29/60/7
f 51/61/11 52/62/11 37/63/11
f 19/64/12 20/65/12 18/2/12
f 23/66/13 24/67/13 22/68/13
f 27/69/2 28/70/2 26/71/2
f 9/72/4 10/9/4 8/73/4
f 94/74/10 93/75/10 107/76/10
f 47/15/13 48/77/13 33/78/13
f 89/79/14 90/80/14 49/4/14
f 3/81/11 4/25/11 2/82/11
f 9/34/10 33/33/10 34/36/10
f 97/83/10 111/84/10 112/85/10
f 55/11/3 56/26/3 41/86/3
f 14/87/15 18/88/15 26/89/15
f 1/90/6 2/91/6 28/70/6
f 48/92/14 49/4/14 34/93/14
f 21/94/5 22/68/5 20/65/5
f 46/95/5 47/15/5 32/96/5
f 13/97/9 14/98/9 12/8/9
f 25/99/14 26/71/14 24/100/14
f 95/101/4 96/102/4 55/11/4
f 25/103/10 41/54/10 42/104/10
f 85/105/10 99/106/10 100/107/10
f 101/108/10 102/109/10 88/110/10
f 103/111/10 104/112/10 90/113/10
f 27/114/10 42/104/10 29/58/10
f 30/115/10 31/47/10 5/46/10
f 91/116/6 92/117/6 51/16/6
f 93/118/8 94/119/8 53/120/8
f 52/62/8 53/120/8 38/121/8
f 44/21/12 46/95/12 31/122/12
f 97/123/9 98/124/9 45/27/9
f 53/120/16 54/125/16 39/126/16
f 7/127/16 8/128/16 6/24/16
f 85/129/1 86/130/1 44/21/1
f 6/131/15 26/89/15 4/132/15
f 4/132/15 26/89/15 2/133/15
f 2/133/15 26/89/15 28/134/15
f 26/89/15 18/88/15 24/135/15
f 24/135/15 18/88/15 22/136/15
f 22/136/15 18/88/15 20/137/15
f 18/88/15 14/87/15 16/138/15
f 14/87/15 10/139/15 12/140/15
f 10/139/15 26/89/15 8/141/15
f 8/141/15 26/89/15 6/131/15
f 17/1/1 16/3/1 15/18/1
f 49/4/2 35/6/2 34/93/2
f 11/7/3 10/9/3 9/72/3
f 54/10/4 40/12/4 39/142/4
f 87/13/5 47/15/5 46/95/5
f 50/5/6 36/17/6 35/6/6
f 15/18/7 14/19/7 13/143/7
f 43/20/1 30/22/1 29/144/1
f 5/23/8 4/25/8 3/81/8
f 56/26/9 42/28/9 41/86/9
f 110/29/10 95/31/10 109/145/10
f 32/32/10 9/34/10 7/45/10
f 11/35/10 35/37/10 13/55/10
f 17/38/10 36/40/10 37/41/10
f 37/41/10 19/43/10 17/38/10
f 21/44/10 38/42/10 39/51/10
f 7/45/10 31/47/10 32/32/10
f 92/48/10 105/50/10 106/146/10
f 39/51/10 23/53/10 21/44/10
f 23/53/10 41/54/10 25/103/10
f 13/55/10 36/40/10 15/39/10
f 3/56/10 29/58/10 30/115/10
f 45/27/7 29/60/7 42/28/7
f 51/61/11 37/63/11 36/147/11
f 19/64/12 18/2/12 17/1/12
f 23/66/13 22/68/13 21/94/13
f 27/69/2 26/71/2 25/99/2
f 9/72/4 8/73/4 7/148/4
f 94/74/10 107/76/10 108/149/10
f 47/15/13 33/78/13 32/96/13
f 89/79/14 49/4/14 48/92/14
f 3/81/11 2/82/11 1/150/11
f 9/34/10 34/36/10 11/35/10
f 97/83/10 112/85/10 98/151/10
f 55/11/3 41/86/3 40/12/3
f 14/87/15 26/89/15 10/139/15
f 1/90/6 28/70/6 27/69/6
f 48/92/14 34/93/14 33/152/14
f 21/94/5 20/65/5 19/64/5
f 46/95/5 32/96/5 31/122/5
f 13/97/9 12/8/9 11/7/9
f 25/99/14 24/100/14 23/153/14
f 95/101/4 55/11/4 54/10/4
f 25/103/10 42/104/10 27/114/10
f 85/105/10 100/107/10 86/154/10
f 101/108/10 88/110/10 87/155/10
f 103/111/10 90/113/10 89/156/10
f 27/114/10 29/58/10 1/57/10
f 30/115/10 5/46/10 3/56/10
f 91/116/6 51/16/6 50/5/6
f 93/118/8 53/120/8 52/62/8
f 52/62/8 38/121/8 37/63/8
f 44/21/12 31/122/12 30/22/12
f 97/123/9 45/27/9 56/26/9
f 53/120/16 39/126/16 38/121/16
f 7/127/16 6/24/16 5/23/16
f 85/129/1 44/21/1 43/20/1
f 101/157/9 87/158/9 46/159/9
f 81/160/5 82/161/5 67/162/5
f 74/163/16 75/164/16 60/165/16
f 66/166/10 67/167/10 54/168/10
f 75/169/4 76/170/4 61/171/4
f 83/172/14 84/173/14 69/174/14
f 68/175/10 69/176/10 56/177/10
f 88/178/6 102/179/6 60/180/6
f 102/181/16 101/182/16 59/183/16
f 106/184/17 105/185/17 63/186/17
f 103/187/1 89/188/1 48/189/1
f 76/170/3 77/190/3 62/191/3
f 78/192/17 79/193/17 64/194/17
f 105/195/5 91/196/5 50/197/5
f 104/198/3 103/199/3 61/171/3
f 77/190/18 78/192/18 63/186/18
f 61/200/10 48/201/10 47/202/10
f 110/203/13 109/204/13 67/162/13
f 46/205/10 44/206/10 58/207/10
f 51/208/10 64/209/10 65/210/10
f 86/211/14 100/212/14 58/213/14
f 81/214/10 79/215/10 76/216/10
f 99/217/4 85/218/4 43/219/4
f 71/220/11 72/221/11 58/222/11
f 84/173/2 73/223/2 70/224/2
f 76/216/10 75/225/10 83/226/10
f 79/227/19 80/228/19 65/229/19
f 49/230/10 62/231/10 63/232/10
f 43/233/10 45/234/10 70/235/10
f 82/161/13 83/236/13 68/237/13
f 80/228/20 81/160/20 66/238/20
f 72/221/8 74/163/8 59/183/8
f 90/239/8 104/240/8 62/241/8
f 92/242/4 106/184/4 64/194/4
f 96/243/1 110/203/1 68/237/1
f 108/244/20 107/245/20 65/229/20
f 107/246/14 93/247/14 52/248/14
f 94/249/9 108/250/9 66/251/9
f 73/223/6 71/252/6 57/253/6
f 109/254/6 95/255/6 54/256/6
f 111/257/8 97/258/8 56/259/8
f 112/260/2 111/261/2 69/174/2
f 73/262/10 75/225/10 71/263/10
f 71/263/10 75/225/10 72/264/10
f 72/264/10 75/225/10 74/265/10
f 76/216/10 79/215/10 77/266/10
f 77/266/10 79/215/10 78/267/10
f 79/215/10 81/214/10 80/268/10
f 81/214/10 83/226/10 82/269/10
f 83/226/10 73/262/10 84/270/10
f 100/271/11 99/272/11 57/273/11
f 83/226/10 75/225/10 73/262/10
f 98/274/5 112/275/5 70/276/5
f 101/157/9 46/159/9 59/277/9
f 81/160/5 67/162/5 66/238/5
f 74/163/16 60/165/16 59/183/16
f 66/166/10 54/168/10 53/278/10
f 75/169/4 61/171/4 60/279/4
f 83/172/14 69/174/14 68/280/14
f 68/175/10 56/177/10 55/281/10
f 88/178/6 60/180/6 47/282/6
f 102/181/16 59/183/16 60/165/16
f 106/184/17 63/186/17 64/194/17
f 103/187/1 48/189/1 61/283/1
f 76/170/3 62/191/3 61/171/3
f 78/192/17 64/194/17 63/186/17
f 105/195/5 50/197/5 63/284/5
f 104/198/3 61/171/3 62/191/3
f 77/190/18 63/186/18 62/191/18
f 61/200/10 47/202/10 60/285/10
f 110/203/13 67/162/13 68/237/13
f 46/205/10 58/207/10 59/286/10
f 51/208/10 65/210/10 52/287/10
f 86/211/14 58/213/14 44/288/14
f 99/217/4 43/219/4 57/289/4
f 71/220/11 58/222/11 57/273/11
f 84/173/2 70/224/2 69/174/2
f 76/216/10 83/226/10 81/214/10
f 79/227/19 65/229/19 64/290/19
f 49/230/10 63/232/10 50/291/10
f 43/233/10 70/235/10 57/292/10
f 82/161/13 68/237/13 67/162/13
f 80/228/20 66/238/20 65/229/20
f 72/221/8 59/183/8 58/222/8
f 90/239/8 62/241/8 49/293/8
f 92/242/4 64/194/4 51/294/4
f 96/243/1 68/237/1 55/295/1
f 108/244/20 65/229/20 66/238/20
f 107/246/14 52/248/14 65/296/14
f 94/249/9 66/251/9 53/297/9
f 73/223/6 57/253/6 70/224/6
f 109/254/6 54/256/6 67/298/6
f 111/257/8 56/259/8 69/299/8
f 112/260/2 69/174/2 70/224/2
f 100/271/11 57/273/11 58/222/11
f 98/274/5 70/276/5 45/300/5
