# Blender 5.0.1
# www.blender.org
mtllib FrontRightTire2.mtl
o Cylinder.001
v -0.029071 0.000000 -0.096163
v 0.046603 0.000000 -0.096163
v -0.029071 0.041723 -0.086640
v 0.046603 0.041723 -0.086640
v -0.029071 0.075183 -0.059957
v 0.046603 0.075183 -0.059957
v -0.029071 0.093752 -0.021398
v 0.046603 0.093752 -0.021398
v -0.029071 0.093752 0.021398
v 0.046603 0.093752 0.021398
v -0.029071 0.075183 0.059957
v 0.046603 0.075183 0.059957
v -0.029071 0.041723 0.086640
v 0.046603 0.041723 0.086640
v -0.029071 0.000000 0.096163
v 0.046603 0.000000 0.096163
v -0.029071 -0.041724 0.086640
v 0.046603 -0.041724 0.086640
v -0.029071 -0.075184 0.059957
v 0.046603 -0.075184 0.059957
v -0.029071 -0.093753 0.021398
v 0.046603 -0.093753 0.021398
v -0.029071 -0.093753 -0.021398
v 0.046603 -0.093753 -0.021398
v -0.029071 -0.075184 -0.059957
v 0.046603 -0.075184 -0.059957
v -0.029071 -0.041724 -0.086640
v 0.046603 -0.041724 -0.086640
v -0.029071 0.000000 -0.069864
v -0.029071 0.030312 -0.062945
v -0.029071 0.054621 -0.043560
v -0.029071 0.068112 -0.015546
v -0.029071 0.068112 0.015546
v -0.029071 0.054621 0.043559
v -0.029071 0.030312 0.062945
v -0.029071 0.000000 0.069864
v -0.029071 -0.030313 0.062945
v -0.029071 -0.054622 0.043559
v -0.029071 -0.068113 0.015546
v -0.029071 -0.068113 -0.015546
v -0.029071 -0.054622 -0.043560
v -0.029071 -0.030313 -0.062945
v 0.000532 0.000000 -0.069864
v 0.000532 0.030312 -0.062945
v 0.000532 -0.030313 -0.062945
v 0.000532 0.054621 -0.043560
v 0.000532 0.068112 -0.015546
v 0.000532 0.068112 0.015546
v 0.000532 0.054621 0.043559
v 0.000532 0.030312 0.062945
v 0.000532 0.000000 0.069864
v 0.000532 -0.030313 0.062945
v 0.000532 -0.054622 0.043559
v 0.000532 -0.068113 0.015546
v 0.000532 -0.068113 -0.015546
v 0.000532 -0.054622 -0.043560
v 0.000532 0.000000 -0.024308
v 0.000532 0.010546 -0.021901
v 0.000532 0.019004 -0.015156
v 0.000532 0.023698 -0.005409
v 0.000532 0.023698 0.005409
v 0.000532 0.019004 0.015156
v 0.000532 0.010546 0.021900
v 0.000532 0.000000 0.024308
v 0.000532 -0.010547 0.021900
v 0.000532 -0.019005 0.015156
v 0.000532 -0.023699 0.005409
v 0.000532 -0.023699 -0.005409
v 0.000532 -0.019005 -0.015156
v 0.000532 -0.010547 -0.021901
v -0.008693 0.000000 -0.024308
v -0.008693 0.010546 -0.021901
v -0.008693 -0.010547 -0.021901
v -0.008693 0.019004 -0.015156
v -0.008693 0.023698 -0.005409
v -0.008693 0.023698 0.005409
v -0.008693 0.019004 0.015156
v -0.008693 0.010546 0.021900
v -0.008693 0.000000 0.024308
v -0.008693 -0.010547 0.021900
v -0.008693 -0.019005 0.015156
v -0.008693 -0.023699 0.005409
v -0.008693 -0.023699 -0.005409
v -0.008693 -0.019005 -0.015156
v 0.009585 0.000000 -0.069864
v 0.009585 0.030312 -0.062945
v 0.009585 0.054621 -0.043560
v 0.009585 0.068112 -0.015546
v 0.009585 0.068112 0.015546
v 0.009585 0.054621 0.043559
v 0.009585 0.030312 0.062945
v 0.009585 0.000000 0.069864
v 0.009585 -0.030313 0.062945
v 0.009585 -0.054622 0.043559
v 0.009585 -0.068113 0.015546
v 0.009585 -0.068113 -0.015546
v 0.009585 -0.054622 -0.043560
v 0.009585 -0.030313 -0.062945
v 0.009585 0.000000 -0.024308
v 0.009585 0.010546 -0.021901
v 0.009585 0.019004 -0.015156
v 0.009585 0.023698 -0.005409
v 0.009585 0.023698 0.005409
v 0.009585 0.019004 0.015156
v 0.009585 0.010546 0.021900
v 0.009585 0.000000 0.024308
v 0.009585 -0.010547 0.021900
v 0.009585 -0.019005 0.015156
v 0.009585 -0.023699 0.005409
v 0.009585 -0.023699 -0.005409
v 0.009585 -0.019005 -0.015156
v 0.009585 -0.010547 -0.021901
vn -0.0000 -0.2225 0.9749
vn -0.0000 -0.6235 -0.7818
vn -0.0000 0.9010 0.4339
vn -0.0000 1.0000 -0.0000
vn -0.0000 -0.9010 0.4339
vn -0.0000 -0.2225 -0.9749
vn -0.0000 0.2225 0.9749
vn -0.0000 0.6235 -0.7818
vn -0.0000 0.6235 0.7818
vn -1.0000 -0.0000 -0.0000
vn -0.0000 0.2225 -0.9749
vn -0.0000 -0.6235 0.7818
vn -0.0000 -1.0000 -0.0000
vn -0.0000 -0.9010 -0.4339
vn 1.0000 -0.0000 -0.0000
vn -0.0000 0.9010 -0.4339
vn -0.0000 0.2226 0.9749
vn -0.0000 0.6234 0.7819
vn -0.0000 -0.2226 0.9749
vn -0.0000 -0.6234 0.7819
vt 0.006088 0.759161
vt 0.124423 0.759161
vt 0.124423 0.819457
vt 0.793666 0.720798
vt 0.793666 0.769419
vt 0.747374 0.769419
vt 0.385447 0.692238
vt 0.267112 0.692238
vt 0.267112 0.631941
vt 0.761531 0.333037
vt 0.761531 0.289231
vt 0.807822 0.289231
vt 0.880447 0.826885
vt 0.880447 0.870692
vt 0.866291 0.870692
vt 0.793666 0.813224
vt 0.747374 0.813224
vt 0.385447 0.819456
vt 0.267112 0.819456
vt 0.267112 0.759161
vt 0.866291 0.734460
vt 0.866291 0.778265
vt 0.819999 0.778265
vt 0.865709 0.066384
vt 0.747374 0.066384
vt 0.747374 0.006088
vt 0.834156 0.381658
vt 0.834156 0.333038
vt 0.880447 0.333038
vt 0.925393 0.816089
vt 0.941244 0.885541
vt 0.892624 0.885541
vt 0.067278 0.088347
vt 0.046183 0.132153
vt 0.006088 0.123001
vt 0.006088 0.189925
vt 0.046184 0.180773
vt 0.067279 0.224579
vt 0.152693 0.306838
vt 0.087448 0.291946
vt 0.105291 0.254894
vt 0.152693 0.265712
vt 0.200095 0.254893
vt 0.217939 0.291947
vt 0.270262 0.250220
vt 0.035125 0.062706
vt 0.087448 0.020980
vt 0.105293 0.058032
vt 0.967264 0.157170
vt 0.918645 0.157170
vt 0.934496 0.087718
vt 0.238109 0.224579
vt 0.259204 0.180774
vt 0.299298 0.189925
vt 0.259204 0.132152
vt 0.035126 0.250221
vt 0.152693 0.006088
vt 0.217938 0.020980
vt 0.200094 0.058032
vt 0.834156 0.289231
vt 0.880447 0.289231
vt 0.761531 0.455778
vt 0.761531 0.425463
vt 0.807822 0.425463
vt 0.006088 0.692238
vt 0.124423 0.692238
vt 0.616862 0.518473
vt 0.735197 0.518473
vt 0.735197 0.560198
vt 0.616862 0.391253
vt 0.735197 0.391253
vt 0.735197 0.458176
vt 0.865709 0.193603
vt 0.747374 0.193603
vt 0.747374 0.133308
vt 0.394363 0.901085
vt 0.345742 0.901085
vt 0.361595 0.831633
vt 0.793666 0.646678
vt 0.793666 0.676992
vt 0.747374 0.676992
vt 0.807822 0.676992
vt 0.807822 0.720798
vt 0.616862 0.289231
vt 0.735197 0.289231
vt 0.735197 0.330957
vt 0.735197 0.906375
vt 0.719344 0.975827
vt 0.702427 0.975827
vt 0.834156 0.425465
vt 0.880447 0.381658
vt 0.458080 0.306838
vt 0.340513 0.250221
vt 0.392835 0.020980
vt 0.616862 0.330957
vt 0.747374 0.720798
vt 0.006088 0.631941
vt 0.124423 0.631941
vt 0.866291 0.826885
vt 0.819999 0.870692
vt 0.385447 0.759161
vt 0.616862 0.458176
vt 0.747374 0.333037
vt 0.747374 0.289231
vt 0.299298 0.123001
vt 0.238108 0.088347
vt 0.515957 0.913261
vt 0.500104 0.982713
vt 0.483188 0.982713
vt 0.840943 0.277055
vt 0.824026 0.277055
vt 0.808173 0.207603
vt 0.908478 0.734460
vt 0.925395 0.734460
vt 0.941245 0.803912
vt 0.270261 0.062706
vt 0.152694 0.047214
vt 0.807822 0.769419
vt 0.807822 0.813224
vt 0.747374 0.425463
vt 0.747374 0.381657
vt 0.761531 0.381657
vt 0.807822 0.381657
vt 0.819999 0.826885
vt 0.819999 0.381658
vt 0.819999 0.333038
vt 0.807822 0.333037
vt 0.865709 0.133308
vt 0.880447 0.734460
vt 0.880447 0.778265
vt 0.604685 0.123001
vt 0.575648 0.062706
vt 0.523326 0.020981
vt 0.458080 0.006088
vt 0.340512 0.062706
vt 0.311475 0.123001
vt 0.311475 0.189925
vt 0.392836 0.291947
vt 0.575649 0.250220
vt 0.523326 0.291947
vt 0.604685 0.189925
vt 0.006088 0.819457
vt 0.385447 0.631941
vt 0.819999 0.734460
vt 0.865709 0.006088
vt 0.908476 0.816089
vt 0.951411 0.087719
vt 0.807822 0.455778
vt 0.616862 0.560198
vt 0.378511 0.831634
vt 0.747374 0.646678
vt 0.686577 0.906375
vt 0.880447 0.425465
vt 0.467337 0.913261
vt 0.856795 0.207603
vt 0.892624 0.803912
vt 0.953422 0.494776
vt 0.953422 0.423538
vt 0.967578 0.423538
vt 0.892624 0.608496
vt 0.892624 0.593254
vt 0.907050 0.593254
vt 0.194138 0.928504
vt 0.194138 0.945421
vt 0.179712 0.945421
vt 0.908474 0.423538
vt 0.925391 0.423538
vt 0.941245 0.492990
vt 0.194138 0.960662
vt 0.179712 0.960662
vt 0.877886 0.128218
vt 0.877886 0.112976
vt 0.892312 0.112976
vt 0.780143 0.277055
vt 0.763226 0.277055
vt 0.747374 0.207603
vt 0.020245 0.913263
vt 0.020245 0.977447
vt 0.006088 0.977447
vt 0.165556 0.945421
vt 0.165556 0.928504
vt 0.179712 0.928504
vt 0.365780 0.960661
vt 0.365780 0.945420
vt 0.379937 0.945420
vt 0.967578 0.821357
vt 0.967578 0.885541
vt 0.953421 0.885541
vt 0.394363 0.913262
vt 0.394363 0.928504
vt 0.379937 0.928504
vt 0.394363 0.945420
vt 0.394363 0.960661
vt 0.379937 0.960661
vt 0.260178 0.913262
vt 0.260178 0.977446
vt 0.246021 0.977446
vt 0.365780 0.928504
vt 0.365780 0.913262
vt 0.379937 0.913262
vt 0.847679 0.952321
vt 0.831827 0.882869
vt 0.880447 0.882869
vt 0.906468 0.128218
vt 0.906468 0.138765
vt 0.892312 0.138765
vt 0.528136 0.898864
vt 0.576756 0.898864
vt 0.560906 0.968316
vt 0.267112 0.901086
vt 0.282965 0.831634
vt 0.299882 0.831633
vt 0.906468 0.006088
vt 0.906468 0.070271
vt 0.892312 0.070271
vt 0.670412 0.844326
vt 0.637427 0.844326
vt 0.616862 0.801620
vt 0.979441 0.233530
vt 0.979441 0.169347
vt 0.993598 0.169347
vt 0.877886 0.080818
vt 0.877886 0.070271
vt 0.877886 0.096059
vt 0.892312 0.096059
vt 0.624202 0.786379
vt 0.690979 0.818537
vt 0.892624 0.640655
vt 0.892624 0.625412
vt 0.907050 0.625412
vt 0.206315 0.901085
vt 0.222167 0.831634
vt 0.239083 0.831633
vt 0.066886 0.831634
vt 0.115507 0.831634
vt 0.099655 0.901085
vt 0.877886 0.138765
vt 0.892312 0.128218
vt 0.907050 0.608496
vt 0.194138 0.913262
vt 0.979755 0.717014
vt 0.979755 0.652831
vt 0.993912 0.652831
vt 0.979441 0.157170
vt 0.979441 0.092987
vt 0.993598 0.092987
vt 0.089174 0.913263
vt 0.089174 0.977446
vt 0.075017 0.977446
vt 0.921206 0.608496
vt 0.921206 0.625412
vt 0.286511 0.913262
vt 0.286511 0.977446
vt 0.272355 0.977446
vt 0.953421 0.807483
vt 0.953421 0.736245
vt 0.967578 0.736245
vt 0.892312 0.080818
vt 0.906468 0.202949
vt 0.892312 0.202949
vt 0.953421 0.961902
vt 0.953421 0.897718
vt 0.967578 0.897718
vt 0.906468 0.096059
vt 0.906468 0.112976
vt 0.683639 0.786379
vt 0.670413 0.775831
vt 0.653922 0.772067
vt 0.637429 0.775831
vt 0.616862 0.818537
vt 0.624203 0.833778
vt 0.653920 0.848089
vt 0.683639 0.833779
vt 0.690979 0.801620
vt 0.906468 0.080818
vt 0.993911 0.897718
vt 0.993911 0.961900
vt 0.979754 0.961900
vt 0.967578 0.494776
vt 0.892624 0.492990
vt 0.795996 0.207603
vt 0.006088 0.913263
vt 0.953421 0.821357
vt 0.246021 0.913262
vt 0.864596 0.952321
vt 0.543989 0.968316
vt 0.315733 0.901086
vt 0.892312 0.006088
vt 0.993598 0.233530
vt 0.907050 0.640655
vt 0.254935 0.901085
vt 0.082739 0.901086
vt 0.179712 0.913262
vt 0.993912 0.717014
vt 0.993598 0.157170
vt 0.075017 0.913263
vt 0.272355 0.913262
vt 0.967578 0.807483
vt 0.967578 0.961902
vt 0.979754 0.897718
s 1
usemtl Tire_mat
f 17/1/1 18/2/1 16/3/1
f 49/4/2 50/5/2 35/6/2
f 11/7/3 12/8/3 10/9/3
f 54/10/4 55/11/4 40/12/4
f 87/13/5 88/14/5 47/15/5
f 50/5/6 51/16/6 36/17/6
f 15/18/7 16/19/7 14/20/7
f 43/21/1 44/22/1 30/23/1
f 5/24/8 6/25/8 4/26/8
f 56/27/9 45/28/9 42/29/9
f 110/30/10 96/31/10 95/32/10
f 32/33/10 33/34/10 9/35/10
f 11/36/10 34/37/10 35/38/10
f 17/39/10 15/40/10 36/41/10
f 37/42/10 38/43/10 19/44/10
f 21/45/10 19/44/10 38/43/10
f 7/46/10 5/47/10 31/48/10
f 92/49/10 91/50/10 105/51/10
f 39/52/10 40/53/10 23/54/10
f 23/54/10 40/53/10 41/55/10
f 13/56/10 35/38/10 36/41/10
f 3/57/10 1/58/10 29/59/10
f 45/28/7 43/60/7 29/61/7
f 51/62/11 52/63/11 37/64/11
f 19/65/12 20/66/12 18/2/12
f 23/67/13 24/68/13 22/69/13
f 27/70/2 28/71/2 26/72/2
f 9/73/4 10/74/4 8/75/4
f 94/76/10 93/77/10 107/78/10
f 47/79/13 48/80/13 33/81/13
f 89/82/14 90/83/14 49/4/14
f 3/84/11 4/85/11 2/86/11
f 9/35/10 33/34/10 34/37/10
f 97/87/10 111/88/10 112/89/10
f 55/90/3 56/27/3 41/91/3
f 14/92/15 18/93/15 26/94/15
f 1/95/6 2/86/6 28/71/6
f 48/80/14 49/4/14 34/96/14
f 21/97/5 22/98/5 20/66/5
f 46/99/5 47/15/5 32/100/5
f 13/101/9 14/20/9 12/8/9
f 25/102/14 26/72/14 24/68/14
f 95/103/4 96/104/4 55/11/4
f 25/105/10 41/55/10 42/106/10
f 85/107/10 99/108/10 100/109/10
f 101/110/10 102/111/10 88/112/10
f 103/113/10 104/114/10 90/115/10
f 27/116/10 42/106/10 29/59/10
f 30/117/10 31/48/10 5/47/10
f 91/118/6 92/119/6 51/16/6
f 93/120/8 94/121/8 53/122/8
f 52/63/8 53/122/8 38/123/8
f 44/22/12 46/99/12 31/124/12
f 97/125/9 98/126/9 45/28/9
f 53/122/16 54/10/16 39/127/16
f 7/128/16 8/75/16 6/25/16
f 85/129/1 86/130/1 44/22/1
f 6/131/15 26/94/15 4/132/15
f 4/132/15 26/94/15 2/133/15
f 2/133/15 26/94/15 28/134/15
f 26/94/15 18/93/15 24/135/15
f 24/135/15 18/93/15 22/136/15
f 22/136/15 18/93/15 20/137/15
f 18/93/15 14/92/15 16/138/15
f 14/92/15 10/139/15 12/140/15
f 10/139/15 26/94/15 8/141/15
f 8/141/15 26/94/15 6/131/15
f 17/1/1 16/3/1 15/142/1
f 49/4/2 35/6/2 34/96/2
f 11/7/3 10/9/3 9/143/3
f 54/10/4 40/12/4 39/127/4
f 87/13/5 47/15/5 46/99/5
f 50/5/6 36/17/6 35/6/6
f 15/18/7 14/20/7 13/101/7
f 43/21/1 30/23/1 29/144/1
f 5/24/8 4/26/8 3/145/8
f 56/27/9 42/29/9 41/91/9
f 110/30/10 95/32/10 109/146/10
f 32/33/10 9/35/10 7/46/10
f 11/36/10 35/38/10 13/56/10
f 17/39/10 36/41/10 37/42/10
f 37/42/10 19/44/10 17/39/10
f 21/45/10 38/43/10 39/52/10
f 7/46/10 31/48/10 32/33/10
f 92/49/10 105/51/10 106/147/10
f 39/52/10 23/54/10 21/45/10
f 23/54/10 41/55/10 25/105/10
f 13/56/10 36/41/10 15/40/10
f 3/57/10 29/59/10 30/117/10
f 45/28/7 29/61/7 42/29/7
f 51/62/11 37/64/11 36/148/11
f 19/65/12 18/2/12 17/1/12
f 23/67/13 22/69/13 21/149/13
f 27/70/2 26/72/2 25/102/2
f 9/73/4 8/75/4 7/128/4
f 94/76/10 107/78/10 108/150/10
f 47/79/13 33/81/13 32/151/13
f 89/82/14 49/4/14 48/80/14
f 3/84/11 2/86/11 1/95/11
f 9/35/10 34/37/10 11/36/10
f 97/87/10 112/89/10 98/152/10
f 55/90/3 41/91/3 40/153/3
f 14/92/15 26/94/15 10/139/15
f 1/95/6 28/71/6 27/70/6
f 48/80/14 34/96/14 33/81/14
f 21/97/5 20/66/5 19/65/5
f 46/99/5 32/100/5 31/124/5
f 13/101/9 12/8/9 11/7/9
f 25/102/14 24/68/14 23/67/14
f 95/103/4 55/11/4 54/10/4
f 25/105/10 42/106/10 27/116/10
f 85/107/10 100/109/10 86/154/10
f 101/110/10 88/112/10 87/155/10
f 103/113/10 90/115/10 89/156/10
f 27/116/10 29/59/10 1/58/10
f 30/117/10 5/47/10 3/57/10
f 91/118/6 51/16/6 50/5/6
f 93/120/8 53/122/8 52/63/8
f 52/63/8 38/123/8 37/64/8
f 44/22/12 31/124/12 30/23/12
f 97/125/9 45/28/9 56/27/9
f 53/122/16 39/127/16 38/123/16
f 7/128/16 6/25/16 5/24/16
f 85/129/1 44/22/1 43/21/1
f 101/157/9 87/158/9 46/159/9
f 81/160/5 82/161/5 67/162/5
f 74/163/16 75/164/16 60/165/16
f 66/166/10 67/167/10 54/168/10
f 75/164/4 76/169/4 61/170/4
f 83/171/14 84/172/14 69/173/14
f 68/174/10 69/175/10 56/176/10
f 88/177/6 102/178/6 60/179/6
f 102/180/16 101/181/16 59/182/16
f 106/183/17 105/184/17 63/185/17
f 103/186/1 89/187/1 48/188/1
f 76/189/3 77/190/3 62/191/3
f 78/192/17 79/193/17 64/194/17
f 105/195/5 91/196/5 50/197/5
f 104/198/3 103/199/3 61/200/3
f 77/190/18 78/192/18 63/185/18
f 61/201/10 48/202/10 47/203/10
f 110/204/13 109/205/13 67/206/13
f 46/207/10 44/208/10 58/209/10
f 51/210/10 64/211/10 65/212/10
f 86/213/14 100/214/14 58/215/14
f 81/216/10 79/217/10 76/218/10
f 99/219/4 85/220/4 43/221/4
f 71/222/11 72/223/11 58/215/11
f 84/172/2 73/224/2 70/225/2
f 76/218/10 75/226/10 83/227/10
f 79/228/19 80/229/19 65/230/19
f 49/231/10 62/232/10 63/233/10
f 43/234/10 45/235/10 70/236/10
f 82/237/13 83/171/13 68/238/13
f 80/229/20 81/160/20 66/239/20
f 72/240/8 74/163/8 59/182/8
f 90/241/8 104/242/8 62/243/8
f 92/244/4 106/245/4 64/246/4
f 96/247/1 110/248/1 68/249/1
f 108/250/20 107/251/20 65/230/20
f 107/252/14 93/253/14 52/254/14
f 94/255/9 108/256/9 66/257/9
f 73/224/6 71/222/6 57/258/6
f 109/205/6 95/259/6 54/260/6
f 111/261/8 97/262/8 56/263/8
f 112/264/2 111/265/2 69/173/2
f 73/266/10 75/226/10 71/267/10
f 71/267/10 75/226/10 72/268/10
f 72/268/10 75/226/10 74/269/10
f 76/218/10 79/217/10 77/270/10
f 77/270/10 79/217/10 78/271/10
f 79/217/10 81/216/10 80/272/10
f 81/216/10 83/227/10 82/273/10
f 83/227/10 73/266/10 84/274/10
f 100/214/11 99/275/11 57/258/11
f 83/227/10 75/226/10 73/266/10
f 98/276/5 112/277/5 70/278/5
f 101/157/9 46/159/9 59/279/9
f 81/160/5 67/162/5 66/239/5
f 74/163/16 60/165/16 59/182/16
f 66/166/10 54/168/10 53/280/10
f 75/164/4 61/170/4 60/165/4
f 83/171/14 69/173/14 68/238/14
f 68/174/10 56/176/10 55/281/10
f 88/177/6 60/179/6 47/282/6
f 102/180/16 59/182/16 60/165/16
f 106/183/17 63/185/17 64/194/17
f 103/186/1 48/188/1 61/283/1
f 76/189/3 62/191/3 61/200/3
f 78/192/17 64/194/17 63/185/17
f 105/195/5 50/197/5 63/284/5
f 104/198/3 61/200/3 62/191/3
f 77/190/18 63/185/18 62/191/18
f 61/201/10 47/203/10 60/285/10
f 110/204/13 67/206/13 68/238/13
f 46/207/10 58/209/10 59/286/10
f 51/210/10 65/212/10 52/287/10
f 86/213/14 58/215/14 44/288/14
f 99/219/4 43/221/4 57/289/4
f 71/222/11 58/215/11 57/258/11
f 84/172/2 70/225/2 69/173/2
f 76/218/10 83/227/10 81/216/10
f 79/228/19 65/230/19 64/290/19
f 49/231/10 63/233/10 50/291/10
f 43/234/10 70/236/10 57/292/10
f 82/237/13 68/238/13 67/206/13
f 80/229/20 66/239/20 65/230/20
f 72/240/8 59/182/8 58/293/8
f 90/241/8 62/243/8 49/294/8
f 92/244/4 64/246/4 51/295/4
f 96/247/1 68/249/1 55/296/1
f 108/250/20 65/230/20 66/239/20
f 107/252/14 52/254/14 65/297/14
f 94/255/9 66/257/9 53/298/9
f 73/224/6 57/258/6 70/225/6
f 109/205/6 54/260/6 67/206/6
f 111/261/8 56/263/8 69/299/8
f 112/264/2 69/173/2 70/225/2
f 100/214/11 57/258/11 58/215/11
f 98/276/5 70/278/5 45/300/5
