# Blender 5.1.0
# www.blender.org
mtllib SignPharmacy.mtl
o Sign_Pharmacy
v 0.909065 -0.119543 0.036927
v 0.860496 0.085810 0.036927
v 0.845018 0.105444 0.036927
v 0.816155 0.114925 0.036927
v 0.817415 0.124524 0.036927
v 0.873120 0.123873 0.036927
v 0.895191 0.114757 0.036927
v 0.909301 0.095781 0.036927
v 0.944927 -0.053296 0.036927
v 1.038071 0.119543 0.036927
v 1.062976 0.119543 0.036927
v 0.904696 -0.171787 0.036927
v 0.876406 -0.202153 0.036927
v 0.847116 -0.213345 0.036927
v 0.814924 -0.214181 0.036927
v 0.817913 -0.199344 0.036927
v 0.847425 -0.195539 0.036927
v 0.879670 -0.170901 0.036927
v 0.752785 0.122445 0.036927
v 0.775178 0.114183 0.036927
v 0.788428 0.102285 0.036927
v 0.791636 0.079938 0.036927
v 0.785443 0.042346 0.036927
v 0.775814 0.042597 0.036927
v 0.775849 0.066670 0.036927
v 0.762261 0.092037 0.036927
v 0.735693 0.103921 0.036927
v 0.703957 0.103189 0.036927
v 0.674062 0.088110 0.036927
v 0.650265 0.058236 0.036927
v 0.633338 0.016255 0.036927
v 0.628393 -0.035655 0.036927
v 0.635221 -0.068772 0.036927
v 0.654133 -0.092599 0.036927
v 0.685293 -0.100182 0.036927
v 0.716051 -0.095688 0.036927
v 0.738662 -0.084456 0.036927
v 0.765303 -0.060061 0.036927
v 0.773900 -0.067818 0.036927
v 0.733932 -0.105206 0.036927
v 0.690007 -0.118910 0.036927
v 0.647342 -0.117941 0.036927
v 0.618975 -0.106712 0.036927
v 0.599114 -0.089668 0.036927
v 0.583407 -0.056251 0.036927
v 0.581762 -0.011869 0.036927
v 0.592957 0.036647 0.036927
v 0.617919 0.077904 0.036927
v 0.651388 0.107661 0.036927
v 0.699577 0.124754 0.036927
v 0.441635 0.104484 0.036927
v 0.419514 0.095690 0.036927
v 0.401176 0.077837 0.036927
v 0.385703 0.052364 0.036927
v 0.371212 0.008734 0.036927
v 0.366944 -0.041598 0.036927
v 0.371968 -0.071354 0.036927
v 0.381776 -0.088599 0.036927
v 0.396893 -0.098548 0.036927
v 0.435947 -0.096888 0.036927
v 0.466675 -0.071772 0.036927
v 0.493643 0.074948 0.036927
v 0.479325 0.096033 0.036927
v 0.462400 0.103733 0.036927
v 0.468524 0.121307 0.036927
v 0.488849 0.107740 0.036927
v 0.497802 0.096586 0.036927
v 0.521048 0.119543 0.036927
v 0.545953 0.119543 0.036927
v 0.505072 -0.114562 0.036927
v 0.480204 -0.114562 0.036927
v 0.464899 -0.091593 0.036927
v 0.440652 -0.109884 0.036927
v 0.413835 -0.118498 0.036927
v 0.381226 -0.119178 0.036927
v 0.360206 -0.113329 0.036927
v 0.336801 -0.095418 0.036927
v 0.324441 -0.069362 0.036927
v 0.319566 -0.040106 0.036927
v 0.325432 0.016448 0.036927
v 0.351106 0.072462 0.036927
v 0.384416 0.105706 0.036927
v 0.427153 0.124090 0.036927
v 0.012078 0.099313 0.036927
v 0.032882 0.112737 0.036927
v 0.066671 0.123685 0.036927
v 0.094003 0.124144 0.036927
v 0.123006 0.114504 0.036927
v 0.137204 0.090245 0.036927
v 0.160519 0.108983 0.036927
v 0.191408 0.121400 0.036927
v 0.222711 0.124813 0.036927
v 0.252505 0.117818 0.036927
v 0.268825 0.098527 0.036927
v 0.273980 0.079045 0.036927
v 0.273955 0.054765 0.036927
v 0.245732 -0.114555 0.036927
v 0.200921 -0.114549 0.036927
v 0.229150 0.053803 0.036927
v 0.228672 0.078827 0.036927
v 0.218100 0.097701 0.036927
v 0.195302 0.102233 0.036927
v 0.176707 0.096772 0.036927
v 0.153998 0.082553 0.036927
v 0.141233 0.070088 0.036927
v 0.138743 0.044135 0.036927
v 0.111115 -0.114562 0.036927
v 0.066464 -0.114550 0.036927
v 0.094623 0.053205 0.036927
v 0.094186 0.078827 0.036927
v 0.086835 0.094138 0.036927
v 0.068940 0.102620 0.036927
v 0.038501 0.096568 0.036927
v 0.010105 0.076014 0.036927
v -0.023371 -0.114562 0.036927
v -0.068174 -0.114562 0.036927
v -0.035102 0.078803 0.036927
v -0.039165 0.099970 0.036927
v -0.051769 0.108763 0.036927
v -0.073679 0.109581 0.036927
v -0.072185 0.119543 0.036927
v -0.015990 0.119198 0.036927
v 0.003199 0.113373 0.036927
v -0.271916 -0.114562 0.036927
v -0.238825 0.078571 0.036927
v -0.240843 0.094650 0.036927
v -0.245841 0.103483 0.036927
v -0.257935 0.109099 0.036927
v -0.272419 0.109581 0.036927
v -0.270925 0.119543 0.036927
v -0.219716 0.119182 0.036927
v -0.202680 0.114237 0.036927
v -0.191347 0.097228 0.036927
v -0.152798 0.121785 0.036927
v -0.118741 0.124321 0.036927
v -0.100803 0.120006 0.036927
v -0.090278 0.110455 0.036927
v -0.082965 0.095071 0.036927
v -0.106202 0.081119 0.036927
v -0.124358 0.093039 0.036927
v -0.148029 0.094530 0.036927
v -0.171598 0.088841 0.036927
v -0.194400 0.070504 0.036927
v -0.227092 -0.114562 0.036927
v -0.413595 0.104484 0.036927
v -0.435717 0.095689 0.036927
v -0.454054 0.077837 0.036927
v -0.469528 0.052365 0.036927
v -0.484018 0.008734 0.036927
v -0.488287 -0.041598 0.036927
v -0.483263 -0.071354 0.036927
v -0.473455 -0.088599 0.036927
v -0.458338 -0.098548 0.036927
v -0.419284 -0.096888 0.036927
v -0.388556 -0.071772 0.036927
v -0.361574 0.074748 0.036927
v -0.369788 0.088509 0.036927
v -0.384868 0.101894 0.036927
v -0.386707 0.121307 0.036927
v -0.366381 0.107740 0.036927
v -0.357429 0.096586 0.036927
v -0.334183 0.119543 0.036927
v -0.309278 0.119543 0.036927
v -0.350158 -0.114562 0.036927
v -0.375027 -0.114562 0.036927
v -0.390332 -0.091593 0.036927
v -0.414578 -0.109884 0.036927
v -0.441395 -0.118498 0.036927
v -0.474005 -0.119179 0.036927
v -0.499684 -0.111280 0.036927
v -0.518058 -0.094834 0.036927
v -0.529304 -0.074811 0.036927
v -0.535664 -0.040105 0.036927
v -0.532793 -0.000791 0.036927
v -0.523160 0.035063 0.036927
v -0.502829 0.074081 0.036927
v -0.470816 0.105706 0.036927
v -0.428078 0.124090 0.036927
v -0.721060 0.101663 0.036927
v -0.674584 0.123237 0.036927
v -0.624207 0.122400 0.036927
v -0.598784 0.108703 0.036927
v -0.587293 0.092880 0.036927
v -0.581913 0.074650 0.036927
v -0.581852 0.049465 0.036927
v -0.609528 -0.114558 0.036927
v -0.654078 -0.114487 0.036927
v -0.626904 0.048111 0.036927
v -0.627425 0.067889 0.036927
v -0.637261 0.089352 0.036927
v -0.652675 0.099171 0.036927
v -0.670514 0.102495 0.036927
v -0.691852 0.098490 0.036927
v -0.723715 0.078520 0.036927
v -0.759059 -0.114562 0.036927
v -0.803966 -0.114560 0.036927
v -0.772159 0.067138 0.036927
v -0.754841 0.169577 0.036927
v -0.755253 0.185239 0.036927
v -0.761220 0.197830 0.036927
v -0.773177 0.203699 0.036927
v -0.792929 0.204219 0.036927
v -0.790937 0.214181 0.036927
v -0.734146 0.213798 0.036927
v -0.717195 0.208774 0.036927
v -0.709829 0.197266 0.036927
v -0.709024 0.173977 0.036927
v -0.931058 0.040595 0.036927
v -0.900024 0.055929 0.036927
v -0.873968 0.084372 0.036927
v -0.862708 0.115681 0.036927
v -0.862032 0.144184 0.036927
v -0.869451 0.166374 0.036927
v -0.894379 0.190016 0.036927
v -0.929067 0.197303 0.036927
v -0.964215 0.191907 0.036927
v -0.990653 0.042186 0.036927
v -0.961511 0.037159 0.036927
v -1.018069 -0.114562 0.036927
v -1.062976 -0.114560 0.036927
v -1.038301 0.026460 0.036927
v -1.013941 0.168238 0.036927
v -1.014263 0.185239 0.036927
v -1.020230 0.197830 0.036927
v -1.032187 0.203699 0.036927
v -1.051939 0.204219 0.036927
v -1.049947 0.214181 0.036927
v -0.897485 0.213345 0.036927
v -0.853162 0.202923 0.036927
v -0.823107 0.178942 0.036927
v -0.812021 0.151154 0.036927
v -0.812487 0.116502 0.036927
v -0.824379 0.082094 0.036927
v -0.849541 0.051386 0.036927
v -0.884034 0.029823 0.036927
v -0.924352 0.020388 0.036927
v -0.994658 0.019924 0.036927
v 0.366944 -0.041598 -0.036927
v 0.371968 -0.071354 -0.036927
v -0.435717 0.095689 -0.036927
v -0.454054 0.077837 -0.036927
v 0.480204 -0.114562 -0.036927
v 0.464899 -0.091593 -0.036927
v 0.775814 0.042597 -0.036927
v 0.775849 0.066670 -0.036927
v -1.018069 -0.114562 -0.036927
v -1.062976 -0.114560 -0.036927
v 0.137204 0.090245 -0.036927
v 0.160519 0.108983 -0.036927
v 0.493643 0.074948 -0.036927
v 0.479325 0.096033 -0.036927
v 0.909065 -0.119543 -0.036927
v 0.860496 0.085810 -0.036927
v 0.674062 0.088110 -0.036927
v 0.617919 0.077904 -0.036927
v -0.238825 0.078571 -0.036927
v -0.240843 0.094650 -0.036927
v -0.812021 0.151154 -0.036927
v -0.812487 0.116502 -0.036927
v 0.752785 0.122445 -0.036927
v 0.699577 0.124754 -0.036927
v -0.626904 0.048111 -0.036927
v -0.627425 0.067889 -0.036927
v -0.502829 0.074081 -0.036927
v 0.488849 0.107740 -0.036927
v 0.497802 0.096586 -0.036927
v 0.545953 0.119543 -0.036927
v -0.388556 -0.071772 -0.036927
v -0.350158 -0.114562 -0.036927
v 0.651388 0.107661 -0.036927
v 0.775178 0.114183 -0.036927
v 0.396893 -0.098548 -0.036927
v 0.336801 -0.095418 -0.036927
v -0.535664 -0.040105 -0.036927
v -0.532793 -0.000791 -0.036927
v 0.319566 -0.040106 -0.036927
v 0.441635 0.104484 -0.036927
v 0.384416 0.105706 -0.036927
v -0.862032 0.144184 -0.036927
v -0.869451 0.166374 -0.036927
v -0.894379 0.190016 -0.036927
v -0.823107 0.178942 -0.036927
v -0.884034 0.029823 -0.036927
v -0.994658 0.019924 -0.036927
v 0.765303 -0.060061 -0.036927
v 0.773900 -0.067818 -0.036927
v 0.505072 -0.114562 -0.036927
v 0.268825 0.098527 -0.036927
v 0.195302 0.102233 -0.036927
v 0.141233 0.070088 -0.036927
v 0.094623 0.053205 -0.036927
v 0.191408 0.121400 -0.036927
v -0.721060 0.101663 -0.036927
v -0.598784 0.108703 -0.036927
v -0.581852 0.049465 -0.036927
v -0.654078 -0.114487 -0.036927
v -0.853162 0.202923 -0.036927
v -0.458338 -0.098548 -0.036927
v -0.419284 -0.096888 -0.036927
v -0.773177 0.203699 -0.036927
v -0.717195 0.208774 -0.036927
v -0.483263 -0.071354 -0.036927
v -0.529304 -0.074811 -0.036927
v 0.273955 0.054765 -0.036927
v 0.228672 0.078827 -0.036927
v -0.755253 0.185239 -0.036927
v -0.761220 0.197830 -0.036927
v 0.440652 -0.109884 -0.036927
v 0.360206 -0.113329 -0.036927
v -0.414578 -0.109884 -0.036927
v -0.441395 -0.118498 -0.036927
v 0.650265 0.058236 -0.036927
v 0.427153 0.124090 -0.036927
v 0.273980 0.079045 -0.036927
v -0.674584 0.123237 -0.036927
v -0.624207 0.122400 -0.036927
v -0.873968 0.084372 -0.036927
v -0.824379 0.082094 -0.036927
v 0.904696 -0.171787 -0.036927
v 0.879670 -0.170901 -0.036927
v 0.138743 0.044135 -0.036927
v 0.462400 0.103733 -0.036927
v -0.900024 0.055929 -0.036927
v -0.849541 0.051386 -0.036927
v -0.709024 0.173977 -0.036927
v 0.153998 0.082553 -0.036927
v 0.094186 0.078827 -0.036927
v 0.038501 0.096568 -0.036927
v -0.039165 0.099970 -0.036927
v -0.148029 0.094530 -0.036927
v -0.390332 -0.091593 -0.036927
v -0.272419 0.109581 -0.036927
v -0.219716 0.119182 -0.036927
v -0.257935 0.109099 -0.036927
v 0.371212 0.008734 -0.036927
v -0.469528 0.052365 -0.036927
v 0.845018 0.105444 -0.036927
v 0.895191 0.114757 -0.036927
v -0.484018 0.008734 -0.036927
v -0.523160 0.035063 -0.036927
v -0.270925 0.119543 -0.036927
v 0.788428 0.102285 -0.036927
v -0.068174 -0.114562 -0.036927
v -0.035102 0.078803 -0.036927
v -0.473455 -0.088599 -0.036927
v -0.518058 -0.094834 -0.036927
v 0.351106 0.072462 -0.036927
v -0.384868 0.101894 -0.036927
v -0.357429 0.096586 -0.036927
v -0.803966 -0.114560 -0.036927
v -0.772159 0.067138 -0.036927
v 0.876406 -0.202153 -0.036927
v -0.790937 0.214181 -0.036927
v -0.734146 0.213798 -0.036927
v -1.014263 0.185239 -0.036927
v -1.020230 0.197830 -0.036927
v 0.716051 -0.095688 -0.036927
v 0.738662 -0.084456 -0.036927
v -1.051939 0.204219 -0.036927
v -0.924352 0.020388 -0.036927
v 0.816155 0.114925 -0.036927
v 0.435947 -0.096888 -0.036927
v 0.222711 0.124813 -0.036927
v 0.200921 -0.114549 -0.036927
v 0.229150 0.053803 -0.036927
v 0.633338 0.016255 -0.036927
v 0.592957 0.036647 -0.036927
v 0.847425 -0.195539 -0.036927
v -0.792929 0.204219 -0.036927
v -1.038301 0.026460 -0.036927
v -1.013941 0.168238 -0.036927
v -0.964215 0.191907 -0.036927
v -0.990653 0.042186 -0.036927
v 0.413835 -0.118498 -0.036927
v 0.381226 -0.119178 -0.036927
v -0.413595 0.104484 -0.036927
v -0.090278 0.110455 -0.036927
v -0.082965 0.095071 -0.036927
v -0.152798 0.121785 -0.036927
v -0.581913 0.074650 -0.036927
v 0.252505 0.117818 -0.036927
v 0.123006 0.114504 -0.036927
v 0.068940 0.102620 -0.036927
v 0.032882 0.112737 -0.036927
v 0.735693 0.103921 -0.036927
v -0.499684 -0.111280 -0.036927
v -0.709829 0.197266 -0.036927
v 0.466675 -0.071772 -0.036927
v -0.386707 0.121307 -0.036927
v -0.366381 0.107740 -0.036927
v 0.419514 0.095690 -0.036927
v -0.073679 0.109581 -0.036927
v -0.015990 0.119198 -0.036927
v 0.012078 0.099313 -0.036927
v -0.051769 0.108763 -0.036927
v -0.474005 -0.119179 -0.036927
v 0.685293 -0.100182 -0.036927
v 0.618975 -0.106712 -0.036927
v 0.785443 0.042346 -0.036927
v -0.118741 0.124321 -0.036927
v 0.733932 -0.105206 -0.036927
v -0.072185 0.119543 -0.036927
v -0.470816 0.105706 -0.036927
v -0.271916 -0.114562 -0.036927
v -0.227092 -0.114562 -0.036927
v 0.703957 0.103189 -0.036927
v -0.171598 0.088841 -0.036927
v 0.218100 0.097701 -0.036927
v 0.468524 0.121307 -0.036927
v 0.324441 -0.069362 -0.036927
v -0.759059 -0.114562 -0.036927
v -0.931058 0.040595 -0.036927
v -0.428078 0.124090 -0.036927
v 0.003199 0.113373 -0.036927
v -0.245841 0.103483 -0.036927
v 0.791636 0.079938 -0.036927
v -0.961511 0.037159 -0.036927
v -0.191347 0.097228 -0.036927
v 0.847116 -0.213345 -0.036927
v 0.814924 -0.214181 -0.036927
v -0.375027 -0.114562 -0.036927
v 0.909301 0.095781 -0.036927
v 0.944927 -0.053296 -0.036927
v -0.202680 0.114237 -0.036927
v -0.691852 0.098490 -0.036927
v -0.670514 0.102495 -0.036927
v 0.385703 0.052364 -0.036927
v -0.862708 0.115681 -0.036927
v -0.587293 0.092880 -0.036927
v -1.049947 0.214181 -0.036927
v -0.897485 0.213345 -0.036927
v 1.062976 0.119543 -0.036927
v 0.111115 -0.114562 -0.036927
v 0.066464 -0.114550 -0.036927
v 0.381776 -0.088599 -0.036927
v -0.488287 -0.041598 -0.036927
v 0.599114 -0.089668 -0.036927
v -1.032187 0.203699 -0.036927
v 0.647342 -0.117941 -0.036927
v 1.038071 0.119543 -0.036927
v 0.010105 0.076014 -0.036927
v -0.023371 -0.114562 -0.036927
v -0.100803 0.120006 -0.036927
v 0.690007 -0.118910 -0.036927
v 0.094003 0.124144 -0.036927
v -0.309278 0.119543 -0.036927
v -0.723715 0.078520 -0.036927
v 0.401176 0.077837 -0.036927
v -0.652675 0.099171 -0.036927
v -0.754841 0.169577 -0.036927
v -0.334183 0.119543 -0.036927
v 0.086835 0.094138 -0.036927
v 0.581762 -0.011869 -0.036927
v 0.325432 0.016448 -0.036927
v -0.637261 0.089352 -0.036927
v -0.609528 -0.114558 -0.036927
v 0.628393 -0.035655 -0.036927
v 0.635221 -0.068772 -0.036927
v 0.762261 0.092037 -0.036927
v 0.873120 0.123873 -0.036927
v -0.369788 0.088509 -0.036927
v -0.929067 0.197303 -0.036927
v -0.194400 0.070504 -0.036927
v 0.176707 0.096772 -0.036927
v 0.654133 -0.092599 -0.036927
v -0.361574 0.074748 -0.036927
v 0.583407 -0.056251 -0.036927
v -0.124358 0.093039 -0.036927
v 0.817415 0.124524 -0.036927
v 0.066671 0.123685 -0.036927
v 0.245732 -0.114555 -0.036927
v -0.106202 0.081119 -0.036927
v 0.817913 -0.199344 -0.036927
v 0.521048 0.119543 -0.036927
vn -0.0000 -0.0000 1.0000
vn -0.0000 -0.0000 -1.0000
vn -0.4919 -0.8707 -0.0000
vn -0.1383 -0.9904 -0.0000
vn -0.9855 0.1696 -0.0000
vn -0.9850 0.1724 -0.0000
vn 0.4101 -0.9121 -0.0000
vn 0.0447 -0.9990 -0.0000
vn 0.5914 0.8064 -0.0000
vn 0.1443 0.9895 -0.0000
vn -0.9985 -0.0541 -0.0000
vn -0.9406 -0.3396 -0.0000
vn 0.5588 -0.8293 -0.0000
vn 0.8116 -0.5842 -0.0000
vn 0.6426 -0.7662 -0.0000
vn 0.8607 -0.5091 -0.0000
vn 0.6427 -0.7661 -0.0000
vn 0.1469 0.9891 -0.0000
vn -0.6314 0.7755 -0.0000
vn 0.6182 -0.7860 -0.0000
vn -0.7119 -0.7022 -0.0000
vn -0.9735 -0.2287 -0.0000
vn 0.9420 0.3356 -0.0000
vn 0.9991 0.0413 -0.0000
vn 0.9795 -0.2012 -0.0000
vn 0.9076 -0.4198 -0.0000
vn -0.5088 0.8609 -0.0000
vn -0.7686 0.6397 -0.0000
vn -0.9806 0.1961 -0.0000
vn 0.9895 0.1442 -0.0000
vn 0.8971 0.4417 -0.0000
vn -0.5657 0.8246 -0.0000
vn -0.2984 0.9544 -0.0000
vn 0.1180 -0.9930 -0.0000
vn 0.3842 -0.9233 -0.0000
vn 0.1179 0.9930 -0.0000
vn -0.6319 0.7751 -0.0000
vn 0.9547 0.2974 -0.0000
vn 0.6010 0.7992 -0.0000
vn 0.8030 0.5960 -0.0000
vn 0.4369 0.8995 -0.0000
vn -0.6817 0.7316 -0.0000
vn -0.9803 0.1975 -0.0000
vn 0.8787 -0.4774 -0.0000
vn 0.0610 0.9981 -0.0000
vn -0.2430 0.9700 -0.0000
vn -0.0003 -1.0000 -0.0000
vn 0.6435 -0.7654 -0.0000
vn -0.9973 0.0734 -0.0000
vn -0.9862 0.1654 -0.0000
vn -0.9973 0.0735 -0.0000
vn -0.9842 -0.1771 -0.0000
vn -0.8609 0.5088 -0.0000
vn -0.9731 -0.2303 -0.0000
vn -0.9972 0.0746 -0.0000
vn -0.9731 -0.2302 -0.0000
vn 0.4413 -0.8974 -0.0000
vn -0.2295 -0.9733 -0.0000
vn -0.6447 -0.7645 -0.0000
vn -0.5731 -0.8195 -0.0000
vn -0.9005 -0.4349 -0.0000
vn 0.4605 -0.8877 -0.0000
vn 0.6022 -0.7983 -0.0000
vn -0.0037 1.0000 -0.0000
vn 0.0869 -0.9962 -0.0000
vn 0.2665 0.9638 -0.0000
vn 0.7297 0.6838 -0.0000
vn -0.9647 0.2634 -0.0000
vn -0.9995 -0.0309 -0.0000
vn 0.7824 -0.6228 -0.0000
vn 0.5440 -0.8391 -0.0000
vn -0.7524 0.6587 -0.0000
vn -0.3805 0.9248 -0.0000
vn 0.1438 -0.9896 -0.0000
vn -0.3967 -0.9180 -0.0000
vn 0.1437 -0.9896 -0.0000
vn -0.9318 0.3629 -0.0000
vn -0.9860 0.1669 -0.0000
vn -0.7958 -0.6056 -0.0000
vn -0.5168 -0.8561 -0.0000
vn 0.6605 -0.7508 -0.0000
vn 0.8729 -0.4878 -0.0000
vn -0.2818 0.9595 -0.0000
vn 0.0292 0.9996 -0.0000
vn -0.4288 0.9034 -0.0000
vn -0.5422 0.8403 -0.0000
vn 0.6754 0.7374 -0.0000
vn 0.3220 0.9467 -0.0000
vn -0.9971 0.0756 -0.0000
vn -0.9853 0.1708 -0.0000
vn 0.9715 -0.2368 -0.0000
vn 0.8638 -0.5038 -0.0000
vn -0.0263 -0.9997 -0.0000
vn -0.2390 -0.9710 -0.0000
vn -0.9651 -0.2618 -0.0000
vn 0.9917 0.1285 -0.0000
vn 0.8868 0.4622 -0.0000
vn 0.1515 0.9885 -0.0000
vn -0.1643 0.9864 -0.0000
vn 0.9851 -0.1722 -0.0000
vn -0.8322 -0.5545 -0.0000
vn -0.4720 -0.8816 -0.0000
vn 0.9848 -0.1739 -0.0000
vn 0.6991 -0.7150 -0.0000
vn -0.9718 -0.2360 -0.0000
vn -0.5126 0.8586 -0.0000
vn -0.8803 0.4744 -0.0000
vn -0.5127 0.8586 -0.0000
vn -0.1250 -0.9922 -0.0000
vn 0.1651 -0.9863 -0.0000
vn -0.1249 -0.9922 -0.0000
vn -0.0016 -1.0000 -0.0000
vn 0.6450 -0.7642 -0.0000
vn 0.9910 -0.1336 -0.0000
vn -0.6499 0.7600 -0.0000
vn -0.9955 0.0947 -0.0000
vn -0.3798 0.9251 -0.0000
vn -0.7027 0.7115 -0.0000
vn 0.6430 -0.7659 -0.0000
vn 0.8477 -0.5304 -0.0000
vn 0.6430 -0.7658 -0.0000
vn 0.0007 -1.0000 -0.0000
vn -0.3669 -0.9302 -0.0000
vn -0.9889 -0.1489 -0.0000
vn -0.9830 0.1834 -0.0000
vn 0.8455 0.5339 -0.0000
vn 0.6061 0.7954 -0.0000
vn -0.9701 -0.2427 -0.0000
vn -1.0000 0.0015 -0.0000
vn 0.9573 -0.2890 -0.0000
vn 0.8028 0.5963 -0.0000
vn -0.0000 -1.0000 -0.0000
vn 0.6436 -0.7654 -0.0000
vn 0.5390 0.8423 -0.0000
vn 0.9060 0.4233 -0.0000
vn 0.4675 0.8840 -0.0000
vn -0.5052 0.8630 -0.0000
vn -0.6264 0.7795 -0.0000
vn -0.1687 0.9857 -0.0000
vn -0.5587 0.8294 -0.0000
vn 0.9966 -0.0823 -0.0000
vn -0.9786 -0.2059 -0.0000
vn 0.5223 0.8527 -0.0000
vn -0.9897 0.1433 -0.0000
vn -0.3176 -0.9482 -0.0000
vn -0.8389 -0.5444 -0.0000
vn -0.7774 -0.6290 -0.0000
vn -0.4460 -0.8950 -0.0000
vn -0.3164 -0.9486 -0.0000
vn -0.1985 -0.9801 -0.0000
vn 0.1394 -0.9902 -0.0000
vn -0.9493 -0.3145 -0.0000
vn -0.9997 0.0224 -0.0000
vn 0.9985 0.0541 -0.0000
vn 0.0808 0.9967 -0.0000
vn 0.8478 -0.5304 -0.0000
vn 0.3999 -0.9166 -0.0000
vn 0.9851 -0.1723 -0.0000
vn 0.9833 0.1821 -0.0000
vn -0.1229 -0.9924 -0.0000
vn -0.7053 -0.7089 -0.0000
vn 0.1971 0.9804 -0.0000
vn -0.1482 0.9890 -0.0000
vn 0.3641 -0.9313 -0.0000
vn -0.9741 -0.2261 -0.0000
vn -0.9976 0.0696 -0.0000
vn -0.9741 -0.2260 -0.0000
vn 0.2427 -0.9701 -0.0000
vn -0.1975 -0.9803 -0.0000
vn -0.6551 0.7556 -0.0000
vn -0.8465 -0.5324 -0.0000
vn -0.7799 -0.6259 -0.0000
vn 0.9979 -0.0651 -0.0000
vn 0.9833 0.1820 -0.0000
vn -0.3559 0.9345 -0.0000
vn 0.7799 0.6259 -0.0000
vn -0.0201 -0.9998 -0.0000
vn 0.6296 0.7769 -0.0000
vn -0.9541 -0.2993 -0.0000
vn -0.9541 -0.2994 -0.0000
vn 0.1703 -0.9854 -0.0000
vn 0.5164 0.8564 -0.0000
vn 0.5163 0.8564 -0.0000
vn 0.0468 0.9989 -0.0000
vn -0.0000 1.0000 -0.0000
vn 0.6403 -0.7682 -0.0000
vn 0.8276 -0.5613 -0.0000
vn 0.6403 -0.7681 -0.0000
vn 0.9020 -0.4318 -0.0000
vn 0.6461 -0.7632 -0.0000
vn -0.8434 -0.5373 -0.0000
vn -0.0373 -0.9993 -0.0000
vn -0.2319 -0.9727 -0.0000
vn -0.6782 -0.7349 -0.0000
vn -0.7540 -0.6569 -0.0000
vn -0.0261 -0.9997 -0.0000
vn 0.6371 -0.7708 -0.0000
vn 0.6699 0.7425 -0.0000
vn 0.5031 -0.8642 -0.0000
vn -0.3153 0.9490 -0.0000
vn 0.5032 -0.8642 -0.0000
vn 0.6831 -0.7303 -0.0000
vn 0.9060 0.4232 -0.0000
vn 0.6144 0.7890 -0.0000
vn 0.6582 0.7528 -0.0000
vn 0.2003 0.9797 -0.0000
vn -0.6502 0.7597 -0.0000
vn -0.9889 0.1483 -0.0000
vn 0.1499 0.9887 -0.0000
vn -0.9726 -0.2323 -0.0000
vn -0.9975 0.0705 -0.0000
vn 0.6463 -0.7631 -0.0000
vn 0.9965 -0.0830 -0.0000
vn -0.9862 0.1655 -0.0000
vn -0.0274 -0.9996 -0.0000
vn -0.4644 -0.8856 -0.0000
vn 0.6309 -0.7759 -0.0000
vn -0.8045 0.5939 -0.0000
vn 0.6434 -0.7655 -0.0000
vn 0.9851 -0.1720 -0.0000
vn -0.0001 -1.0000 -0.0000
vn -0.7119 -0.7023 -0.0000
vn -0.9266 0.3760 -0.0000
vn -0.5877 -0.8091 -0.0000
vn -0.5373 0.8434 -0.0000
vn -0.5608 0.8280 -0.0000
vn -0.8559 0.5171 -0.0000
vn -0.6004 0.7997 -0.0000
vn 0.2526 0.9676 -0.0000
vn -0.2075 0.9782 -0.0000
vn -0.8609 0.5087 -0.0000
vn 0.8322 0.5545 -0.0000
vn -0.8388 -0.5444 -0.0000
vn -0.9999 -0.0101 -0.0000
vn 0.9864 -0.1642 -0.0000
vn 0.9979 -0.0652 -0.0000
vn -0.4210 0.9070 -0.0000
vn -0.9863 0.1648 -0.0000
vn 0.8631 0.5051 -0.0000
vn -0.6815 -0.7318 -0.0000
vn -0.0333 -0.9994 -0.0000
vn 0.5224 0.8527 -0.0000
vn -0.6781 -0.7349 -0.0000
vn 0.9999 -0.0103 -0.0000
vn 0.8819 0.4714 -0.0000
vn 0.1700 0.9854 -0.0000
vn -0.9856 0.1689 -0.0000
vn -0.8207 0.5713 -0.0000
vn 0.0260 -0.9997 -0.0000
vn 0.1942 -0.9810 -0.0000
vn 0.9726 0.2324 -0.0000
vn -0.9857 0.1686 -0.0000
vn -0.7703 -0.6377 -0.0000
vt 0.270307 0.824034
vt 0.278723 0.825458
vt 0.270477 0.825458
vt 0.282006 0.824146
vt 0.289658 0.799340
vt 0.306833 0.825145
vt 0.303146 0.825102
vt 0.283908 0.781720
vt 0.274595 0.822680
vt 0.284127 0.821359
vt 0.276920 0.819798
vt 0.284465 0.789465
vt 0.280203 0.781807
vt 0.275472 0.778102
vt 0.279773 0.777173
vt 0.271111 0.777488
vt 0.270694 0.775285
vt 0.275457 0.775464
vt 0.414703 0.907678
vt 0.429345 0.911642
vt 0.421484 0.911042
vt 0.432781 0.910822
vt 0.434939 0.909306
vt 0.427159 0.908616
vt 0.422508 0.907948
vt 0.431274 0.907337
vt 0.418380 0.905203
vt 0.435804 0.906076
vt 0.410309 0.902710
vt 0.433718 0.903846
vt 0.415410 0.900389
vt 0.407368 0.896202
vt 0.435558 0.900438
vt 0.434138 0.900305
vt 0.413662 0.893916
vt 0.406578 0.888869
vt 0.413851 0.886194
vt 0.407603 0.882370
vt 0.415439 0.881444
vt 0.430919 0.880963
vt 0.435804 0.884032
vt 0.434404 0.885021
vt 0.410501 0.877733
vt 0.418639 0.878273
vt 0.430590 0.877828
vt 0.427794 0.878912
vt 0.423353 0.877708
vt 0.413721 0.875577
vt 0.418088 0.874426
vt 0.424376 0.875037
vt 0.400141 0.908881
vt 0.406578 0.913458
vt 0.402947 0.912824
vt 0.406578 0.878256
vt 0.383375 0.907323
vt 0.395243 0.911743
vt 0.389139 0.911095
vt 0.398552 0.910281
vt 0.391750 0.908603
vt 0.394797 0.909022
vt 0.397461 0.908330
vt 0.388748 0.906756
vt 0.400086 0.905618
vt 0.379364 0.901623
vt 0.386529 0.903683
vt 0.399889 0.883521
vt 0.384921 0.899572
vt 0.377047 0.892795
vt 0.383919 0.892836
vt 0.377632 0.884393
vt 0.384578 0.885383
vt 0.386069 0.881169
vt 0.379087 0.880248
vt 0.381553 0.876761
vt 0.387938 0.878902
vt 0.396048 0.879073
vt 0.400135 0.880584
vt 0.390396 0.877836
vt 0.402952 0.877622
vt 0.397065 0.877297
vt 0.385422 0.874744
vt 0.393374 0.875356
vt 0.388636 0.874426
vt 0.270812 0.864725
vt 0.271342 0.873775
vt 0.270307 0.869362
vt 0.270472 0.846248
vt 0.271832 0.854593
vt 0.270405 0.850297
vt 0.272093 0.841243
vt 0.272559 0.825458
vt 0.271136 0.834003
vt 0.271084 0.825679
vt 0.271998 0.836846
vt 0.272649 0.860149
vt 0.272680 0.828703
vt 0.274198 0.876193
vt 0.274080 0.838161
vt 0.273982 0.830570
vt 0.273591 0.846584
vt 0.273649 0.865302
vt 0.274320 0.868679
vt 0.275423 0.856696
vt 0.274486 0.842075
vt 0.274457 0.862547
vt 0.274846 0.849235
vt 0.277115 0.831172
vt 0.276562 0.859183
vt 0.277082 0.876956
vt 0.277113 0.850323
vt 0.277114 0.870245
vt 0.277529 0.837868
vt 0.305739 0.832908
vt 0.278407 0.857292
vt 0.280676 0.876952
vt 0.280906 0.850388
vt 0.280818 0.870315
vt 0.282249 0.856923
vt 0.305739 0.866132
vt 0.305738 0.846215
vt 0.305740 0.872770
vt 0.305739 0.826271
vt 0.305740 0.852829
vt 0.421580 0.775649
vt 0.413884 0.775930
vt 0.416538 0.775285
vt 0.439291 0.777417
vt 0.431486 0.776012
vt 0.439067 0.775942
vt 0.428966 0.776751
vt 0.412329 0.777348
vt 0.437147 0.777493
vt 0.427294 0.779274
vt 0.435359 0.778329
vt 0.411252 0.779629
vt 0.434622 0.779639
vt 0.420883 0.779688
vt 0.417380 0.779917
vt 0.414696 0.781688
vt 0.424374 0.780523
vt 0.434329 0.782022
vt 0.427755 0.783231
vt 0.432656 0.810634
vt 0.439291 0.810619
vt 0.322928 0.911411
vt 0.329365 0.915988
vt 0.325733 0.915354
vt 0.329365 0.880786
vt 0.306162 0.909853
vt 0.318029 0.914273
vt 0.311925 0.913625
vt 0.321339 0.912811
vt 0.314537 0.911133
vt 0.318792 0.911487
vt 0.311535 0.909286
vt 0.321332 0.909918
vt 0.322880 0.908119
vt 0.302299 0.904422
vt 0.309315 0.906213
vt 0.322676 0.886051
vt 0.307708 0.902102
vt 0.300327 0.898211
vt 0.306706 0.895366
vt 0.299836 0.892733
vt 0.300418 0.886923
vt 0.307365 0.887913
vt 0.308855 0.883699
vt 0.302229 0.882021
vt 0.310724 0.881432
vt 0.318835 0.881603
vt 0.322922 0.883114
vt 0.304379 0.879386
vt 0.313182 0.880366
vt 0.325738 0.880152
vt 0.319852 0.879827
vt 0.307477 0.877454
vt 0.316161 0.877886
vt 0.311423 0.876956
vt 0.409066 0.827177
vt 0.400419 0.825458
vt 0.408822 0.825692
vt 0.397885 0.826115
vt 0.406141 0.827153
vt 0.396737 0.827781
vt 0.404342 0.827961
vt 0.403395 0.829794
vt 0.396498 0.831224
vt 0.403254 0.832110
vt 0.397909 0.841991
vt 0.383686 0.838425
vt 0.391144 0.838559
vt 0.379855 0.840322
vt 0.405291 0.847364
vt 0.390435 0.841609
vt 0.378074 0.842606
vt 0.393571 0.842311
vt 0.387779 0.842010
vt 0.385448 0.843384
vt 0.398183 0.845431
vt 0.377185 0.845277
vt 0.383883 0.846511
vt 0.402423 0.874196
vt 0.377047 0.849005
vt 0.383705 0.849437
vt 0.409066 0.874426
vt 0.386892 0.873647
vt 0.380301 0.873429
vt 0.379232 0.777427
vt 0.356429 0.775285
vt 0.378989 0.775942
vt 0.349819 0.776600
vt 0.376308 0.777403
vt 0.374509 0.778211
vt 0.361019 0.777821
vt 0.355850 0.778722
vt 0.366191 0.778800
vt 0.345249 0.779997
vt 0.373561 0.780044
vt 0.369336 0.801101
vt 0.352041 0.782094
vt 0.373427 0.782559
vt 0.343467 0.784053
vt 0.350830 0.785342
vt 0.343359 0.789186
vt 0.350784 0.789565
vt 0.352289 0.794257
vt 0.344942 0.794340
vt 0.355998 0.798602
vt 0.348507 0.799015
vt 0.360511 0.801031
vt 0.376304 0.803673
vt 0.353499 0.802384
vt 0.364999 0.801695
vt 0.369814 0.804417
vt 0.359415 0.803988
vt 0.372589 0.824446
vt 0.379232 0.824676
vt 0.343359 0.824034
vt 0.343189 0.825458
vt 0.334942 0.825458
vt 0.331660 0.824146
vt 0.324007 0.799340
vt 0.310519 0.825102
vt 0.329757 0.781720
vt 0.339070 0.822680
vt 0.329538 0.821359
vt 0.336745 0.819798
vt 0.329201 0.789465
vt 0.333463 0.781807
vt 0.338193 0.778102
vt 0.333892 0.777173
vt 0.342555 0.777488
vt 0.342972 0.775285
vt 0.338208 0.775464
vt 0.417191 0.829422
vt 0.423971 0.826058
vt 0.431832 0.825458
vt 0.435269 0.826278
vt 0.437427 0.827794
vt 0.429647 0.828484
vt 0.424996 0.829152
vt 0.433762 0.829763
vt 0.420868 0.831897
vt 0.438292 0.831024
vt 0.412796 0.834389
vt 0.436206 0.833254
vt 0.417897 0.836711
vt 0.409856 0.840898
vt 0.438045 0.836662
vt 0.436626 0.836795
vt 0.416150 0.843184
vt 0.409066 0.848231
vt 0.416339 0.850906
vt 0.410091 0.854729
vt 0.417927 0.855656
vt 0.433407 0.856137
vt 0.436892 0.852079
vt 0.438292 0.853068
vt 0.412989 0.859367
vt 0.421127 0.858827
vt 0.433078 0.859272
vt 0.430282 0.858188
vt 0.425840 0.859392
vt 0.416209 0.861523
vt 0.420576 0.862674
vt 0.426864 0.862063
vt 0.364268 0.879426
vt 0.367073 0.875484
vt 0.370705 0.874849
vt 0.370705 0.910052
vt 0.347502 0.880985
vt 0.353265 0.877213
vt 0.359369 0.876565
vt 0.362678 0.878027
vt 0.355877 0.879705
vt 0.358923 0.879285
vt 0.361588 0.879978
vt 0.352875 0.881552
vt 0.364212 0.882690
vt 0.343491 0.886684
vt 0.350655 0.884624
vt 0.364016 0.904786
vt 0.349048 0.888735
vt 0.341173 0.895512
vt 0.348045 0.895471
vt 0.341758 0.903914
vt 0.348705 0.902925
vt 0.350195 0.907139
vt 0.343214 0.908059
vt 0.345680 0.911546
vt 0.352064 0.909405
vt 0.360175 0.909234
vt 0.364262 0.907724
vt 0.354522 0.910472
vt 0.367078 0.910686
vt 0.361192 0.911011
vt 0.349549 0.913563
vt 0.357501 0.912951
vt 0.352763 0.913881
vt 0.306245 0.837689
vt 0.305740 0.833052
vt 0.306776 0.828639
vt 0.305906 0.856166
vt 0.305838 0.852118
vt 0.307265 0.847821
vt 0.307526 0.861171
vt 0.307992 0.876956
vt 0.306518 0.876735
vt 0.306569 0.868411
vt 0.307432 0.865568
vt 0.308083 0.842265
vt 0.308114 0.873711
vt 0.309631 0.826221
vt 0.309513 0.864253
vt 0.309415 0.871844
vt 0.309024 0.855830
vt 0.309082 0.837112
vt 0.309753 0.833735
vt 0.310856 0.845718
vt 0.309920 0.860339
vt 0.309890 0.839867
vt 0.310280 0.853179
vt 0.312549 0.871242
vt 0.311995 0.843231
vt 0.312515 0.825458
vt 0.312546 0.852091
vt 0.312547 0.832169
vt 0.312962 0.864546
vt 0.341172 0.869506
vt 0.313840 0.845122
vt 0.316109 0.825462
vt 0.316339 0.852026
vt 0.316251 0.832099
vt 0.317682 0.845491
vt 0.341172 0.836282
vt 0.341171 0.856199
vt 0.341173 0.829644
vt 0.341172 0.876143
vt 0.341173 0.849584
vt 0.416907 0.946627
vt 0.411864 0.946992
vt 0.409211 0.946346
vt 0.434618 0.944859
vt 0.434393 0.946334
vt 0.426813 0.946264
vt 0.424293 0.945526
vt 0.407656 0.944928
vt 0.432474 0.944783
vt 0.422621 0.943002
vt 0.430686 0.943947
vt 0.406578 0.942647
vt 0.429949 0.942637
vt 0.416210 0.942588
vt 0.412706 0.942360
vt 0.410023 0.940588
vt 0.419700 0.941754
vt 0.429655 0.940255
vt 0.423082 0.939045
vt 0.427983 0.911642
vt 0.434618 0.911657
vt 0.293399 0.881533
vt 0.296204 0.877591
vt 0.299836 0.876956
vt 0.299836 0.912159
vt 0.276632 0.883091
vt 0.282396 0.879320
vt 0.288500 0.878672
vt 0.291809 0.880134
vt 0.285008 0.881812
vt 0.289263 0.881458
vt 0.282006 0.883659
vt 0.291803 0.883026
vt 0.293351 0.884825
vt 0.272770 0.888522
vt 0.279786 0.886731
vt 0.293147 0.906893
vt 0.278179 0.890842
vt 0.270798 0.894734
vt 0.277177 0.897578
vt 0.270307 0.900211
vt 0.270889 0.906021
vt 0.277836 0.905031
vt 0.279326 0.909245
vt 0.272700 0.910923
vt 0.281195 0.911512
vt 0.289306 0.911341
vt 0.293393 0.909831
vt 0.274850 0.913558
vt 0.283653 0.912579
vt 0.296209 0.912792
vt 0.290323 0.913118
vt 0.277948 0.915490
vt 0.286632 0.915058
vt 0.281894 0.915988
vt 0.411252 0.822534
vt 0.411008 0.824019
vt 0.402604 0.824253
vt 0.400071 0.823596
vt 0.408327 0.822558
vt 0.398922 0.821930
vt 0.406528 0.821750
vt 0.405580 0.819917
vt 0.398684 0.818487
vt 0.405439 0.817600
vt 0.400094 0.807720
vt 0.393329 0.811152
vt 0.385872 0.811286
vt 0.382041 0.809388
vt 0.407477 0.802347
vt 0.392621 0.808102
vt 0.380260 0.807105
vt 0.395757 0.807399
vt 0.389964 0.807701
vt 0.387634 0.806327
vt 0.400368 0.804280
vt 0.379370 0.804434
vt 0.386069 0.803200
vt 0.404608 0.775515
vt 0.379232 0.800706
vt 0.385890 0.800274
vt 0.411252 0.775285
vt 0.389078 0.776064
vt 0.382487 0.776282
vt 0.377047 0.872707
vt 0.376803 0.874192
vt 0.354244 0.874849
vt 0.347633 0.873534
vt 0.374122 0.872731
vt 0.372323 0.871923
vt 0.358834 0.872313
vt 0.353665 0.871412
vt 0.364006 0.871334
vt 0.343064 0.870138
vt 0.371376 0.870090
vt 0.367150 0.849033
vt 0.349856 0.868040
vt 0.371241 0.867575
vt 0.341282 0.866081
vt 0.348645 0.864793
vt 0.341173 0.860948
vt 0.348599 0.860569
vt 0.350104 0.855877
vt 0.342756 0.855794
vt 0.353813 0.851532
vt 0.346321 0.851119
vt 0.358326 0.849103
vt 0.374119 0.846461
vt 0.351314 0.847750
vt 0.362813 0.848439
vt 0.367629 0.845717
vt 0.357230 0.846146
vt 0.370403 0.825688
vt 0.377047 0.825458
vt 0.352106 0.953318
vt 0.341173 0.957283
vt 0.341173 0.953318
vt 0.435804 0.901330
vt 0.446737 0.874426
vt 0.446737 0.901330
vt 0.300253 0.977785
vt 0.297737 0.966846
vt 0.300253 0.966846
vt 0.270307 0.974835
vt 0.281239 0.972207
vt 0.281239 0.974835
vt 0.457669 0.878935
vt 0.468601 0.874426
vt 0.468601 0.878935
vt 0.340297 0.876956
vt 0.329365 0.882802
vt 0.329365 0.876956
vt 0.314036 0.915988
vt 0.303104 0.942887
vt 0.303104 0.915988
vt 0.472088 0.779443
vt 0.461156 0.787509
vt 0.461156 0.779443
vt 0.281239 0.945142
vt 0.270307 0.948470
vt 0.270307 0.945142
vt 0.449225 0.825458
vt 0.438292 0.826908
vt 0.438292 0.825458
vt 0.406578 0.972398
vt 0.417511 0.968715
vt 0.417511 0.972398
vt 0.303104 0.961471
vt 0.314036 0.954706
vt 0.314036 0.961471
vt 0.439291 0.805401
vt 0.450223 0.799563
vt 0.450223 0.805401
vt 0.374790 0.946278
vt 0.376277 0.957218
vt 0.374790 0.957218
vt 0.457669 0.931625
vt 0.446737 0.933738
vt 0.446737 0.931625
vt 0.460157 0.856280
vt 0.471089 0.853559
vt 0.471089 0.856280
vt 0.468601 0.959651
vt 0.457669 0.965188
vt 0.457669 0.959651
vt 0.363038 0.925905
vt 0.352106 0.947549
vt 0.352106 0.925905
vt 0.472088 0.775285
vt 0.461156 0.776824
vt 0.461156 0.775285
vt 0.363038 0.913881
vt 0.352106 0.919174
vt 0.352106 0.913881
vt 0.374126 0.924398
vt 0.376342 0.935338
vt 0.374126 0.935338
vt 0.340297 0.882802
vt 0.329365 0.931819
vt 0.377047 0.961417
vt 0.387979 0.957127
vt 0.387979 0.961417
vt 0.383505 0.980024
vt 0.377047 0.969085
vt 0.383505 0.969085
vt 0.450223 0.800149
vt 0.461156 0.800149
vt 0.373970 0.946695
vt 0.363038 0.968457
vt 0.363038 0.946695
vt 0.329365 0.960141
vt 0.340297 0.956597
vt 0.340297 0.960141
vt 0.314036 0.946774
vt 0.303104 0.946774
vt 0.430931 0.868986
vt 0.419999 0.871679
vt 0.419999 0.868986
vt 0.403538 0.924398
vt 0.406397 0.935338
vt 0.403538 0.935338
vt 0.328964 0.959748
vt 0.324995 0.970687
vt 0.324995 0.959748
vt 0.468601 0.915428
vt 0.473343 0.926367
vt 0.468601 0.926367
vt 0.464385 0.798449
vt 0.461156 0.798449
vt 0.357566 0.965346
vt 0.360135 0.976286
vt 0.357566 0.976286
vt 0.435804 0.935072
vt 0.446737 0.926902
vt 0.446737 0.935072
vt 0.303104 0.950318
vt 0.314036 0.946774
vt 0.314036 0.950318
vt 0.387979 0.918521
vt 0.377047 0.913458
vt 0.387979 0.913458
vt 0.419999 0.865958
vt 0.409066 0.870197
vt 0.409066 0.865958
vt 0.363038 0.919174
vt 0.457669 0.890032
vt 0.468601 0.884553
vt 0.468601 0.890032
vt 0.329011 0.948808
vt 0.324995 0.937868
vt 0.329011 0.937868
vt 0.450223 0.805401
vt 0.439291 0.808814
vt 0.428443 0.952043
vt 0.417511 0.957739
vt 0.417511 0.952043
vt 0.465698 0.965188
vt 0.467829 0.976127
vt 0.465698 0.976127
vt 0.460157 0.864795
vt 0.471089 0.860627
vt 0.471089 0.864795
vt 0.374126 0.913458
vt 0.446737 0.952233
vt 0.435804 0.955698
vt 0.435804 0.952233
vt 0.449225 0.829259
vt 0.438292 0.850228
vt 0.438292 0.829259
vt 0.468601 0.915790
vt 0.457669 0.922486
vt 0.457669 0.915790
vt 0.468601 0.885366
vt 0.471474 0.896306
vt 0.468601 0.896306
vt 0.450223 0.803608
vt 0.461156 0.803608
vt 0.446737 0.876721
vt 0.457669 0.874426
vt 0.457669 0.876721
vt 0.457669 0.941909
vt 0.468601 0.938055
vt 0.468601 0.941909
vt 0.428443 0.957739
vt 0.417511 0.963103
vt 0.399065 0.946278
vt 0.402004 0.957218
vt 0.399065 0.957218
vt 0.450223 0.803608
vt 0.461156 0.825369
vt 0.450223 0.825369
vt 0.439291 0.779141
vt 0.450223 0.775285
vt 0.450223 0.779141
vt 0.449225 0.854235
vt 0.460157 0.825458
vt 0.460157 0.854235
vt 0.471089 0.832638
vt 0.460157 0.837336
vt 0.460157 0.832638
vt 0.475046 0.915428
vt 0.468601 0.904488
vt 0.475046 0.904488
vt 0.281239 0.915988
vt 0.270307 0.939029
vt 0.270307 0.915988
vt 0.270307 0.972207
vt 0.281239 0.964934
vt 0.303104 0.972180
vt 0.314036 0.968498
vt 0.314036 0.972180
vt 0.439291 0.785235
vt 0.450223 0.785235
vt 0.417511 0.950535
vt 0.406578 0.946992
vt 0.417511 0.946992
vt 0.329365 0.926928
vt 0.324995 0.915988
vt 0.281239 0.948210
vt 0.292171 0.920523
vt 0.292171 0.948210
vt 0.406578 0.961688
vt 0.417511 0.954923
vt 0.417511 0.961688
vt 0.399065 0.935338
vt 0.402004 0.946278
vt 0.399169 0.966792
vt 0.401854 0.977732
vt 0.399169 0.977732
vt 0.292171 0.950924
vt 0.281239 0.954925
vt 0.281239 0.950924
vt 0.446737 0.975777
vt 0.457669 0.973914
vt 0.457669 0.975777
vt 0.419999 0.863034
vt 0.409066 0.863034
vt 0.373545 0.874849
vt 0.376896 0.885789
vt 0.373545 0.885789
vt 0.281239 0.965133
vt 0.292171 0.966832
vt 0.281239 0.966832
vt 0.428443 0.957932
vt 0.434937 0.946992
vt 0.434937 0.957932
vt 0.460157 0.844650
vt 0.471089 0.840944
vt 0.471089 0.844650
vt 0.281239 0.968735
vt 0.468601 0.937307
vt 0.472388 0.926367
vt 0.472388 0.937307
vt 0.281239 0.959668
vt 0.270307 0.964933
vt 0.270307 0.959668
vt 0.457669 0.928247
vt 0.446737 0.928247
vt 0.430931 0.871679
vt 0.419999 0.874418
vt 0.376277 0.968157
vt 0.374790 0.968157
vt 0.387979 0.965941
vt 0.387979 0.969085
vt 0.377047 0.953284
vt 0.387979 0.927159
vt 0.387979 0.953284
vt 0.373899 0.896729
vt 0.376000 0.907669
vt 0.373899 0.907669
vt 0.471089 0.825458
vt 0.460157 0.829411
vt 0.464385 0.787509
vt 0.467855 0.798449
vt 0.450223 0.813274
vt 0.439291 0.819479
vt 0.439291 0.813274
vt 0.314036 0.946684
vt 0.324968 0.944548
vt 0.324968 0.946684
vt 0.468601 0.908509
vt 0.457669 0.908509
vt 0.292171 0.968735
vt 0.281239 0.971463
vt 0.281239 0.920523
vt 0.292171 0.915988
vt 0.428443 0.963103
vt 0.417511 0.967787
vt 0.433787 0.873974
vt 0.430931 0.863034
vt 0.433787 0.863034
vt 0.460157 0.860155
vt 0.449225 0.867796
vt 0.449225 0.860155
vt 0.396210 0.966792
vt 0.396210 0.977732
vt 0.457669 0.936227
vt 0.446737 0.938954
vt 0.446737 0.936227
vt 0.461156 0.803608
vt 0.465722 0.814548
vt 0.461156 0.814548
vt 0.472488 0.851884
vt 0.471089 0.851884
vt 0.352106 0.947878
vt 0.341173 0.950138
vt 0.341173 0.947878
vt 0.329365 0.972365
vt 0.340297 0.975442
vt 0.329365 0.975442
vt 0.428443 0.967787
vt 0.417511 0.970826
vt 0.457669 0.965188
vt 0.463129 0.976127
vt 0.457669 0.976127
vt 0.446737 0.950484
vt 0.435804 0.950484
vt 0.328964 0.959748
vt 0.324995 0.948808
vt 0.328964 0.948808
vt 0.467855 0.787509
vt 0.470857 0.798449
vt 0.457669 0.946435
vt 0.468601 0.946435
vt 0.435804 0.923077
vt 0.446737 0.920076
vt 0.446737 0.923077
vt 0.281239 0.950219
vt 0.270307 0.953684
vt 0.270307 0.950219
vt 0.460157 0.873890
vt 0.449225 0.873890
vt 0.449225 0.871108
vt 0.438292 0.871108
vt 0.430931 0.865957
vt 0.419999 0.865957
vt 0.460157 0.856625
vt 0.449225 0.856625
vt 0.471474 0.874426
vt 0.473389 0.885366
vt 0.471474 0.885366
vt 0.460157 0.853559
vt 0.471089 0.849393
vt 0.373970 0.968457
vt 0.363038 0.973510
vt 0.457669 0.884553
vt 0.472129 0.960432
vt 0.468601 0.949492
vt 0.472129 0.949492
vt 0.457669 0.938055
vt 0.468601 0.933738
vt 0.373970 0.913881
vt 0.363038 0.942022
vt 0.281239 0.942670
vt 0.270307 0.942670
vt 0.457669 0.949492
vt 0.406578 0.968715
vt 0.399065 0.924398
vt 0.370705 0.896729
vt 0.370705 0.907669
vt 0.435226 0.810634
vt 0.437153 0.821574
vt 0.435226 0.821574
vt 0.457669 0.933738
vt 0.352106 0.957283
vt 0.341173 0.961981
vt 0.324995 0.926928
vt 0.329365 0.937868
vt 0.281239 0.948470
vt 0.270307 0.948470
vt 0.472490 0.836398
vt 0.472490 0.825458
vt 0.376342 0.946278
vt 0.374790 0.935338
vt 0.303104 0.947320
vt 0.292171 0.966846
vt 0.292171 0.947320
vt 0.450223 0.819479
vt 0.439291 0.825402
vt 0.434937 0.979811
vt 0.428458 0.968871
vt 0.434937 0.968871
vt 0.292171 0.971463
vt 0.281239 0.976181
vt 0.437998 0.873974
vt 0.437998 0.863034
vt 0.406578 0.924398
vt 0.399065 0.913458
vt 0.433116 0.824895
vt 0.422184 0.822078
vt 0.433116 0.822078
vt 0.398912 0.947455
vt 0.387979 0.949764
vt 0.387979 0.947455
vt 0.422184 0.818557
vt 0.433116 0.810634
vt 0.433116 0.818557
vt 0.470857 0.787509
vt 0.472319 0.798449
vt 0.377047 0.957127
vt 0.446737 0.973914
vt 0.457669 0.970943
vt 0.435804 0.918626
vt 0.446737 0.916466
vt 0.446737 0.918626
vt 0.446737 0.904488
vt 0.457669 0.879983
vt 0.457669 0.904488
vt 0.442287 0.977887
vt 0.435804 0.966947
vt 0.442287 0.966947
vt 0.329365 0.956597
vt 0.340297 0.931819
vt 0.422184 0.815550
vt 0.411252 0.820800
vt 0.411252 0.815550
vt 0.468601 0.927985
vt 0.457669 0.931878
vt 0.457669 0.927985
vt 0.352106 0.965346
vt 0.352106 0.976286
vt 0.446737 0.977887
vt 0.443209 0.966947
vt 0.446737 0.966947
vt 0.457669 0.902517
vt 0.468601 0.896493
vt 0.468601 0.902517
vt 0.341173 0.913881
vt 0.360135 0.965346
vt 0.362266 0.976286
vt 0.474310 0.976127
vt 0.467829 0.965188
vt 0.474310 0.965188
vt 0.435804 0.920076
vt 0.439291 0.792556
vt 0.450223 0.792556
vt 0.297737 0.977785
vt 0.294297 0.966846
vt 0.370705 0.885789
vt 0.376072 0.896729
vt 0.398912 0.913458
vt 0.422184 0.820800
vt 0.411252 0.825155
vt 0.352106 0.961981
vt 0.341173 0.965589
vt 0.472129 0.948247
vt 0.468601 0.948247
vt 0.446737 0.955698
vt 0.435804 0.961682
vt 0.468601 0.922486
vt 0.303104 0.954706
vt 0.446737 0.961682
vt 0.435804 0.926902
vt 0.446737 0.879983
vt 0.292171 0.959854
vt 0.281239 0.959854
vt 0.398912 0.953958
vt 0.387979 0.961134
vt 0.387979 0.953958
vt 0.457669 0.896493
vt 0.401854 0.966792
vt 0.404394 0.977732
vt 0.324968 0.968474
vt 0.314036 0.968474
vt 0.281239 0.939029
vt 0.292171 0.954925
vt 0.270307 0.977173
vt 0.281239 0.977173
vt 0.377047 0.927159
vt 0.450223 0.808814
vt 0.373970 0.946695
vt 0.363038 0.946695
vt 0.439291 0.799563
vt 0.292171 0.918729
vt 0.460157 0.849393
vt 0.329365 0.961900
vt 0.340297 0.972365
vt 0.449225 0.826908
vt 0.428443 0.968871
vt 0.471089 0.837336
vt 0.460157 0.840944
vt 0.398912 0.961134
vt 0.387979 0.966792
vt 0.294297 0.977785
vt 0.457669 0.938954
vt 0.446737 0.962964
vt 0.473263 0.814548
vt 0.469940 0.803608
vt 0.473263 0.803608
vt 0.281239 0.953684
vt 0.471474 0.885366
vt 0.473389 0.896306
vt 0.460157 0.868534
vt 0.471089 0.868534
vt 0.472088 0.776824
vt 0.465722 0.803608
vt 0.469940 0.814548
vt 0.433116 0.821574
vt 0.340297 0.961900
vt 0.303104 0.968498
vt 0.377047 0.965941
vt 0.437153 0.810634
vt 0.438155 0.821574
vt 0.406578 0.954923
vt 0.463129 0.965188
vt 0.471089 0.829411
vt 0.390778 0.977732
vt 0.387979 0.966792
vt 0.390778 0.966792
vt 0.398912 0.949764
vt 0.460157 0.860627
vt 0.314036 0.944548
vt 0.324968 0.915988
vt 0.350644 0.965589
vt 0.352106 0.976529
vt 0.350644 0.976529
vt 0.446737 0.944169
vt 0.345802 0.976529
vt 0.341173 0.976529
vt 0.402004 0.935338
vt 0.405600 0.946278
vt 0.405600 0.957218
vt 0.363038 0.947549
vt 0.314036 0.973526
vt 0.303104 0.918729
vt 0.292171 0.947320
vt 0.352106 0.950138
vt 0.435804 0.916466
vt 0.419999 0.872802
vt 0.409066 0.874426
vt 0.409066 0.872802
vt 0.419999 0.870197
vt 0.446737 0.970943
vt 0.457669 0.962964
vt 0.345802 0.965589
vt 0.349684 0.976529
vt 0.396210 0.966792
vt 0.422184 0.810634
vt 0.411252 0.810634
vt 0.435804 0.874426
vt 0.314036 0.942887
vt 0.472088 0.787509
vt 0.281239 0.948470
vt 0.376277 0.946278
vt 0.468601 0.965188
vt 0.376342 0.924398
vt 0.377047 0.980024
vt 0.406397 0.924398
vt 0.328964 0.970687
vt 0.473343 0.915428
vt 0.303104 0.946774
vt 0.377047 0.918521
vt 0.377047 0.924398
vt 0.449225 0.850228
vt 0.461156 0.803608
vt 0.439291 0.775285
vt 0.270307 0.964934
vt 0.406578 0.950535
vt 0.376896 0.874849
vt 0.292171 0.965133
vt 0.428443 0.946992
vt 0.281239 0.964933
vt 0.430931 0.874418
vt 0.376000 0.896729
vt 0.430931 0.873974
vt 0.460157 0.867796
vt 0.472488 0.840944
vt 0.428443 0.970826
vt 0.473389 0.874426
vt 0.373970 0.973510
vt 0.468601 0.960432
vt 0.373970 0.942022
vt 0.471089 0.836398
vt 0.303104 0.966846
vt 0.450223 0.825402
vt 0.428458 0.979811
vt 0.292171 0.976181
vt 0.422184 0.824895
vt 0.472319 0.787509
vt 0.435804 0.977887
vt 0.468601 0.931878
vt 0.443209 0.977887
vt 0.362266 0.965346
vt 0.376072 0.885789
vt 0.422184 0.825155
vt 0.352106 0.965589
vt 0.472129 0.937307
vt 0.404394 0.966792
vt 0.398912 0.966792
vt 0.292171 0.977785
vt 0.469940 0.814548
vt 0.469940 0.803608
vt 0.438155 0.810634
vt 0.387979 0.977732
vt 0.435804 0.944169
vt 0.405600 0.935338
vt 0.405600 0.946278
vt 0.363038 0.965346
vt 0.324968 0.973526
vt 0.303104 0.947320
vt 0.419999 0.874426
vt 0.349684 0.965589
s 1
usemtl Texture
f 4/1/1 6/2/1 5/3/1
f 4/1/1 7/4/1 6/2/1
f 9/5/1 11/6/1 10/7/1
f 9/5/1 12/8/1 11/6/1
f 3/9/1 7/4/1 4/1/1
f 3/9/1 8/10/1 7/4/1
f 2/11/1 8/10/1 3/9/1
f 2/11/1 9/5/1 8/10/1
f 1/12/1 9/5/1 2/11/1
f 1/12/1 12/8/1 9/5/1
f 18/13/1 12/8/1 1/12/1
f 17/14/1 12/8/1 18/13/1
f 17/14/1 13/15/1 12/8/1
f 16/16/1 13/15/1 17/14/1
f 15/17/1 13/15/1 16/16/1
f 15/17/1 14/18/1 13/15/1
f 49/19/1 19/20/1 50/21/1
f 49/19/1 20/22/1 19/20/1
f 49/19/1 21/23/1 20/22/1
f 27/24/1 21/23/1 49/19/1
f 49/19/1 28/25/1 27/24/1
f 26/26/1 21/23/1 27/24/1
f 49/19/1 29/27/1 28/25/1
f 26/26/1 22/28/1 21/23/1
f 48/29/1 29/27/1 49/19/1
f 25/30/1 22/28/1 26/26/1
f 48/29/1 30/31/1 29/27/1
f 47/32/1 30/31/1 48/29/1
f 25/30/1 23/33/1 22/28/1
f 24/34/1 23/33/1 25/30/1
f 47/32/1 31/35/1 30/31/1
f 46/36/1 31/35/1 47/32/1
f 46/36/1 32/37/1 31/35/1
f 45/38/1 32/37/1 46/36/1
f 45/38/1 33/39/1 32/37/1
f 37/40/1 39/41/1 38/42/1
f 44/43/1 33/39/1 45/38/1
f 44/43/1 34/44/1 33/39/1
f 37/40/1 40/45/1 39/41/1
f 36/46/1 40/45/1 37/40/1
f 44/43/1 35/47/1 34/44/1
f 35/47/1 40/45/1 36/46/1
f 43/48/1 35/47/1 44/43/1
f 43/48/1 40/45/1 35/47/1
f 42/49/1 40/45/1 43/48/1
f 42/49/1 41/50/1 40/45/1
f 67/51/1 69/52/1 68/53/1
f 67/51/1 70/54/1 69/52/1
f 82/55/1 65/56/1 83/57/1
f 82/55/1 66/58/1 65/56/1
f 82/55/1 51/59/1 66/58/1
f 64/60/1 66/58/1 51/59/1
f 63/61/1 66/58/1 64/60/1
f 63/61/1 67/51/1 66/58/1
f 82/55/1 52/62/1 51/59/1
f 63/61/1 62/63/1 67/51/1
f 62/63/1 70/54/1 67/51/1
f 81/64/1 52/62/1 82/55/1
f 81/64/1 53/65/1 52/62/1
f 61/66/1 70/54/1 62/63/1
f 81/64/1 54/67/1 53/65/1
f 80/68/1 54/67/1 81/64/1
f 80/68/1 55/69/1 54/67/1
f 79/70/1 55/69/1 80/68/1
f 79/70/1 56/71/1 55/69/1
f 79/70/1 57/72/1 56/71/1
f 78/73/1 57/72/1 79/70/1
f 77/74/1 57/72/1 78/73/1
f 77/74/1 58/75/1 57/72/1
f 60/76/1 72/77/1 61/66/1
f 72/77/1 70/54/1 61/66/1
f 77/74/1 59/78/1 58/75/1
f 71/79/1 70/54/1 72/77/1
f 60/76/1 73/80/1 72/77/1
f 59/78/1 73/80/1 60/76/1
f 77/74/1 73/80/1 59/78/1
f 76/81/1 73/80/1 77/74/1
f 76/81/1 74/82/1 73/80/1
f 75/83/1 74/82/1 76/81/1
f 91/84/1 93/85/1 92/86/1
f 86/87/1 88/88/1 87/89/1
f 85/90/1 88/88/1 86/87/1
f 120/91/1 122/92/1 121/93/1
f 120/91/1 123/94/1 122/92/1
f 90/95/1 93/85/1 91/84/1
f 120/91/1 119/96/1 123/94/1
f 90/95/1 94/97/1 93/85/1
f 119/96/1 84/98/1 123/94/1
f 118/99/1 84/98/1 119/96/1
f 112/100/1 88/88/1 85/90/1
f 102/101/1 94/97/1 90/95/1
f 101/102/1 94/97/1 102/101/1
f 112/100/1 89/103/1 88/88/1
f 85/90/1 113/104/1 112/100/1
f 84/98/1 113/104/1 85/90/1
f 90/95/1 103/105/1 102/101/1
f 89/103/1 103/105/1 90/95/1
f 118/99/1 113/104/1 84/98/1
f 111/106/1 89/103/1 112/100/1
f 117/107/1 113/104/1 118/99/1
f 89/103/1 104/108/1 103/105/1
f 111/106/1 104/108/1 89/103/1
f 101/102/1 95/109/1 94/97/1
f 110/110/1 104/108/1 111/106/1
f 100/111/1 95/109/1 101/102/1
f 117/107/1 114/112/1 113/104/1
f 117/107/1 115/113/1 114/112/1
f 110/110/1 105/114/1 104/108/1
f 100/111/1 96/115/1 95/109/1
f 109/116/1 105/114/1 110/110/1
f 99/117/1 96/115/1 100/111/1
f 109/116/1 106/118/1 105/114/1
f 98/119/1 96/115/1 99/117/1
f 108/120/1 106/118/1 109/116/1
f 98/119/1 97/121/1 96/115/1
f 116/122/1 115/113/1 117/107/1
f 108/120/1 107/123/1 106/118/1
f 134/124/1 136/125/1 135/126/1
f 129/127/1 131/128/1 130/129/1
f 129/127/1 132/130/1 131/128/1
f 134/124/1 137/131/1 136/125/1
f 129/127/1 128/132/1 132/130/1
f 128/132/1 133/133/1 132/130/1
f 133/133/1 137/131/1 134/124/1
f 127/134/1 133/133/1 128/132/1
f 133/133/1 138/135/1 137/131/1
f 126/136/1 133/133/1 127/134/1
f 126/136/1 138/135/1 133/133/1
f 141/137/1 138/135/1 126/136/1
f 140/138/1 138/135/1 141/137/1
f 140/138/1 139/139/1 138/135/1
f 126/136/1 142/140/1 141/137/1
f 125/141/1 142/140/1 126/136/1
f 125/141/1 143/142/1 142/140/1
f 125/141/1 144/143/1 143/142/1
f 124/144/1 144/143/1 125/141/1
f 161/145/1 163/146/1 162/147/1
f 161/145/1 164/148/1 163/146/1
f 177/149/1 159/150/1 178/151/1
f 177/149/1 160/152/1 159/150/1
f 177/149/1 145/153/1 160/152/1
f 158/154/1 160/152/1 145/153/1
f 158/154/1 161/145/1 160/152/1
f 177/149/1 146/155/1 145/153/1
f 158/154/1 157/156/1 161/145/1
f 157/156/1 156/157/1 161/145/1
f 156/157/1 164/148/1 161/145/1
f 176/158/1 146/155/1 177/149/1
f 176/158/1 147/159/1 146/155/1
f 155/160/1 164/148/1 156/157/1
f 176/158/1 148/161/1 147/159/1
f 175/162/1 148/161/1 176/158/1
f 175/162/1 149/163/1 148/161/1
f 174/164/1 149/163/1 175/162/1
f 173/165/1 149/163/1 174/164/1
f 173/165/1 150/166/1 149/163/1
f 173/165/1 151/167/1 150/166/1
f 172/168/1 151/167/1 173/165/1
f 172/168/1 152/169/1 151/167/1
f 154/170/1 166/171/1 155/160/1
f 166/171/1 164/148/1 155/160/1
f 171/172/1 152/169/1 172/168/1
f 171/172/1 153/173/1 152/169/1
f 165/174/1 164/148/1 166/171/1
f 154/170/1 167/175/1 166/171/1
f 153/173/1 167/175/1 154/170/1
f 171/172/1 167/175/1 153/173/1
f 170/176/1 167/175/1 171/172/1
f 170/176/1 168/177/1 167/175/1
f 169/178/1 168/177/1 170/176/1
f 202/179/1 204/180/1 203/181/1
f 202/179/1 205/182/1 204/180/1
f 202/179/1 201/183/1 205/182/1
f 201/183/1 206/184/1 205/182/1
f 200/185/1 206/184/1 201/183/1
f 199/186/1 206/184/1 200/185/1
f 199/186/1 207/187/1 206/184/1
f 198/188/1 207/187/1 199/186/1
f 198/188/1 179/189/1 207/187/1
f 179/189/1 181/190/1 180/191/1
f 179/189/1 182/192/1 181/190/1
f 197/193/1 179/189/1 198/188/1
f 192/194/1 182/192/1 179/189/1
f 192/194/1 183/195/1 182/192/1
f 179/189/1 193/196/1 192/194/1
f 191/197/1 183/195/1 192/194/1
f 197/193/1 193/196/1 179/189/1
f 190/198/1 183/195/1 191/197/1
f 197/193/1 194/199/1 193/196/1
f 190/198/1 184/200/1 183/195/1
f 189/201/1 184/200/1 190/198/1
f 197/193/1 195/202/1 194/199/1
f 189/201/1 185/203/1 184/200/1
f 188/204/1 185/203/1 189/201/1
f 196/205/1 195/202/1 197/193/1
f 187/206/1 185/203/1 188/204/1
f 187/206/1 186/207/1 185/203/1
f 226/208/1 228/209/1 227/210/1
f 226/208/1 229/211/1 228/209/1
f 226/208/1 225/212/1 229/211/1
f 224/213/1 229/211/1 225/212/1
f 215/214/1 229/211/1 224/213/1
f 214/215/1 229/211/1 215/214/1
f 224/213/1 216/216/1 215/214/1
f 214/215/1 230/217/1 229/211/1
f 223/218/1 216/216/1 224/213/1
f 223/218/1 217/219/1 216/216/1
f 213/220/1 230/217/1 214/215/1
f 222/221/1 217/219/1 223/218/1
f 213/220/1 231/222/1 230/217/1
f 212/223/1 231/222/1 213/220/1
f 212/223/1 232/224/1 231/222/1
f 211/225/1 232/224/1 212/223/1
f 210/226/1 232/224/1 211/225/1
f 210/226/1 233/227/1 232/224/1
f 209/228/1 233/227/1 210/226/1
f 209/228/1 234/229/1 233/227/1
f 208/230/1 234/229/1 209/228/1
f 221/231/1 217/219/1 222/221/1
f 208/230/1 235/232/1 234/229/1
f 221/231/1 218/233/1 217/219/1
f 218/233/1 235/232/1 208/230/1
f 221/231/1 235/232/1 218/233/1
f 221/231/1 237/234/1 235/232/1
f 237/234/1 236/235/1 235/232/1
f 221/231/1 219/236/1 237/234/1
f 220/237/1 219/236/1 221/231/1
f 361/238/2 469/239/2 460/240/2
f 361/238/2 460/240/2 338/241/2
f 423/242/2 440/243/2 432/6/2
f 423/242/2 432/6/2 319/244/2
f 337/245/2 361/238/2 338/241/2
f 337/245/2 338/241/2 422/246/2
f 253/247/2 337/245/2 422/246/2
f 253/247/2 422/246/2 423/242/2
f 252/248/2 253/247/2 423/242/2
f 252/248/2 423/242/2 319/244/2
f 320/249/2 252/248/2 319/244/2
f 368/250/2 320/249/2 319/244/2
f 368/250/2 319/244/2 352/251/2
f 473/252/2 368/250/2 352/251/2
f 420/253/2 473/252/2 352/251/2
f 420/253/2 352/251/2 419/254/2
f 270/255/2 261/256/2 260/257/2
f 270/255/2 260/257/2 271/258/2
f 270/255/2 271/258/2 342/259/2
f 385/260/2 270/255/2 342/259/2
f 270/255/2 385/260/2 406/261/2
f 459/262/2 385/260/2 342/259/2
f 270/255/2 406/261/2 254/263/2
f 459/262/2 342/259/2 416/264/2
f 255/265/2 270/255/2 254/263/2
f 245/266/2 459/262/2 416/264/2
f 255/265/2 254/263/2 312/267/2
f 367/268/2 255/265/2 312/267/2
f 245/266/2 416/264/2 399/269/2
f 244/270/2 245/266/2 399/269/2
f 367/268/2 312/267/2 366/271/2
f 453/272/2 367/268/2 366/271/2
f 453/272/2 366/271/2 457/273/2
f 467/274/2 453/272/2 457/273/2
f 467/274/2 457/273/2 458/275/2
f 358/276/2 285/277/2 286/278/2
f 437/279/2 467/274/2 458/275/2
f 437/279/2 458/275/2 465/280/2
f 358/276/2 286/278/2 401/281/2
f 357/282/2 358/276/2 401/281/2
f 437/279/2 465/280/2 397/283/2
f 397/283/2 357/282/2 401/281/2
f 398/284/2 437/279/2 397/283/2
f 398/284/2 397/283/2 401/281/2
f 439/285/2 398/284/2 401/281/2
f 439/285/2 401/281/2 444/286/2
f 266/287/2 474/288/2 267/289/2
f 266/287/2 267/289/2 287/290/2
f 278/291/2 313/292/2 409/293/2
f 278/291/2 409/293/2 265/294/2
f 278/291/2 265/294/2 277/295/2
f 322/296/2 277/295/2 265/294/2
f 251/297/2 322/296/2 265/294/2
f 251/297/2 265/294/2 266/287/2
f 278/291/2 277/295/2 391/298/2
f 251/297/2 266/287/2 250/299/2
f 250/299/2 266/287/2 287/290/2
f 347/300/2 278/291/2 391/298/2
f 347/300/2 391/298/2 448/301/2
f 388/302/2 250/299/2 287/290/2
f 347/300/2 448/301/2 427/303/2
f 454/304/2 347/300/2 427/303/2
f 454/304/2 427/303/2 335/305/2
f 276/306/2 454/304/2 335/305/2
f 276/306/2 335/305/2 238/307/2
f 276/306/2 238/307/2 239/308/2
f 410/309/2 276/306/2 239/308/2
f 273/310/2 410/309/2 239/308/2
f 273/310/2 239/308/2 435/311/2
f 362/312/2 388/302/2 243/313/2
f 243/313/2 388/302/2 287/290/2
f 273/310/2 435/311/2 272/314/2
f 242/315/2 243/313/2 287/290/2
f 362/312/2 243/313/2 308/316/2
f 272/314/2 362/312/2 308/316/2
f 273/310/2 272/314/2 308/316/2
f 309/317/2 273/310/2 308/316/2
f 309/317/2 308/316/2 374/318/2
f 375/319/2 309/317/2 374/318/2
f 292/320/2 363/321/2 381/322/2
f 470/323/2 445/324/2 382/325/2
f 384/326/2 470/323/2 382/325/2
f 392/327/2 402/328/2 393/329/2
f 392/327/2 393/329/2 414/330/2
f 249/331/2 292/320/2 381/322/2
f 392/327/2 414/330/2 395/332/2
f 249/331/2 381/322/2 288/333/2
f 395/332/2 414/330/2 394/334/2
f 329/335/2 395/332/2 394/334/2
f 383/336/2 384/326/2 382/325/2
f 289/337/2 249/331/2 288/333/2
f 408/338/2 289/337/2 288/333/2
f 383/336/2 382/325/2 248/339/2
f 384/326/2 383/336/2 328/340/2
f 394/334/2 384/326/2 328/340/2
f 249/331/2 289/337/2 464/341/2
f 248/339/2 249/331/2 464/341/2
f 329/335/2 394/334/2 328/340/2
f 452/342/2 383/336/2 248/339/2
f 344/343/2 329/335/2 328/340/2
f 248/339/2 464/341/2 326/344/2
f 452/342/2 248/339/2 326/344/2
f 408/338/2 288/333/2 314/345/2
f 327/346/2 452/342/2 326/344/2
f 305/347/2 408/338/2 314/345/2
f 344/343/2 328/340/2 441/348/2
f 344/343/2 441/348/2 442/349/2
f 327/346/2 326/344/2 290/350/2
f 305/347/2 314/345/2 304/351/2
f 291/352/2 327/346/2 290/350/2
f 365/353/2 305/347/2 304/351/2
f 291/352/2 290/350/2 321/354/2
f 364/355/2 365/353/2 304/351/2
f 434/356/2 291/352/2 321/354/2
f 364/355/2 304/351/2 471/357/2
f 343/358/2 344/343/2 442/349/2
f 434/356/2 321/354/2 433/359/2
f 379/360/2 400/361/2 443/362/2
f 332/363/2 341/364/2 333/365/2
f 332/363/2 333/365/2 424/366/2
f 379/360/2 443/362/2 377/367/2
f 332/363/2 424/366/2 334/368/2
f 334/368/2 424/366/2 418/369/2
f 418/369/2 379/360/2 377/367/2
f 415/370/2 334/368/2 418/369/2
f 418/369/2 377/367/2 378/371/2
f 257/372/2 415/370/2 418/369/2
f 257/372/2 418/369/2 378/371/2
f 330/373/2 257/372/2 378/371/2
f 468/374/2 330/373/2 378/371/2
f 468/374/2 378/371/2 472/375/2
f 257/372/2 330/373/2 407/376/2
f 256/377/2 257/372/2 407/376/2
f 256/377/2 407/376/2 463/378/2
f 256/377/2 463/378/2 405/379/2
f 404/380/2 256/377/2 405/379/2
f 349/381/2 451/382/2 446/383/2
f 349/381/2 446/383/2 269/384/2
f 403/385/2 413/386/2 389/387/2
f 403/385/2 389/387/2 390/388/2
f 403/385/2 390/388/2 376/389/2
f 348/390/2 376/389/2 390/388/2
f 348/390/2 390/388/2 349/381/2
f 403/385/2 376/389/2 240/391/2
f 348/390/2 349/381/2 461/392/2
f 461/392/2 349/381/2 466/393/2
f 466/393/2 349/381/2 269/384/2
f 264/394/2 403/385/2 240/391/2
f 264/394/2 240/391/2 241/395/2
f 268/396/2 466/393/2 269/384/2
f 264/394/2 241/395/2 336/397/2
f 340/398/2 264/394/2 336/397/2
f 340/398/2 336/397/2 339/399/2
f 275/400/2 340/398/2 339/399/2
f 274/401/2 275/400/2 339/399/2
f 274/401/2 339/399/2 436/402/2
f 274/401/2 436/402/2 302/403/2
f 303/404/2 274/401/2 302/403/2
f 303/404/2 302/403/2 345/405/2
f 299/406/2 268/396/2 331/407/2
f 331/407/2 268/396/2 269/384/2
f 346/408/2 303/404/2 345/405/2
f 346/408/2 345/405/2 298/409/2
f 421/410/2 331/407/2 269/384/2
f 299/406/2 331/407/2 310/411/2
f 298/409/2 299/406/2 310/411/2
f 346/408/2 298/409/2 310/411/2
f 386/412/2 346/408/2 310/411/2
f 386/412/2 310/411/2 311/413/2
f 396/414/2 386/412/2 311/413/2
f 369/415/2 353/416/2 354/417/2
f 369/415/2 354/417/2 301/418/2
f 369/415/2 301/418/2 300/419/2
f 300/419/2 301/418/2 387/420/2
f 307/421/2 300/419/2 387/420/2
f 306/422/2 307/421/2 387/420/2
f 306/422/2 387/420/2 325/423/2
f 450/424/2 306/422/2 325/423/2
f 450/424/2 325/423/2 293/425/2
f 293/425/2 315/426/2 316/427/2
f 293/425/2 316/427/2 294/428/2
f 351/429/2 450/424/2 293/425/2
f 426/430/2 293/425/2 294/428/2
f 426/430/2 294/428/2 429/431/2
f 293/425/2 426/430/2 425/432/2
f 449/433/2 426/430/2 429/431/2
f 351/429/2 293/425/2 425/432/2
f 455/434/2 449/433/2 429/431/2
f 351/429/2 425/432/2 447/435/2
f 455/434/2 429/431/2 380/436/2
f 263/437/2 455/434/2 380/436/2
f 351/429/2 447/435/2 411/438/2
f 263/437/2 380/436/2 295/439/2
f 262/440/2 263/437/2 295/439/2
f 350/441/2 351/429/2 411/438/2
f 296/442/2 262/440/2 295/439/2
f 296/442/2 295/439/2 456/443/2
f 359/444/2 430/445/2 431/446/2
f 359/444/2 431/446/2 297/447/2
f 359/444/2 297/447/2 438/448/2
f 356/449/2 438/448/2 297/447/2
f 462/450/2 356/449/2 297/447/2
f 281/451/2 462/450/2 297/447/2
f 356/449/2 462/450/2 372/452/2
f 281/451/2 297/447/2 282/453/2
f 355/454/2 356/449/2 372/452/2
f 355/454/2 372/452/2 373/455/2
f 280/456/2 281/451/2 282/453/2
f 371/457/2 355/454/2 373/455/2
f 280/456/2 282/453/2 258/458/2
f 279/459/2 280/456/2 258/458/2
f 279/459/2 258/458/2 259/460/2
f 428/461/2 279/459/2 259/460/2
f 317/462/2 428/461/2 259/460/2
f 317/462/2 259/460/2 318/463/2
f 323/464/2 317/462/2 318/463/2
f 323/464/2 318/463/2 324/465/2
f 412/466/2 323/464/2 324/465/2
f 370/467/2 371/457/2 373/455/2
f 412/466/2 324/465/2 283/468/2
f 370/467/2 373/455/2 417/469/2
f 417/469/2 412/466/2 283/468/2
f 370/467/2 417/469/2 283/468/2
f 370/467/2 283/468/2 284/470/2
f 284/470/2 283/468/2 360/471/2
f 370/467/2 284/470/2 246/472/2
f 247/473/2 370/467/2 246/472/2
f 386/474/3 169/475/4 170/476/3
f 351/477/5 196/478/6 197/479/5
f 464/480/7 102/481/8 103/482/7
f 424/483/9 131/484/10 132/485/9
f 274/486/11 172/487/12 173/488/11
f 352/489/13 12/490/14 13/491/13
f 405/492/15 143/493/16 144/494/17
f 354/495/18 203/496/19 204/497/18
f 326/498/20 103/499/7 104/500/20
f 356/501/21 223/502/22 224/503/21
f 302/504/23 150/505/24 151/506/23
f 335/507/25 54/508/26 55/509/25
f 270/510/27 48/511/28 49/512/27
f 353/513/19 202/514/29 203/515/19
f 380/516/30 183/517/31 184/518/30
f 358/519/32 36/520/33 37/521/32
f 360/522/34 235/523/35 236/524/34
f 431/525/36 227/526/37 228/527/36
f 387/528/38 205/529/39 206/530/38
f 282/531/40 229/532/41 230/533/40
f 473/534/42 15/535/43 16/536/42
f 319/537/14 11/538/44 12/490/14
f 363/539/45 91/540/46 92/541/45
f 434/542/47 107/543/48 108/544/47
f 365/545/49 98/530/50 99/546/51
f 466/547/52 155/548/53 156/549/52
f 327/550/54 109/551/55 110/552/56
f 143/493/16 407/553/57 142/554/57
f 322/555/58 63/556/59 64/557/58
f 337/558/60 2/559/61 3/560/60
f 167/561/62 331/562/63 166/563/63
f 285/564/64 37/565/32 38/566/64
f 407/496/57 141/567/65 142/568/57
f 298/569/66 152/570/67 153/571/66
f 454/572/68 79/573/69 80/574/68
f 448/575/70 52/576/71 53/577/70
f 18/578/72 368/579/73 17/580/73
f 376/581/74 158/582/75 145/583/76
f 297/584/41 228/527/36 229/532/41
f 340/585/77 174/586/78 175/587/77
f 368/588/73 16/589/42 17/590/73
f 437/591/79 43/592/80 44/510/79
f 324/593/81 233/594/82 234/595/81
f 435/596/67 57/597/23 58/598/67
f 412/599/83 218/600/84 208/601/83
f 85/579/85 394/534/86 84/602/86
f 265/603/87 65/604/88 66/605/87
f 371/606/89 221/607/90 222/608/89
f 366/609/91 30/610/92 31/611/91
f 359/612/93 225/613/94 226/614/93
f 305/615/95 99/546/51 100/616/95
f 314/617/96 94/618/97 95/619/96
f 445/620/98 86/621/99 87/622/98
f 318/623/82 232/624/100 233/594/82
f 331/625/101 165/626/102 166/627/101
f 217/628/103 372/629/104 216/630/104
f 467/631/105 44/632/79 45/633/105
f 440/634/106 9/635/107 10/636/108
f 375/637/109 74/638/110 75/639/111
f 296/640/112 186/641/113 187/642/112
f 433/643/48 106/644/114 107/645/48
f 333/646/10 130/647/115 131/484/10
f 239/648/23 56/649/24 57/650/23
f 453/651/116 45/633/105 46/652/116
f 147/653/70 240/654/71 146/655/71
f 451/656/117 161/657/118 162/146/117
f 442/658/119 114/659/120 115/660/121
f 339/661/25 148/662/26 149/663/25
f 243/664/101 71/665/102 72/625/101
f 426/666/122 191/667/123 192/668/122
f 279/669/124 211/670/125 212/671/124
f 394/672/126 123/673/127 84/674/126
f 240/675/71 145/583/76 146/676/71
f 245/677/128 24/678/129 25/679/128
f 138/680/130 377/681/131 137/682/131
f 220/683/132 246/684/133 219/685/133
f 465/686/134 33/687/135 34/688/134
f 377/681/131 136/689/136 137/682/131
f 90/690/137 248/691/138 89/692/138
f 413/693/139 177/694/140 178/695/139
f 295/696/141 184/518/30 185/697/141
f 251/698/59 62/699/142 63/556/59
f 430/515/37 226/700/29 227/701/37
f 288/543/97 93/702/143 94/703/97
f 253/704/61 1/705/144 2/706/61
f 395/707/145 118/708/146 119/709/145
f 273/710/147 76/711/148 77/635/147
f 330/712/65 140/713/149 141/567/65
f 439/714/150 41/715/151 42/716/150
f 257/717/152 125/718/153 126/719/152
f 457/720/154 31/611/91 32/721/154
f 443/722/136 135/723/155 136/689/136
f 441/724/156 113/725/157 114/659/120
f 259/726/158 231/727/159 232/624/100
f 383/728/160 111/729/161 112/730/160
f 260/731/162 50/732/163 19/733/162
f 425/734/164 192/668/122 193/735/164
f 263/736/165 188/737/166 189/738/167
f 406/739/168 27/740/169 28/741/168
f 469/687/170 4/742/171 5/743/170
f 303/744/12 171/745/172 172/746/12
f 207/747/173 387/748/38 206/749/38
f 258/750/174 230/751/40 231/727/159
f 362/752/175 59/753/66 60/754/175
f 266/755/176 66/605/87 67/756/176
f 308/757/62 72/758/63 73/759/62
f 468/760/149 139/761/177 140/713/149
f 382/762/178 87/622/98 88/763/178
f 410/764/179 77/765/147 78/766/180
f 390/767/87 159/768/88 160/769/87
f 50/732/163 270/770/27 49/771/27
f 221/607/90 247/772/6 220/773/6
f 52/675/71 277/774/181 51/775/181
f 271/776/182 19/733/162 20/777/183
f 300/778/94 200/779/21 201/780/94
f 357/781/33 35/782/184 36/520/33
f 268/783/53 154/784/175 155/548/53
f 275/785/78 173/488/11 174/586/78
f 267/786/185 68/787/117 69/788/185
f 470/789/99 85/790/85 86/621/99
f 411/791/186 194/792/187 195/531/188
f 290/793/189 104/500/20 105/794/189
f 284/787/190 236/524/34 237/795/190
f 277/774/181 64/557/58 51/775/181
f 436/796/24 149/663/25 150/505/24
f 280/660/191 212/671/124 213/658/191
f 361/797/171 3/560/60 4/664/171
f 392/798/192 119/709/145 120/799/192
f 334/800/193 127/801/194 128/802/193
f 455/803/195 189/738/167 190/517/195
f 396/804/4 168/805/110 169/475/4
f 474/806/117 67/807/118 68/589/117
f 349/808/176 160/769/87 161/809/176
f 244/810/196 23/710/197 24/811/196
f 286/812/198 38/813/64 39/535/198
f 246/814/133 237/815/190 219/816/133
f 444/817/151 40/818/199 41/715/151
f 343/819/132 115/820/121 116/821/132
f 400/822/155 134/823/200 135/723/155
f 328/824/157 112/730/160 113/825/157
f 401/826/201 39/827/202 40/52/199
f 8/828/203 338/829/204 7/830/204
f 429/831/31 182/832/205 183/833/31
f 460/834/206 5/835/170 6/836/206
f 402/837/207 120/838/208 121/761/207
f 292/839/46 90/706/137 91/540/46
f 414/840/127 122/841/209 123/673/127
f 306/842/210 198/843/211 199/844/210
f 471/845/212 96/846/213 97/847/212
f 404/848/132 144/849/17 124/850/132
f 291/851/55 108/852/214 109/551/55
f 462/853/215 214/854/216 215/855/215
f 254/856/217 28/857/168 29/858/217
f 299/859/175 153/571/66 154/860/175
f 446/861/185 162/862/117 163/863/185
f 403/864/140 176/865/218 177/866/140
f 287/533/219 69/746/220 70/867/219
f 345/868/67 151/869/23 152/570/67
f 364/870/221 97/871/212 98/872/221
f 307/873/222 199/844/210 200/765/21
f 367/874/223 46/652/116 47/875/223
f 289/876/8 101/877/224 102/481/8
f 379/878/200 133/879/225 134/798/200
f 269/880/219 163/833/220 164/580/219
f 281/881/216 213/882/191 214/854/216
f 311/883/110 167/884/62 168/805/110
f 432/690/185 10/885/108 11/886/185
f 409/887/88 83/888/139 65/604/88
f 312/889/92 29/858/217 30/610/92
f 427/890/26 53/577/70 54/508/26
f 313/891/139 82/849/226 83/888/139
f 276/892/69 78/766/180 79/573/69
f 304/893/213 95/619/96 96/846/213
f 317/894/227 209/680/228 210/895/227
f 316/896/229 180/897/230 181/898/229
f 264/899/218 175/587/77 176/865/218
f 449/900/123 190/901/195 191/667/123
f 62/717/142 388/902/231 61/903/231
f 321/904/114 105/794/189 106/644/114
f 428/905/125 210/895/227 211/670/125
f 418/906/232 132/485/9 133/907/232
f 252/908/144 18/578/72 1/705/144
f 398/909/80 42/716/150 43/592/80
f 194/792/187 425/910/164 193/911/164
f 255/912/28 47/875/223 48/511/28
f 329/494/233 117/913/234 118/725/146
f 397/914/184 34/688/134 35/782/184
f 179/915/235 325/916/236 207/747/173
f 355/917/22 222/608/89 223/502/22
f 196/685/132 411/918/186 195/683/188
f 374/919/110 73/920/62 74/638/110
f 315/921/230 179/922/237 180/897/230
f 408/923/224 100/815/95 101/877/224
f 262/924/166 187/925/238 188/737/166
f 472/926/177 138/927/130 139/928/177
f 456/847/113 185/697/141 186/845/113
f 389/929/88 178/695/139 159/768/88
f 438/930/94 224/931/21 225/613/94
f 323/932/228 208/601/83 209/933/228
f 248/795/239 88/763/178 89/787/239
f 301/934/39 204/497/18 205/529/39
f 33/847/135 457/720/154 32/721/154
f 385/935/169 26/936/240 27/740/169
f 332/835/241 128/802/193 129/937/241
f 452/915/161 110/552/56 111/938/161
f 238/939/24 55/509/25 56/649/24
f 381/940/242 92/541/45 93/702/143
f 415/941/243 126/942/152 127/801/194
f 336/943/26 147/653/70 148/662/26
f 272/944/66 58/598/67 59/753/66
f 309/945/148 75/639/111 76/711/148
f 416/946/244 21/947/245 22/948/244
f 294/949/205 181/898/229 182/832/205
f 417/950/84 217/521/246 218/600/84
f 256/951/153 124/952/247 125/718/153
f 341/953/115 129/954/208 130/955/115
f 459/289/240 25/679/128 26/878/240
f 81/956/248 454/572/68 80/574/68
f 420/884/249 14/957/250 15/958/249
f 242/959/102 70/960/219 71/665/102
f 421/665/102 164/961/219 165/626/102
f 423/962/251 8/859/203 9/526/251
f 338/829/204 6/836/206 7/830/204
f 342/636/245 20/777/183 21/634/245
f 388/902/231 60/963/175 61/903/231
f 344/964/234 116/965/252 117/913/234
f 346/966/172 170/476/3 171/745/172
f 450/967/211 197/479/5 198/843/211
f 235/655/35 324/593/81 234/595/81
f 461/968/253 156/969/52 157/970/253
f 348/971/75 157/970/253 158/582/75
f 393/972/209 121/973/207 122/841/209
f 278/756/226 81/956/248 82/755/226
f 369/487/93 201/780/94 202/612/93
f 419/974/250 13/975/13 14/957/250
f 399/735/197 22/948/244 23/976/197
f 372/977/104 215/855/215 216/978/104
f 386/474/3 396/804/4 169/475/4
f 351/477/5 350/979/6 196/478/6
f 464/480/7 289/876/8 102/481/8
f 424/483/9 333/646/10 131/484/10
f 274/486/11 303/618/12 172/487/12
f 352/489/13 319/537/14 12/490/14
f 405/492/15 463/980/16 143/493/16
f 354/495/18 353/981/19 203/496/19
f 326/498/20 464/982/7 103/499/7
f 356/501/21 355/917/22 223/502/22
f 302/504/23 436/796/24 150/505/24
f 335/507/25 427/890/26 54/508/26
f 270/510/27 255/912/28 48/511/28
f 353/513/19 369/983/29 202/514/29
f 380/516/30 429/803/31 183/517/31
f 358/519/32 357/781/33 36/520/33
f 360/522/34 283/984/35 235/523/35
f 431/525/36 430/962/37 227/526/37
f 387/528/38 301/934/39 205/529/39
f 282/531/40 297/584/41 229/532/41
f 473/534/42 420/985/43 15/535/43
f 319/537/14 432/852/44 11/538/44
f 363/539/45 292/839/46 91/540/46
f 434/542/47 433/986/48 107/543/48
f 365/545/49 364/632/50 98/530/50
f 466/547/52 268/783/53 155/548/53
f 327/550/54 291/851/55 109/551/55
f 143/493/16 463/980/16 407/553/57
f 322/555/58 251/698/59 63/556/59
f 337/558/60 253/987/61 2/559/61
f 167/561/62 310/988/62 331/562/63
f 285/564/64 358/989/32 37/565/32
f 407/496/57 330/712/65 141/567/65
f 298/569/66 345/868/67 152/570/67
f 454/572/68 276/892/69 79/573/69
f 448/575/70 391/990/71 52/576/71
f 18/578/72 320/991/72 368/579/73
f 376/581/74 348/971/75 158/582/75
f 297/584/41 431/525/36 228/527/36
f 340/585/77 275/785/78 174/586/78
f 368/588/73 473/758/42 16/589/42
f 437/591/79 398/909/80 43/592/80
f 324/593/81 318/623/82 233/594/82
f 435/596/67 239/871/23 57/597/23
f 412/599/83 417/950/84 218/600/84
f 85/579/85 384/992/85 394/534/86
f 265/603/87 409/887/88 65/604/88
f 371/606/89 370/993/90 221/607/90
f 366/609/91 312/889/92 30/610/92
f 359/612/93 438/930/94 225/613/94
f 305/615/95 365/545/49 99/546/51
f 314/617/96 288/478/97 94/618/97
f 445/620/98 470/789/99 86/621/99
f 318/623/82 259/726/158 232/624/100
f 331/625/101 421/665/102 165/626/102
f 217/628/103 373/994/103 372/629/104
f 467/631/105 437/995/79 44/632/79
f 440/634/106 423/501/107 9/635/107
f 375/637/109 374/919/110 74/638/110
f 296/640/112 456/564/113 186/641/113
f 433/643/48 321/904/114 106/644/114
f 333/646/10 341/996/115 130/647/115
f 239/648/23 238/939/24 56/649/24
f 453/651/116 467/631/105 45/633/105
f 147/653/70 241/997/70 240/654/71
f 451/656/117 349/806/118 161/657/118
f 442/658/119 441/724/156 114/659/120
f 339/661/25 336/943/26 148/662/26
f 243/664/101 242/959/102 71/665/102
f 426/666/122 449/900/123 191/667/123
f 279/669/124 428/905/125 211/670/125
f 394/672/126 414/840/127 123/673/127
f 240/675/71 376/581/74 145/583/76
f 245/677/128 244/998/129 24/678/129
f 138/680/130 378/999/130 377/681/131
f 220/683/132 247/1000/132 246/684/133
f 465/686/134 458/920/135 33/687/135
f 377/681/131 443/722/136 136/689/136
f 90/690/137 249/566/137 248/691/138
f 413/693/139 403/1001/140 177/694/140
f 295/696/141 380/516/30 184/518/30
f 251/698/59 250/1002/142 62/699/142
f 430/515/37 359/514/29 226/700/29
f 288/543/97 381/940/242 93/702/143
f 253/704/61 252/908/144 1/705/144
f 395/707/145 329/1003/233 118/708/146
f 273/710/147 309/945/148 76/711/148
f 330/712/65 468/760/149 140/713/149
f 439/714/150 444/817/151 41/715/151
f 257/717/152 256/951/153 125/718/153
f 457/720/154 366/609/91 31/611/91
f 443/722/136 400/822/155 135/723/155
f 441/724/156 328/643/157 113/725/157
f 259/726/158 258/750/174 231/727/159
f 383/728/160 452/1004/161 111/729/161
f 260/731/162 261/1005/163 50/732/163
f 425/734/164 426/666/122 192/668/122
f 263/736/165 262/924/166 188/737/166
f 406/739/168 385/935/169 27/740/169
f 469/687/170 361/1006/171 4/742/171
f 303/744/12 346/966/172 171/745/172
f 207/747/173 325/916/236 387/748/38
f 258/750/174 282/1007/40 230/751/40
f 362/752/175 272/944/66 59/753/66
f 266/755/176 265/603/87 66/605/87
f 308/757/62 243/563/63 72/758/63
f 468/760/149 472/837/177 139/761/177
f 382/762/178 445/620/98 87/622/98
f 410/764/179 273/873/147 77/765/147
f 390/767/87 389/929/88 159/768/88
f 50/732/163 261/1005/163 270/770/27
f 221/607/90 370/993/90 247/772/6
f 52/675/71 391/729/71 277/774/181
f 271/776/182 260/731/162 19/733/162
f 300/778/94 307/1008/222 200/779/21
f 357/781/33 397/914/184 35/782/184
f 268/783/53 299/1009/175 154/784/175
f 275/785/78 274/486/11 173/488/11
f 267/786/185 474/1010/117 68/787/117
f 470/789/99 384/803/85 85/790/85
f 411/791/186 447/1011/187 194/792/187
f 290/793/189 326/498/20 104/500/20
f 284/787/190 360/522/34 236/524/34
f 277/774/181 322/555/58 64/557/58
f 436/796/24 339/661/25 149/663/25
f 280/660/191 279/669/124 212/671/124
f 361/797/171 337/558/60 3/560/60
f 392/798/192 395/707/145 119/709/145
f 334/800/193 415/941/243 127/801/194
f 455/803/195 263/736/165 189/738/167
f 396/804/4 311/883/110 168/805/110
f 474/806/117 266/656/118 67/807/118
f 349/808/176 390/767/87 160/769/87
f 244/810/196 399/1012/197 23/710/197
f 286/812/198 285/513/64 38/813/64
f 246/814/133 284/1013/190 237/815/190
f 444/817/151 401/1014/201 40/818/199
f 343/819/132 442/1015/119 115/820/121
f 400/822/155 379/1016/200 134/823/200
f 328/824/157 383/728/160 112/730/160
f 401/826/201 286/797/202 39/827/202
f 8/828/203 422/1017/203 338/829/204
f 429/831/31 294/949/205 182/832/205
f 460/834/206 469/977/170 5/835/170
f 402/837/207 392/1018/208 120/838/208
f 292/839/46 249/704/137 90/706/137
f 414/840/127 393/972/209 122/841/209
f 306/842/210 450/967/211 198/843/211
f 471/845/212 304/893/213 96/846/213
f 404/848/132 405/1019/15 144/849/17
f 291/851/55 434/538/214 108/852/214
f 462/853/215 281/881/216 214/854/216
f 254/856/217 406/1020/168 28/857/168
f 299/859/175 298/569/66 153/571/66
f 446/861/185 451/1021/117 162/862/117
f 403/864/140 264/899/218 176/865/218
f 287/533/219 267/744/220 69/746/220
f 345/868/67 302/1022/23 151/869/23
f 364/870/221 471/597/212 97/871/212
f 307/873/222 306/842/210 199/844/210
f 367/874/223 453/651/116 46/652/116
f 289/876/8 408/923/224 101/877/224
f 379/878/200 418/1023/225 133/879/225
f 269/880/219 446/831/220 163/833/220
f 281/881/216 280/1024/191 213/882/191
f 311/883/110 310/1025/62 167/884/62
f 432/690/185 440/1026/106 10/885/108
f 409/887/88 313/891/139 83/888/139
f 312/889/92 254/856/217 29/858/217
f 427/890/26 448/575/70 53/577/70
f 313/891/139 278/863/226 82/849/226
f 276/892/69 410/764/179 78/766/180
f 304/893/213 314/617/96 95/619/96
f 317/894/227 323/999/228 209/680/228
f 316/896/229 315/921/230 180/897/230
f 264/899/218 340/585/77 175/587/77
f 449/900/123 455/1027/195 190/901/195
f 62/717/142 250/719/142 388/902/231
f 321/904/114 290/793/189 105/794/189
f 428/905/125 317/894/227 210/895/227
f 418/906/232 424/483/9 132/485/9
f 252/908/144 320/991/72 18/578/72
f 398/909/80 439/714/150 42/716/150
f 194/792/187 447/1011/187 425/910/164
f 255/912/28 367/874/223 47/875/223
f 329/494/233 344/964/234 117/913/234
f 397/914/184 465/686/134 34/688/134
f 179/915/235 293/938/235 325/916/236
f 355/917/22 371/606/89 222/608/89
f 196/685/132 350/821/132 411/918/186
f 374/919/110 308/687/62 73/920/62
f 315/921/230 293/1028/237 179/922/237
f 408/923/224 305/1029/95 100/815/95
f 262/924/166 296/973/238 187/925/238
f 472/926/177 378/1030/130 138/927/130
f 456/847/113 295/696/141 185/697/141
f 389/929/88 413/693/139 178/695/139
f 438/930/94 356/779/21 224/931/21
f 323/932/228 412/599/83 208/601/83
f 248/795/239 382/762/178 88/763/178
f 301/934/39 354/495/18 204/497/18
f 33/847/135 458/641/135 457/720/154
f 385/935/169 459/1031/240 26/936/240
f 332/835/241 334/800/193 128/802/193
f 452/915/161 327/550/54 110/552/56
f 238/939/24 335/507/25 55/509/25
f 381/940/242 363/539/45 92/541/45
f 415/941/243 257/1032/152 126/942/152
f 336/943/26 241/997/70 147/653/70
f 272/944/66 435/596/67 58/598/67
f 309/945/148 375/637/109 75/639/111
f 416/946/244 342/1033/245 21/947/245
f 294/949/205 316/896/229 181/898/229
f 417/950/84 373/519/246 217/521/246
f 256/951/153 404/492/247 124/952/247
f 341/953/115 332/1025/208 129/954/208
f 459/289/240 245/677/128 25/679/128
f 81/956/248 347/1034/248 454/572/68
f 420/884/249 419/974/250 14/957/250
f 242/959/102 287/1035/219 70/960/219
f 421/665/102 269/1036/219 164/961/219
f 423/962/251 422/1037/203 8/859/203
f 338/829/204 460/834/206 6/836/206
f 342/636/245 271/776/182 20/777/183
f 388/902/231 362/1038/175 60/963/175
f 344/964/234 343/1039/252 116/965/252
f 346/966/172 386/474/3 170/476/3
f 450/967/211 351/477/5 197/479/5
f 235/655/35 283/1000/35 324/593/81
f 461/968/253 466/1040/52 156/969/52
f 348/971/75 461/968/253 157/970/253
f 393/972/209 402/925/207 121/973/207
f 278/756/226 347/1034/248 81/956/248
f 369/487/93 300/778/94 201/780/94
f 419/974/250 352/1041/13 13/975/13
f 399/735/197 416/946/244 22/948/244
f 372/977/104 462/853/215 215/855/215
