# Blender 5.1.0
# www.blender.org
mtllib SignHardware.mtl
o Sign_Hardware
v 0.943575 0.246273 0.041335
v 1.087691 0.246273 0.041335
v 1.087691 0.166321 0.041335
v 1.032010 0.166321 0.041335
v 1.032010 0.196660 0.041335
v 0.978114 0.196660 0.041335
v 0.978114 0.146333 0.041335
v 1.036293 0.146333 0.041335
v 1.036293 0.103502 0.041335
v 0.978114 0.103502 0.041335
v 0.978114 0.045680 0.041335
v 1.032010 0.045680 0.041335
v 1.032010 0.076019 0.041335
v 1.087691 0.076019 0.041335
v 1.087691 -0.003576 0.041335
v 0.872107 -0.003576 0.041335
v 0.872107 0.045680 0.041335
v 0.898163 0.045680 0.041335
v 0.898163 0.196660 0.041335
v 0.872107 0.196660 0.041335
v 0.872107 0.246273 0.041335
v 0.857830 0.045680 0.041335
v 0.857830 -0.003576 0.041335
v 0.852833 -0.003576 0.041335
v 0.792513 -0.003576 0.041335
v 0.772525 -0.003576 0.041335
v 0.766059 0.010476 0.041335
v 0.733567 0.076240 0.041335
v 0.719511 0.088033 0.041335
v 0.700783 0.088868 0.041335
v 0.700783 0.045680 0.041335
v 0.727196 0.045680 0.041335
v 0.727196 -0.003576 0.041335
v 0.594776 -0.003576 0.041335
v 0.594776 0.045680 0.041335
v 0.620831 0.045680 0.041335
v 0.620831 0.196660 0.041335
v 0.594776 0.196660 0.041335
v 0.594776 0.246273 0.041335
v 0.727297 0.245934 0.041335
v 0.759651 0.244971 0.041335
v 0.790007 0.235730 0.041335
v 0.811716 0.221658 0.041335
v 0.825526 0.202490 0.041335
v 0.832627 0.176219 0.041335
v 0.828302 0.150911 0.041335
v 0.809980 0.125531 0.041335
v 0.790305 0.114287 0.041335
v 0.808312 0.101746 0.041335
v 0.823519 0.073594 0.041335
v 0.833847 0.045690 0.041335
v 0.749911 0.179180 0.041335
v 0.743970 0.190500 0.041335
v 0.732899 0.196287 0.041335
v 0.700783 0.196660 0.041335
v 0.700783 0.138481 0.041335
v 0.732899 0.138854 0.041335
v 0.744591 0.145129 0.041335
v 0.750325 0.157965 0.041335
v 0.555514 0.045680 0.041335
v 0.580499 0.045680 0.041335
v 0.580499 -0.003576 0.041335
v 0.451649 -0.003576 0.041335
v 0.451649 0.045680 0.041335
v 0.475563 0.045680 0.041335
v 0.470209 0.062813 0.041335
v 0.405248 0.062813 0.041335
v 0.399537 0.045680 0.041335
v 0.424522 0.045680 0.041335
v 0.424522 -0.003576 0.041335
v 0.310663 -0.003576 0.041335
v 0.310663 0.045680 0.041335
v 0.333149 0.045680 0.041335
v 0.387759 0.196660 0.041335
v 0.372411 0.196660 0.041335
v 0.372411 0.246273 0.041335
v 0.482701 0.246273 0.041335
v 0.420239 0.105644 0.041335
v 0.456289 0.105644 0.041335
v 0.438442 0.159183 0.041335
v 0.256850 0.246273 0.041335
v 0.352580 0.246273 0.041335
v 0.352580 0.196660 0.041335
v 0.320814 0.196660 0.041335
v 0.266918 -0.003576 0.041335
v 0.195889 -0.003576 0.041335
v 0.168763 0.094222 0.041335
v 0.144135 -0.003576 0.041335
v 0.065255 -0.003576 0.041335
v 0.011359 0.196660 0.041335
v -0.015054 0.196660 0.041335
v -0.015054 0.246273 0.041335
v 0.116652 0.246273 0.041335
v 0.116652 0.196660 0.041335
v 0.091310 0.196660 0.041335
v 0.117009 0.080302 0.041335
v 0.159126 0.246273 0.041335
v 0.201957 0.246273 0.041335
v 0.241933 0.094579 0.041335
v 0.265133 0.196660 0.041335
v 0.234437 0.196660 0.041335
v 0.234437 0.246273 0.041335
v -0.096613 0.245521 0.041335
v -0.067664 0.235893 0.041335
v -0.038606 0.214814 0.041335
v -0.017279 0.185181 0.041335
v -0.002892 0.145718 0.041335
v -0.002469 0.102776 0.041335
v -0.013319 0.064258 0.041335
v -0.034779 0.032207 0.041335
v -0.062679 0.009189 0.041335
v -0.096613 -0.002824 0.041335
v -0.233210 -0.003576 0.041335
v -0.233210 0.046037 0.041335
v -0.207154 0.046037 0.041335
v -0.207154 0.196660 0.041335
v -0.233210 0.196660 0.041335
v -0.233210 0.246273 0.041335
v -0.086964 0.165630 0.041335
v -0.096583 0.185543 0.041335
v -0.109437 0.193920 0.041335
v -0.127111 0.196900 0.041335
v -0.127111 0.045797 0.041335
v -0.109437 0.048777 0.041335
v -0.096025 0.057671 0.041335
v -0.086646 0.078704 0.041335
v -0.084165 0.123039 0.041335
v -0.247487 0.045680 0.041335
v -0.247487 -0.003576 0.041335
v -0.252484 -0.003576 0.041335
v -0.312804 -0.003576 0.041335
v -0.332792 -0.003576 0.041335
v -0.339257 0.010476 0.041335
v -0.367931 0.069424 0.041335
v -0.378544 0.083706 0.041335
v -0.388998 0.088547 0.041335
v -0.404534 0.088868 0.041335
v -0.404534 0.045680 0.041335
v -0.378122 0.045680 0.041335
v -0.378122 -0.003576 0.041335
v -0.510541 -0.003576 0.041335
v -0.510541 0.045680 0.041335
v -0.484486 0.045680 0.041335
v -0.484486 0.196660 0.041335
v -0.510541 0.196660 0.041335
v -0.510541 0.246273 0.041335
v -0.378020 0.245934 0.041335
v -0.345667 0.244971 0.041335
v -0.304429 0.230682 0.041335
v -0.281320 0.205941 0.041335
v -0.272690 0.176218 0.041335
v -0.277015 0.150910 0.041335
v -0.295337 0.125532 0.041335
v -0.315012 0.114287 0.041335
v -0.297005 0.101746 0.041335
v -0.281364 0.072639 0.041335
v -0.271428 0.045682 0.041335
v -0.355406 0.179180 0.041335
v -0.365794 0.194688 0.041335
v -0.404534 0.196660 0.041335
v -0.404534 0.138481 0.041335
v -0.372418 0.138854 0.041335
v -0.360726 0.145129 0.041335
v -0.354992 0.157965 0.041335
v -0.549803 0.045680 0.041335
v -0.524818 0.045680 0.041335
v -0.524818 -0.003576 0.041335
v -0.653669 -0.003576 0.041335
v -0.653669 0.045680 0.041335
v -0.629755 0.045680 0.041335
v -0.635109 0.062813 0.041335
v -0.700069 0.062813 0.041335
v -0.705780 0.045680 0.041335
v -0.680795 0.045680 0.041335
v -0.680795 -0.003576 0.041335
v -0.794654 -0.003576 0.041335
v -0.794654 0.045680 0.041335
v -0.772168 0.045680 0.041335
v -0.717558 0.196660 0.041335
v -0.732906 0.196660 0.041335
v -0.732906 0.246273 0.041335
v -0.622616 0.246273 0.041335
v -0.685078 0.105644 0.041335
v -0.649029 0.105644 0.041335
v -0.666875 0.159183 0.041335
v -0.941708 0.246273 0.041335
v -0.808932 0.246273 0.041335
v -0.808932 0.196660 0.041335
v -0.835344 0.196660 0.041335
v -0.835344 0.045680 0.041335
v -0.808932 0.045680 0.041335
v -0.808932 -0.003576 0.041335
v -0.835344 -0.003576 0.041335
v -0.915296 -0.003576 0.041335
v -0.941708 -0.003576 0.041335
v -0.941708 0.045680 0.041335
v -0.915296 0.045680 0.041335
v -0.915296 0.103502 0.041335
v -0.981684 0.103502 0.041335
v -0.981684 0.045680 0.041335
v -0.955271 0.045680 0.041335
v -0.955271 -0.003576 0.041335
v -1.087691 -0.003576 0.041335
v -1.087691 0.045680 0.041335
v -1.061635 0.045680 0.041335
v -1.061635 0.196660 0.041335
v -1.087691 0.196660 0.041335
v -1.087691 0.246273 0.041335
v -0.955271 0.246273 0.041335
v -0.955271 0.196660 0.041335
v -0.981684 0.196660 0.041335
v -0.981684 0.146333 0.041335
v -0.915296 0.146333 0.041335
v -0.915296 0.196660 0.041335
v -0.941708 0.196660 0.041335
v -0.941708 0.246273 0.041335
v -0.794654 -0.003576 -0.041335
v -0.772168 0.045680 -0.041335
v -0.680795 -0.003576 -0.041335
v -0.017279 0.185181 -0.041335
v -0.002892 0.145718 -0.041335
v 0.387759 0.196660 -0.041335
v 0.438442 0.159183 -0.041335
v 0.555514 0.045680 -0.041335
v 0.482701 0.246273 -0.041335
v -0.484486 0.196660 -0.041335
v -0.281320 0.205941 -0.041335
v -0.700069 0.062813 -0.041335
v -0.649029 0.105644 -0.041335
v -0.096025 0.057671 -0.041335
v -0.086646 0.078704 -0.041335
v -0.794654 0.045680 -0.041335
v 0.372411 0.246273 -0.041335
v 0.144135 -0.003576 -0.041335
v 0.117009 0.080302 -0.041335
v -1.061635 0.196660 -0.041335
v -0.955271 0.196660 -0.041335
v -0.808932 0.246273 -0.041335
v -0.941708 0.246273 -0.041335
v 0.749911 0.179180 -0.041335
v 0.743970 0.190500 -0.041335
v 0.700783 0.088868 -0.041335
v 0.732899 0.138854 -0.041335
v -0.295337 0.125532 -0.041335
v -0.372418 0.138854 -0.041335
v 1.087691 0.246273 -0.041335
v 1.032010 0.196660 -0.041335
v -0.808932 0.196660 -0.041335
v -0.835344 0.196660 -0.041335
v 0.978114 0.103502 -0.041335
v 0.898163 0.045680 -0.041335
v -0.360726 0.145129 -0.041335
v -0.354992 0.157965 -0.041335
v -0.981684 0.196660 -0.041335
v 0.766059 0.010476 -0.041335
v 0.733567 0.076240 -0.041335
v 0.809980 0.125531 -0.041335
v 0.790305 0.114287 -0.041335
v 0.352580 0.246273 -0.041335
v 0.234437 0.196660 -0.041335
v 0.405248 0.062813 -0.041335
v 0.399537 0.045680 -0.041335
v 0.744591 0.145129 -0.041335
v -0.717558 0.196660 -0.041335
v -0.013319 0.064258 -0.041335
v -0.034779 0.032207 -0.041335
v 0.833847 0.045690 -0.041335
v -0.315012 0.114287 -0.041335
v -0.297005 0.101746 -0.041335
v 0.168763 0.094222 -0.041335
v -0.086964 0.165630 -0.041335
v -0.096583 0.185543 -0.041335
v 0.310663 -0.003576 -0.041335
v 0.470209 0.062813 -0.041335
v 0.159126 0.246273 -0.041335
v 0.201957 0.246273 -0.041335
v 0.825526 0.202490 -0.041335
v 0.832627 0.176219 -0.041335
v 1.087691 0.166321 -0.041335
v -0.404534 0.088868 -0.041335
v 0.978114 0.045680 -0.041335
v -0.549803 0.045680 -0.041335
v -0.653669 -0.003576 -0.041335
v 0.594776 0.196660 -0.041335
v -1.061635 0.045680 -0.041335
v -0.835344 0.045680 -0.041335
v -0.915296 0.146333 -0.041335
v 0.424522 0.045680 -0.041335
v 0.424522 -0.003576 -0.041335
v 0.241933 0.094579 -0.041335
v 0.594776 0.246273 -0.041335
v 0.727297 0.245934 -0.041335
v 0.759651 0.244971 -0.041335
v 0.790007 0.235730 -0.041335
v -0.404534 0.045680 -0.041335
v -0.484486 0.045680 -0.041335
v 0.456289 0.105644 -0.041335
v -0.981684 0.146333 -0.041335
v 0.333149 0.045680 -0.041335
v 0.700783 0.138481 -0.041335
v -0.524818 0.045680 -0.041335
v -0.524818 -0.003576 -0.041335
v -0.272690 0.176218 -0.041335
v -0.365794 0.194688 -0.041335
v -1.087691 0.196660 -0.041335
v -1.087691 0.246273 -0.041335
v 0.320814 0.196660 -0.041335
v 0.265133 0.196660 -0.041335
v -0.127111 0.045797 -0.041335
v -0.109437 0.048777 -0.041335
v -0.096613 0.245521 -0.041335
v -0.067664 0.235893 -0.041335
v 1.032010 0.166321 -0.041335
v -0.247487 0.045680 -0.041335
v -0.339257 0.010476 -0.041335
v -0.038606 0.214814 -0.041335
v -0.207154 0.196660 -0.041335
v 0.420239 0.105644 -0.041335
v -0.629755 0.045680 -0.041335
v -0.955271 0.246273 -0.041335
v 1.036293 0.146333 -0.041335
v -0.247487 -0.003576 -0.041335
v -0.233210 0.196660 -0.041335
v -0.233210 0.246273 -0.041335
v 0.978114 0.196660 -0.041335
v -0.404534 0.196660 -0.041335
v -0.510541 -0.003576 -0.041335
v 0.732899 0.196287 -0.041335
v -0.388998 0.088547 -0.041335
v -0.653669 0.045680 -0.041335
v -0.915296 0.196660 -0.041335
v 0.234437 0.246273 -0.041335
v -0.281364 0.072639 -0.041335
v 0.352580 0.196660 -0.041335
v 0.700783 0.196660 -0.041335
v -0.378544 0.083706 -0.041335
v -0.404534 0.138481 -0.041335
v -0.096613 -0.002824 -0.041335
v -0.233210 -0.003576 -0.041335
v 0.857830 0.045680 -0.041335
v 0.594776 -0.003576 -0.041335
v 0.594776 0.045680 -0.041335
v 0.065255 -0.003576 -0.041335
v -0.378122 0.045680 -0.041335
v -0.378122 -0.003576 -0.041335
v 0.808312 0.101746 -0.041335
v -0.981684 0.045680 -0.041335
v -0.941708 0.196660 -0.041335
v 0.792513 -0.003576 -0.041335
v 0.772525 -0.003576 -0.041335
v -0.635109 0.062813 -0.041335
v -0.915296 0.045680 -0.041335
v -0.915296 0.103502 -0.041335
v 1.036293 0.103502 -0.041335
v -0.252484 -0.003576 -0.041335
v -1.087691 -0.003576 -0.041335
v -0.981684 0.103502 -0.041335
v -0.277015 0.150910 -0.041335
v 0.580499 0.045680 -0.041335
v 0.580499 -0.003576 -0.041335
v -0.015054 0.196660 -0.041335
v 0.116652 0.246273 -0.041335
v 0.750325 0.157965 -0.041335
v 0.011359 0.196660 -0.041335
v 0.978114 0.146333 -0.041335
v -0.312804 -0.003576 -0.041335
v 0.727196 -0.003576 -0.041335
v -0.271428 0.045682 -0.041335
v 0.451649 -0.003576 -0.041335
v -0.666875 0.159183 -0.041335
v 0.116652 0.196660 -0.041335
v -0.332792 -0.003576 -0.041335
v 0.811716 0.221658 -0.041335
v -0.955271 0.045680 -0.041335
v -0.705780 0.045680 -0.041335
v -0.367931 0.069424 -0.041335
v -0.941708 0.045680 -0.041335
v -0.015054 0.246273 -0.041335
v 0.727196 0.045680 -0.041335
v 0.700783 0.045680 -0.041335
v 0.620831 0.045680 -0.041335
v -0.955271 -0.003576 -0.041335
v 0.719511 0.088033 -0.041335
v -0.685078 0.105644 -0.041335
v 0.475563 0.045680 -0.041335
v 0.872107 -0.003576 -0.041335
v 0.195889 -0.003576 -0.041335
v -0.680795 0.045680 -0.041335
v -0.109437 0.193920 -0.041335
v -0.941708 -0.003576 -0.041335
v -0.915296 -0.003576 -0.041335
v 0.091310 0.196660 -0.041335
v 0.828302 0.150911 -0.041335
v -0.127111 0.196900 -0.041335
v 0.266918 -0.003576 -0.041335
v -0.002469 0.102776 -0.041335
v -0.510541 0.196660 -0.041335
v -0.304429 0.230682 -0.041335
v 0.872107 0.196660 -0.041335
v 0.872107 0.045680 -0.041335
v -0.084165 0.123039 -0.041335
v 0.620831 0.196660 -0.041335
v -1.087691 0.045680 -0.041335
v 0.872107 0.246273 -0.041335
v -0.207154 0.046037 -0.041335
v -0.808932 -0.003576 -0.041335
v -0.808932 0.045680 -0.041335
v 0.823519 0.073594 -0.041335
v 1.087691 -0.003576 -0.041335
v 0.898163 0.196660 -0.041335
v 0.857830 -0.003576 -0.041335
v -0.355406 0.179180 -0.041335
v 1.032010 0.076019 -0.041335
v 1.087691 0.076019 -0.041335
v -0.835344 -0.003576 -0.041335
v 0.451649 0.045680 -0.041335
v -0.233210 0.046037 -0.041335
v -0.345667 0.244971 -0.041335
v -0.378020 0.245934 -0.041335
v 1.032010 0.045680 -0.041335
v -0.062679 0.009189 -0.041335
v -0.510541 0.246273 -0.041335
v 0.852833 -0.003576 -0.041335
v -0.622616 0.246273 -0.041335
v -0.732906 0.246273 -0.041335
v 0.372411 0.196660 -0.041335
v -0.732906 0.196660 -0.041335
v -0.510541 0.045680 -0.041335
v 0.310663 0.045680 -0.041335
v 0.000000 0.306341 -0.051458
v 0.101386 0.333508 -0.051458
v 0.175606 0.407728 -0.051458
v 0.202773 0.509114 -0.051458
v 0.175606 0.610500 -0.051458
v 0.101386 0.684720 -0.051458
v 0.000000 0.711887 -0.051458
v -0.101386 0.684720 -0.051458
v -0.175606 0.610500 -0.051458
v -0.202773 0.509114 -0.051458
v -0.175606 0.407728 -0.051458
v -0.101386 0.333508 -0.051458
v 0.074470 0.380129 -0.051458
v 0.000000 0.360175 -0.051458
v 0.128985 0.434644 -0.051458
v 0.148939 0.509114 -0.051458
v 0.128985 0.583584 -0.051458
v 0.074470 0.638099 -0.051458
v 0.000000 0.658053 -0.051458
v -0.074469 0.638099 -0.051458
v -0.128985 0.583584 -0.051458
v -0.148939 0.509114 -0.051458
v -0.128985 0.434645 -0.051458
v -0.074470 0.380129 -0.051458
v 0.000000 0.306341 0.051458
v 0.101386 0.333508 0.051458
v 0.175606 0.407728 0.051458
v 0.202773 0.509114 0.051458
v 0.175606 0.610500 0.051458
v 0.101386 0.684720 0.051458
v 0.000000 0.711887 0.051458
v -0.101386 0.684720 0.051458
v -0.175606 0.610500 0.051458
v -0.202773 0.509114 0.051458
v -0.175606 0.407728 0.051458
v -0.101386 0.333508 0.051458
v 0.074470 0.380129 0.051458
v 0.000000 0.360175 0.051458
v 0.128985 0.434644 0.051458
v 0.148939 0.509114 0.051458
v 0.128985 0.583584 0.051458
v 0.074470 0.638099 0.051458
v 0.000000 0.658053 0.051458
v -0.074469 0.638099 0.051458
v -0.128985 0.583584 0.051458
v -0.148939 0.509114 0.051458
v -0.128985 0.434645 0.051458
v -0.074470 0.380129 0.051458
v 0.074470 0.380129 0.000000
v 0.000000 0.360175 0.000000
v 0.128985 0.434644 0.000000
v 0.148939 0.509114 -0.000000
v 0.128985 0.583584 -0.000000
v 0.074470 0.638099 -0.000000
v 0.000000 0.658053 -0.000000
v -0.074469 0.638099 -0.000000
v -0.128985 0.583584 -0.000000
v -0.148939 0.509114 -0.000000
v -0.128985 0.434645 0.000000
v -0.074470 0.380129 0.000000
v -0.251438 0.549386 0.040272
v -0.251438 0.549386 -0.040272
v -0.251438 0.468842 0.040272
v -0.251438 0.468842 -0.040272
v -0.170893 0.571037 0.040272
v -0.170893 0.571037 -0.040272
v -0.170893 0.447191 0.040272
v -0.170893 0.447191 -0.040272
v -0.206271 0.359797 0.040272
v -0.206271 0.359797 -0.040272
v -0.149317 0.302844 0.040272
v -0.149317 0.302844 -0.040272
v -0.164626 0.432060 0.040272
v -0.164626 0.432060 -0.040272
v -0.077054 0.344488 0.040272
v -0.077054 0.344488 -0.040272
v -0.040272 0.257676 0.040272
v -0.040272 0.257676 -0.040272
v 0.040272 0.257676 0.040272
v 0.040272 0.257676 -0.040272
v -0.061923 0.338221 0.040272
v -0.061923 0.338221 -0.040272
v 0.061923 0.338221 0.040272
v 0.061923 0.338221 -0.040272
v 0.149317 0.302844 0.040272
v 0.149317 0.302844 -0.040272
v 0.206270 0.359797 0.040272
v 0.206270 0.359797 -0.040272
v 0.077054 0.344488 0.040272
v 0.077054 0.344488 -0.040272
v 0.164626 0.432060 0.040272
v 0.164626 0.432060 -0.040272
v 0.251438 0.468842 0.040272
v 0.251438 0.468842 -0.040272
v 0.251438 0.549386 0.040272
v 0.251438 0.549386 -0.040272
v 0.170893 0.447191 0.040272
v 0.170893 0.447191 -0.040272
v 0.170893 0.571037 0.040272
v 0.170893 0.571037 -0.040272
v 0.206270 0.658431 0.040272
v 0.206270 0.658431 -0.040272
v 0.149317 0.715384 0.040272
v 0.149317 0.715384 -0.040272
v 0.164626 0.586168 0.040272
v 0.164626 0.586168 -0.040272
v 0.077054 0.673740 0.040272
v 0.077054 0.673740 -0.040272
v 0.040272 0.760552 0.040272
v 0.040272 0.760552 -0.040272
v -0.040272 0.760552 0.040272
v -0.040272 0.760552 -0.040272
v 0.061923 0.680007 0.040272
v 0.061923 0.680007 -0.040272
v -0.061923 0.680007 0.040272
v -0.061923 0.680007 -0.040272
v -0.149317 0.715384 0.040272
v -0.149317 0.715384 -0.040272
v -0.206270 0.658431 0.040272
v -0.206270 0.658431 -0.040272
v -0.077054 0.673740 0.040272
v -0.077054 0.673740 -0.040272
v -0.164626 0.586168 0.040272
v -0.164626 0.586168 -0.040272
v -0.251438 0.549386 0.040272
v -0.251438 0.549386 -0.040272
v -0.251438 0.468842 0.040272
v -0.251438 0.468842 -0.040272
v -0.170893 0.571037 0.040272
v -0.170893 0.571037 -0.040272
v -0.170893 0.447191 0.040272
v -0.170893 0.447191 -0.040272
v -0.206270 0.359797 0.040272
v -0.206270 0.359797 -0.040272
v -0.149317 0.302844 0.040272
v -0.149317 0.302844 -0.040272
v -0.164626 0.432060 0.040272
v -0.164626 0.432060 -0.040272
v -0.077054 0.344488 0.040272
v -0.077054 0.344488 -0.040272
vn -0.0000 -0.0000 1.0000
vn -0.0000 -1.0000 -0.0000
vn -0.0000 -0.0000 -0.0000
vn -0.0000 1.0000 -0.0000
vn -0.0000 -0.0000 -1.0000
vn 0.9080 -0.4190 -0.0000
vn 0.9913 -0.1320 -0.0000
vn 0.9221 -0.3869 -0.0000
vn 0.9989 0.0474 -0.0000
vn 0.9118 0.4106 -0.0000
vn 0.7466 0.6652 -0.0000
vn 1.0000 -0.0000 -0.0000
vn -1.0000 -0.0000 -0.0000
vn -0.6053 -0.7960 -0.0000
vn 0.6083 -0.7937 -0.0000
vn -0.0116 -0.9999 -0.0000
vn -0.2441 -0.9697 -0.0000
vn 0.9839 0.1788 -0.0000
vn 0.5451 0.8384 -0.0000
vn 0.1807 0.9835 -0.0000
vn 0.0055 -1.0000 -0.0000
vn 0.1720 -0.9851 -0.0000
vn -0.4932 -0.8699 -0.0000
vn -0.9539 -0.3001 -0.0000
vn 0.0004 1.0000 -0.0000
vn 0.5715 0.8206 -0.0000
vn -0.9539 -0.3002 -0.0000
vn -0.9800 0.1990 -0.0000
vn 0.8693 0.4942 -0.0000
vn -0.1662 -0.9861 -0.0000
vn -0.3638 -0.9315 -0.0000
vn -0.1663 -0.9861 -0.0000
vn -0.6083 -0.7937 -0.0000
vn 0.6147 -0.7887 -0.0000
vn 0.9468 -0.3219 -0.0000
vn -0.9404 0.3401 -0.0000
vn -0.5744 0.8186 -0.0000
vn -0.5395 -0.8420 -0.0000
vn -0.5394 -0.8420 -0.0000
vn 0.1626 0.9867 -0.0000
vn 0.0055 1.0000 -0.0000
vn 0.8839 0.4677 -0.0000
vn 0.5739 0.8189 -0.0000
vn -0.5923 -0.8057 -0.0000
vn -0.9545 -0.2983 -0.0000
vn -0.9719 0.2354 -0.0000
vn -0.7633 0.6460 -0.0000
vn -0.9719 0.2355 -0.0000
vn -1.0000 -0.0049 -0.0000
vn -0.9670 -0.2550 -0.0000
vn 0.7084 0.7058 -0.0000
vn 0.4926 -0.8703 -0.0000
vn -0.7065 -0.7077 -0.0000
vn -0.9686 -0.2488 -0.0000
vn 0.0162 0.9999 -0.0000
vn 0.0026 1.0000 -0.0000
vn -0.8547 -0.5192 -0.0000
vn -0.9039 -0.4277 -0.0000
vn -0.7322 0.6810 -0.0000
vn 0.9111 0.4122 -0.0000
vn 0.7459 0.6660 -0.0000
vn -0.9751 0.2216 -0.0000
vn -0.7864 -0.6177 -0.0000
vn -0.9026 -0.4305 -0.0000
vn 0.1619 0.9868 -0.0000
vn 0.4962 -0.8682 -0.0000
vn 0.6686 -0.7436 -0.0000
vn 0.9487 -0.3162 -0.0000
vn 0.5847 -0.8112 -0.0000
vn -0.7323 0.6810 -0.0000
vn 0.7415 -0.6710 -0.0000
vn 0.7467 0.6652 -0.0000
vn -0.7507 -0.6606 -0.0000
vn 0.5847 -0.8113 -0.0000
vn 0.9984 0.0566 -0.0000
vn 0.6104 0.7921 -0.0000
vn -0.6140 0.7893 -0.0000
vn -0.9693 0.2460 -0.0000
vn 0.9030 0.4297 -0.0000
vn -0.2494 0.9684 -0.0000
vn -0.0116 0.9999 -0.0000
vn 0.0001 1.0000 -0.0000
vn 0.5720 0.8203 -0.0000
vn -0.2252 -0.9743 -0.0000
vn -0.6309 -0.7759 -0.0000
vn 0.6895 0.7243 -0.0000
vn 0.9670 0.2548 -0.0000
vn 0.4217 0.9067 -0.0000
vn -0.9487 -0.3162 -0.0000
vn 0.9697 -0.2442 -0.0000
vn -0.3675 0.9300 -0.0000
vn -0.1662 0.9861 -0.0000
vn 0.4567 0.8896 -0.0000
vn -0.3628 -0.9319 -0.0000
vn -0.3628 -0.9318 -0.0000
vn 0.9765 0.2157 -0.0000
vn -0.9636 -0.2673 -0.0000
vn -0.0508 -0.9987 -0.0000
vn -0.3637 -0.9315 -0.0000
vn -0.0207 -0.9998 -0.0000
vn -0.0446 -0.9990 -0.0000
vn 0.5719 0.8203 -0.0000
vn 0.5000 -0.8660 -0.0000
vn 0.8660 -0.5000 -0.0000
vn 0.8660 0.5000 -0.0000
vn 0.5000 0.8660 -0.0000
vn -0.5000 0.8660 -0.0000
vn -0.8660 0.5000 -0.0000
vn -0.8660 -0.5000 -0.0000
vn -0.5000 -0.8660 -0.0000
vn -0.7936 0.6084 -0.0000
vn -0.7936 -0.6084 -0.0000
vn -0.7936 0.6085 -0.0000
vn -0.7936 -0.6085 -0.0000
vn -0.2596 -0.9657 -0.0000
vn -0.2596 0.9657 -0.0000
vn -0.9914 -0.1309 -0.0000
vn -0.1309 -0.9914 -0.0000
vn 0.4993 -0.8664 -0.0000
vn 0.7071 0.7071 -0.0000
vn -0.8664 0.4993 -0.0000
vn -0.6084 -0.7936 -0.0000
vn 0.6084 -0.7936 -0.0000
vn -0.6085 -0.7936 -0.0000
vn 0.6085 -0.7936 -0.0000
vn 0.9657 -0.2596 -0.0000
vn -0.9657 -0.2596 -0.0000
vn 0.1309 -0.9914 -0.0000
vn 0.9914 -0.1309 -0.0000
vn 0.8664 0.4993 -0.0000
vn -0.7071 0.7071 -0.0000
vn -0.4993 -0.8664 -0.0000
vn 0.7936 -0.6084 -0.0000
vn 0.7936 0.6084 -0.0000
vn 0.7936 -0.6085 -0.0000
vn 0.7936 0.6085 -0.0000
vn 0.2596 0.9657 -0.0000
vn 0.2596 -0.9657 -0.0000
vn 0.9914 0.1309 -0.0000
vn 0.1309 0.9914 -0.0000
vn -0.4993 0.8664 -0.0000
vn -0.7071 -0.7071 -0.0000
vn 0.8664 -0.4993 -0.0000
vn 0.6084 0.7936 -0.0000
vn -0.6084 0.7936 -0.0000
vn 0.6085 0.7936 -0.0000
vn -0.9657 0.2596 -0.0000
vn 0.9657 0.2596 -0.0000
vn -0.1309 0.9914 -0.0000
vn -0.9914 0.1309 -0.0000
vn -0.8664 -0.4993 -0.0000
vn 0.7071 -0.7071 -0.0000
vn 0.4993 0.8664 -0.0000
vt 0.582118 0.641530
vt 0.561229 0.636724
vt 0.582118 0.636724
vt 0.579593 0.641530
vt 0.571846 0.641530
vt 0.566624 0.641530
vt 0.561229 0.644470
vt 0.579593 0.656158
vt 0.571846 0.646406
vt 0.566624 0.644470
vt 0.566209 0.646406
vt 0.571846 0.650556
vt 0.566209 0.650556
vt 0.571846 0.656158
vt 0.566624 0.656158
vt 0.561229 0.653219
vt 0.566624 0.653219
vt 0.561229 0.660930
vt 0.582118 0.660930
vt 0.582118 0.656158
vt 0.566036 0.611238
vt 0.561262 0.624077
vt 0.561229 0.611238
vt 0.561355 0.627212
vt 0.562251 0.630153
vt 0.563614 0.632256
vt 0.565472 0.633594
vt 0.566036 0.613762
vt 0.566036 0.621508
vt 0.566073 0.624620
vt 0.580665 0.613762
vt 0.571674 0.621508
vt 0.566633 0.625692
vt 0.568017 0.634282
vt 0.567730 0.626268
vt 0.569786 0.626308
vt 0.570469 0.633863
vt 0.571029 0.625753
vt 0.572928 0.632088
vt 0.571638 0.624620
vt 0.576481 0.621508
vt 0.574018 0.630181
vt 0.575233 0.631926
vt 0.576562 0.623323
vt 0.577961 0.633399
vt 0.580665 0.621508
vt 0.577704 0.624684
vt 0.580665 0.634400
vt 0.584076 0.627832
vt 0.585438 0.611238
vt 0.580665 0.611238
vt 0.580665 0.624067
vt 0.585438 0.624067
vt 0.580665 0.636724
vt 0.585438 0.636724
vt 0.585438 0.628459
vt 0.561229 0.535333
vt 0.603992 0.601278
vt 0.599185 0.611964
vt 0.599185 0.601278
vt 0.603992 0.602765
vt 0.607624 0.607676
vt 0.618621 0.619018
vt 0.618621 0.597474
vt 0.612811 0.605912
vt 0.612811 0.609405
vt 0.616961 0.604460
vt 0.616961 0.610753
vt 0.618621 0.603906
vt 0.618621 0.611272
vt 0.623394 0.595296
vt 0.618621 0.595296
vt 0.618621 0.606327
vt 0.623394 0.606327
vt 0.623394 0.608955
vt 0.618621 0.608955
vt 0.618621 0.621439
vt 0.623394 0.621439
vt 0.668430 0.662175
vt 0.663623 0.674935
vt 0.663623 0.662175
vt 0.668430 0.674935
vt 0.615267 0.575550
vt 0.599185 0.583780
vt 0.599185 0.579631
vt 0.613918 0.580564
vt 0.613883 0.587654
vt 0.646183 0.671775
vt 0.641376 0.683222
vt 0.641376 0.671775
vt 0.646183 0.683222
vt 0.623394 0.570536
vt 0.603992 0.573060
vt 0.603992 0.565314
vt 0.603992 0.595296
vt 0.603992 0.589901
vt 0.623394 0.590074
vt 0.623394 0.578178
vt 0.623394 0.583193
vt 0.669960 0.592426
vt 0.656725 0.587692
vt 0.669960 0.587619
vt 0.653920 0.588625
vt 0.651104 0.590667
vt 0.667435 0.592426
vt 0.659680 0.592402
vt 0.649038 0.593538
vt 0.667435 0.607019
vt 0.659680 0.607042
vt 0.657967 0.592691
vt 0.656722 0.593503
vt 0.655790 0.595432
vt 0.647644 0.597361
vt 0.655519 0.599558
vt 0.647603 0.601522
vt 0.655759 0.603854
vt 0.648654 0.605253
vt 0.656668 0.605892
vt 0.657967 0.606753
vt 0.669960 0.611825
vt 0.669960 0.607019
vt 0.650733 0.608359
vt 0.653437 0.610589
vt 0.656725 0.611753
vt 0.667004 0.560819
vt 0.671778 0.547980
vt 0.671811 0.560819
vt 0.671685 0.544845
vt 0.670301 0.540850
vt 0.667903 0.538611
vt 0.667004 0.558295
vt 0.667004 0.550548
vt 0.666813 0.546795
vt 0.652375 0.558295
vt 0.661367 0.550548
vt 0.665024 0.537775
vt 0.665310 0.545789
vt 0.663255 0.545749
vt 0.662571 0.538194
vt 0.662011 0.546304
vt 0.660112 0.539969
vt 0.661403 0.547437
vt 0.656560 0.550548
vt 0.659023 0.541875
vt 0.657808 0.540131
vt 0.656529 0.549043
vt 0.654987 0.538615
vt 0.652375 0.550548
vt 0.656060 0.548030
vt 0.654676 0.547002
vt 0.652375 0.537653
vt 0.648964 0.544224
vt 0.647603 0.560819
vt 0.652375 0.560819
vt 0.652375 0.547989
vt 0.647603 0.547989
vt 0.652375 0.535333
vt 0.647603 0.535333
vt 0.647603 0.543598
vt 0.628201 0.541315
vt 0.623394 0.552001
vt 0.623394 0.541315
vt 0.628201 0.542802
vt 0.631832 0.547713
vt 0.642830 0.559055
vt 0.642830 0.537512
vt 0.637020 0.545949
vt 0.637020 0.549442
vt 0.641170 0.544497
vt 0.641170 0.550791
vt 0.642830 0.543944
vt 0.642830 0.551309
vt 0.642830 0.535333
vt 0.642830 0.546364
vt 0.647603 0.546364
vt 0.647603 0.548992
vt 0.642830 0.548992
vt 0.642830 0.561476
vt 0.647603 0.561476
vt 0.593448 0.670892
vt 0.598255 0.658063
vt 0.598255 0.670892
vt 0.593448 0.658063
vt 0.618587 0.634303
vt 0.618587 0.621439
vt 0.623394 0.634303
vt 0.603958 0.645922
vt 0.618587 0.638176
vt 0.618587 0.645922
vt 0.613710 0.638176
vt 0.613710 0.631744
vt 0.618587 0.623998
vt 0.618587 0.631744
vt 0.603958 0.623998
vt 0.609560 0.638176
vt 0.609560 0.631744
vt 0.603958 0.638176
vt 0.603958 0.631744
vt 0.599185 0.648446
vt 0.603958 0.648446
vt 0.603958 0.635617
vt 0.599185 0.635617
vt 0.599185 0.634303
vt 0.603958 0.634303
vt 0.603958 0.621439
vt 0.599185 0.621439
vt 0.647603 0.642775
vt 0.647603 0.637968
vt 0.668491 0.637968
vt 0.650127 0.642775
vt 0.657874 0.642775
vt 0.663096 0.642775
vt 0.668491 0.645714
vt 0.650127 0.657403
vt 0.657874 0.647651
vt 0.663096 0.645714
vt 0.663511 0.647651
vt 0.657874 0.651801
vt 0.663511 0.651801
vt 0.657874 0.657403
vt 0.663096 0.657403
vt 0.663096 0.654463
vt 0.668491 0.654463
vt 0.668491 0.662175
vt 0.647603 0.662175
vt 0.647603 0.657403
vt 0.628201 0.639248
vt 0.623394 0.639248
vt 0.623427 0.626409
vt 0.623520 0.623274
vt 0.624415 0.620333
vt 0.625779 0.618230
vt 0.627636 0.616892
vt 0.628201 0.636724
vt 0.628201 0.628977
vt 0.628237 0.625866
vt 0.642830 0.636724
vt 0.633838 0.628977
vt 0.628798 0.624793
vt 0.630182 0.616204
vt 0.629895 0.624218
vt 0.631950 0.624178
vt 0.632634 0.616623
vt 0.633194 0.624733
vt 0.635093 0.618398
vt 0.633802 0.625866
vt 0.638645 0.628977
vt 0.636182 0.620304
vt 0.637398 0.618560
vt 0.638726 0.627163
vt 0.640125 0.617086
vt 0.642830 0.628977
vt 0.639869 0.625801
vt 0.642829 0.616086
vt 0.646241 0.622653
vt 0.647603 0.639248
vt 0.642830 0.639248
vt 0.642830 0.626418
vt 0.647603 0.626418
vt 0.642830 0.613762
vt 0.647603 0.613762
vt 0.647603 0.622027
vt 0.628201 0.581636
vt 0.623394 0.581636
vt 0.623394 0.570951
vt 0.628201 0.580150
vt 0.631832 0.575239
vt 0.642830 0.563897
vt 0.642830 0.585440
vt 0.637020 0.577003
vt 0.637020 0.573510
vt 0.641170 0.578455
vt 0.641170 0.572161
vt 0.642830 0.579008
vt 0.642830 0.571643
vt 0.647603 0.587619
vt 0.642830 0.587619
vt 0.642830 0.576588
vt 0.647603 0.576588
vt 0.647603 0.573960
vt 0.642830 0.573960
vt 0.598255 0.683652
vt 0.593448 0.683652
vt 0.607312 0.545569
vt 0.623394 0.549649
vt 0.623394 0.553799
vt 0.608661 0.550583
vt 0.608696 0.557672
vt 0.668430 0.686381
vt 0.663623 0.686381
vt 0.599185 0.540555
vt 0.618587 0.535333
vt 0.618587 0.543079
vt 0.618587 0.559920
vt 0.618587 0.565314
vt 0.599185 0.560093
vt 0.599185 0.548197
vt 0.599185 0.553211
vt 0.669960 0.633162
vt 0.669960 0.637968
vt 0.656725 0.637896
vt 0.653920 0.636963
vt 0.651104 0.634921
vt 0.667435 0.633162
vt 0.659680 0.633185
vt 0.649038 0.632050
vt 0.667435 0.618569
vt 0.659680 0.618545
vt 0.657967 0.632896
vt 0.656722 0.632085
vt 0.655790 0.630155
vt 0.647644 0.628226
vt 0.655519 0.626029
vt 0.647603 0.624066
vt 0.655759 0.621734
vt 0.648654 0.620334
vt 0.656668 0.619696
vt 0.657967 0.618834
vt 0.669960 0.613762
vt 0.669960 0.618569
vt 0.650733 0.617229
vt 0.653437 0.614999
vt 0.656725 0.613835
vt 0.652410 0.586305
vt 0.647603 0.586305
vt 0.647635 0.573466
vt 0.647729 0.570331
vt 0.649113 0.566336
vt 0.651510 0.564097
vt 0.652410 0.583780
vt 0.652410 0.576034
vt 0.652601 0.572281
vt 0.667039 0.583780
vt 0.658047 0.576034
vt 0.654390 0.563261
vt 0.654104 0.571275
vt 0.656159 0.571234
vt 0.656843 0.563680
vt 0.657403 0.571790
vt 0.659302 0.565455
vt 0.658011 0.572923
vt 0.662854 0.576034
vt 0.660391 0.567361
vt 0.661606 0.565616
vt 0.662885 0.574529
vt 0.664427 0.564101
vt 0.667039 0.576034
vt 0.663354 0.573516
vt 0.664738 0.572488
vt 0.667039 0.563138
vt 0.670450 0.569710
vt 0.671811 0.586305
vt 0.667039 0.586305
vt 0.667039 0.573475
vt 0.671811 0.573475
vt 0.667039 0.560819
vt 0.671811 0.569084
vt 0.642795 0.593601
vt 0.647603 0.593601
vt 0.647603 0.604287
vt 0.642795 0.595088
vt 0.639164 0.599999
vt 0.628166 0.611341
vt 0.628166 0.589798
vt 0.633977 0.598235
vt 0.633977 0.601728
vt 0.629826 0.596783
vt 0.629826 0.603077
vt 0.628166 0.596230
vt 0.628166 0.603595
vt 0.623394 0.587619
vt 0.628166 0.587619
vt 0.628166 0.598650
vt 0.623394 0.598650
vt 0.623394 0.601278
vt 0.628166 0.601278
vt 0.628166 0.613762
vt 0.623394 0.613762
vt 0.641376 0.658946
vt 0.646183 0.658946
vt 0.623394 0.647167
vt 0.618587 0.647167
vt 0.684589 0.612102
vt 0.669960 0.612102
vt 0.669960 0.604356
vt 0.674836 0.604356
vt 0.674836 0.597924
vt 0.669960 0.597924
vt 0.669960 0.590178
vt 0.684589 0.590178
vt 0.678986 0.604356
vt 0.678986 0.597924
vt 0.684589 0.604356
vt 0.684589 0.597924
vt 0.689362 0.614626
vt 0.684589 0.614626
vt 0.684589 0.601797
vt 0.689362 0.601797
vt 0.689362 0.600483
vt 0.684589 0.600483
vt 0.684589 0.587619
vt 0.689362 0.587619
vt 0.697804 0.561556
vt 0.689794 0.565264
vt 0.689794 0.561556
vt 0.585438 0.692243
vt 0.593448 0.689801
vt 0.593448 0.692243
vt 0.724275 0.566506
vt 0.721423 0.558497
vt 0.724275 0.558497
vt 0.623394 0.658992
vt 0.631404 0.673616
vt 0.623394 0.673616
vt 0.561229 0.695404
vt 0.566104 0.703414
vt 0.561229 0.703414
vt 0.726659 0.665061
vt 0.719777 0.657051
vt 0.726659 0.657051
vt 0.731610 0.673070
vt 0.734722 0.681080
vt 0.731610 0.681080
vt 0.604163 0.708367
vt 0.599391 0.700358
vt 0.604163 0.700358
vt 0.734348 0.622636
vt 0.731823 0.614626
vt 0.734348 0.614626
vt 0.697804 0.565264
vt 0.689794 0.569424
vt 0.577250 0.675553
vt 0.585260 0.660930
vt 0.585260 0.675553
vt 0.681783 0.576192
vt 0.689793 0.572193
vt 0.689794 0.576192
vt 0.697372 0.587619
vt 0.689362 0.600853
vt 0.732195 0.595628
vt 0.727423 0.587619
vt 0.732195 0.587619
vt 0.687942 0.695612
vt 0.689469 0.703622
vt 0.687942 0.703622
vt 0.721309 0.709596
vt 0.716538 0.701586
vt 0.721309 0.701586
vt 0.736562 0.566506
vt 0.734238 0.558497
vt 0.736562 0.558497
vt 0.689469 0.695612
vt 0.691525 0.703622
vt 0.684738 0.704776
vt 0.679932 0.696766
vt 0.684738 0.696766
vt 0.628165 0.710322
vt 0.623394 0.702312
vt 0.628165 0.702312
vt 0.721329 0.574969
vt 0.713618 0.582978
vt 0.713618 0.574969
vt 0.705814 0.555575
vt 0.697804 0.558021
vt 0.697804 0.555575
vt 0.647012 0.699241
vt 0.641376 0.691231
vt 0.647012 0.691231
vt 0.713824 0.547332
vt 0.705814 0.558363
vt 0.705814 0.547332
vt 0.582360 0.652743
vt 0.584071 0.660752
vt 0.582360 0.660752
vt 0.713618 0.535333
vt 0.721261 0.543342
vt 0.713618 0.543342
vt 0.668675 0.695372
vt 0.663527 0.703382
vt 0.663527 0.695372
vt 0.573909 0.703409
vt 0.569034 0.695400
vt 0.573909 0.695400
vt 0.726863 0.543342
vt 0.731668 0.535333
vt 0.731668 0.543342
vt 0.655613 0.676670
vt 0.655613 0.662175
vt 0.713523 0.635278
vt 0.721533 0.633341
vt 0.721533 0.635278
vt 0.619977 0.708327
vt 0.615206 0.700318
vt 0.619977 0.700318
vt 0.697804 0.576486
vt 0.689793 0.587517
vt 0.689793 0.576486
vt 0.689793 0.548567
vt 0.697804 0.535333
vt 0.697804 0.548567
vt 0.697804 0.583809
vt 0.705814 0.571326
vt 0.705814 0.583809
vt 0.697804 0.569424
vt 0.689794 0.573277
vt 0.703963 0.651749
vt 0.695952 0.654308
vt 0.695952 0.651749
vt 0.599084 0.699671
vt 0.593448 0.691662
vt 0.599084 0.691662
vt 0.593219 0.702672
vt 0.590660 0.694663
vt 0.593219 0.694663
vt 0.615206 0.648446
vt 0.607195 0.668030
vt 0.607195 0.648446
vt 0.732056 0.604954
vt 0.734512 0.612964
vt 0.732056 0.612964
vt 0.677970 0.665642
vt 0.679642 0.673652
vt 0.677970 0.673652
vt 0.622502 0.708327
vt 0.622502 0.700318
vt 0.703963 0.654308
vt 0.695952 0.667138
vt 0.705924 0.624998
vt 0.697914 0.627013
vt 0.697914 0.624998
vt 0.599085 0.691662
vt 0.599085 0.683652
vt 0.705924 0.620710
vt 0.697914 0.620710
vt 0.727275 0.709596
vt 0.722504 0.701586
vt 0.727275 0.701586
vt 0.705924 0.616578
vt 0.697914 0.616578
vt 0.719777 0.654308
vt 0.711767 0.664993
vt 0.711767 0.654308
vt 0.734238 0.566506
vt 0.731714 0.558497
vt 0.695952 0.693676
vt 0.695952 0.695612
vt 0.585438 0.644733
vt 0.582360 0.636724
vt 0.697804 0.573277
vt 0.697372 0.604148
vt 0.689362 0.604148
vt 0.677970 0.662500
vt 0.669960 0.675364
vt 0.669960 0.662500
vt 0.598903 0.635266
vt 0.595410 0.627257
vt 0.598903 0.627257
vt 0.662978 0.704482
vt 0.660419 0.696472
vt 0.662978 0.696472
vt 0.700724 0.707709
vt 0.695952 0.699700
vt 0.700724 0.699700
vt 0.628622 0.694303
vt 0.629732 0.702312
vt 0.628622 0.702312
vt 0.732046 0.709802
vt 0.727275 0.701792
vt 0.732046 0.701792
vt 0.681783 0.569059
vt 0.689794 0.556219
vt 0.689793 0.569059
vt 0.677970 0.641613
vt 0.669960 0.641613
vt 0.631480 0.667002
vt 0.633152 0.675011
vt 0.631480 0.675011
vt 0.629732 0.694303
vt 0.631788 0.702312
vt 0.678698 0.703382
vt 0.673823 0.695372
vt 0.678698 0.695372
vt 0.734615 0.595628
vt 0.734722 0.673070
vt 0.735791 0.681080
vt 0.687297 0.704776
vt 0.687942 0.693676
vt 0.695952 0.687832
vt 0.721363 0.566959
vt 0.726964 0.574969
vt 0.721363 0.574969
vt 0.633366 0.692734
vt 0.641376 0.686957
vt 0.641376 0.692734
vt 0.587859 0.710682
vt 0.585438 0.702672
vt 0.587859 0.702672
vt 0.691525 0.695612
vt 0.692755 0.703622
vt 0.599185 0.668030
vt 0.638137 0.702152
vt 0.640558 0.710161
vt 0.638137 0.710161
vt 0.724292 0.622636
vt 0.721533 0.614626
vt 0.724292 0.614626
vt 0.726908 0.566506
vt 0.731714 0.566506
vt 0.719777 0.664993
vt 0.711767 0.674826
vt 0.669960 0.687363
vt 0.676407 0.695372
vt 0.669960 0.695372
vt 0.679932 0.657418
vt 0.687942 0.654284
vt 0.687942 0.657419
vt 0.611967 0.708387
vt 0.607195 0.700377
vt 0.611967 0.700377
vt 0.735830 0.649454
vt 0.731681 0.641444
vt 0.735830 0.641444
vt 0.677970 0.649623
vt 0.679883 0.657632
vt 0.677970 0.657632
vt 0.569239 0.660930
vt 0.561229 0.675553
vt 0.660419 0.704482
vt 0.655613 0.696472
vt 0.713523 0.627497
vt 0.721533 0.627013
vt 0.721533 0.627497
vt 0.679618 0.681661
vt 0.679618 0.673652
vt 0.631788 0.694303
vt 0.633018 0.702312
vt 0.735794 0.673070
vt 0.731610 0.665061
vt 0.735794 0.665061
vt 0.720991 0.587619
vt 0.727423 0.595628
vt 0.720991 0.595628
vt 0.687942 0.662469
vt 0.679932 0.676964
vt 0.679932 0.662469
vt 0.689904 0.641288
vt 0.697914 0.630603
vt 0.697914 0.641288
vt 0.734467 0.709802
vt 0.732046 0.701792
vt 0.734467 0.701792
vt 0.697804 0.558497
vt 0.689794 0.558497
vt 0.697804 0.547816
vt 0.705814 0.550236
vt 0.697804 0.550236
vt 0.726930 0.582978
vt 0.731736 0.574969
vt 0.731736 0.582978
vt 0.646147 0.707250
vt 0.641376 0.699241
vt 0.646147 0.699241
vt 0.679718 0.665642
vt 0.677970 0.657633
vt 0.679718 0.657632
vt 0.726928 0.635023
vt 0.731734 0.627013
vt 0.731734 0.635023
vt 0.695314 0.703622
vt 0.692755 0.695612
vt 0.695314 0.695612
vt 0.705924 0.614626
vt 0.697914 0.614626
vt 0.652409 0.696566
vt 0.654968 0.704576
vt 0.652409 0.704576
vt 0.711293 0.706948
vt 0.708734 0.698939
vt 0.711293 0.698939
vt 0.687942 0.687832
vt 0.695952 0.687348
vt 0.647013 0.691231
vt 0.647013 0.683222
vt 0.720991 0.604954
vt 0.727285 0.612964
vt 0.720991 0.612964
vt 0.697804 0.552678
vt 0.713523 0.633341
vt 0.735818 0.543342
vt 0.735818 0.535333
vt 0.689904 0.614626
vt 0.697372 0.600448
vt 0.705382 0.587619
vt 0.705382 0.600448
vt 0.585438 0.689801
vt 0.593448 0.687241
vt 0.727017 0.622636
vt 0.727017 0.614626
vt 0.697804 0.571326
vt 0.705814 0.558497
vt 0.713618 0.566959
vt 0.689793 0.535333
vt 0.681783 0.556219
vt 0.681783 0.535333
vt 0.726930 0.574969
vt 0.644491 0.647258
vt 0.647603 0.655267
vt 0.644491 0.655267
vt 0.736578 0.635023
vt 0.734259 0.627013
vt 0.736578 0.627013
vt 0.689362 0.606865
vt 0.705814 0.535333
vt 0.705814 0.547816
vt 0.676407 0.687363
vt 0.677783 0.695372
vt 0.708734 0.706948
vt 0.703963 0.698939
vt 0.733066 0.604296
vt 0.732056 0.596287
vt 0.733066 0.596287
vt 0.577250 0.660930
vt 0.569239 0.675553
vt 0.735758 0.692372
vt 0.731574 0.684362
vt 0.735758 0.684362
vt 0.623216 0.667967
vt 0.623216 0.648446
vt 0.598220 0.707681
vt 0.593448 0.699671
vt 0.598220 0.699671
vt 0.695952 0.641444
vt 0.687942 0.660725
vt 0.687942 0.641444
vt 0.585438 0.685356
vt 0.593448 0.685356
vt 0.668430 0.670184
vt 0.669917 0.678194
vt 0.668430 0.678194
vt 0.585438 0.658063
vt 0.593448 0.672840
vt 0.585438 0.672840
vt 0.679932 0.654284
vt 0.687942 0.641444
vt 0.726804 0.673070
vt 0.726804 0.681080
vt 0.606687 0.708367
vt 0.604163 0.700358
vt 0.606687 0.700358
vt 0.633366 0.694142
vt 0.641376 0.694142
vt 0.652409 0.704575
vt 0.647603 0.696566
vt 0.643360 0.647257
vt 0.643360 0.655267
vt 0.679932 0.660362
vt 0.687942 0.660362
vt 0.720991 0.596287
vt 0.727285 0.604296
vt 0.720991 0.604296
vt 0.568663 0.703414
vt 0.566104 0.695404
vt 0.568663 0.695404
vt 0.731465 0.665061
vt 0.731465 0.657051
vt 0.734354 0.555341
vt 0.731829 0.547332
vt 0.734354 0.547332
vt 0.721261 0.535333
vt 0.726863 0.535333
vt 0.703963 0.667138
vt 0.695952 0.679898
vt 0.646471 0.647257
vt 0.643360 0.639248
vt 0.646471 0.639248
vt 0.582266 0.703378
vt 0.577044 0.695369
vt 0.582266 0.695369
vt 0.727275 0.693783
vt 0.732046 0.693783
vt 0.726875 0.649454
vt 0.731681 0.649454
vt 0.731823 0.622636
vt 0.669917 0.670184
vt 0.705814 0.552678
vt 0.641376 0.702152
vt 0.638817 0.694142
vt 0.726928 0.627013
vt 0.719777 0.684362
vt 0.711767 0.693783
vt 0.711767 0.684362
vt 0.597122 0.651285
vt 0.595410 0.643276
vt 0.597122 0.643276
vt 0.633366 0.686957
vt 0.641376 0.685581
vt 0.689794 0.551374
vt 0.697804 0.551374
vt 0.695952 0.660725
vt 0.687942 0.675349
vt 0.585205 0.703378
vt 0.663527 0.687363
vt 0.732056 0.604296
vt 0.727285 0.596287
vt 0.736473 0.574969
vt 0.734295 0.566959
vt 0.736473 0.566959
vt 0.633127 0.683021
vt 0.633127 0.675011
vt 0.596765 0.643276
vt 0.595410 0.635266
vt 0.596765 0.635266
vt 0.655613 0.676764
vt 0.595410 0.619247
vt 0.598903 0.619247
vt 0.703963 0.644003
vt 0.695952 0.644003
vt 0.592977 0.710682
vt 0.590660 0.702672
vt 0.592977 0.702672
vt 0.727024 0.555341
vt 0.731829 0.555341
vt 0.726769 0.692372
vt 0.731574 0.692372
vt 0.689794 0.554195
vt 0.697804 0.554195
vt 0.598419 0.651285
vt 0.598419 0.643276
vt 0.734260 0.582978
vt 0.689793 0.576192
vt 0.681783 0.587517
vt 0.681783 0.576192
vt 0.647603 0.647257
vt 0.647603 0.639248
vt 0.633152 0.667002
vt 0.631404 0.658992
vt 0.633152 0.658992
vt 0.731770 0.566959
vt 0.731770 0.574969
vt 0.697372 0.613277
vt 0.705382 0.613277
vt 0.727285 0.604954
vt 0.582360 0.644733
vt 0.585334 0.652743
vt 0.736526 0.622636
vt 0.736526 0.614626
vt 0.734258 0.635023
vt 0.734258 0.627013
vt 0.721629 0.547332
vt 0.727024 0.547332
vt 0.576847 0.703409
vt 0.703283 0.707709
vt 0.703283 0.699700
vt 0.719777 0.674826
vt 0.633366 0.702152
vt 0.736578 0.582978
vt 0.734260 0.574969
vt 0.736578 0.574969
vt 0.595410 0.611238
vt 0.599162 0.619247
vt 0.595410 0.619247
vt 0.679883 0.649623
vt 0.679883 0.641613
vt 0.673823 0.703382
vt 0.638594 0.702152
vt 0.734295 0.574969
vt 0.584071 0.652743
vt 0.585311 0.660752
vt 0.736237 0.665061
vt 0.736237 0.657051
vt 0.585438 0.694663
vt 0.593448 0.694663
vt 0.703963 0.641444
vt 0.734571 0.604296
vt 0.734571 0.596287
vt 0.734571 0.701792
vt 0.598579 0.643276
vt 0.598579 0.635266
vt 0.632936 0.710322
vt 0.632936 0.702312
vt 0.711767 0.701586
vt 0.716538 0.709596
vt 0.711767 0.709596
vt 0.633366 0.673582
vt 0.633366 0.658946
vt 0.726908 0.558497
vt 0.681783 0.572193
vt 0.614491 0.708387
vt 0.614491 0.700377
vt 0.719777 0.641444
vt 0.711767 0.652891
vt 0.711767 0.641444
vt 0.681783 0.542569
vt 0.671811 0.552408
vt 0.671811 0.542569
vt 0.671811 0.535333
vt 0.669960 0.624389
vt 0.679932 0.614626
vt 0.679932 0.624389
vt 0.669960 0.634267
vt 0.679932 0.634267
vt 0.679932 0.641613
vt 0.679932 0.631615
vt 0.689904 0.641444
vt 0.679932 0.641444
vt 0.689904 0.621799
vt 0.679932 0.621799
vt 0.679932 0.614627
vt 0.585438 0.620994
vt 0.595410 0.620994
vt 0.575122 0.611238
vt 0.583942 0.606200
vt 0.585292 0.611238
vt 0.595410 0.630877
vt 0.585438 0.638240
vt 0.595410 0.638240
vt 0.633366 0.644563
vt 0.628380 0.639248
vt 0.633366 0.639248
vt 0.561229 0.587177
vt 0.566268 0.595996
vt 0.561229 0.597346
vt 0.585292 0.573285
vt 0.576472 0.578323
vt 0.575122 0.573285
vt 0.590412 0.602465
vt 0.594100 0.606153
vt 0.599185 0.587177
vt 0.590412 0.582058
vt 0.594100 0.578370
vt 0.570003 0.602465
vt 0.566314 0.606153
vt 0.570003 0.582058
vt 0.566314 0.578370
vt 0.599185 0.597346
vt 0.594147 0.595996
vt 0.576472 0.606200
vt 0.566268 0.588527
vt 0.594147 0.588527
vt 0.583942 0.578323
vt 0.681783 0.567622
vt 0.676797 0.562214
vt 0.681783 0.562214
vt 0.643338 0.658946
vt 0.638352 0.651726
vt 0.643338 0.651726
vt 0.643338 0.639248
vt 0.638352 0.644516
vt 0.638352 0.639248
vt 0.595410 0.650891
vt 0.590424 0.658063
vt 0.590424 0.650891
vt 0.633366 0.658992
vt 0.628380 0.651790
vt 0.633366 0.651790
vt 0.681783 0.582048
vt 0.676797 0.574882
vt 0.681783 0.574882
vt 0.595410 0.643636
vt 0.590424 0.643636
vt 0.628380 0.644563
vt 0.676797 0.567622
vt 0.590424 0.638240
vt 0.643338 0.644516
vt 0.583942 0.540371
vt 0.575122 0.535333
vt 0.585292 0.535333
vt 0.623394 0.644563
vt 0.566268 0.550574
vt 0.561229 0.559394
vt 0.561229 0.549224
vt 0.576472 0.568247
vt 0.575122 0.573285
vt 0.590412 0.544106
vt 0.594100 0.540418
vt 0.590412 0.564513
vt 0.599185 0.559394
vt 0.594100 0.568201
vt 0.570003 0.544106
vt 0.566314 0.540418
vt 0.570003 0.564513
vt 0.566314 0.568201
vt 0.599185 0.549224
vt 0.576472 0.540371
vt 0.566268 0.558044
vt 0.594147 0.550574
vt 0.583942 0.568247
vt 0.671811 0.567622
vt 0.671811 0.562214
vt 0.633366 0.658946
vt 0.633366 0.651726
vt 0.633366 0.639248
vt 0.633366 0.644516
vt 0.585438 0.650891
vt 0.623394 0.651790
vt 0.671811 0.574882
vt 0.676797 0.582048
vt 0.671811 0.582048
vt 0.585438 0.643636
vt 0.679932 0.688963
vt 0.687734 0.696766
vt 0.599391 0.692554
vt 0.607182 0.700358
vt 0.615206 0.680518
vt 0.623010 0.692514
vt 0.615206 0.692514
vt 0.623005 0.700318
vt 0.615206 0.700318
vt 0.713618 0.558497
vt 0.705814 0.568398
vt 0.705814 0.560594
vt 0.687942 0.685250
vt 0.695746 0.675349
vt 0.695746 0.687348
vt 0.705718 0.633914
vt 0.697914 0.639564
vt 0.697914 0.633914
vt 0.726804 0.672865
vt 0.719777 0.665061
vt 0.726804 0.665061
vt 0.713186 0.596287
vt 0.705718 0.627013
vt 0.633366 0.685581
vt 0.641170 0.675680
vt 0.641170 0.683483
vt 0.569034 0.687552
vt 0.561229 0.677651
vt 0.569034 0.675553
vt 0.663417 0.688669
vt 0.663417 0.696472
vt 0.719524 0.701586
vt 0.719524 0.693783
vt 0.711767 0.679136
vt 0.703963 0.691135
vt 0.703963 0.679136
vt 0.561229 0.687552
vt 0.705718 0.639012
vt 0.713523 0.629111
vt 0.713523 0.636914
vt 0.577044 0.677651
vt 0.569239 0.687552
vt 0.607195 0.675006
vt 0.599391 0.680558
vt 0.599391 0.675006
vt 0.726866 0.657051
vt 0.719777 0.649248
vt 0.726866 0.649248
vt 0.713618 0.558497
vt 0.599391 0.668030
vt 0.713186 0.597520
vt 0.713186 0.589717
vt 0.703963 0.664209
vt 0.711767 0.666307
vt 0.655405 0.696566
vt 0.647603 0.688762
vt 0.655405 0.688762
vt 0.721533 0.614627
vt 0.713729 0.622435
vt 0.713729 0.614626
vt 0.607195 0.680579
vt 0.615000 0.692574
vt 0.607195 0.692574
vt 0.584848 0.687552
vt 0.584848 0.695369
vt 0.713618 0.571326
vt 0.705814 0.581227
vt 0.705814 0.573423
vt 0.663417 0.678768
vt 0.655613 0.688669
vt 0.615000 0.674942
vt 0.607195 0.674942
vt 0.726769 0.684362
vt 0.719777 0.692166
vt 0.631198 0.685615
vt 0.623394 0.694303
vt 0.623394 0.685615
vt 0.615000 0.668030
vt 0.647603 0.678861
vt 0.655407 0.688762
vt 0.647603 0.686665
vt 0.703963 0.651345
vt 0.711767 0.653443
vt 0.721629 0.555135
vt 0.703757 0.679898
vt 0.695952 0.691896
vt 0.576838 0.687552
vt 0.705814 0.545234
vt 0.705814 0.537431
vt 0.669960 0.685265
vt 0.677764 0.675364
vt 0.677764 0.687363
vt 0.585438 0.678344
vt 0.593242 0.672840
vt 0.593242 0.678344
vt 0.726875 0.649248
vt 0.726875 0.641444
vt 0.720991 0.604954
vt 0.713186 0.613492
vt 0.713186 0.604954
vt 0.585438 0.685356
vt 0.593242 0.685356
vt 0.585054 0.675553
vt 0.577250 0.685455
vt 0.577250 0.677651
vt 0.703963 0.669235
vt 0.711767 0.667138
vt 0.703963 0.691135
vt 0.711765 0.698939
vt 0.607195 0.700377
vt 0.614986 0.692574
vt 0.614986 0.700377
vt 0.607195 0.680558
vt 0.703751 0.699700
vt 0.695952 0.699700
vt 0.687736 0.676964
vt 0.679932 0.686865
vt 0.679932 0.679061
vt 0.705924 0.624528
vt 0.713729 0.626625
vt 0.623010 0.674868
vt 0.615206 0.674868
vt 0.726804 0.680668
vt 0.719777 0.672865
vt 0.623010 0.667967
vt 0.615206 0.667967
vt 0.631198 0.673616
vt 0.623394 0.683518
vt 0.623394 0.675714
vt 0.713186 0.610349
vt 0.705382 0.612447
vt 0.681783 0.552408
vt 0.721423 0.566506
vt 0.599391 0.708367
vt 0.697372 0.600853
vt 0.679932 0.704776
vt 0.623394 0.710322
vt 0.721329 0.582978
vt 0.705814 0.558021
vt 0.713824 0.558363
vt 0.668675 0.703382
vt 0.569034 0.703409
vt 0.663623 0.676670
vt 0.615206 0.708327
vt 0.697804 0.587517
vt 0.689794 0.535333
vt 0.615206 0.668030
vt 0.734512 0.604954
vt 0.679642 0.665642
vt 0.705924 0.627013
vt 0.722504 0.709596
vt 0.697804 0.576192
vt 0.677970 0.675364
vt 0.695952 0.707709
vt 0.727275 0.709802
vt 0.681783 0.556219
vt 0.633152 0.667002
vt 0.734615 0.587619
vt 0.735791 0.673070
vt 0.687297 0.696766
vt 0.726964 0.566959
vt 0.585438 0.710682
vt 0.640558 0.702152
vt 0.721533 0.622636
vt 0.607195 0.708387
vt 0.679883 0.649623
vt 0.655613 0.704482
vt 0.713523 0.627013
vt 0.677970 0.681661
vt 0.633018 0.694303
vt 0.687942 0.676964
vt 0.689904 0.630603
vt 0.732046 0.709802
vt 0.705814 0.547816
vt 0.641376 0.707250
vt 0.654968 0.696566
vt 0.687942 0.687348
vt 0.585438 0.687241
vt 0.689793 0.556219
vt 0.647603 0.647258
vt 0.734259 0.635023
vt 0.697372 0.606865
vt 0.697804 0.535333
vt 0.677783 0.687363
vt 0.703963 0.706948
vt 0.593448 0.707681
vt 0.679932 0.641444
vt 0.647603 0.704575
vt 0.703963 0.679898
vt 0.577044 0.703378
vt 0.669917 0.662175
vt 0.638817 0.702152
vt 0.721533 0.635023
vt 0.719777 0.693783
vt 0.595410 0.651285
vt 0.695952 0.675349
vt 0.585205 0.695369
vt 0.631480 0.683021
vt 0.595410 0.643276
vt 0.647603 0.676764
vt 0.590660 0.710682
vt 0.726769 0.684362
vt 0.631404 0.667002
vt 0.585334 0.644733
vt 0.721629 0.555341
vt 0.576847 0.695400
vt 0.633366 0.710161
vt 0.599162 0.611238
vt 0.638594 0.694142
vt 0.585311 0.652743
vt 0.734571 0.693783
vt 0.641376 0.673582
vt 0.719777 0.652891
vt 0.669960 0.614626
vt 0.689904 0.631615
vt 0.585438 0.630877
vt 0.638352 0.658946
vt 0.595410 0.658063
vt 0.628380 0.658992
vt 0.594147 0.558044
vt 0.687734 0.688963
vt 0.607182 0.692554
vt 0.623010 0.680518
vt 0.623005 0.692514
vt 0.713618 0.570495
vt 0.687942 0.677446
vt 0.705718 0.639564
vt 0.713186 0.587619
vt 0.561229 0.685455
vt 0.711767 0.691135
vt 0.569034 0.695404
vt 0.577044 0.685455
vt 0.721423 0.566959
vt 0.705382 0.599618
vt 0.703963 0.656406
vt 0.721533 0.622435
vt 0.615000 0.680579
vt 0.577044 0.687552
vt 0.713618 0.583325
vt 0.663417 0.686571
vt 0.726769 0.692166
vt 0.631198 0.694303
vt 0.655407 0.676764
vt 0.703963 0.643542
vt 0.713824 0.555135
vt 0.703757 0.691896
vt 0.576838 0.695400
vt 0.713618 0.547332
vt 0.669960 0.677462
vt 0.585438 0.672840
vt 0.720991 0.613492
vt 0.585054 0.687552
vt 0.703963 0.677039
vt 0.711765 0.691135
vt 0.607195 0.692554
vt 0.703751 0.691896
vt 0.687736 0.688963
vt 0.705924 0.616724
vt 0.623010 0.680518
vt 0.719777 0.680668
vt 0.713186 0.602546
s 1
usemtl Texture
f 20/1/1 2/2/1 21/3/1
f 20/1/1 19/4/1 2/2/1
f 19/4/1 6/5/1 2/2/1
f 6/5/1 5/6/1 2/2/1
f 5/6/1 3/7/1 2/2/1
f 18/8/1 6/5/1 19/4/1
f 18/8/1 7/9/1 6/5/1
f 4/10/1 3/7/1 5/6/1
f 18/8/1 8/11/1 7/9/1
f 18/8/1 10/12/1 8/11/1
f 10/12/1 9/13/1 8/11/1
f 18/8/1 11/14/1 10/12/1
f 12/15/1 14/16/1 13/17/1
f 12/15/1 15/18/1 14/16/1
f 16/19/1 18/8/1 17/20/1
f 16/19/1 11/14/1 18/8/1
f 16/19/1 12/15/1 11/14/1
f 16/19/1 15/18/1 12/15/1
f 38/21/1 40/22/1 39/23/1
f 38/21/1 41/24/1 40/22/1
f 38/21/1 42/25/1 41/24/1
f 38/21/1 43/26/1 42/25/1
f 38/21/1 44/27/1 43/26/1
f 38/21/1 37/28/1 44/27/1
f 37/28/1 55/29/1 44/27/1
f 55/29/1 54/30/1 44/27/1
f 36/31/1 55/29/1 37/28/1
f 36/31/1 56/32/1 55/29/1
f 53/33/1 44/27/1 54/30/1
f 53/33/1 45/34/1 44/27/1
f 52/35/1 45/34/1 53/33/1
f 59/36/1 45/34/1 52/35/1
f 59/36/1 46/37/1 45/34/1
f 58/38/1 46/37/1 59/36/1
f 58/38/1 47/39/1 46/37/1
f 57/40/1 47/39/1 58/38/1
f 36/31/1 57/40/1 56/32/1
f 36/31/1 30/41/1 57/40/1
f 30/41/1 47/39/1 57/40/1
f 30/41/1 48/42/1 47/39/1
f 30/41/1 49/43/1 48/42/1
f 30/41/1 29/44/1 49/43/1
f 29/44/1 50/45/1 49/43/1
f 36/31/1 31/46/1 30/41/1
f 28/47/1 50/45/1 29/44/1
f 28/47/1 51/48/1 50/45/1
f 27/49/1 51/48/1 28/47/1
f 34/50/1 36/31/1 35/51/1
f 34/50/1 31/46/1 36/31/1
f 34/50/1 32/52/1 31/46/1
f 34/50/1 33/53/1 32/52/1
f 27/49/1 22/54/1 51/48/1
f 27/49/1 23/55/1 22/54/1
f 26/56/1 23/55/1 27/49/1
f 25/57/2 23/57/3 26/57/2
f 24/57/4 23/57/3 25/57/2
f 75/58/1 77/59/1 76/60/1
f 75/58/1 74/61/1 77/59/1
f 74/61/1 80/62/1 77/59/1
f 80/62/1 60/63/1 77/59/1
f 73/64/1 80/62/1 74/61/1
f 73/64/1 78/65/1 80/62/1
f 79/66/1 60/63/1 80/62/1
f 73/64/1 79/66/1 78/65/1
f 73/64/1 67/67/1 79/66/1
f 67/67/1 66/68/1 79/66/1
f 66/68/1 60/63/1 79/66/1
f 73/64/1 68/69/1 67/67/1
f 65/70/1 60/63/1 66/68/1
f 71/71/1 73/64/1 72/72/1
f 71/71/1 68/69/1 73/64/1
f 71/71/1 69/73/1 68/69/1
f 71/71/1 70/74/1 69/73/1
f 63/75/1 65/70/1 64/76/1
f 63/75/1 60/63/1 65/70/1
f 63/75/1 61/77/1 60/63/1
f 63/75/1 62/78/1 61/77/1
f 91/79/1 93/80/1 92/81/1
f 91/79/1 94/82/1 93/80/1
f 96/83/1 98/84/1 97/85/1
f 96/83/1 87/86/1 98/84/1
f 87/86/1 99/87/1 98/84/1
f 101/88/1 82/89/1 102/90/1
f 101/88/1 83/91/1 82/89/1
f 90/57/4 94/57/3 91/57/4
f 89/92/1 95/93/1 90/94/1
f 95/57/4 94/57/3 90/57/4
f 89/92/1 96/83/1 95/93/1
f 100/57/4 83/57/3 101/57/4
f 99/87/1 84/95/1 100/96/1
f 84/57/2 83/57/3 100/57/4
f 99/87/1 85/97/1 84/95/1
f 87/86/1 85/97/1 99/87/1
f 96/83/1 88/98/1 87/86/1
f 86/99/1 85/97/1 87/86/1
f 89/92/1 88/98/1 96/83/1
f 117/100/1 103/101/1 118/102/1
f 117/100/1 104/103/1 103/101/1
f 117/100/1 105/104/1 104/103/1
f 117/100/1 116/105/1 105/104/1
f 116/105/1 122/106/1 105/104/1
f 122/106/1 106/107/1 105/104/1
f 115/108/1 122/106/1 116/105/1
f 115/108/1 123/109/1 122/106/1
f 121/110/1 106/107/1 122/106/1
f 120/111/1 106/107/1 121/110/1
f 119/112/1 106/107/1 120/111/1
f 119/112/1 107/113/1 106/107/1
f 127/114/1 107/113/1 119/112/1
f 127/114/1 108/115/1 107/113/1
f 126/116/1 108/115/1 127/114/1
f 126/116/1 109/117/1 108/115/1
f 125/118/1 109/117/1 126/116/1
f 124/119/1 109/117/1 125/118/1
f 123/109/1 109/117/1 124/119/1
f 113/120/1 115/108/1 114/121/1
f 113/120/1 123/109/1 115/108/1
f 113/120/1 109/117/1 123/109/1
f 113/120/1 110/122/1 109/117/1
f 113/120/1 111/123/1 110/122/1
f 113/120/1 112/124/1 111/123/1
f 145/125/1 147/126/1 146/127/1
f 145/125/1 148/128/1 147/126/1
f 145/125/1 149/129/1 148/128/1
f 145/125/1 150/130/1 149/129/1
f 145/125/1 144/131/1 150/130/1
f 144/131/1 160/132/1 150/130/1
f 160/132/1 159/133/1 150/130/1
f 143/134/1 160/132/1 144/131/1
f 143/134/1 161/135/1 160/132/1
f 159/133/1 151/136/1 150/130/1
f 158/137/1 151/136/1 159/133/1
f 164/138/1 151/136/1 158/137/1
f 164/138/1 152/139/1 151/136/1
f 163/140/1 152/139/1 164/138/1
f 163/140/1 153/141/1 152/139/1
f 162/142/1 153/141/1 163/140/1
f 143/134/1 162/142/1 161/135/1
f 143/134/1 137/143/1 162/142/1
f 137/143/1 153/141/1 162/142/1
f 137/143/1 154/144/1 153/141/1
f 137/143/1 155/145/1 154/144/1
f 137/143/1 136/146/1 155/145/1
f 136/146/1 156/147/1 155/145/1
f 143/134/1 138/148/1 137/143/1
f 135/149/1 156/147/1 136/146/1
f 134/150/1 156/147/1 135/149/1
f 134/150/1 157/151/1 156/147/1
f 133/152/1 157/151/1 134/150/1
f 141/153/1 143/134/1 142/154/1
f 141/153/1 138/148/1 143/134/1
f 141/153/1 139/155/1 138/148/1
f 141/153/1 140/156/1 139/155/1
f 133/152/1 128/157/1 157/151/1
f 133/152/1 129/158/1 128/157/1
f 132/159/1 129/158/1 133/152/1
f 131/57/4 129/57/3 132/57/4
f 130/57/4 129/57/3 131/57/4
f 180/160/1 182/161/1 181/162/1
f 180/160/1 179/163/1 182/161/1
f 179/163/1 185/164/1 182/161/1
f 185/164/1 165/165/1 182/161/1
f 178/166/1 185/164/1 179/163/1
f 178/166/1 183/167/1 185/164/1
f 184/168/1 165/165/1 185/164/1
f 178/166/1 184/168/1 183/167/1
f 178/166/1 172/169/1 184/168/1
f 172/169/1 171/170/1 184/168/1
f 171/170/1 165/165/1 184/168/1
f 178/166/1 173/171/1 172/169/1
f 170/172/1 165/165/1 171/170/1
f 176/158/1 178/166/1 177/173/1
f 176/158/1 173/171/1 178/166/1
f 176/158/1 174/174/1 173/171/1
f 176/158/1 175/175/1 174/174/1
f 168/176/1 170/172/1 169/177/1
f 168/176/1 165/165/1 170/172/1
f 168/176/1 166/178/1 165/165/1
f 168/176/1 167/179/1 166/178/1
f 207/180/1 209/181/1 208/182/1
f 207/180/1 210/183/1 209/181/1
f 215/78/1 187/184/1 216/185/1
f 215/78/1 188/186/1 187/184/1
f 206/57/4 210/57/3 207/57/4
f 205/187/1 211/188/1 206/189/1
f 211/57/4 210/57/3 206/57/4
f 205/187/1 212/190/1 211/188/1
f 214/57/2 188/57/3 215/57/2
f 213/191/1 189/192/1 214/193/1
f 189/57/4 188/57/3 214/57/2
f 213/191/1 190/194/1 189/192/1
f 205/187/1 199/195/1 212/190/1
f 199/195/1 213/191/1 212/190/1
f 199/195/1 198/196/1 213/191/1
f 198/196/1 190/194/1 213/191/1
f 205/187/1 200/197/1 199/195/1
f 197/198/1 190/194/1 198/196/1
f 203/199/1 205/187/1 204/200/1
f 203/199/1 200/197/1 205/187/1
f 203/199/1 201/201/1 200/197/1
f 203/199/1 202/202/1 201/201/1
f 195/203/1 197/198/1 196/204/1
f 195/203/1 190/194/1 197/198/1
f 195/203/1 191/205/1 190/194/1
f 195/203/1 192/206/1 191/205/1
f 194/57/4 192/57/3 195/57/4
f 193/57/4 192/57/3 194/57/4
f 399/207/5 404/208/5 246/209/5
f 399/207/5 246/209/5 410/210/5
f 410/210/5 246/209/5 325/211/5
f 325/211/5 246/209/5 247/212/5
f 247/212/5 246/209/5 279/213/5
f 251/214/5 410/210/5 325/211/5
f 251/214/5 325/211/5 365/215/5
f 313/216/5 247/212/5 279/213/5
f 251/214/5 365/215/5 321/217/5
f 251/214/5 321/217/5 250/218/5
f 250/218/5 321/217/5 354/219/5
f 251/214/5 250/218/5 281/220/5
f 420/221/5 413/222/5 414/223/5
f 420/221/5 414/223/5 409/224/5
f 386/225/5 400/226/5 251/214/5
f 386/225/5 251/214/5 281/220/5
f 386/225/5 281/220/5 420/221/5
f 386/225/5 420/221/5 409/224/5
f 284/227/5 291/228/5 292/229/5
f 284/227/5 292/229/5 293/230/5
f 284/227/5 293/230/5 294/231/5
f 284/227/5 294/231/5 373/232/5
f 284/227/5 373/232/5 277/233/5
f 284/227/5 277/233/5 402/234/5
f 402/234/5 277/233/5 335/235/5
f 335/235/5 277/233/5 328/236/5
f 381/237/5 402/234/5 335/235/5
f 381/237/5 335/235/5 300/238/5
f 241/239/5 328/236/5 277/233/5
f 241/239/5 277/233/5 278/240/5
f 240/241/5 241/239/5 278/240/5
f 363/242/5 240/241/5 278/240/5
f 363/242/5 278/240/5 393/243/5
f 263/244/5 363/242/5 393/243/5
f 263/244/5 393/243/5 257/245/5
f 243/246/5 263/244/5 257/245/5
f 381/237/5 300/238/5 243/246/5
f 381/237/5 243/246/5 242/247/5
f 242/247/5 243/246/5 257/245/5
f 242/247/5 257/245/5 258/248/5
f 242/247/5 258/248/5 346/249/5
f 242/247/5 346/249/5 383/250/5
f 383/250/5 346/249/5 408/251/5
f 381/237/5 242/247/5 380/252/5
f 256/253/5 383/250/5 408/251/5
f 256/253/5 408/251/5 267/254/5
f 255/255/5 256/253/5 267/254/5
f 341/256/5 342/257/5 381/237/5
f 341/256/5 381/237/5 380/252/5
f 341/256/5 380/252/5 379/258/5
f 341/256/5 379/258/5 367/259/5
f 255/255/5 267/254/5 340/260/5
f 255/255/5 340/260/5 411/261/5
f 350/262/5 255/255/5 411/261/5
f 349/57/4 350/57/4 411/57/3
f 423/57/2 349/57/4 411/57/3
f 426/263/5 233/264/5 225/265/5
f 426/263/5 225/265/5 222/266/5
f 222/266/5 225/265/5 223/267/5
f 223/267/5 225/265/5 224/268/5
f 299/269/5 222/266/5 223/267/5
f 299/269/5 223/267/5 318/270/5
f 297/271/5 223/267/5 224/268/5
f 299/269/5 318/270/5 297/271/5
f 299/269/5 297/271/5 261/272/5
f 261/272/5 297/271/5 274/273/5
f 274/273/5 297/271/5 224/268/5
f 299/269/5 261/272/5 262/274/5
f 385/275/5 274/273/5 224/268/5
f 273/276/5 429/277/5 299/269/5
f 273/276/5 299/269/5 262/274/5
f 273/276/5 262/274/5 288/278/5
f 273/276/5 288/278/5 289/279/5
f 369/280/5 416/281/5 385/275/5
f 369/280/5 385/275/5 224/268/5
f 369/280/5 224/268/5 359/178/5
f 369/280/5 359/178/5 360/179/5
f 361/282/5 378/283/5 362/180/5
f 361/282/5 362/180/5 371/182/5
f 235/284/5 275/285/5 276/286/5
f 235/284/5 276/286/5 270/287/5
f 270/287/5 276/286/5 290/288/5
f 260/80/5 332/82/5 259/289/5
f 260/80/5 259/289/5 334/290/5
f 364/57/4 361/57/4 371/57/3
f 343/291/5 364/292/5 392/293/5
f 392/57/4 364/57/4 371/57/3
f 343/291/5 392/293/5 235/284/5
f 308/57/2 260/57/2 334/57/3
f 290/288/5 308/294/5 307/295/5
f 307/57/4 308/57/2 334/57/3
f 290/288/5 307/295/5 395/296/5
f 270/287/5 290/288/5 395/296/5
f 235/284/5 270/287/5 234/297/5
f 387/298/5 270/287/5 395/296/5
f 343/291/5 235/284/5 234/297/5
f 323/299/5 324/300/5 311/301/5
f 323/299/5 311/301/5 312/302/5
f 323/299/5 312/302/5 316/303/5
f 323/299/5 316/303/5 317/304/5
f 317/304/5 316/303/5 394/305/5
f 394/305/5 316/303/5 220/306/5
f 405/307/5 317/304/5 394/305/5
f 405/307/5 394/305/5 309/308/5
f 389/309/5 394/305/5 220/306/5
f 272/310/5 389/309/5 220/306/5
f 271/311/5 272/310/5 220/306/5
f 271/311/5 220/306/5 221/312/5
f 401/313/5 271/311/5 221/312/5
f 401/313/5 221/312/5 396/314/5
f 231/315/5 401/313/5 396/314/5
f 231/315/5 396/314/5 265/316/5
f 230/317/5 231/315/5 265/316/5
f 310/318/5 230/317/5 265/316/5
f 309/308/5 310/318/5 265/316/5
f 339/319/5 417/320/5 405/307/5
f 339/319/5 405/307/5 309/308/5
f 339/319/5 309/308/5 265/316/5
f 339/319/5 265/316/5 266/321/5
f 339/319/5 266/321/5 421/322/5
f 339/319/5 421/322/5 338/323/5
f 397/324/5 422/325/5 419/326/5
f 397/324/5 419/326/5 418/327/5
f 397/324/5 418/327/5 398/328/5
f 397/324/5 398/328/5 227/329/5
f 397/324/5 227/329/5 226/330/5
f 226/330/5 227/329/5 326/331/5
f 326/331/5 227/329/5 304/332/5
f 296/333/5 226/330/5 326/331/5
f 296/333/5 326/331/5 337/334/5
f 304/332/5 227/329/5 303/335/5
f 412/336/5 304/332/5 303/335/5
f 253/337/5 412/336/5 303/335/5
f 253/337/5 303/335/5 358/338/5
f 252/339/5 253/337/5 358/338/5
f 252/339/5 358/338/5 244/340/5
f 245/341/5 252/339/5 244/340/5
f 296/333/5 337/334/5 245/341/5
f 296/333/5 245/341/5 280/342/5
f 280/342/5 245/341/5 244/340/5
f 280/342/5 244/340/5 268/343/5
f 280/342/5 268/343/5 269/344/5
f 280/342/5 269/344/5 329/345/5
f 329/345/5 269/344/5 333/346/5
f 296/333/5 280/342/5 295/347/5
f 336/348/5 329/345/5 333/346/5
f 376/349/5 336/348/5 333/346/5
f 376/349/5 333/346/5 368/350/5
f 315/351/5 376/349/5 368/350/5
f 327/352/5 428/353/5 296/333/5
f 327/352/5 296/333/5 295/347/5
f 327/352/5 295/347/5 344/354/5
f 327/352/5 344/354/5 345/355/5
f 315/351/5 368/350/5 314/356/5
f 315/351/5 314/356/5 322/127/5
f 372/357/5 315/351/5 322/127/5
f 366/57/4 372/57/4 322/57/3
f 355/57/4 366/57/4 322/57/3
f 427/358/5 425/359/5 424/360/5
f 427/358/5 424/360/5 264/361/5
f 264/361/5 424/360/5 370/362/5
f 370/362/5 424/360/5 282/363/5
f 218/364/5 264/361/5 370/362/5
f 218/364/5 370/362/5 384/365/5
f 229/366/5 370/362/5 282/363/5
f 218/364/5 384/365/5 229/366/5
f 218/364/5 229/366/5 228/367/5
f 228/367/5 229/366/5 351/368/5
f 351/368/5 229/366/5 282/363/5
f 218/364/5 228/367/5 375/369/5
f 319/370/5 351/368/5 282/363/5
f 217/371/5 232/372/5 218/364/5
f 217/371/5 218/364/5 375/369/5
f 217/371/5 375/369/5 388/373/5
f 217/371/5 388/373/5 219/374/5
f 283/375/5 330/376/5 319/370/5
f 283/375/5 319/370/5 282/363/5
f 283/375/5 282/363/5 301/377/5
f 283/375/5 301/377/5 302/378/5
f 305/88/5 306/90/5 320/379/5
f 305/88/5 320/379/5 237/380/5
f 348/184/5 239/186/5 238/381/5
f 348/184/5 238/381/5 248/382/5
f 236/57/4 305/57/4 237/57/3
f 285/383/5 236/384/5 254/385/5
f 254/57/2 236/57/4 237/57/3
f 285/383/5 254/385/5 298/386/5
f 331/57/4 348/57/4 248/57/3
f 287/387/5 331/388/5 249/389/5
f 249/57/2 331/57/4 248/57/3
f 287/387/5 249/389/5 286/390/5
f 285/383/5 298/386/5 357/391/5
f 357/391/5 298/386/5 287/387/5
f 357/391/5 287/387/5 353/392/5
f 353/392/5 287/387/5 286/390/5
f 285/383/5 357/391/5 347/393/5
f 352/394/5 353/392/5 286/390/5
f 356/395/5 403/396/5 285/383/5
f 356/395/5 285/383/5 347/393/5
f 356/395/5 347/393/5 374/397/5
f 356/395/5 374/397/5 382/398/5
f 390/399/5 377/400/5 352/394/5
f 390/399/5 352/394/5 286/390/5
f 390/399/5 286/390/5 407/401/5
f 390/399/5 407/401/5 406/402/5
f 391/57/2 390/57/2 406/57/3
f 415/57/4 391/57/2 406/57/3
f 265/403/6 108/404/7 109/405/6
f 393/406/8 45/407/9 46/408/8
f 333/409/10 155/410/11 156/411/10
f 190/412/12 249/413/12 189/414/12
f 331/415/13 213/416/13 214/417/13
f 387/418/14 85/419/15 86/420/14
f 335/421/16 54/422/17 55/423/16
f 219/424/12 174/425/12 175/426/12
f 397/427/2 144/428/2 145/429/2
f 396/430/7 107/431/18 108/404/7
f 236/432/13 205/433/13 206/434/13
f 398/435/19 148/436/20 149/437/19
f 339/438/21 112/439/22 113/402/21
f 411/440/12 22/441/12 23/442/12
f 304/443/23 158/444/24 159/445/23
f 377/446/13 195/447/13 196/448/13
f 340/449/25 51/450/26 22/451/25
f 412/452/27 164/453/28 158/444/24
f 371/454/12 93/455/12 94/456/12
f 342/457/13 34/458/13 35/459/13
f 15/460/12 414/461/12 14/462/12
f 227/463/29 149/464/19 150/465/29
f 337/466/12 160/467/12 161/468/12
f 273/469/2 70/470/2 71/471/2
f 394/472/30 121/473/31 122/474/32
f 343/475/33 88/476/34 89/477/33
f 183/478/35 370/479/35 185/480/35
f 365/481/12 6/482/12 7/483/12
f 102/484/13 260/485/13 101/486/13
f 222/81/36 73/487/37 74/488/36
f 372/489/38 131/490/2 132/491/39
f 345/492/12 139/493/12 140/494/12
f 217/495/2 175/496/2 176/497/2
f 311/498/40 118/499/41 103/500/40
f 283/501/2 167/502/2 168/503/2
f 221/504/18 106/505/42 107/431/18
f 415/506/2 192/507/2 193/508/2
f 300/509/12 55/510/12 56/511/12
f 374/512/4 200/513/4 201/514/4
f 224/515/43 77/516/43 60/517/43
f 392/518/2 94/519/2 95/520/2
f 274/521/44 65/522/45 66/523/44
f 251/524/4 17/494/4 18/525/4
f 320/526/4 208/527/4 209/507/4
f 231/528/46 125/529/47 126/530/48
f 250/531/2 9/283/2 10/532/2
f 401/533/49 126/530/48 127/534/49
f 232/535/13 176/536/13 177/537/13
f 271/538/50 127/534/49 119/539/50
f 225/540/43 76/541/4 77/542/43
f 381/543/4 35/544/4 36/450/4
f 350/443/38 25/545/2 26/546/39
f 307/547/15 83/548/2 84/55/15
f 220/549/42 105/437/51 106/505/42
f 112/439/22 421/550/52 111/551/52
f 238/552/4 216/553/4 187/554/4
f 229/555/4 183/556/4 184/557/4
f 344/558/4 138/559/4 139/560/4
f 322/561/12 128/562/12 129/563/12
f 241/564/53 52/565/54 53/566/53
f 403/567/13 203/568/13 204/569/13
f 419/570/55 146/571/56 147/572/55
f 246/573/4 21/554/4 2/574/4
f 351/575/44 170/576/45 171/577/44
f 240/578/54 59/579/28 52/565/54
f 298/580/12 211/581/12 212/582/12
f 359/442/4 60/583/43 61/440/4
f 328/584/17 53/585/53 54/422/17
f 249/456/2 188/586/2 189/454/2
f 349/587/2 24/588/2 25/545/2
f 353/589/13 197/590/13 198/591/13
f 376/592/57 133/593/58 134/594/57
f 288/595/4 68/596/4 69/597/4
f 253/598/28 163/599/59 164/453/28
f 282/517/43 182/600/43 165/199/43
f 301/601/4 165/602/43 166/603/4
f 408/604/60 49/605/61 50/606/60
f 92/607/13 361/544/13 91/608/13
f 308/609/62 99/610/62 100/541/62
f 256/611/63 27/612/64 28/613/63
f 293/614/65 40/615/55 41/616/65
f 400/617/13 16/618/13 17/619/13
f 354/620/12 8/621/12 9/622/12
f 258/623/66 47/624/67 48/625/66
f 402/626/13 36/627/13 37/18/13
f 334/628/12 82/629/12 83/559/12
f 355/630/2 129/631/2 130/632/2
f 262/633/68 67/523/69 68/634/68
f 363/635/28 58/636/70 59/579/28
f 295/637/12 137/638/12 138/639/12
f 357/640/2 198/641/2 199/642/2
f 264/643/36 178/644/37 179/645/36
f 424/646/43 181/647/4 182/648/43
f 388/649/4 173/650/4 174/651/4
f 266/652/71 109/405/6 110/653/71
f 153/654/67 358/655/8 152/656/8
f 76/657/13 426/658/13 75/659/13
f 360/660/12 61/661/12 62/662/12
f 269/663/72 154/664/26 155/665/11
f 146/666/13 397/667/13 145/668/13
f 407/669/4 190/670/4 191/671/4
f 272/672/73 119/539/50 120/673/73
f 254/674/2 210/675/2 211/676/2
f 361/677/2 90/678/33 91/679/2
f 423/680/2 23/681/2 24/588/2
f 321/682/4 7/89/4 8/683/4
f 261/684/74 66/685/44 67/686/69
f 358/655/8 151/687/75 152/656/8
f 366/688/2 130/632/2 131/490/2
f 276/689/76 97/485/77 98/690/76
f 97/647/77 235/691/78 96/673/78
f 341/692/2 33/693/2 34/694/2
f 278/695/9 44/696/79 45/407/9
f 267/697/26 50/606/60 51/698/26
f 327/699/2 140/700/2 141/502/2
f 3/589/12 246/462/12 2/701/12
f 386/702/2 15/703/2 16/704/2
f 347/657/12 199/460/12 200/705/12
f 245/706/80 161/707/81 162/708/80
f 314/709/82 157/710/83 128/711/82
f 421/550/52 110/712/71 111/551/52
f 369/654/2 62/713/2 63/714/2
f 255/715/64 26/716/39 27/612/64
f 406/717/12 191/718/12 192/678/12
f 329/719/84 135/720/85 136/721/84
f 410/722/13 18/723/13 19/626/13
f 380/724/12 30/725/12 31/726/12
f 90/727/33 343/515/33 89/728/33
f 289/729/12 69/730/12 70/731/12
f 395/732/15 84/733/15 85/734/15
f 44/696/79 373/735/86 43/736/86
f 426/737/2 74/738/2 75/739/2
f 99/740/87 276/741/76 98/742/76
f 292/743/55 39/744/56 40/615/55
f 417/745/13 113/423/13 114/746/13
f 285/747/4 204/748/4 205/749/4
f 336/750/85 134/594/57 135/751/85
f 248/752/12 187/753/12 188/674/12
f 252/754/70 162/708/80 163/755/59
f 294/756/88 41/616/65 42/757/88
f 228/758/74 171/759/44 172/760/69
f 352/761/4 196/762/4 197/763/4
f 80/458/89 297/564/89 79/566/89
f 237/764/12 209/420/12 210/765/12
f 323/766/2 116/767/2 117/768/2
f 373/645/86 42/757/88 43/643/86
f 281/484/12 10/769/12 11/770/12
f 362/771/4 92/772/4 93/527/4
f 243/773/80 56/774/81 57/775/80
f 325/776/2 5/777/2 6/778/2
f 302/650/12 166/779/12 167/780/12
f 39/781/13 284/621/13 38/782/13
f 208/697/13 305/428/13 207/783/13
f 427/79/2 179/784/2 180/737/2
f 303/785/75 150/465/29 151/687/75
f 379/786/4 31/787/4 32/751/4
f 414/666/4 13/631/4 14/788/4
f 234/789/34 87/790/90 88/791/34
f 310/792/91 123/793/92 124/794/91
f 315/795/58 132/796/39 133/593/58
f 312/797/93 103/500/40 104/798/93
f 226/799/13 143/800/13 144/733/13
f 247/778/13 4/801/13 5/776/13
f 287/613/4 212/802/4 213/611/4
f 382/803/12 201/804/12 202/720/12
f 218/805/37 177/806/4 178/807/37
f 375/808/68 172/577/69 173/809/68
f 383/810/94 28/811/63 29/812/95
f 116/813/13 405/225/13 115/488/13
f 297/557/4 78/814/4 79/815/4
f 391/816/2 193/508/2 194/817/2
f 385/818/4 64/819/4 65/820/4
f 181/821/13 427/767/13 180/822/13
f 21/823/13 399/725/13 20/824/13
f 316/825/51 104/798/93 105/826/51
f 230/827/47 124/794/91 125/828/47
f 296/658/4 142/829/4 143/659/4
f 235/830/96 95/831/96 96/832/96
f 263/833/70 57/775/80 58/834/70
f 346/835/61 48/836/26 49/837/61
f 118/590/13 323/838/13 117/839/13
f 356/840/2 202/694/2 203/841/2
f 216/745/13 348/638/13 215/421/13
f 367/520/12 32/842/12 33/518/12
f 260/843/2 100/844/2 101/472/2
f 299/845/37 72/429/4 73/846/37
f 405/847/4 114/667/4 115/848/4
f 313/821/2 3/849/2 4/850/2
f 413/483/13 12/851/13 13/481/13
f 348/852/2 214/563/2 215/853/2
f 270/791/97 86/854/14 87/789/97
f 416/603/13 63/855/13 64/601/13
f 319/856/4 169/857/4 170/858/4
f 326/859/98 159/860/23 160/861/98
f 268/862/66 153/573/67 154/863/66
f 318/864/35 80/478/35 78/581/35
f 370/750/89 184/865/89 185/855/89
f 399/838/2 19/866/2 20/839/2
f 389/867/99 120/868/73 121/473/31
f 428/869/13 141/765/13 142/870/13
f 257/871/67 46/408/8 47/872/67
f 390/873/2 194/817/2 195/732/2
f 280/874/100 136/721/84 137/875/100
f 305/780/2 206/876/2 207/650/2
f 242/877/101 29/812/95 30/878/101
f 330/879/13 168/459/13 169/880/13
f 429/881/13 71/882/13 72/883/13
f 309/379/12 122/884/12 123/885/12
f 368/607/102 156/411/10 157/886/83
f 420/819/4 11/871/4 12/513/4
f 418/887/20 147/572/55 148/436/20
f 284/888/2 37/619/2 38/889/2
f 259/890/4 102/891/4 82/892/4
f 455/893/103 430/894/2 431/895/103
f 456/704/104 431/895/103 432/896/104
f 457/897/12 432/898/104 433/899/12
f 458/900/105 433/899/12 434/901/105
f 459/574/106 434/901/105 435/902/106
f 436/903/4 459/904/106 435/905/106
f 461/906/107 436/903/4 437/907/107
f 462/691/108 437/907/107 438/908/108
f 463/909/13 438/859/108 439/910/13
f 438/911/5 451/912/5 439/913/5
f 440/914/109 463/909/13 439/910/13
f 465/915/110 440/914/109 441/916/110
f 449/917/103 486/918/104 450/919/104
f 435/920/5 448/921/5 436/922/5
f 432/923/5 445/924/5 433/925/5
f 439/913/5 452/926/5 440/927/5
f 430/928/5 442/929/5 431/930/5
f 436/922/5 449/931/5 437/932/5
f 433/925/5 446/933/5 434/934/5
f 441/935/5 452/926/5 453/936/5
f 437/932/5 450/937/5 438/911/5
f 434/934/5 447/938/5 435/920/5
f 430/928/5 453/936/5 443/939/5
f 431/930/5 444/940/5 432/923/5
f 446/941/109 483/942/110 447/943/110
f 453/944/106 479/945/4 443/946/4
f 444/947/108 478/948/107 480/949/108
f 451/950/12 486/951/104 487/952/12
f 447/953/110 484/954/2 448/955/2
f 444/956/108 481/957/13 445/958/13
f 452/959/105 487/952/12 488/960/105
f 448/955/2 485/961/103 449/917/103
f 445/958/13 482/962/109 446/941/109
f 452/959/105 489/963/106 453/916/106
f 443/946/4 478/948/107 442/964/107
f 475/965/1 462/966/1 463/967/1
f 486/918/104 473/968/103 474/228/104
f 472/969/1 459/970/1 460/971/1
f 469/972/1 456/923/1 457/973/1
f 476/974/1 463/967/1 464/975/1
f 466/976/1 454/977/1 455/978/1
f 473/979/1 460/971/1 461/980/1
f 470/981/1 457/973/1 458/982/1
f 465/983/1 476/974/1 464/975/1
f 474/984/1 461/980/1 462/966/1
f 471/985/1 458/982/1 459/970/1
f 454/977/1 477/986/1 465/983/1
f 468/987/1 455/978/1 456/923/1
f 483/942/110 470/988/109 471/989/110
f 479/945/4 477/990/106 467/991/4
f 468/992/108 478/948/107 466/993/107
f 487/952/12 474/740/104 475/994/12
f 484/954/2 471/412/110 472/995/2
f 469/996/13 480/997/108 468/998/108
f 488/960/105 475/994/12 476/999/105
f 485/961/103 472/995/2 473/968/103
f 482/962/109 469/996/13 470/988/109
f 489/963/106 476/999/105 477/915/106
f 478/948/107 467/991/4 466/993/107
f 491/1000/111 492/1001/112 490/455/113
f 493/1002/114 496/1003/115 492/425/112
f 496/1004/12 495/1005/12 494/1006/12
f 495/1006/116 490/1007/113 494/1008/116
f 496/1009/1 490/1010/1 492/1011/1
f 493/1012/5 495/1013/5 497/1014/5
f 499/1015/117 500/1016/118 498/1017/117
f 501/1018/118 504/1019/119 500/1020/118
f 505/1021/120 502/640/120 504/758/120
f 503/1022/121 498/1017/117 502/529/121
f 504/1023/1 498/1024/1 500/1025/1
f 505/1026/5 499/1027/5 503/1028/5
f 507/629/122 508/1029/123 506/1030/124
f 509/1031/125 512/790/126 508/1032/123
f 513/1033/4 510/1034/4 512/1035/4
f 511/1026/127 506/415/124 510/1036/127
f 512/1037/1 506/1038/1 508/1039/1
f 509/1040/5 511/1041/5 513/723/5
f 515/1042/128 516/1043/129 514/1044/128
f 517/1045/129 520/1046/130 516/1047/129
f 521/410/131 518/701/131 520/1048/131
f 519/516/132 514/1044/128 518/1049/132
f 516/1050/1 518/693/1 514/1051/1
f 517/1052/5 519/542/5 521/1053/5
f 523/1054/133 524/1055/134 522/1056/135
f 525/1057/136 528/1058/137 524/1059/134
f 528/1060/13 527/1061/13 526/1062/13
f 527/777/138 522/1063/135 526/1064/138
f 528/1065/1 522/1066/1 524/1067/1
f 525/1068/5 527/1069/5 529/487/5
f 531/1070/139 532/1060/140 530/1071/139
f 532/1072/140 537/1073/141 536/789/141
f 537/1074/142 534/1075/142 536/1076/142
f 535/1077/143 530/1071/139 534/516/143
f 532/1078/1 534/1079/1 530/1080/1
f 533/1081/5 535/892/5 537/1082/5
f 539/1083/144 540/469/145 538/849/146
f 540/1031/145 545/779/147 544/537/147
f 545/1084/2 542/1085/2 544/772/2
f 543/1086/148 538/482/146 542/1026/148
f 544/475/1 538/1087/1 540/1088/1
f 541/1089/5 543/1090/5 545/1091/5
f 547/1092/149 548/1093/150 546/1094/149
f 549/1095/150 552/890/151 548/1096/150
f 553/1097/152 550/1098/152 552/1099/152
f 551/1100/153 546/1094/149 550/1101/153
f 552/1102/1 546/1103/1 548/1104/1
f 553/1033/5 547/1105/5 551/1106/5
f 555/1107/111 556/1108/112 554/718/113
f 556/1109/112 561/1110/115 560/1111/115
f 561/1112/12 558/1002/12 560/1043/12
f 559/1085/116 554/1113/113 558/1114/116
f 560/1115/1 554/1116/1 556/1117/1
f 557/1118/5 559/1059/5 561/1119/5
f 563/1120/117 564/1004/118 562/1121/117
f 565/1122/118 568/1123/119 564/1018/118
f 569/1099/120 566/758/120 568/684/120
f 567/1124/121 562/1121/117 566/1125/121
f 568/1126/1 562/1127/1 564/1128/1
f 569/694/5 563/1129/5 567/1130/5
f 454/1131/2 441/989/110 430/894/2
f 265/403/6 396/430/7 108/404/7
f 393/406/8 278/695/9 45/407/9
f 333/409/10 269/1132/72 155/410/11
f 190/412/12 286/836/12 249/413/12
f 331/415/13 287/762/13 213/416/13
f 387/418/14 395/1019/15 85/419/15
f 335/421/16 328/584/17 54/422/17
f 219/424/12 388/1133/12 174/425/12
f 397/427/2 226/783/2 144/428/2
f 396/430/7 221/504/18 107/431/18
f 236/432/13 285/722/13 205/433/13
f 398/435/19 418/887/20 148/436/20
f 339/438/21 338/1134/22 112/439/22
f 411/440/12 340/641/12 22/441/12
f 304/443/23 412/452/27 158/444/24
f 377/446/13 390/882/13 195/447/13
f 340/449/25 267/543/26 51/450/26
f 412/452/27 253/598/28 164/453/28
f 371/454/12 362/1135/12 93/455/12
f 342/457/13 341/1136/13 34/458/13
f 15/460/12 409/1137/12 414/461/12
f 227/463/29 398/1138/19 149/464/19
f 337/466/12 326/661/12 160/467/12
f 273/469/2 289/1139/2 70/470/2
f 394/472/30 389/867/99 121/473/31
f 343/475/33 234/769/34 88/476/34
f 183/478/35 384/1140/35 370/479/35
f 365/481/12 325/1141/12 6/482/12
f 102/484/13 332/770/13 260/485/13
f 222/81/36 299/1142/37 73/487/37
f 372/489/38 366/688/2 131/490/2
f 345/492/12 344/1143/12 139/493/12
f 217/495/2 219/1144/2 175/496/2
f 311/498/40 324/1145/41 118/499/41
f 283/501/2 302/699/2 167/502/2
f 221/504/18 220/549/42 106/505/42
f 415/506/2 406/526/2 192/507/2
f 300/509/12 335/730/12 55/510/12
f 374/512/4 347/819/4 200/513/4
f 224/515/43 225/1146/43 77/516/43
f 392/518/2 371/1147/2 94/519/2
f 274/521/44 385/1148/45 65/522/45
f 251/524/4 400/492/4 17/494/4
f 320/526/4 306/771/4 208/527/4
f 231/528/46 230/1149/47 125/529/47
f 250/531/2 354/510/2 9/283/2
f 401/533/49 231/528/46 126/530/48
f 232/535/13 217/1150/13 176/536/13
f 271/538/50 401/533/49 127/534/49
f 225/540/43 233/609/4 76/541/4
f 381/543/4 342/608/4 35/544/4
f 350/443/38 349/587/2 25/545/2
f 307/547/15 334/843/2 83/548/2
f 220/549/42 316/1151/51 105/437/51
f 112/439/22 338/1134/22 421/550/52
f 238/552/4 239/1152/4 216/553/4
f 229/555/4 384/811/4 183/556/4
f 344/558/4 295/628/4 138/559/4
f 322/561/12 314/1153/12 128/562/12
f 241/564/53 240/578/54 52/565/54
f 403/567/13 356/1154/13 203/568/13
f 419/570/55 422/1155/56 146/571/56
f 246/573/4 404/552/4 21/554/4
f 351/575/44 319/1156/45 170/576/45
f 240/578/54 363/635/28 59/579/28
f 298/580/12 254/864/12 211/581/12
f 359/442/4 224/1157/43 60/583/43
f 328/584/17 241/1158/53 53/585/53
f 249/456/2 248/1159/2 188/586/2
f 349/587/2 423/680/2 24/588/2
f 353/589/13 352/1160/13 197/590/13
f 376/592/57 315/795/58 133/593/58
f 288/595/4 262/1161/4 68/596/4
f 253/598/28 252/670/70 163/599/59
f 282/517/43 424/516/43 182/600/43
f 301/601/4 282/1162/43 165/602/43
f 408/604/60 346/1163/61 49/605/61
f 92/607/13 378/886/13 361/544/13
f 308/609/62 290/854/62 99/610/62
f 256/611/63 255/715/64 27/612/64
f 293/614/65 292/743/55 40/615/55
f 400/617/13 386/1164/13 16/618/13
f 354/620/12 321/782/12 8/621/12
f 258/623/66 257/1165/67 47/624/67
f 402/626/13 381/723/13 36/627/13
f 334/628/12 259/1166/12 82/629/12
f 355/630/2 322/1167/2 129/631/2
f 262/633/68 261/1168/74 67/523/69
f 363/635/28 263/1169/70 58/636/70
f 295/637/12 280/421/12 137/638/12
f 357/640/2 353/441/2 198/641/2
f 264/643/36 218/1170/37 178/644/37
f 424/646/43 425/1171/4 181/647/4
f 388/649/4 375/1172/4 173/650/4
f 266/652/71 265/403/6 109/405/6
f 153/654/67 244/1173/67 358/655/8
f 76/657/13 233/705/13 426/658/13
f 360/660/12 359/1174/12 61/661/12
f 269/663/72 268/521/26 154/664/26
f 146/666/13 422/788/13 397/667/13
f 407/669/4 286/599/4 190/670/4
f 272/672/73 271/538/50 119/539/50
f 254/674/2 237/1175/2 210/675/2
f 361/677/2 364/717/33 90/678/33
f 423/680/2 411/1176/2 23/681/2
f 321/682/4 365/467/4 7/89/4
f 261/684/74 274/842/44 66/685/44
f 358/655/8 303/785/75 151/687/75
f 366/688/2 355/630/2 130/632/2
f 276/689/76 275/486/77 97/485/77
f 97/647/77 275/1171/77 235/691/78
f 341/692/2 367/438/2 33/693/2
f 278/695/9 277/1177/79 44/696/79
f 267/697/26 408/604/60 50/606/60
f 327/699/2 345/652/2 140/700/2
f 3/589/12 279/591/12 246/462/12
f 386/702/2 409/1178/2 15/703/2
f 347/657/12 357/1137/12 199/460/12
f 245/706/80 337/1179/81 161/707/81
f 314/709/82 368/1180/102 157/710/83
f 421/550/52 266/1181/71 110/712/71
f 369/654/2 360/1182/2 62/713/2
f 255/715/64 350/1183/38 26/716/39
f 406/717/12 407/1184/12 191/718/12
f 329/719/84 336/803/85 135/720/85
f 410/722/13 251/432/13 18/723/13
f 380/724/12 242/824/12 30/725/12
f 90/727/33 364/1125/33 343/515/33
f 289/729/12 288/1185/12 69/730/12
f 395/732/15 307/799/15 84/733/15
f 44/696/79 277/1177/79 373/735/86
f 426/737/2 222/784/2 74/738/2
f 99/740/87 290/183/87 276/741/76
f 292/743/55 291/1186/56 39/744/56
f 417/745/13 339/421/13 113/423/13
f 285/747/4 403/424/4 204/748/4
f 336/750/85 376/592/57 134/594/57
f 248/752/12 238/1187/12 187/753/12
f 252/754/70 245/706/80 162/708/80
f 294/756/88 293/614/65 41/616/65
f 228/758/74 351/804/44 171/759/44
f 352/761/4 377/416/4 196/762/4
f 80/458/89 223/1075/89 297/564/89
f 237/764/12 320/418/12 209/420/12
f 323/766/2 317/822/2 116/767/2
f 373/645/86 294/756/88 42/757/88
f 281/484/12 250/476/12 10/769/12
f 362/771/4 378/1188/4 92/772/4
f 243/773/80 300/754/81 56/774/81
f 325/776/2 247/1189/2 5/777/2
f 302/650/12 301/568/12 166/779/12
f 39/781/13 291/1096/13 284/621/13
f 208/697/13 306/698/13 305/428/13
f 427/79/2 264/1190/2 179/784/2
f 303/785/75 227/463/29 150/465/29
f 379/786/4 380/1191/4 31/787/4
f 414/666/4 413/1192/4 13/631/4
f 234/789/34 270/1193/90 87/790/90
f 310/792/91 309/1194/92 123/793/92
f 315/795/58 372/1023/38 132/796/39
f 312/797/93 311/498/40 103/500/40
f 226/799/13 296/1195/13 143/800/13
f 247/778/13 313/1196/13 4/801/13
f 287/613/4 298/480/4 212/802/4
f 382/803/12 374/759/12 201/804/12
f 218/805/37 232/866/4 177/806/4
f 375/808/68 228/1197/74 172/577/69
f 383/810/94 256/1198/63 28/811/63
f 116/813/13 317/1199/13 405/225/13
f 297/557/4 318/556/4 78/814/4
f 391/816/2 415/506/2 193/508/2
f 385/818/4 416/1200/4 64/819/4
f 181/821/13 425/850/13 427/767/13
f 21/823/13 404/1201/13 399/725/13
f 316/825/51 312/797/93 104/798/93
f 230/827/47 310/792/91 124/794/91
f 296/658/4 428/857/4 142/829/4
f 235/830/96 392/496/96 95/831/96
f 263/833/70 243/773/80 57/775/80
f 346/835/61 258/1202/26 48/836/26
f 118/590/13 324/1160/13 323/838/13
f 356/840/2 382/692/2 202/694/2
f 216/745/13 239/1020/13 348/638/13
f 367/520/12 379/685/12 32/842/12
f 260/843/2 308/1203/2 100/844/2
f 299/845/37 429/427/4 72/429/4
f 405/847/4 417/668/4 114/667/4
f 313/821/2 279/1204/2 3/849/2
f 413/483/13 420/1205/13 12/851/13
f 348/852/2 331/561/2 214/563/2
f 270/791/97 387/610/14 86/854/14
f 416/603/13 369/1206/13 63/855/13
f 319/856/4 330/829/4 169/857/4
f 326/859/98 304/1207/23 159/860/23
f 268/862/66 244/623/67 153/573/67
f 318/864/35 223/1140/35 80/478/35
f 370/750/89 229/1208/89 184/865/89
f 399/838/2 410/806/2 19/866/2
f 389/867/99 272/1209/73 120/868/73
f 428/869/13 327/764/13 141/765/13
f 257/871/67 393/406/8 46/408/8
f 390/873/2 391/816/2 194/817/2
f 280/874/100 329/719/84 136/721/84
f 305/780/2 236/1210/2 206/876/2
f 242/877/101 383/810/94 29/812/95
f 330/879/13 283/457/13 168/459/13
f 429/881/13 273/447/13 71/882/13
f 309/379/12 394/1211/12 122/884/12
f 368/607/102 333/409/10 156/411/10
f 420/819/4 281/596/4 11/871/4
f 418/887/20 419/570/55 147/572/55
f 284/888/2 402/617/2 37/619/2
f 259/890/4 332/1212/4 102/891/4
f 455/893/103 454/1131/2 430/894/2
f 456/704/104 455/893/103 431/895/103
f 457/897/12 456/1213/104 432/898/104
f 458/900/105 457/897/12 433/899/12
f 459/574/106 458/900/105 434/901/105
f 436/903/4 460/1214/4 459/904/106
f 461/906/107 460/1214/4 436/903/4
f 462/691/108 461/906/107 437/907/107
f 463/909/13 462/50/108 438/859/108
f 438/911/5 450/937/5 451/912/5
f 440/914/109 464/1215/109 463/909/13
f 465/915/110 464/1215/109 440/914/109
f 449/917/103 485/961/103 486/918/104
f 435/920/5 447/938/5 448/921/5
f 432/923/5 444/940/5 445/924/5
f 439/913/5 451/912/5 452/926/5
f 430/928/5 443/939/5 442/929/5
f 436/922/5 448/921/5 449/931/5
f 433/925/5 445/924/5 446/933/5
f 441/935/5 440/927/5 452/926/5
f 437/932/5 449/931/5 450/937/5
f 434/934/5 446/933/5 447/938/5
f 430/928/5 441/935/5 453/936/5
f 431/930/5 442/929/5 444/940/5
f 446/941/109 482/962/109 483/942/110
f 453/944/106 489/1216/106 479/945/4
f 444/947/108 442/964/107 478/948/107
f 451/950/12 450/1217/104 486/951/104
f 447/953/110 483/1218/110 484/954/2
f 444/956/108 480/997/108 481/957/13
f 452/959/105 451/950/12 487/952/12
f 448/955/2 484/954/2 485/961/103
f 445/958/13 481/957/13 482/962/109
f 452/959/105 488/960/105 489/963/106
f 443/946/4 479/945/4 478/948/107
f 475/965/1 474/984/1 462/966/1
f 486/918/104 485/961/103 473/968/103
f 472/969/1 471/985/1 459/970/1
f 469/972/1 468/987/1 456/923/1
f 476/974/1 475/965/1 463/967/1
f 466/976/1 467/1219/1 454/977/1
f 473/979/1 472/969/1 460/971/1
f 470/981/1 469/972/1 457/973/1
f 465/983/1 477/986/1 476/974/1
f 474/984/1 473/979/1 461/980/1
f 471/985/1 470/981/1 458/982/1
f 454/977/1 467/1219/1 477/986/1
f 468/987/1 466/976/1 455/978/1
f 483/942/110 482/962/109 470/988/109
f 479/945/4 489/1216/106 477/990/106
f 468/992/108 480/949/108 478/948/107
f 487/952/12 486/951/104 474/740/104
f 484/954/2 483/1218/110 471/412/110
f 469/996/13 481/957/13 480/997/108
f 488/960/105 487/952/12 475/994/12
f 485/961/103 484/954/2 472/995/2
f 482/962/109 481/957/13 469/996/13
f 489/963/106 488/960/105 476/999/105
f 478/948/107 479/945/4 467/991/4
f 491/1000/111 493/1220/114 492/1001/112
f 493/1002/114 497/1221/115 496/1003/115
f 496/1004/12 497/1222/12 495/1005/12
f 495/1006/116 491/1223/111 490/1007/113
f 496/1009/1 494/1224/1 490/1010/1
f 493/1012/5 491/1225/5 495/1013/5
f 499/1015/117 501/1226/118 500/1016/118
f 501/1018/118 505/1123/119 504/1019/119
f 505/1021/120 503/1227/120 502/640/120
f 503/1022/121 499/1015/117 498/1017/117
f 504/1023/1 502/884/1 498/1024/1
f 505/1026/5 501/1228/5 499/1027/5
f 507/629/122 509/1069/125 508/1029/123
f 509/1031/125 513/881/126 512/790/126
f 513/1033/4 511/1229/4 510/1034/4
f 511/1026/127 507/1230/122 506/415/124
f 512/1037/1 510/1022/1 506/1038/1
f 509/1040/5 507/1231/5 511/1041/5
f 515/1042/128 517/1112/129 516/1043/129
f 517/1045/129 521/419/130 520/1046/130
f 521/410/131 519/1232/131 518/701/131
f 519/516/132 515/1042/128 514/1044/128
f 516/1050/1 520/1233/1 518/693/1
f 517/1052/5 515/1234/5 519/542/5
f 523/1054/133 525/753/136 524/1055/134
f 525/1057/136 529/1235/137 528/1058/137
f 528/1060/13 529/1236/13 527/1061/13
f 527/777/138 523/1237/133 522/1063/135
f 528/1065/1 526/1238/1 522/1066/1
f 525/1068/5 523/1239/5 527/1069/5
f 531/1070/139 533/1236/140 532/1060/140
f 532/1072/140 533/1240/140 537/1073/141
f 537/1074/142 535/1241/142 534/1075/142
f 535/1077/143 531/1070/139 530/1071/139
f 532/1078/1 536/1242/1 534/1079/1
f 533/1081/5 531/1243/5 535/892/5
f 539/1083/144 541/1244/145 540/469/145
f 540/1031/145 541/1032/145 545/779/147
f 545/1084/2 543/1245/2 542/1085/2
f 543/1086/148 539/1246/144 538/482/146
f 544/475/1 542/1247/1 538/1087/1
f 541/1089/5 539/1248/5 543/1090/5
f 547/1092/149 549/1249/150 548/1093/150
f 549/1095/150 553/1046/151 552/890/151
f 553/1097/152 551/1250/152 550/1098/152
f 551/1100/153 547/1092/149 546/1094/149
f 552/1102/1 550/1251/1 546/1103/1
f 553/1033/5 549/1252/5 547/1105/5
f 555/1107/111 557/1253/112 556/1108/112
f 556/1109/112 557/1062/112 561/1110/115
f 561/1112/12 559/1254/12 558/1002/12
f 559/1085/116 555/1255/111 554/1113/113
f 560/1115/1 558/1256/1 554/1116/1
f 557/1118/5 555/1257/5 559/1059/5
f 563/1120/117 565/1258/118 564/1004/118
f 565/1122/118 569/1259/119 568/1123/119
f 569/1099/120 567/1021/120 566/758/120
f 567/1124/121 563/1120/117 562/1121/117
f 568/1126/1 566/1074/1 562/1127/1
f 569/694/5 565/1260/5 563/1129/5
f 454/1131/2 465/943/110 441/989/110
