# Blender 5.1.0
# www.blender.org
mtllib SignBarbershop.mtl
o Sign_Barbershop
v 0.931677 -0.004015 0.024148
v 0.932569 -0.072754 0.024148
v 0.940820 -0.082694 0.024148
v 0.963398 -0.085751 0.024148
v 0.862342 -0.086281 0.024148
v 0.878456 -0.082967 0.024148
v 0.884046 -0.074058 0.024148
v 0.884046 0.100216 0.024148
v 0.878456 0.109126 0.024148
v 0.862342 0.112439 0.024148
v 0.977443 0.116530 0.024148
v 1.007596 0.106532 0.024148
v 1.025671 0.091523 0.024148
v 1.036101 0.066256 0.024148
v 1.030780 0.033032 0.024148
v 1.013308 0.011321 0.024148
v 0.979554 -0.005055 0.024148
v 0.932203 0.099583 0.024148
v 0.958495 -0.000058 0.024148
v 0.977109 0.012345 0.024148
v 0.986108 0.040468 0.024148
v 0.985628 0.076765 0.024148
v 0.976108 0.102518 0.024148
v 0.955658 0.111986 0.024148
v 0.937432 0.109687 0.024148
v 0.824067 0.078795 0.024148
v 0.838357 0.039388 0.024148
v 0.839090 -0.004139 0.024148
v 0.828058 -0.040946 0.024148
v 0.801399 -0.074889 0.024148
v 0.757884 -0.094437 0.024148
v 0.712185 -0.094300 0.024148
v 0.675911 -0.081231 0.024148
v 0.646632 -0.052636 0.024148
v 0.632343 -0.013230 0.024148
v 0.632747 0.040748 0.024148
v 0.652526 0.083115 0.024148
v 0.678994 0.107220 0.024148
v 0.715261 0.120871 0.024148
v 0.758514 0.120459 0.024148
v 0.794789 0.107389 0.024148
v 0.698889 0.095523 0.024148
v 0.682622 0.054941 0.024148
v 0.681250 -0.018068 0.024148
v 0.693857 -0.058423 0.024148
v 0.708981 -0.079288 0.024148
v 0.727435 -0.089729 0.024148
v 0.751762 -0.088025 0.024148
v 0.771811 -0.069363 0.024148
v 0.788078 -0.028782 0.024148
v 0.789450 0.044229 0.024148
v 0.776843 0.084582 0.024148
v 0.761719 0.105447 0.024148
v 0.743265 0.115888 0.024148
v 0.718938 0.114183 0.024148
v 0.586950 0.100058 0.024148
v 0.586950 -0.073900 0.024148
v 0.592634 -0.083029 0.024148
v 0.608782 -0.086281 0.024148
v 0.517006 -0.086281 0.024148
v 0.533120 -0.082992 0.024148
v 0.538837 -0.073948 0.024148
v 0.539455 0.013728 0.024148
v 0.461127 0.013728 0.024148
v 0.461726 -0.074007 0.024148
v 0.467283 -0.083004 0.024148
v 0.483429 -0.086281 0.024148
v 0.391792 -0.086281 0.024148
v 0.407905 -0.082967 0.024148
v 0.413495 -0.074058 0.024148
v 0.413495 0.100216 0.024148
v 0.407905 0.109126 0.024148
v 0.391792 0.112439 0.024148
v 0.483429 0.112440 0.024148
v 0.467283 0.109163 0.024148
v 0.461726 0.100166 0.024148
v 0.538836 0.100108 0.024148
v 0.533120 0.109151 0.024148
v 0.517006 0.112439 0.024148
v 0.608782 0.112440 0.024148
v 0.592634 0.109188 0.024148
v 0.344658 0.105749 0.024148
v 0.350331 0.107724 0.024148
v 0.352993 0.118806 0.024148
v 0.359704 0.118816 0.024148
v 0.358843 0.101760 0.024148
v 0.358194 0.051453 0.024148
v 0.351722 0.051520 0.024148
v 0.344285 0.083946 0.024148
v 0.327767 0.105266 0.024148
v 0.312034 0.113387 0.024148
v 0.292927 0.113907 0.024148
v 0.278220 0.107075 0.024148
v 0.268537 0.090666 0.024148
v 0.271471 0.069060 0.024148
v 0.282409 0.054475 0.024148
v 0.349621 0.007483 0.024148
v 0.368239 -0.021366 0.024148
v 0.369282 -0.049029 0.024148
v 0.357914 -0.073968 0.024148
v 0.322229 -0.093864 0.024148
v 0.272357 -0.094232 0.024148
v 0.240636 -0.080381 0.024148
v 0.235094 -0.082430 0.024148
v 0.231695 -0.093839 0.024148
v 0.226324 -0.079846 0.024148
v 0.226928 -0.013753 0.024148
v 0.233080 -0.013971 0.024148
v 0.241741 -0.055538 0.024148
v 0.254195 -0.075312 0.024148
v 0.272182 -0.086718 0.024148
v 0.298985 -0.086956 0.024148
v 0.315216 -0.078621 0.024148
v 0.323505 -0.064137 0.024148
v 0.323372 -0.045402 0.024148
v 0.312502 -0.023848 0.024148
v 0.255382 0.016671 0.024148
v 0.235844 0.036444 0.024148
v 0.227887 0.056124 0.024148
v 0.227639 0.077822 0.024148
v 0.235509 0.097318 0.024148
v 0.251607 0.111790 0.024148
v 0.280980 0.121639 0.024148
v 0.316664 0.119346 0.024148
v 0.084195 0.010699 0.024148
v 0.111277 0.014510 0.024148
v 0.129184 0.024319 0.024148
v 0.138113 0.045716 0.024148
v 0.138656 0.076915 0.024148
v 0.131246 0.099269 0.024148
v 0.118492 0.109310 0.024148
v 0.097788 0.111862 0.024148
v 0.085701 0.105405 0.024148
v 0.110424 0.006627 0.024148
v 0.084795 -0.074008 0.024148
v 0.090352 -0.083004 0.024148
v 0.106498 -0.086281 0.024148
v 0.014861 -0.086281 0.024148
v 0.030974 -0.082967 0.024148
v 0.036564 -0.074058 0.024148
v 0.036564 0.100217 0.024148
v 0.030974 0.109126 0.024148
v 0.014861 0.112439 0.024148
v 0.130504 0.116678 0.024148
v 0.167055 0.105368 0.024148
v 0.183337 0.088113 0.024148
v 0.188876 0.065237 0.024148
v 0.181875 0.040216 0.024148
v 0.163322 0.020578 0.024148
v 0.125514 0.008755 0.024148
v 0.148028 0.003684 0.024148
v 0.166048 -0.008311 0.024148
v 0.179954 -0.029094 0.024148
v 0.198193 -0.077158 0.024148
v 0.213628 -0.086814 0.024148
v 0.149954 -0.091498 0.024148
v 0.124270 -0.011850 0.024148
v -0.172396 -0.086219 0.024148
v -0.157515 -0.083260 0.024148
v -0.151040 -0.076556 0.024148
v -0.151040 0.102714 0.024148
v -0.157515 0.109419 0.024148
v -0.172396 0.112378 0.024148
v -0.014488 0.117590 0.024148
v -0.015885 0.054402 0.024148
v -0.021625 0.054098 0.024148
v -0.035048 0.096420 0.024148
v -0.058109 0.110097 0.024148
v -0.093908 0.110316 0.024148
v -0.102080 0.104123 0.024148
v -0.103044 0.013728 0.024148
v -0.084419 0.017388 0.024148
v -0.068740 0.028364 0.024148
v -0.058208 0.055530 0.024148
v -0.051737 0.055630 0.024148
v -0.052835 0.018368 0.024148
v -0.050876 -0.028319 0.024148
v -0.056425 -0.026538 0.024148
v -0.077023 0.008458 0.024148
v -0.102080 -0.077965 0.024148
v -0.093908 -0.084158 0.024148
v -0.055784 -0.083865 0.024148
v -0.030954 -0.068178 0.024148
v -0.015671 -0.022041 0.024148
v -0.009565 -0.021862 0.024148
v -0.009554 -0.090345 0.024148
v -0.197254 -0.011220 0.024148
v -0.190114 -0.041654 0.024148
v -0.207719 -0.074172 0.024148
v -0.246550 -0.090265 0.024148
v -0.370870 -0.086281 0.024148
v -0.354756 -0.082967 0.024148
v -0.349167 -0.074058 0.024148
v -0.349167 0.100217 0.024148
v -0.354756 0.109126 0.024148
v -0.370861 0.112439 0.024148
v -0.247067 0.115258 0.024148
v -0.216315 0.097832 0.024148
v -0.206143 0.076675 0.024148
v -0.208826 0.057186 0.024148
v -0.224631 0.034637 0.024148
v -0.265328 0.018400 0.024148
v -0.237747 0.014659 0.024148
v -0.213727 0.004266 0.024148
v -0.300029 0.105405 0.024148
v -0.301395 0.015974 0.024148
v -0.277551 0.020412 0.024148
v -0.262875 0.030341 0.024148
v -0.255103 0.051743 0.024148
v -0.254631 0.080713 0.024148
v -0.260632 0.100655 0.024148
v -0.270888 0.109618 0.024148
v -0.287830 0.111880 0.024148
v -0.239746 -0.037490 0.024148
v -0.243270 -0.010275 0.024148
v -0.258871 0.008898 0.024148
v -0.300638 -0.076040 0.024148
v -0.292422 -0.083993 0.024148
v -0.265097 -0.082769 0.024148
v -0.247001 -0.068344 0.024148
v -0.505940 0.010699 0.024148
v -0.478859 0.014510 0.024148
v -0.460952 0.024319 0.024148
v -0.452023 0.045716 0.024148
v -0.451480 0.076915 0.024148
v -0.458890 0.099269 0.024148
v -0.471644 0.109310 0.024148
v -0.492348 0.111862 0.024148
v -0.504435 0.105405 0.024148
v -0.479712 0.006627 0.024148
v -0.505341 -0.074008 0.024148
v -0.499784 -0.083004 0.024148
v -0.483637 -0.086281 0.024148
v -0.575275 -0.086281 0.024148
v -0.559161 -0.082967 0.024148
v -0.553572 -0.074058 0.024148
v -0.553572 0.100217 0.024148
v -0.559161 0.109126 0.024148
v -0.575275 0.112439 0.024148
v -0.459631 0.116678 0.024148
v -0.423080 0.105368 0.024148
v -0.406799 0.088113 0.024148
v -0.401260 0.065237 0.024148
v -0.408261 0.040216 0.024148
v -0.426814 0.020578 0.024148
v -0.464622 0.008755 0.024148
v -0.442107 0.003684 0.024148
v -0.424087 -0.008311 0.024148
v -0.410181 -0.029095 0.024148
v -0.391943 -0.077158 0.024148
v -0.376508 -0.086814 0.024148
v -0.440182 -0.091498 0.024148
v -0.465866 -0.011850 0.024148
v -0.582806 -0.086527 0.024148
v -0.673063 -0.086303 0.024148
v -0.654824 -0.082326 0.024148
v -0.652139 -0.071516 0.024148
v -0.742585 -0.016861 -0.014368
v -0.742585 -0.016861 0.014368
v -0.754101 -0.058907 0.024148
v -0.749286 -0.080401 0.024148
v -0.727270 -0.086403 0.024148
v -0.786818 -0.087376 0.024148
v -0.768632 -0.071305 0.024148
v -0.693901 0.118239 0.024148
v -0.673417 0.118239 0.024148
v -0.596115 -0.078220 0.024148
v -0.704720 0.073377 0.024148
v -0.797199 -0.011219 0.024148
v -0.790059 -0.041654 0.024148
v -0.807664 -0.074172 0.024148
v -0.846495 -0.090265 0.024148
v -0.970815 -0.086281 0.024148
v -0.954701 -0.082967 0.024148
v -0.949111 -0.074058 0.024148
v -0.949111 0.100217 0.024148
v -0.954701 0.109126 0.024148
v -0.970806 0.112439 0.024148
v -0.858080 0.116545 0.024148
v -0.826037 0.106054 0.024148
v -0.811731 0.091311 0.024148
v -0.805816 0.073392 0.024148
v -0.811534 0.050750 0.024148
v -0.830491 0.031133 0.024148
v -0.865273 0.018400 0.024148
v -0.837692 0.014659 0.024148
v -0.813672 0.004266 0.024148
v -0.899974 0.105405 0.024148
v -0.901340 0.015974 0.024148
v -0.877496 0.020412 0.024148
v -0.862819 0.030341 0.024148
v -0.855048 0.051744 0.024148
v -0.854576 0.080713 0.024148
v -0.860577 0.100655 0.024148
v -0.870833 0.109618 0.024148
v -0.887775 0.111880 0.024148
v -0.839691 -0.037489 0.024148
v -0.843216 -0.010275 0.024148
v -0.858815 0.008898 0.024148
v -0.900583 -0.076040 0.024148
v -0.892367 -0.083992 0.024148
v -0.865042 -0.082769 0.024148
v -0.846946 -0.068344 0.024148
v 0.349621 0.007483 -0.024148
v 0.255382 0.016671 -0.024148
v 0.977443 0.116530 -0.024148
v 1.007596 0.106532 -0.024148
v 0.931677 -0.004015 -0.024148
v 0.932569 -0.072754 -0.024148
v -0.790059 -0.041654 -0.024148
v -0.807664 -0.074172 -0.024148
v -0.887775 0.111880 -0.024148
v -0.899974 0.105405 -0.024148
v 0.240636 -0.080381 -0.024148
v 0.254195 -0.075312 -0.024148
v 0.517006 0.112439 -0.024148
v 0.608782 0.112440 -0.024148
v 0.592634 -0.083029 -0.024148
v 0.608782 -0.086281 -0.024148
v 0.118492 0.109310 -0.024148
v 0.167055 0.105368 -0.024148
v -0.458890 0.099269 -0.024148
v -0.406799 0.088113 -0.024148
v -0.055784 -0.083865 -0.024148
v -0.030954 -0.068178 -0.024148
v 0.357914 -0.073968 -0.024148
v 0.315216 -0.078621 -0.024148
v 0.976108 0.102518 -0.024148
v 0.955658 0.111986 -0.024148
v 0.407905 0.109126 -0.024148
v 0.467283 0.109163 -0.024148
v 0.675911 -0.081231 -0.024148
v 0.693857 -0.058423 -0.024148
v 0.678994 0.107220 -0.024148
v 0.718938 0.114183 -0.024148
v 0.085701 0.105405 -0.024148
v 0.084195 0.010699 -0.024148
v 1.013308 0.011321 -0.024148
v 0.958495 -0.000058 -0.024148
v -0.349167 -0.074058 -0.024148
v -0.349167 0.100217 -0.024148
v 0.413495 -0.074058 -0.024148
v 0.413495 0.100216 -0.024148
v -0.811731 0.091311 -0.024148
v -0.805816 0.073392 -0.024148
v -0.846495 -0.090265 -0.024148
v -0.479712 0.006627 -0.024148
v -0.505940 0.010699 -0.024148
v 0.312034 0.113387 -0.024148
v 0.292927 0.113907 -0.024148
v -0.843216 -0.010275 -0.024148
v -0.858815 0.008898 -0.024148
v 0.322229 -0.093864 -0.024148
v -0.151040 -0.076556 -0.024148
v -0.151040 0.102714 -0.024148
v 0.592634 0.109188 -0.024148
v -0.505341 -0.074008 -0.024148
v 0.183337 0.088113 -0.024148
v 0.188876 0.065237 -0.024148
v -0.224631 0.034637 -0.024148
v -0.255103 0.051743 -0.024148
v -0.265097 -0.082769 -0.024148
v -0.247001 -0.068344 -0.024148
v -0.423080 0.105368 -0.024148
v 0.272182 -0.086718 -0.024148
v 0.298985 -0.086956 -0.024148
v 0.517006 -0.086281 -0.024148
v 0.751762 -0.088025 -0.024148
v 0.771811 -0.069363 -0.024148
v 0.090352 -0.083004 -0.024148
v 0.014861 -0.086281 -0.024148
v 0.828058 -0.040946 -0.024148
v 0.788078 -0.028782 -0.024148
v 0.646632 -0.052636 -0.024148
v -0.300029 0.105405 -0.024148
v 0.884046 0.100216 -0.024148
v 0.937432 0.109687 -0.024148
v 0.979554 -0.005055 -0.024148
v -0.839691 -0.037489 -0.024148
v 0.533120 0.109151 -0.024148
v -0.954701 0.109126 -0.024148
v -0.103044 0.013728 -0.024148
v 0.862342 0.112439 -0.024148
v -0.499784 -0.083004 -0.024148
v -0.559161 -0.082967 -0.024148
v -0.354756 -0.082967 -0.024148
v -0.300638 -0.076040 -0.024148
v 0.698889 0.095523 -0.024148
v 0.632747 0.040748 -0.024148
v 0.652526 0.083115 -0.024148
v -0.301395 0.015974 -0.024148
v -0.754101 -0.058907 -0.024148
v -0.768632 -0.071305 -0.024148
v -0.830491 0.031133 -0.024148
v -0.865273 0.018400 -0.024148
v -0.084419 0.017388 -0.024148
v -0.401260 0.065237 -0.024148
v -0.408261 0.040216 -0.024148
v 0.369282 -0.049029 -0.024148
v -0.015671 -0.022041 -0.024148
v -0.009554 -0.090345 -0.024148
v -0.826037 0.106054 -0.024148
v -0.354756 0.109126 -0.024148
v -0.287830 0.111880 -0.024148
v -0.465866 -0.011850 -0.024148
v 0.278220 0.107075 -0.024148
v -0.102080 0.104123 -0.024148
v -0.858080 0.116545 -0.024148
v -0.292422 -0.083993 -0.024148
v 0.181875 0.040216 -0.024148
v 0.106498 -0.086281 -0.024148
v -0.093908 0.110316 -0.024148
v -0.596115 -0.078220 -0.024148
v -0.582806 -0.086527 -0.024148
v 0.097788 0.111862 -0.024148
v 0.111277 0.014510 -0.024148
v 0.125514 0.008755 -0.024148
v -0.797199 -0.011219 -0.024148
v 0.632343 -0.013230 -0.024148
v -0.451480 0.076915 -0.024148
v 1.025671 0.091523 -0.024148
v 1.036101 0.066256 -0.024148
v -0.172396 0.112378 -0.024148
v -0.058109 0.110097 -0.024148
v 0.932203 0.099583 -0.024148
v 0.986108 0.040468 -0.024148
v 0.985628 0.076765 -0.024148
v -0.262875 0.030341 -0.024148
v -0.949111 0.100217 -0.024148
v 0.344285 0.083946 -0.024148
v 0.327767 0.105266 -0.024148
v 0.586950 -0.073900 -0.024148
v -0.157515 -0.083260 -0.024148
v -0.860577 0.100655 -0.024148
v -0.575275 -0.086281 -0.024148
v 0.030974 -0.082967 -0.024148
v 0.163322 0.020578 -0.024148
v 0.241741 -0.055538 -0.024148
v 0.323505 -0.064137 -0.024148
v 0.323372 -0.045402 -0.024148
v 0.407905 -0.082967 -0.024148
v -0.837692 0.014659 -0.024148
v 0.461726 0.100166 -0.024148
v -0.068740 0.028364 -0.024148
v -0.459631 0.116678 -0.024148
v 0.272357 -0.094232 -0.024148
v -0.870833 0.109618 -0.024148
v -0.970815 -0.086281 -0.024148
v -0.058208 0.055530 -0.024148
v -0.052835 0.018368 -0.024148
v -0.954701 -0.082967 -0.024148
v 0.538836 0.100108 -0.024148
v 0.940820 -0.082694 -0.024148
v 0.878456 -0.082967 -0.024148
v -0.742585 -0.010421 -0.014368
v 0.715261 0.120871 -0.024148
v 0.743265 0.115888 -0.024148
v 0.758514 0.120459 -0.024148
v -0.742585 -0.010421 0.014368
v 0.884046 -0.074058 -0.024148
v -0.478859 0.014510 -0.024148
v -0.460952 0.024319 -0.024148
v 0.316664 0.119346 -0.024148
v 0.344658 0.105749 -0.024148
v -0.877496 0.020412 -0.024148
v -0.492348 0.111862 -0.024148
v -0.813672 0.004266 -0.024148
v -0.464622 0.008755 -0.024148
v 0.727435 -0.089729 -0.024148
v 0.794789 0.107389 -0.024148
v 0.824067 0.078795 -0.024148
v 0.014861 0.112439 -0.024148
v -0.854576 0.080713 -0.024148
v 0.708981 -0.079288 -0.024148
v 0.789450 0.044229 -0.024148
v 0.586950 0.100058 -0.024148
v 0.036564 -0.074058 -0.024148
v -0.749286 -0.080401 -0.024148
v -0.786818 -0.087376 -0.024148
v 0.712185 -0.094300 -0.024148
v -0.846946 -0.068344 -0.024148
v 0.839090 -0.004139 -0.024148
v -0.452023 0.045716 -0.024148
v -0.704720 0.073377 -0.024148
v 0.268537 0.090666 -0.024148
v 0.271471 0.069060 -0.024148
v -0.254631 0.080713 -0.024148
v -0.440182 -0.091498 -0.024148
v 0.235509 0.097318 -0.024148
v 0.251607 0.111790 -0.024148
v 0.878456 0.109126 -0.024148
v -0.504435 0.105405 -0.024148
v -0.553572 -0.074058 -0.024148
v -0.370861 0.112439 -0.024148
v 0.138656 0.076915 -0.024148
v -0.553572 0.100217 -0.024148
v 0.124270 -0.011850 -0.024148
v 0.110424 0.006627 -0.024148
v 0.391792 -0.086281 -0.024148
v -0.575275 0.112439 -0.024148
v 0.129184 0.024319 -0.024148
v 0.138113 0.045716 -0.024148
v -0.035048 0.096420 -0.024148
v -0.865042 -0.082769 -0.024148
v -0.892367 -0.083992 -0.024148
v 0.130504 0.116678 -0.024148
v 0.148028 0.003684 -0.024148
v 0.166048 -0.008311 -0.024148
v 0.226324 -0.079846 -0.024148
v 0.226928 -0.013753 -0.024148
v -0.051737 0.055630 -0.024148
v -0.260632 0.100655 -0.024148
v -0.102080 -0.077965 -0.024148
v -0.093908 -0.084158 -0.024148
v 1.030780 0.033032 -0.024148
v 0.280980 0.121639 -0.024148
v -0.471644 0.109310 -0.024148
v 0.233080 -0.013971 -0.024148
v 0.368239 -0.021366 -0.024148
v -0.157515 0.109419 -0.024148
v 0.149954 -0.091498 -0.024148
v 0.681250 -0.018068 -0.024148
v -0.862819 0.030341 -0.024148
v -0.855048 0.051744 -0.024148
v 0.282409 0.054475 -0.024148
v -0.442107 0.003684 -0.024148
v 0.227887 0.056124 -0.024148
v -0.654824 -0.082326 -0.024148
v -0.652139 -0.071516 -0.024148
v -0.424087 -0.008311 -0.024148
v -0.243270 -0.010275 -0.024148
v -0.258871 0.008898 -0.024148
v -0.009565 -0.021862 -0.024148
v -0.559161 0.109126 -0.024148
v 0.533120 -0.082992 -0.024148
v 0.801399 -0.074889 -0.024148
v 0.359704 0.118816 -0.024148
v 0.358843 0.101760 -0.024148
v 0.084795 -0.074008 -0.024148
v -0.811534 0.050750 -0.024148
v -0.410181 -0.029095 -0.024148
v 0.761719 0.105447 -0.024148
v -0.014488 0.117590 -0.024148
v 0.227639 0.077822 -0.024148
v 0.757884 -0.094437 -0.024148
v 0.352993 0.118806 -0.024148
v 0.131246 0.099269 -0.024148
v -0.391943 -0.077158 -0.024148
v -0.206143 0.076675 -0.024148
v -0.208826 0.057186 -0.024148
v -0.901340 0.015974 -0.024148
v 0.036564 0.100217 -0.024148
v -0.247067 0.115258 -0.024148
v -0.270888 0.109618 -0.024148
v -0.050876 -0.028319 -0.024148
v -0.056425 -0.026538 -0.024148
v -0.239746 -0.037490 -0.024148
v 0.838357 0.039388 -0.024148
v -0.949111 -0.074058 -0.024148
v -0.190114 -0.041654 -0.024148
v -0.246550 -0.090265 -0.024148
v 0.235844 0.036444 -0.024148
v 0.312502 -0.023848 -0.024148
v -0.426814 0.020578 -0.024148
v 0.461726 -0.074007 -0.024148
v 0.467283 -0.083004 -0.024148
v 0.231695 -0.093839 -0.024148
v -0.370870 -0.086281 -0.024148
v 0.682622 0.054941 -0.024148
v 0.538837 -0.073948 -0.024148
v 0.213628 -0.086814 -0.024148
v 0.198193 -0.077158 -0.024148
v -0.727270 -0.086403 -0.024148
v -0.207719 -0.074172 -0.024148
v 0.179954 -0.029094 -0.024148
v 0.235094 -0.082430 -0.024148
v -0.376508 -0.086814 -0.024148
v 0.350331 0.107724 -0.024148
v 0.483429 0.112440 -0.024148
v -0.197254 -0.011220 -0.024148
v -0.265328 0.018400 -0.024148
v -0.277551 0.020412 -0.024148
v 0.030974 0.109126 -0.024148
v -0.900583 -0.076040 -0.024148
v -0.077023 0.008458 -0.024148
v -0.021625 0.054098 -0.024148
v 0.776843 0.084582 -0.024148
v 0.461127 0.013728 -0.024148
v 0.358194 0.051453 -0.024148
v -0.213727 0.004266 -0.024148
v -0.216315 0.097832 -0.024148
v -0.693901 0.118239 -0.024148
v -0.015885 0.054402 -0.024148
v -0.673417 0.118239 -0.024148
v -0.970806 0.112439 -0.024148
v -0.483637 -0.086281 -0.024148
v 0.539455 0.013728 -0.024148
v 0.963398 -0.085751 -0.024148
v -0.237747 0.014659 -0.024148
v 0.862342 -0.086281 -0.024148
v 0.977109 0.012345 -0.024148
v -0.172396 -0.086219 -0.024148
v 0.351722 0.051520 -0.024148
v 0.391792 0.112439 -0.024148
v 0.483429 -0.086281 -0.024148
v -0.673063 -0.086303 -0.024148
v -0.641732 -0.016861 -0.014368
v -0.641732 -0.016861 0.014368
v -0.641732 -0.010421 0.014368
v -0.641732 -0.010421 -0.014368
vn -0.0000 -0.0000 1.0000
vn -0.0000 -0.0000 -1.0000
vn -0.0000 1.0000 -0.0000
vn -1.0000 -0.0000 -0.0000
vn -0.9986 -0.0523 -0.0000
vn -0.9400 -0.3411 -0.0000
vn 1.0000 -0.0000 -0.0000
vn -0.0000 -1.0000 -0.0000
vn -0.5805 -0.8143 -0.0000
vn -0.6247 -0.7809 -0.0000
vn 0.5299 -0.8481 -0.0000
vn 0.8703 -0.4925 -0.0000
vn 0.2206 0.9754 -0.0000
vn 0.6663 0.7457 -0.0000
vn 0.0052 -1.0000 -0.0000
vn -0.8405 -0.5418 -0.0000
vn -0.5309 -0.8474 -0.0000
vn -0.9610 0.2765 -0.0000
vn -0.5701 0.8216 -0.0000
vn 0.8877 -0.4604 -0.0000
vn 0.9906 -0.1368 -0.0000
vn 0.8661 0.4998 -0.0000
vn 0.5492 0.8357 -0.0000
vn -0.9899 -0.1415 -0.0000
vn -0.9801 0.1987 -0.0000
vn 0.1989 0.9800 -0.0000
vn 0.5719 0.8203 -0.0000
vn 0.2439 0.9698 -0.0000
vn -0.0228 0.9997 -0.0000
vn 0.5304 0.8478 -0.0000
vn 0.7730 0.6344 -0.0000
vn 0.9615 0.2749 -0.0000
vn 0.9615 -0.2749 -0.0000
vn 0.9615 0.2748 -0.0000
vn -0.7983 0.6023 -0.0000
vn -0.3589 0.9334 -0.0000
vn -0.8185 -0.5745 -0.0000
vn -0.9886 -0.1508 -0.0000
vn -0.2817 0.9595 -0.0000
vn 0.3150 0.9491 -0.0000
vn -0.0253 -0.9997 -0.0000
vn -0.4128 -0.9108 -0.0000
vn -0.8406 -0.5417 -0.0000
vn -0.9673 0.2535 -0.0000
vn -0.6909 0.7230 -0.0000
vn 0.5630 0.8265 -0.0000
vn -0.5627 0.8267 -0.0000
vn -0.1985 -0.9801 -0.0000
vn -0.2000 -0.9798 -0.0000
vn -0.5681 -0.8230 -0.0000
vn 0.9191 0.3940 -0.0000
vn 1.0000 0.0082 -0.0000
vn 0.3543 0.9351 -0.0000
vn 0.8553 0.5181 -0.0000
vn 0.5298 0.8481 -0.0000
vn -0.0217 -0.9998 -0.0000
vn 0.2133 -0.9770 -0.0000
vn -0.9610 -0.2765 -0.0000
vn -0.5701 -0.8216 -0.0000
vn -0.7413 0.6711 -0.0000
vn 0.0585 0.9983 -0.0000
vn -0.7413 0.6712 -0.0000
vn 0.1313 0.9913 -0.0000
vn -0.0366 0.9993 -0.0000
vn -0.7830 -0.6220 -0.0000
vn -0.5691 -0.8222 -0.0000
vn -0.7346 -0.6785 -0.0000
vn -0.9832 -0.1826 -0.0000
vn -0.7346 -0.6784 -0.0000
vn -0.6271 -0.7790 -0.0000
vn -0.0102 -0.9999 -0.0000
vn 0.8888 0.4584 -0.0000
vn 0.7063 0.7080 -0.0000
vn 0.2683 0.9633 -0.0000
vn 0.1344 0.9909 -0.0000
vn 0.1419 0.9899 -0.0000
vn -0.0355 0.9994 -0.0000
vn 0.1418 0.9899 -0.0000
vn -0.2014 -0.9795 -0.0000
vn -0.2492 -0.9685 -0.0000
vn -0.6397 -0.7687 -0.0000
vn -0.2492 -0.9684 -0.0000
vn -0.1743 0.9847 -0.0000
vn -0.5221 0.8529 -0.0000
vn -0.0155 0.9999 -0.0000
vn -0.5714 0.8207 -0.0000
vn -0.9788 0.2049 -0.0000
vn -0.7435 0.6687 -0.0000
vn -0.7581 -0.6522 -0.0000
vn -0.9720 -0.2349 -0.0000
vn 0.8738 -0.4863 -0.0000
vn 0.9994 0.0357 -0.0000
vn -0.8938 -0.4484 -0.0000
vn 0.0163 -0.9999 -0.0000
vn 0.9252 0.3795 -0.0000
vn 0.9803 -0.1978 -0.0000
vn 0.7201 0.6939 -0.0000
vn 0.6952 0.7188 -0.0000
vn -0.8054 0.5927 -0.0000
vn -0.9754 0.2203 -0.0000
vn -0.9038 -0.4280 -0.0000
vn -0.9905 -0.1376 -0.0000
vn -0.9834 0.1813 -0.0000
vn 0.6445 0.7646 -0.0000
vn 0.0354 0.9994 -0.0000
vn -0.8881 -0.4596 -0.0000
vn -0.5586 -0.8294 -0.0000
vn -0.4790 0.8778 -0.0000
vn -0.1950 0.9808 -0.0000
vn -0.2014 0.9795 -0.0000
vn 0.9610 0.2764 -0.0000
vn 1.0000 0.0068 -0.0000
vn 0.3438 -0.9391 -0.0000
vn 0.5453 -0.8383 -0.0000
vn -0.3796 0.9251 -0.0000
vn -0.1830 0.9831 -0.0000
vn -0.3916 0.9201 -0.0000
vn -0.1928 0.9812 -0.0000
vn -0.9595 -0.2816 -0.0000
vn -1.0000 -0.0072 -0.0000
vn -0.0015 1.0000 -0.0000
vn -0.6196 0.7849 -0.0000
vn -0.5037 0.8639 -0.0000
vn -0.8190 0.5738 -0.0000
vn 0.9998 -0.0176 -0.0000
vn 0.7351 -0.6779 -0.0000
vn 0.9810 -0.1938 -0.0000
vn -0.9187 -0.3948 -0.0000
vn -0.9987 0.0511 -0.0000
vn -0.2015 -0.9795 -0.0000
vn -0.5701 -0.8215 -0.0000
vn 0.8053 0.5929 -0.0000
vn 0.4852 0.8744 -0.0000
vn 0.9879 0.1551 -0.0000
vn 0.7305 0.6829 -0.0000
vn 0.9610 0.2766 -0.0000
vn 0.6229 -0.7823 -0.0000
vn -0.5149 -0.8573 -0.0000
vn 1.0000 -0.0051 -0.0000
vn 0.9710 -0.2390 -0.0000
vn 0.9610 -0.2765 -0.0000
vn 0.5719 -0.8203 -0.0000
vn 0.6716 -0.7410 -0.0000
vn 0.2024 -0.9793 -0.0000
vn 0.6715 -0.7410 -0.0000
vn 0.7688 0.6395 -0.0000
vn -0.6969 0.7172 -0.0000
vn -0.2131 0.9770 -0.0000
vn -0.6968 0.7172 -0.0000
vn 0.9999 -0.0107 -0.0000
vn 0.8932 -0.4498 -0.0000
vn 0.9308 -0.3654 -0.0000
vn 0.9999 -0.0153 -0.0000
vn 0.8530 -0.5219 -0.0000
vn -0.1641 -0.9864 -0.0000
vn -0.5024 -0.8647 -0.0000
vn 0.3706 -0.9288 -0.0000
vn 0.6206 -0.7841 -0.0000
vn -0.2307 0.9730 -0.0000
vn -0.1534 -0.9882 -0.0000
vn 0.1830 -0.9831 -0.0000
vn -0.3846 -0.9231 -0.0000
vn 0.1829 -0.9831 -0.0000
vn -0.1735 -0.9848 -0.0000
vn 0.2081 -0.9781 -0.0000
vn 0.3157 -0.9489 -0.0000
vn 0.5295 0.8483 -0.0000
vn 0.6160 -0.7878 -0.0000
vn -0.5973 0.8020 -0.0000
vn -0.7878 0.6160 -0.0000
vn -0.2674 -0.9636 -0.0000
vn -0.4790 -0.8778 -0.0000
vn -0.9272 -0.3746 -0.0000
vn 0.3935 0.9193 -0.0000
vn 0.2197 0.9756 -0.0000
vn 0.9912 -0.1325 -0.0000
vn 1.0000 -0.0069 -0.0000
vn 0.8938 0.4484 -0.0000
vn -0.9856 -0.1694 -0.0000
vn 0.7179 -0.6962 -0.0000
vn 0.9998 -0.0221 -0.0000
vn -0.3057 -0.9521 -0.0000
vn -0.8189 0.5739 -0.0000
vn -0.6622 0.7493 -0.0000
vn -0.8246 0.5657 -0.0000
vn -0.9187 -0.3949 -0.0000
vn 0.9932 0.1161 -0.0000
vn 0.9834 0.1813 -0.0000
vn 0.9801 -0.1987 -0.0000
vn 0.8246 -0.5657 -0.0000
vn 0.9834 0.1814 -0.0000
vn 0.8405 0.5418 -0.0000
vn 0.7296 -0.6839 -0.0000
vn -0.0287 -0.9996 -0.0000
vn -0.6474 -0.7621 -0.0000
vn -0.9890 0.1477 -0.0000
vn 0.7231 0.6908 -0.0000
vn 0.9977 -0.0684 -0.0000
vn 0.7231 0.6907 -0.0000
vn -1.0000 0.0091 -0.0000
vn -0.9841 -0.1778 -0.0000
vn 0.9991 0.0419 -0.0000
vn 1.0000 0.0062 -0.0000
vn -0.8355 -0.5495 -0.0000
vn -0.8355 -0.5496 -0.0000
vn 0.9999 -0.0159 -0.0000
vn 0.8536 -0.5210 -0.0000
vn 0.9996 -0.0295 -0.0000
vn 0.5299 0.8481 -0.0000
vn 0.1396 0.9902 -0.0000
vn -0.2008 -0.9796 -0.0000
vn 0.5699 0.8217 -0.0000
vn 0.8932 0.4497 -0.0000
vn -0.9272 0.3746 -0.0000
vn -0.0025 -1.0000 -0.0000
vn 0.9138 -0.4061 -0.0000
vn 0.9999 -0.0129 -0.0000
vn 0.9995 -0.0316 -0.0000
vn -0.3512 0.9363 -0.0000
vn 0.3984 -0.9172 -0.0000
vn 0.2831 0.9591 -0.0000
vn 0.7082 0.7060 -0.0000
vn -0.8449 0.5349 -0.0000
vn -0.1293 0.9916 -0.0000
vn -0.1459 0.9893 -0.0000
vn 0.9615 -0.2748 -0.0000
vn 0.5699 -0.8217 -0.0000
vn -0.7887 0.6148 -0.0000
vn 0.9273 0.3744 -0.0000
vn -0.0364 0.9993 -0.0000
vn 0.9537 0.3007 -0.0000
vn -0.1950 -0.9808 -0.0000
vn -0.9336 -0.3584 -0.0000
vn 0.1767 -0.9843 -0.0000
vn -0.0320 -0.9995 -0.0000
vn 0.1795 -0.9838 -0.0000
vn -0.9805 -0.1965 -0.0000
vn 0.9899 0.1415 -0.0000
vn 0.5723 -0.8200 -0.0000
vn -0.7870 0.6170 -0.0000
vn -0.7869 0.6170 -0.0000
vn 0.5288 0.8487 -0.0000
vn -0.9827 0.1850 -0.0000
vn 0.9384 0.3456 -0.0000
vn 0.9999 0.0130 -0.0000
vn 0.6697 -0.7427 -0.0000
vn 0.2551 -0.9669 -0.0000
vn -0.3150 0.9491 -0.0000
vn -0.1394 0.9902 -0.0000
vn 0.0734 -0.9973 -0.0000
vn 0.1974 0.9803 -0.0000
vn -0.5691 -0.8223 -0.0000
vn -1.0000 0.0071 -0.0000
vn -0.9595 0.2815 -0.0000
vn 0.2630 0.9648 -0.0000
vn -0.0294 0.9996 -0.0000
vn 0.6696 -0.7427 -0.0000
vn -0.1535 -0.9882 -0.0000
vn -0.6663 -0.7457 -0.0000
vn -0.5681 0.8230 -0.0000
vn -0.2000 0.9798 -0.0000
vn 0.9584 -0.2855 -0.0000
vn 0.9987 -0.0504 -0.0000
vn 1.0000 0.0071 -0.0000
vn 0.2985 -0.9544 -0.0000
vn 0.4849 0.8746 -0.0000
vn 0.4849 0.8745 -0.0000
vn 0.1767 0.9843 -0.0000
vn 0.5724 -0.8200 -0.0000
vn 0.2553 0.9669 -0.0000
vn 0.9803 -0.1977 -0.0000
vn 0.1342 0.9910 -0.0000
vn -0.9596 0.2815 -0.0000
vn 0.1989 -0.9800 -0.0000
vn -0.3984 0.9172 -0.0000
vn 0.1974 -0.9803 -0.0000
vn 0.8790 0.4768 -0.0000
vn -0.2206 -0.9754 -0.0000
vn -0.0330 0.9995 -0.0000
vn 0.5309 0.8474 -0.0000
vn 0.9999 0.0105 -0.0000
vn 1.0000 0.0002 -0.0000
vn 0.9369 -0.3497 -0.0000
vn 0.5289 0.8487 -0.0000
vt 0.561819 0.626920
vt 0.548040 0.626986
vt 0.544824 0.626319
vt 0.540371 0.627787
vt 0.550732 0.627324
vt 0.559440 0.627406
vt 0.545021 0.628377
vt 0.558614 0.628715
vt 0.551504 0.628808
vt 0.537703 0.629992
vt 0.543615 0.632159
vt 0.558614 0.654309
vt 0.551581 0.644022
vt 0.536163 0.633702
vt 0.543544 0.637489
vt 0.536948 0.638582
vt 0.544873 0.641620
vt 0.539528 0.641770
vt 0.547621 0.643441
vt 0.544512 0.644175
vt 0.551450 0.654117
vt 0.550231 0.655577
vt 0.559440 0.655617
vt 0.546897 0.656026
vt 0.561819 0.656104
vt 0.580960 0.534706
vt 0.578714 0.534018
vt 0.585100 0.534005
vt 0.584550 0.534983
vt 0.573343 0.535897
vt 0.590440 0.536049
vt 0.578224 0.536219
vt 0.587490 0.537745
vt 0.594322 0.539618
vt 0.575968 0.539266
vt 0.568989 0.540064
vt 0.589847 0.543723
vt 0.574062 0.545178
vt 0.597195 0.545862
vt 0.566835 0.545836
vt 0.566679 0.552227
vt 0.589969 0.554446
vt 0.574184 0.555902
vt 0.597195 0.553789
vt 0.568267 0.557644
vt 0.595042 0.559561
vt 0.588063 0.560358
vt 0.572166 0.562658
vt 0.576541 0.561879
vt 0.590687 0.563728
vt 0.585807 0.563406
vt 0.579480 0.564642
vt 0.583070 0.564919
vt 0.578569 0.565577
vt 0.585317 0.565607
vt 0.669164 0.562702
vt 0.680315 0.563189
vt 0.666784 0.563188
vt 0.677931 0.562707
vt 0.652167 0.626068
vt 0.663339 0.626552
vt 0.649788 0.626551
vt 0.660955 0.626074
vt 0.677110 0.561386
vt 0.660116 0.624733
vt 0.669989 0.561393
vt 0.653012 0.624740
vt 0.669989 0.535800
vt 0.677022 0.548692
vt 0.653103 0.612055
vt 0.660116 0.599186
vt 0.677110 0.535807
vt 0.653012 0.599179
vt 0.677931 0.534486
vt 0.660955 0.597845
vt 0.669164 0.534491
vt 0.652167 0.597851
vt 0.666784 0.534005
vt 0.680315 0.534005
vt 0.649788 0.597368
vt 0.663339 0.597367
vt 0.664716 0.628034
vt 0.655120 0.626845
vt 0.660391 0.626552
vt 0.649755 0.626879
vt 0.648870 0.629375
vt 0.648764 0.626870
vt 0.650134 0.628510
vt 0.658618 0.627672
vt 0.655796 0.627725
vt 0.650970 0.628807
vt 0.660781 0.628694
vt 0.653463 0.628899
vt 0.667075 0.630179
vt 0.662190 0.631115
vt 0.650998 0.632009
vt 0.668213 0.633052
vt 0.648904 0.636764
vt 0.661730 0.634285
vt 0.668150 0.636238
vt 0.649860 0.636762
vt 0.660097 0.636413
vt 0.666950 0.639118
vt 0.650116 0.643232
vt 0.664041 0.641998
vt 0.655558 0.647878
vt 0.647331 0.647445
vt 0.668205 0.646501
vt 0.665966 0.652619
vt 0.667296 0.646525
vt 0.647143 0.651507
vt 0.653926 0.651030
vt 0.668213 0.656207
vt 0.653883 0.653781
vt 0.648791 0.655183
vt 0.664103 0.655507
vt 0.655089 0.655919
vt 0.666099 0.656268
vt 0.661433 0.657160
vt 0.666915 0.656576
vt 0.657476 0.657163
vt 0.654035 0.658149
vt 0.661398 0.658264
vt 0.667403 0.658256
vt 0.565511 0.596369
vt 0.553267 0.596454
vt 0.548436 0.595746
vt 0.543039 0.597407
vt 0.550210 0.596829
vt 0.563132 0.596856
vt 0.555051 0.597402
vt 0.548327 0.598303
vt 0.562307 0.598164
vt 0.540635 0.599942
vt 0.547233 0.601586
vt 0.562307 0.623758
vt 0.555274 0.611310
vt 0.539817 0.603301
vt 0.547313 0.606168
vt 0.540851 0.606976
vt 0.548631 0.609310
vt 0.543590 0.609860
vt 0.551275 0.610751
vt 0.549173 0.611596
vt 0.551401 0.611908
vt 0.545849 0.612341
vt 0.555185 0.623750
vt 0.549357 0.614622
vt 0.543188 0.614102
vt 0.541135 0.617154
vt 0.538442 0.624213
vt 0.545564 0.626319
vt 0.554365 0.625072
vt 0.563132 0.625066
vt 0.536163 0.625631
vt 0.565511 0.625553
vt 0.551981 0.625553
vt 0.596414 0.656327
vt 0.613289 0.655989
vt 0.619730 0.657089
vt 0.608003 0.656022
vt 0.598612 0.655892
vt 0.606797 0.655113
vt 0.599568 0.654907
vt 0.616694 0.653980
vt 0.606652 0.641838
vt 0.619523 0.647809
vt 0.599563 0.628580
vt 0.618675 0.647765
vt 0.667257 0.695589
vt 0.667994 0.690124
vt 0.668213 0.695594
vt 0.665661 0.691616
vt 0.663330 0.690028
vt 0.660574 0.689518
vt 0.664408 0.688705
vt 0.606793 0.628372
vt 0.667396 0.683535
vt 0.668213 0.683265
vt 0.619552 0.636583
vt 0.620454 0.626552
vt 0.620454 0.636609
vt 0.617295 0.629807
vt 0.613628 0.627504
vt 0.598607 0.627595
vt 0.607999 0.627462
vt 0.596410 0.627161
vt 0.652448 0.566022
vt 0.640188 0.566103
vt 0.634169 0.565607
vt 0.637686 0.566436
vt 0.650070 0.566508
vt 0.641989 0.567054
vt 0.636172 0.567752
vt 0.629628 0.568166
vt 0.649244 0.567817
vt 0.635286 0.570680
vt 0.628126 0.571273
vt 0.649243 0.593410
vt 0.642190 0.580188
vt 0.635355 0.574935
vt 0.628522 0.574135
vt 0.630856 0.577447
vt 0.636503 0.578078
vt 0.638669 0.579536
vt 0.636865 0.579832
vt 0.632792 0.580381
vt 0.642078 0.593701
vt 0.635911 0.581227
vt 0.629246 0.581907
vt 0.626813 0.584181
vt 0.633608 0.584043
vt 0.625759 0.588651
vt 0.633087 0.588039
vt 0.634158 0.592571
vt 0.628358 0.593426
vt 0.636830 0.594689
vt 0.650069 0.594719
vt 0.640865 0.594869
vt 0.634091 0.595790
vt 0.652448 0.595206
vt 0.625759 0.566230
vt 0.613514 0.566314
vt 0.608683 0.565607
vt 0.603286 0.567268
vt 0.610457 0.566689
vt 0.623379 0.566716
vt 0.615299 0.567263
vt 0.608574 0.568164
vt 0.622554 0.568025
vt 0.600882 0.569802
vt 0.607480 0.571447
vt 0.622554 0.593618
vt 0.615521 0.581171
vt 0.600064 0.573162
vt 0.607560 0.576029
vt 0.601098 0.576836
vt 0.608878 0.579171
vt 0.603838 0.579720
vt 0.611522 0.580611
vt 0.609420 0.581457
vt 0.611648 0.581769
vt 0.606096 0.582201
vt 0.615433 0.593611
vt 0.609604 0.584483
vt 0.603435 0.583963
vt 0.601382 0.587015
vt 0.598689 0.594074
vt 0.605812 0.596180
vt 0.614612 0.594932
vt 0.623379 0.594927
vt 0.596410 0.595492
vt 0.625759 0.595413
vt 0.612228 0.595413
vt 0.563591 0.593397
vt 0.554065 0.572189
vt 0.552440 0.565607
vt 0.549416 0.565620
vt 0.538123 0.594518
vt 0.578507 0.572189
vt 0.571134 0.591586
vt 0.568981 0.593397
vt 0.586182 0.593500
vt 0.594450 0.594518
vt 0.568970 0.670653
vt 0.573213 0.656104
vt 0.573213 0.670653
vt 0.595459 0.625369
vt 0.596410 0.610558
vt 0.596410 0.625369
vt 0.560740 0.594745
vt 0.561438 0.591586
vt 0.546794 0.595086
vt 0.546391 0.593500
vt 0.566286 0.595746
vt 0.536163 0.595746
vt 0.557493 0.595640
vt 0.549489 0.595658
vt 0.623099 0.596783
vt 0.610839 0.596865
vt 0.606454 0.596180
vt 0.601723 0.597720
vt 0.608337 0.597197
vt 0.620721 0.597270
vt 0.612640 0.597816
vt 0.606823 0.598513
vt 0.619896 0.598578
vt 0.599611 0.599885
vt 0.605937 0.601442
vt 0.598737 0.602517
vt 0.619894 0.624172
vt 0.612841 0.610950
vt 0.606006 0.605696
vt 0.599581 0.605842
vt 0.607154 0.608840
vt 0.602380 0.608723
vt 0.609321 0.610298
vt 0.607516 0.610593
vt 0.603443 0.611142
vt 0.612729 0.624463
vt 0.606562 0.611989
vt 0.599897 0.612669
vt 0.597464 0.614943
vt 0.604259 0.614804
vt 0.596410 0.619412
vt 0.603738 0.618801
vt 0.604809 0.623332
vt 0.599009 0.624188
vt 0.607481 0.625451
vt 0.620720 0.625480
vt 0.611516 0.625631
vt 0.604743 0.626552
vt 0.623099 0.625967
vt 0.587475 0.655503
vt 0.570480 0.656104
vt 0.573696 0.655436
vt 0.566028 0.654635
vt 0.576388 0.655099
vt 0.585096 0.655016
vt 0.570677 0.654046
vt 0.584270 0.653708
vt 0.577160 0.653615
vt 0.563359 0.652431
vt 0.569271 0.650264
vt 0.584270 0.628114
vt 0.577237 0.638400
vt 0.561819 0.648720
vt 0.569201 0.644933
vt 0.562604 0.643841
vt 0.570529 0.640803
vt 0.565184 0.640653
vt 0.573278 0.638981
vt 0.570168 0.638248
vt 0.577106 0.628305
vt 0.575888 0.626846
vt 0.585096 0.626806
vt 0.572554 0.626397
vt 0.587475 0.626319
vt 0.550444 0.564906
vt 0.554584 0.565607
vt 0.548197 0.565594
vt 0.554034 0.564629
vt 0.542827 0.563715
vt 0.559924 0.563563
vt 0.547708 0.563393
vt 0.556974 0.561866
vt 0.563805 0.559993
vt 0.545451 0.560345
vt 0.538472 0.559547
vt 0.559330 0.555889
vt 0.543545 0.554433
vt 0.566679 0.553750
vt 0.536319 0.553776
vt 0.536163 0.547385
vt 0.559452 0.545166
vt 0.543667 0.543710
vt 0.566679 0.545823
vt 0.537751 0.541967
vt 0.564525 0.540051
vt 0.557546 0.539253
vt 0.541650 0.536953
vt 0.546024 0.537732
vt 0.560171 0.535884
vt 0.555290 0.536206
vt 0.548964 0.534970
vt 0.552554 0.534693
vt 0.548053 0.534035
vt 0.554801 0.534005
vt 0.665718 0.597854
vt 0.663339 0.597368
vt 0.676870 0.597367
vt 0.674486 0.597849
vt 0.655613 0.534488
vt 0.653233 0.534005
vt 0.666784 0.534005
vt 0.664400 0.534482
vt 0.673665 0.599170
vt 0.663561 0.535823
vt 0.666544 0.599163
vt 0.656457 0.535816
vt 0.666544 0.624756
vt 0.673577 0.611864
vt 0.656548 0.548501
vt 0.663561 0.561370
vt 0.673665 0.624749
vt 0.656457 0.561377
vt 0.674486 0.626070
vt 0.664400 0.562711
vt 0.665718 0.626065
vt 0.655613 0.562706
vt 0.663339 0.626551
vt 0.676870 0.626551
vt 0.653233 0.563189
vt 0.666784 0.563189
vt 0.670021 0.595837
vt 0.665696 0.597319
vt 0.660424 0.597026
vt 0.655060 0.596991
vt 0.654069 0.597001
vt 0.654175 0.594495
vt 0.655439 0.595361
vt 0.663922 0.596198
vt 0.661101 0.596145
vt 0.656274 0.595064
vt 0.666085 0.595177
vt 0.658768 0.594972
vt 0.672380 0.593692
vt 0.667495 0.592755
vt 0.656302 0.591861
vt 0.673517 0.590819
vt 0.654209 0.587107
vt 0.667035 0.589586
vt 0.673454 0.587633
vt 0.655164 0.587108
vt 0.665402 0.587458
vt 0.672255 0.584753
vt 0.655420 0.580639
vt 0.669346 0.581873
vt 0.660862 0.575992
vt 0.652636 0.576425
vt 0.673510 0.577370
vt 0.672601 0.577345
vt 0.671271 0.571252
vt 0.652448 0.572364
vt 0.659231 0.572840
vt 0.673517 0.567663
vt 0.659188 0.570089
vt 0.654096 0.568688
vt 0.669408 0.568363
vt 0.660394 0.567952
vt 0.671404 0.567602
vt 0.666738 0.566710
vt 0.672219 0.567294
vt 0.662780 0.566708
vt 0.659340 0.565722
vt 0.666703 0.565607
vt 0.672707 0.565615
vt 0.594860 0.625696
vt 0.577785 0.626319
vt 0.582616 0.625612
vt 0.572388 0.624658
vt 0.579559 0.625237
vt 0.592481 0.625210
vt 0.584400 0.624663
vt 0.577675 0.623762
vt 0.591656 0.623901
vt 0.569984 0.622124
vt 0.576581 0.620479
vt 0.591656 0.598308
vt 0.584623 0.610755
vt 0.569166 0.618764
vt 0.576662 0.615897
vt 0.570200 0.615090
vt 0.577980 0.612755
vt 0.572939 0.612206
vt 0.580624 0.611315
vt 0.578522 0.610469
vt 0.580750 0.610157
vt 0.575197 0.609725
vt 0.584534 0.598315
vt 0.578705 0.607443
vt 0.572537 0.607963
vt 0.570483 0.604911
vt 0.567790 0.597852
vt 0.574913 0.595746
vt 0.583714 0.596994
vt 0.592481 0.596999
vt 0.565511 0.596434
vt 0.594860 0.596513
vt 0.581330 0.596513
vt 0.623103 0.627313
vt 0.646420 0.626552
vt 0.639979 0.627651
vt 0.634693 0.627618
vt 0.625301 0.627748
vt 0.633486 0.628527
vt 0.626257 0.628733
vt 0.643383 0.629660
vt 0.633341 0.641802
vt 0.646212 0.635831
vt 0.626253 0.655060
vt 0.645364 0.635876
vt 0.653826 0.683370
vt 0.654782 0.683365
vt 0.654563 0.688836
vt 0.652230 0.687344
vt 0.649899 0.688932
vt 0.647143 0.689441
vt 0.650977 0.690255
vt 0.633482 0.655268
vt 0.653965 0.695425
vt 0.654782 0.695695
vt 0.646242 0.647058
vt 0.647143 0.647031
vt 0.647143 0.657089
vt 0.643984 0.653833
vt 0.640317 0.656136
vt 0.625296 0.656045
vt 0.634688 0.656178
vt 0.623099 0.656479
vt 0.653233 0.563773
vt 0.634954 0.564188
vt 0.640973 0.563691
vt 0.638472 0.563359
vt 0.650855 0.563286
vt 0.642774 0.562740
vt 0.636957 0.562043
vt 0.630414 0.561629
vt 0.650030 0.561978
vt 0.636071 0.559114
vt 0.628912 0.558522
vt 0.650029 0.536384
vt 0.642976 0.549607
vt 0.636141 0.554860
vt 0.629308 0.555659
vt 0.631641 0.552348
vt 0.637288 0.551717
vt 0.639455 0.550258
vt 0.637650 0.549963
vt 0.633578 0.549414
vt 0.642863 0.536093
vt 0.636697 0.548568
vt 0.630031 0.547888
vt 0.627599 0.545613
vt 0.634393 0.545752
vt 0.626544 0.541144
vt 0.633873 0.541755
vt 0.634944 0.537224
vt 0.629143 0.536368
vt 0.637616 0.535105
vt 0.650854 0.535076
vt 0.641650 0.534926
vt 0.634877 0.534005
vt 0.653233 0.534589
vt 0.626544 0.563955
vt 0.609469 0.564577
vt 0.614299 0.563870
vt 0.604072 0.562916
vt 0.611242 0.563495
vt 0.624165 0.563468
vt 0.616084 0.562922
vt 0.609359 0.562020
vt 0.623339 0.562160
vt 0.601668 0.560382
vt 0.608265 0.558738
vt 0.623339 0.536566
vt 0.616306 0.549013
vt 0.600850 0.557023
vt 0.608345 0.554156
vt 0.601884 0.553348
vt 0.609664 0.551013
vt 0.604623 0.550464
vt 0.612308 0.549573
vt 0.610206 0.548728
vt 0.612434 0.548415
vt 0.606881 0.547983
vt 0.616218 0.536573
vt 0.610389 0.545702
vt 0.604221 0.546221
vt 0.602167 0.543169
vt 0.599474 0.536110
vt 0.606597 0.534005
vt 0.615397 0.535252
vt 0.624165 0.535257
vt 0.597195 0.534692
vt 0.626544 0.534771
vt 0.613013 0.534771
vt 0.580132 0.565607
vt 0.583157 0.565620
vt 0.684001 0.625251
vt 0.684916 0.621031
vt 0.684916 0.625251
vt 0.689606 0.649130
vt 0.682475 0.626552
vt 0.689606 0.626552
vt 0.685826 0.625251
vt 0.684916 0.621031
vt 0.685826 0.621031
vt 0.550425 0.670805
vt 0.554668 0.656104
vt 0.554668 0.670805
vt 0.571832 0.594745
vt 0.585779 0.595086
vt 0.596410 0.595746
vt 0.575079 0.595640
vt 0.583083 0.595658
vt 0.649788 0.625948
vt 0.633144 0.626552
vt 0.637528 0.625866
vt 0.628412 0.625011
vt 0.635027 0.625534
vt 0.647410 0.625461
vt 0.639329 0.624915
vt 0.633512 0.624218
vt 0.646585 0.624153
vt 0.626300 0.622846
vt 0.632626 0.621289
vt 0.625426 0.620214
vt 0.646584 0.598559
vt 0.639530 0.611781
vt 0.632695 0.617035
vt 0.626270 0.616889
vt 0.633843 0.613892
vt 0.629069 0.614008
vt 0.636010 0.612433
vt 0.634205 0.612138
vt 0.630133 0.611589
vt 0.639418 0.598268
vt 0.633251 0.610742
vt 0.626586 0.610062
vt 0.624153 0.607788
vt 0.630948 0.607927
vt 0.623099 0.603319
vt 0.630427 0.603930
vt 0.631498 0.599399
vt 0.625698 0.598543
vt 0.634170 0.597280
vt 0.647409 0.597251
vt 0.638205 0.597100
vt 0.631432 0.596180
vt 0.649788 0.596764
vt 0.703868 0.655910
vt 0.709670 0.648817
vt 0.709670 0.655910
vt 0.561819 0.701288
vt 0.568950 0.698233
vt 0.568950 0.701288
vt 0.587475 0.705110
vt 0.580344 0.707486
vt 0.580344 0.705110
vt 0.587475 0.697852
vt 0.594606 0.683112
vt 0.594606 0.697852
vt 0.587475 0.664170
vt 0.594606 0.658956
vt 0.594606 0.664170
vt 0.550897 0.684990
vt 0.551954 0.692083
vt 0.550897 0.692083
vt 0.696737 0.631256
vt 0.689606 0.631256
vt 0.654274 0.704098
vt 0.647143 0.706976
vt 0.647143 0.704098
vt 0.647143 0.673604
vt 0.654274 0.663345
vt 0.654274 0.673604
vt 0.706994 0.689968
vt 0.709246 0.697060
vt 0.706994 0.697060
vt 0.696737 0.654508
vt 0.689606 0.672445
vt 0.689606 0.654508
vt 0.587475 0.682637
vt 0.580344 0.684651
vt 0.580344 0.682637
vt 0.682475 0.655262
vt 0.675344 0.679715
vt 0.675344 0.655262
vt 0.703779 0.705451
vt 0.700736 0.698358
vt 0.703779 0.698358
vt 0.696737 0.672103
vt 0.703868 0.668648
vt 0.703868 0.672103
vt 0.615968 0.702059
vt 0.623099 0.696551
vt 0.623099 0.702059
vt 0.684001 0.621031
vt 0.691132 0.597367
vt 0.691132 0.621031
vt 0.689606 0.705729
vt 0.696737 0.704051
vt 0.696737 0.705729
vt 0.673517 0.567321
vt 0.680649 0.565607
vt 0.680649 0.567321
vt 0.705394 0.616297
vt 0.708365 0.623390
vt 0.705394 0.623390
vt 0.572689 0.684839
vt 0.568970 0.677746
vt 0.572689 0.677746
vt 0.620796 0.640737
vt 0.623099 0.647830
vt 0.620796 0.647830
vt 0.543294 0.657571
vt 0.536163 0.670537
vt 0.536163 0.657571
vt 0.543294 0.656104
vt 0.536163 0.656104
vt 0.689606 0.704022
vt 0.682475 0.706703
vt 0.682475 0.704022
vt 0.536163 0.683050
vt 0.543294 0.690010
vt 0.536163 0.690010
vt 0.698263 0.620726
vt 0.705394 0.619048
vt 0.705394 0.620726
vt 0.615968 0.681710
vt 0.623099 0.657089
vt 0.623099 0.681710
vt 0.623099 0.683193
vt 0.630230 0.681710
vt 0.630230 0.683193
vt 0.675344 0.682336
vt 0.668213 0.683208
vt 0.668213 0.682336
vt 0.698263 0.602330
vt 0.691132 0.619130
vt 0.691132 0.602330
vt 0.660827 0.665356
vt 0.654274 0.658264
vt 0.660827 0.658264
vt 0.696737 0.661597
vt 0.703868 0.657577
vt 0.703868 0.661597
vt 0.594943 0.646647
vt 0.595890 0.653739
vt 0.594943 0.653739
vt 0.561819 0.688750
vt 0.554688 0.685237
vt 0.561819 0.685237
vt 0.695029 0.626223
vt 0.695029 0.619130
vt 0.682475 0.694237
vt 0.689606 0.677519
vt 0.689606 0.694237
vt 0.623098 0.654922
vt 0.620796 0.654922
vt 0.680315 0.560151
vt 0.687446 0.558003
vt 0.687446 0.560151
vt 0.694577 0.544092
vt 0.701708 0.538485
vt 0.701708 0.544092
vt 0.595884 0.660832
vt 0.594943 0.660832
vt 0.696737 0.664262
vt 0.703868 0.664262
vt 0.673517 0.573454
vt 0.680649 0.569973
vt 0.680649 0.573454
vt 0.689606 0.698313
vt 0.682475 0.701252
vt 0.682475 0.698313
vt 0.647143 0.679811
vt 0.654274 0.679811
vt 0.554688 0.706994
vt 0.561819 0.698296
vt 0.561819 0.706994
vt 0.675344 0.650333
vt 0.668213 0.653495
vt 0.668213 0.650333
vt 0.675344 0.638353
vt 0.668213 0.647818
vt 0.668213 0.638353
vt 0.587475 0.683112
vt 0.594606 0.677920
vt 0.694577 0.560603
vt 0.687446 0.565483
vt 0.687446 0.560603
vt 0.689606 0.700993
vt 0.696737 0.696919
vt 0.696737 0.700993
vt 0.639663 0.678367
vt 0.637361 0.671274
vt 0.639663 0.671274
vt 0.595833 0.675017
vt 0.594947 0.667925
vt 0.595833 0.667925
vt 0.561819 0.695067
vt 0.568950 0.682785
vt 0.568950 0.695067
vt 0.704993 0.668690
vt 0.707233 0.675782
vt 0.704993 0.675782
vt 0.570260 0.691931
vt 0.572689 0.699024
vt 0.570260 0.699024
vt 0.676870 0.622878
vt 0.684001 0.610520
vt 0.684001 0.622878
vt 0.701708 0.556928
vt 0.708839 0.562226
vt 0.701708 0.562226
vt 0.706271 0.626552
vt 0.709852 0.633644
vt 0.706271 0.633644
vt 0.657417 0.686634
vt 0.660220 0.693727
vt 0.657417 0.693727
vt 0.640012 0.681679
vt 0.647143 0.669451
vt 0.647143 0.681679
vt 0.594943 0.639554
vt 0.595917 0.646647
vt 0.675344 0.696467
vt 0.668213 0.699187
vt 0.668213 0.696467
vt 0.701708 0.555195
vt 0.694577 0.558415
vt 0.694577 0.555195
vt 0.706994 0.682875
vt 0.709246 0.689968
vt 0.675344 0.626552
vt 0.668213 0.629574
vt 0.668213 0.626552
vt 0.637361 0.664181
vt 0.639663 0.664181
vt 0.610672 0.699291
vt 0.603541 0.696413
vt 0.610672 0.696413
vt 0.709173 0.585050
vt 0.702042 0.581064
vt 0.709173 0.581064
vt 0.698263 0.615990
vt 0.705394 0.611916
vt 0.705394 0.615990
vt 0.637361 0.678367
vt 0.639662 0.685459
vt 0.637361 0.685459
vt 0.668213 0.704033
vt 0.661082 0.706912
vt 0.661082 0.704033
vt 0.706418 0.698358
vt 0.709843 0.705451
vt 0.706418 0.705451
vt 0.568950 0.656104
vt 0.561819 0.657605
vt 0.668213 0.656857
vt 0.675344 0.669823
vt 0.668213 0.669823
vt 0.536163 0.695223
vt 0.553326 0.699175
vt 0.553326 0.692083
vt 0.561819 0.698233
vt 0.682475 0.638000
vt 0.675344 0.652540
vt 0.675344 0.638000
vt 0.676870 0.598396
vt 0.684001 0.597367
vt 0.684001 0.598396
vt 0.612149 0.692552
vt 0.614578 0.699645
vt 0.612149 0.699645
vt 0.680315 0.565193
vt 0.687446 0.562927
vt 0.687446 0.565193
vt 0.594606 0.628053
vt 0.587475 0.658956
vt 0.587475 0.628053
vt 0.587475 0.684651
vt 0.580344 0.692183
vt 0.571958 0.706117
vt 0.569203 0.699024
vt 0.571958 0.699024
vt 0.543294 0.670251
vt 0.550425 0.682917
vt 0.543294 0.682917
vt 0.654977 0.695594
vt 0.661082 0.702687
vt 0.654977 0.702687
vt 0.707449 0.640737
vt 0.703868 0.633644
vt 0.707449 0.633644
vt 0.675344 0.655390
vt 0.668213 0.655390
vt 0.703868 0.648634
vt 0.696737 0.642411
vt 0.703868 0.642411
vt 0.543294 0.698365
vt 0.550425 0.695199
vt 0.550425 0.698365
vt 0.654274 0.665356
vt 0.656859 0.672449
vt 0.654274 0.672449
vt 0.702042 0.586317
vt 0.694911 0.589536
vt 0.694911 0.586317
vt 0.615968 0.696551
vt 0.623099 0.683193
vt 0.572741 0.677746
vt 0.572741 0.670653
vt 0.612149 0.685459
vt 0.614578 0.692552
vt 0.707059 0.675782
vt 0.709310 0.682875
vt 0.707059 0.682875
vt 0.614080 0.671274
vt 0.611092 0.664181
vt 0.614080 0.664181
vt 0.694911 0.570661
vt 0.687780 0.577320
vt 0.687780 0.570661
vt 0.603541 0.696433
vt 0.596410 0.697735
vt 0.596410 0.696433
vt 0.543294 0.670537
vt 0.696737 0.676698
vt 0.703868 0.674033
vt 0.703868 0.676698
vt 0.594606 0.626319
vt 0.573213 0.680725
vt 0.580344 0.656104
vt 0.580344 0.680725
vt 0.694911 0.577320
vt 0.687780 0.584013
vt 0.703868 0.640737
vt 0.709806 0.647830
vt 0.703868 0.647830
vt 0.603541 0.702950
vt 0.596410 0.706067
vt 0.596410 0.702950
vt 0.587475 0.681431
vt 0.706994 0.697060
vt 0.703868 0.689968
vt 0.706994 0.689968
vt 0.647143 0.699517
vt 0.676870 0.610520
vt 0.668213 0.658264
vt 0.661082 0.661840
vt 0.661082 0.658264
vt 0.587475 0.677920
vt 0.594606 0.670310
vt 0.687780 0.597328
vt 0.694911 0.588505
vt 0.694911 0.597328
vt 0.595768 0.689203
vt 0.594987 0.682110
vt 0.595768 0.682110
vt 0.708476 0.604460
vt 0.705394 0.597367
vt 0.708476 0.597367
vt 0.647143 0.663345
vt 0.702042 0.573661
vt 0.709173 0.569675
vt 0.709173 0.573661
vt 0.668213 0.700038
vt 0.661082 0.700038
vt 0.689606 0.637405
vt 0.561819 0.682785
vt 0.668213 0.678253
vt 0.661082 0.683265
vt 0.661082 0.678253
vt 0.696737 0.637405
vt 0.689606 0.643552
vt 0.696737 0.677407
vt 0.689606 0.694207
vt 0.689606 0.677407
vt 0.580344 0.682208
vt 0.573213 0.683052
vt 0.573213 0.682208
vt 0.673517 0.581469
vt 0.680649 0.581469
vt 0.696737 0.657577
vt 0.703868 0.652430
vt 0.696737 0.650550
vt 0.689606 0.650550
vt 0.682475 0.680756
vt 0.675344 0.683982
vt 0.675344 0.680756
vt 0.701708 0.545510
vt 0.708839 0.536197
vt 0.708839 0.545510
vt 0.694577 0.556929
vt 0.687446 0.556929
vt 0.698263 0.604013
vt 0.698263 0.597367
vt 0.696737 0.668648
vt 0.696737 0.648817
vt 0.703868 0.648817
vt 0.673517 0.585046
vt 0.680649 0.585046
vt 0.630230 0.696551
vt 0.561819 0.669537
vt 0.554688 0.682785
vt 0.554688 0.669537
vt 0.603541 0.681710
vt 0.596410 0.657089
vt 0.603541 0.657089
vt 0.705394 0.604013
vt 0.698263 0.609204
vt 0.702042 0.565607
vt 0.694911 0.569942
vt 0.694911 0.565607
vt 0.580344 0.683052
vt 0.573213 0.687429
vt 0.572689 0.691931
vt 0.571632 0.684839
vt 0.689606 0.704051
vt 0.682475 0.653737
vt 0.675344 0.653737
vt 0.550425 0.656104
vt 0.543294 0.657322
vt 0.703868 0.668690
vt 0.703868 0.675782
vt 0.696737 0.639704
vt 0.703868 0.626552
vt 0.703868 0.639704
vt 0.554383 0.699175
vt 0.554383 0.692083
vt 0.668213 0.695594
vt 0.661082 0.695594
vt 0.623099 0.703594
vt 0.547291 0.705457
vt 0.547291 0.698365
vt 0.536163 0.707494
vt 0.543294 0.704238
vt 0.543294 0.707494
vt 0.703868 0.686469
vt 0.696737 0.688837
vt 0.696737 0.686469
vt 0.709173 0.576996
vt 0.676870 0.624379
vt 0.684001 0.624379
vt 0.675344 0.691959
vt 0.668213 0.691959
vt 0.700736 0.705451
vt 0.696737 0.698358
vt 0.694577 0.538485
vt 0.701708 0.534005
vt 0.682475 0.679715
vt 0.709852 0.640737
vt 0.709852 0.633644
vt 0.703868 0.692147
vt 0.696737 0.692147
vt 0.702042 0.569675
vt 0.709173 0.565607
vt 0.702042 0.569942
vt 0.668213 0.633506
vt 0.703868 0.688837
vt 0.554383 0.706268
vt 0.552255 0.699175
vt 0.673517 0.569973
vt 0.701708 0.536197
vt 0.708839 0.534005
vt 0.543294 0.695199
vt 0.603541 0.683193
vt 0.610672 0.681710
vt 0.610672 0.683193
vt 0.611092 0.678367
vt 0.612996 0.685459
vt 0.611092 0.685459
vt 0.703868 0.682875
vt 0.611092 0.692552
vt 0.680649 0.589606
vt 0.687780 0.571555
vt 0.687780 0.589606
vt 0.684546 0.589606
vt 0.680649 0.596698
vt 0.673517 0.588146
vt 0.680649 0.588146
vt 0.668213 0.668048
vt 0.661082 0.668048
vt 0.709173 0.594107
vt 0.702042 0.597162
vt 0.702042 0.594107
vt 0.682475 0.652540
vt 0.698263 0.611916
vt 0.705394 0.609204
vt 0.654840 0.686634
vt 0.654840 0.693727
vt 0.637361 0.683193
vt 0.673517 0.593660
vt 0.680649 0.591221
vt 0.680649 0.593660
vt 0.550314 0.705457
vt 0.550314 0.698365
vt 0.554688 0.657605
vt 0.554688 0.656104
vt 0.660379 0.679542
vt 0.654274 0.679542
vt 0.682475 0.628300
vt 0.675344 0.628300
vt 0.694911 0.584013
vt 0.687780 0.588505
vt 0.647143 0.695695
vt 0.654274 0.699517
vt 0.698263 0.619048
vt 0.580344 0.687429
vt 0.573213 0.694705
vt 0.679607 0.707569
vt 0.675573 0.700476
vt 0.679607 0.700476
vt 0.611092 0.671274
vt 0.612996 0.678367
vt 0.708839 0.556928
vt 0.682475 0.650550
vt 0.682475 0.649130
vt 0.612996 0.678367
vt 0.615439 0.685459
vt 0.587475 0.695696
vt 0.580344 0.698149
vt 0.580344 0.695696
vt 0.596410 0.696433
vt 0.596410 0.683193
vt 0.587475 0.707218
vt 0.543294 0.695223
vt 0.536163 0.698158
vt 0.587475 0.670310
vt 0.639663 0.699645
vt 0.637411 0.692552
vt 0.639663 0.692552
vt 0.702042 0.576996
vt 0.595833 0.682110
vt 0.594987 0.675017
vt 0.640012 0.669451
vt 0.554688 0.698296
vt 0.561819 0.696282
vt 0.708422 0.616297
vt 0.595833 0.660832
vt 0.680315 0.558003
vt 0.687446 0.539953
vt 0.615968 0.706072
vt 0.623099 0.706072
vt 0.680649 0.571555
vt 0.687780 0.565607
vt 0.571632 0.691931
vt 0.569203 0.684839
vt 0.657667 0.686634
vt 0.654840 0.679542
vt 0.657667 0.679542
vt 0.647143 0.683365
vt 0.654274 0.683365
vt 0.596410 0.683193
vt 0.551976 0.677897
vt 0.554404 0.684990
vt 0.551976 0.684990
vt 0.640012 0.683186
vt 0.647143 0.683186
vt 0.701708 0.565340
vt 0.623099 0.681710
vt 0.630230 0.657089
vt 0.576081 0.700262
vt 0.580114 0.707355
vt 0.576081 0.707355
vt 0.696737 0.681084
vt 0.703868 0.681084
vt 0.554688 0.696282
vt 0.612979 0.657089
vt 0.615968 0.664181
vt 0.612979 0.664181
vt 0.573213 0.700262
vt 0.573213 0.707355
vt 0.687780 0.565607
vt 0.596410 0.632461
vt 0.594943 0.625369
vt 0.630230 0.705955
vt 0.623099 0.705955
vt 0.673517 0.591221
vt 0.568950 0.657605
vt 0.709173 0.588384
vt 0.702042 0.588384
vt 0.611092 0.699645
vt 0.610672 0.657089
vt 0.694577 0.550321
vt 0.701708 0.550321
vt 0.660379 0.686634
vt 0.630230 0.681710
vt 0.637361 0.657089
vt 0.637361 0.681710
vt 0.675344 0.686874
vt 0.668213 0.686874
vt 0.640012 0.705929
vt 0.647143 0.696564
vt 0.647143 0.705929
vt 0.675344 0.629574
vt 0.689606 0.701252
vt 0.594943 0.632461
vt 0.596410 0.639554
vt 0.594943 0.639554
vt 0.639663 0.657089
vt 0.675344 0.653495
vt 0.680315 0.539953
vt 0.687446 0.534005
vt 0.615968 0.671274
vt 0.682475 0.707569
vt 0.682475 0.700476
vt 0.554668 0.677897
vt 0.550897 0.670805
vt 0.550897 0.677897
vt 0.680315 0.562927
vt 0.611092 0.657089
vt 0.689606 0.696919
vt 0.696737 0.694207
vt 0.696737 0.684539
vt 0.703868 0.684539
vt 0.620674 0.626552
vt 0.623099 0.633644
vt 0.620674 0.633644
vt 0.569203 0.691931
vt 0.580344 0.694705
vt 0.603541 0.703872
vt 0.610672 0.703872
vt 0.551954 0.684990
vt 0.612996 0.671274
vt 0.615439 0.678367
vt 0.707302 0.668690
vt 0.675344 0.683208
vt 0.587475 0.701554
vt 0.580344 0.701554
vt 0.587475 0.656104
vt 0.587475 0.692183
vt 0.671236 0.699187
vt 0.675233 0.706279
vt 0.671236 0.706279
vt 0.623099 0.640737
vt 0.623099 0.633644
vt 0.615968 0.683193
vt 0.701708 0.558415
vt 0.694577 0.561866
vt 0.702042 0.589536
vt 0.694911 0.592988
vt 0.595459 0.610558
vt 0.630230 0.683193
vt 0.637361 0.683193
vt 0.687743 0.596698
vt 0.687743 0.589606
vt 0.637362 0.685459
vt 0.639663 0.692552
vt 0.637362 0.692552
vt 0.668213 0.706279
vt 0.568950 0.707011
vt 0.702042 0.592988
vt 0.694911 0.596106
vt 0.536163 0.704238
vt 0.543294 0.700661
vt 0.536163 0.700661
vt 0.543294 0.698158
vt 0.701708 0.561866
vt 0.694577 0.564984
vt 0.694577 0.534005
vt 0.656859 0.665356
vt 0.660740 0.672449
vt 0.696737 0.686469
vt 0.703868 0.686469
vt 0.696737 0.643552
vt 0.689606 0.648817
vt 0.640012 0.696564
vt 0.682475 0.677519
vt 0.689606 0.653737
vt 0.603541 0.707694
vt 0.610672 0.707694
vt 0.696737 0.674033
vt 0.587475 0.698149
vt 0.698226 0.626223
vt 0.698226 0.619130
vt 0.550425 0.670251
vt 0.637361 0.696551
vt 0.630230 0.706177
vt 0.603541 0.697735
vt 0.675344 0.700476
vt 0.682475 0.683982
vt 0.568970 0.656104
vt 0.684916 0.625251
vt 0.587475 0.707486
vt 0.696737 0.626552
vt 0.654274 0.706976
vt 0.709246 0.689968
vt 0.696737 0.672445
vt 0.673517 0.565607
vt 0.708365 0.616297
vt 0.568970 0.684839
vt 0.623099 0.640737
vt 0.689606 0.706703
vt 0.543294 0.683050
vt 0.615968 0.657089
vt 0.698263 0.619130
vt 0.595890 0.646647
vt 0.554688 0.688750
vt 0.691132 0.626223
vt 0.623098 0.647830
vt 0.595884 0.653739
vt 0.675344 0.647818
vt 0.694577 0.565483
vt 0.594947 0.675017
vt 0.707233 0.668690
vt 0.572689 0.691931
vt 0.709852 0.626552
vt 0.660220 0.686634
vt 0.595917 0.639554
vt 0.675344 0.699187
vt 0.709246 0.682875
vt 0.603541 0.699291
vt 0.702042 0.585050
vt 0.639662 0.678367
vt 0.668213 0.706912
vt 0.709843 0.698358
vt 0.675344 0.656857
vt 0.550897 0.699175
vt 0.569203 0.706117
vt 0.696737 0.648634
vt 0.614578 0.685459
vt 0.709310 0.675782
vt 0.709806 0.640737
vt 0.603541 0.706067
vt 0.580344 0.681431
vt 0.703868 0.697060
vt 0.668213 0.661840
vt 0.687780 0.588505
vt 0.594987 0.689203
vt 0.705394 0.604460
vt 0.647143 0.658264
vt 0.696737 0.652430
vt 0.596410 0.681710
vt 0.550425 0.657322
vt 0.630230 0.703594
vt 0.543294 0.705457
vt 0.696737 0.705451
vt 0.694577 0.534005
vt 0.703868 0.698358
vt 0.702042 0.586317
vt 0.675344 0.633506
vt 0.552255 0.706268
vt 0.684546 0.596698
vt 0.709173 0.597162
vt 0.637361 0.696551
vt 0.561819 0.657605
vt 0.660379 0.672449
vt 0.694911 0.588505
vt 0.654274 0.695695
vt 0.675573 0.707569
vt 0.603541 0.696433
vt 0.594606 0.707218
vt 0.637411 0.699645
vt 0.640012 0.657089
vt 0.708422 0.609204
vt 0.594943 0.667925
vt 0.554404 0.677897
vt 0.708839 0.565340
vt 0.580114 0.700262
vt 0.568950 0.669537
vt 0.640012 0.696564
vt 0.596410 0.632461
vt 0.623099 0.626552
vt 0.580344 0.700262
vt 0.554383 0.684990
vt 0.615439 0.671274
vt 0.707302 0.661597
vt 0.675233 0.699187
vt 0.620674 0.640737
vt 0.595459 0.595746
vt 0.639663 0.685459
vt 0.561819 0.707011
vt 0.702042 0.596106
vt 0.701708 0.564984
vt 0.660740 0.665356
vt 0.640012 0.683186
vt 0.637361 0.706177
s 1
usemtl Texture
f 10/1/1 24/2/1 11/3/1
f 24/2/1 12/4/1 11/3/1
f 10/1/1 25/5/1 24/2/1
f 9/6/1 25/5/1 10/1/1
f 23/7/1 12/4/1 24/2/1
f 8/8/1 25/5/1 9/6/1
f 8/8/1 18/9/1 25/5/1
f 23/7/1 13/10/1 12/4/1
f 22/11/1 13/10/1 23/7/1
f 7/12/1 18/9/1 8/8/1
f 7/12/1 1/13/1 18/9/1
f 22/11/1 14/14/1 13/10/1
f 21/15/1 14/14/1 22/11/1
f 21/15/1 15/16/1 14/14/1
f 20/17/1 15/16/1 21/15/1
f 20/17/1 16/18/1 15/16/1
f 19/19/1 16/18/1 20/17/1
f 19/19/1 17/20/1 16/18/1
f 1/13/1 17/20/1 19/19/1
f 7/12/1 2/21/1 1/13/1
f 7/12/1 3/22/1 2/21/1
f 6/23/1 3/22/1 7/12/1
f 6/23/1 4/24/1 3/22/1
f 5/25/1 4/24/1 6/23/1
f 54/26/1 40/27/1 39/28/1
f 39/28/1 55/29/1 54/26/1
f 54/26/1 41/30/1 40/27/1
f 38/31/1 55/29/1 39/28/1
f 53/32/1 41/30/1 54/26/1
f 38/31/1 42/33/1 55/29/1
f 37/34/1 42/33/1 38/31/1
f 52/35/1 41/30/1 53/32/1
f 52/35/1 26/36/1 41/30/1
f 37/34/1 43/37/1 42/33/1
f 51/38/1 26/36/1 52/35/1
f 36/39/1 43/37/1 37/34/1
f 51/38/1 27/40/1 26/36/1
f 51/38/1 28/41/1 27/40/1
f 36/39/1 44/42/1 43/37/1
f 50/43/1 28/41/1 51/38/1
f 35/44/1 44/42/1 36/39/1
f 50/43/1 29/45/1 28/41/1
f 34/46/1 44/42/1 35/44/1
f 34/46/1 45/47/1 44/42/1
f 50/43/1 30/48/1 29/45/1
f 49/49/1 30/48/1 50/43/1
f 33/50/1 45/47/1 34/46/1
f 33/50/1 46/51/1 45/47/1
f 48/52/1 30/48/1 49/49/1
f 33/50/1 47/53/1 46/51/1
f 48/52/1 31/54/1 30/48/1
f 32/55/1 47/53/1 33/50/1
f 47/53/1 31/54/1 48/52/1
f 32/55/1 31/54/1 47/53/1
f 72/56/1 74/57/1 73/58/1
f 72/56/1 75/59/1 74/57/1
f 78/60/1 80/61/1 79/62/1
f 78/60/1 81/63/1 80/61/1
f 72/56/1 76/64/1 75/59/1
f 78/60/1 56/65/1 81/63/1
f 71/66/1 76/64/1 72/56/1
f 77/67/1 56/65/1 78/60/1
f 70/68/1 76/64/1 71/66/1
f 70/68/1 64/69/1 76/64/1
f 63/70/1 56/65/1 77/67/1
f 63/70/1 57/71/1 56/65/1
f 70/68/1 65/72/1 64/69/1
f 62/73/1 57/71/1 63/70/1
f 70/68/1 66/74/1 65/72/1
f 62/73/1 58/75/1 57/71/1
f 69/76/1 66/74/1 70/68/1
f 61/77/1 58/75/1 62/73/1
f 68/78/1 66/74/1 69/76/1
f 68/78/1 67/79/1 66/74/1
f 60/80/1 58/75/1 61/77/1
f 60/80/1 59/81/1 58/75/1
f 122/82/1 124/83/1 123/84/1
f 84/85/1 86/86/1 85/87/1
f 83/88/1 86/86/1 84/85/1
f 92/89/1 124/83/1 122/82/1
f 91/90/1 124/83/1 92/89/1
f 91/90/1 82/91/1 124/83/1
f 122/82/1 93/92/1 92/89/1
f 90/93/1 82/91/1 91/90/1
f 121/94/1 93/92/1 122/82/1
f 82/91/1 86/86/1 83/88/1
f 90/93/1 86/86/1 82/91/1
f 121/94/1 94/95/1 93/92/1
f 89/96/1 86/86/1 90/93/1
f 120/97/1 94/95/1 121/94/1
f 89/96/1 87/98/1 86/86/1
f 120/97/1 95/99/1 94/95/1
f 119/100/1 95/99/1 120/97/1
f 88/101/1 87/98/1 89/96/1
f 119/100/1 96/102/1 95/99/1
f 118/103/1 96/102/1 119/100/1
f 118/103/1 97/104/1 96/102/1
f 117/105/1 97/104/1 118/103/1
f 116/106/1 97/104/1 117/105/1
f 116/106/1 98/107/1 97/104/1
f 107/108/1 109/109/1 108/110/1
f 116/106/1 99/111/1 98/107/1
f 115/112/1 99/111/1 116/106/1
f 106/113/1 109/109/1 107/108/1
f 114/114/1 99/111/1 115/112/1
f 114/114/1 100/115/1 99/111/1
f 106/113/1 110/116/1 109/109/1
f 113/117/1 100/115/1 114/114/1
f 106/113/1 103/118/1 110/116/1
f 103/118/1 111/119/1 110/116/1
f 106/113/1 104/120/1 103/118/1
f 112/121/1 100/115/1 113/117/1
f 112/121/1 101/122/1 100/115/1
f 102/123/1 111/119/1 103/118/1
f 111/119/1 101/122/1 112/121/1
f 102/123/1 101/122/1 111/119/1
f 106/113/1 105/124/1 104/120/1
f 143/125/1 132/126/1 144/127/1
f 132/126/1 145/128/1 144/127/1
f 131/129/1 145/128/1 132/126/1
f 142/130/1 132/126/1 143/125/1
f 142/130/1 133/131/1 132/126/1
f 130/132/1 145/128/1 131/129/1
f 141/133/1 133/131/1 142/130/1
f 130/132/1 146/134/1 145/128/1
f 129/135/1 146/134/1 130/132/1
f 140/136/1 133/131/1 141/133/1
f 140/136/1 125/137/1 133/131/1
f 129/135/1 147/138/1 146/134/1
f 128/139/1 147/138/1 129/135/1
f 128/139/1 148/140/1 147/138/1
f 127/141/1 148/140/1 128/139/1
f 127/141/1 149/142/1 148/140/1
f 126/143/1 149/142/1 127/141/1
f 126/143/1 150/144/1 149/142/1
f 125/137/1 150/144/1 126/143/1
f 125/137/1 134/145/1 150/144/1
f 134/145/1 151/146/1 150/144/1
f 140/136/1 135/147/1 125/137/1
f 157/148/1 151/146/1 134/145/1
f 157/148/1 152/149/1 151/146/1
f 157/148/1 153/150/1 152/149/1
f 157/148/1 154/151/1 153/150/1
f 156/152/1 154/151/1 157/148/1
f 140/136/1 136/153/1 135/147/1
f 139/154/1 136/153/1 140/136/1
f 156/152/1 155/155/1 154/151/1
f 138/156/1 136/153/1 139/154/1
f 138/156/1 137/157/1 136/153/1
f 163/158/1 168/159/1 164/160/1
f 169/161/1 168/159/1 163/158/1
f 162/162/1 169/161/1 163/158/1
f 162/162/1 170/163/1 169/161/1
f 161/164/1 170/163/1 162/162/1
f 167/165/1 164/160/1 168/159/1
f 161/164/1 171/166/1 170/163/1
f 167/165/1 165/167/1 164/160/1
f 160/168/1 171/166/1 161/164/1
f 166/169/1 165/167/1 167/165/1
f 174/170/1 176/171/1 175/172/1
f 173/173/1 176/171/1 174/170/1
f 172/174/1 176/171/1 173/173/1
f 171/175/1 176/171/1 172/174/1
f 171/175/1 179/176/1 176/171/1
f 160/168/1 180/177/1 171/166/1
f 178/178/1 176/171/1 179/176/1
f 178/178/1 177/179/1 176/171/1
f 184/180/1 186/181/1 185/182/1
f 183/183/1 186/181/1 184/180/1
f 182/184/1 186/181/1 183/183/1
f 159/185/1 180/177/1 160/168/1
f 159/185/1 181/186/1 180/177/1
f 158/187/1 181/186/1 159/185/1
f 158/187/1 182/184/1 181/186/1
f 158/187/1 186/181/1 182/184/1
f 196/188/1 213/189/1 197/190/1
f 212/191/1 197/190/1 213/189/1
f 195/192/1 213/189/1 196/188/1
f 195/192/1 205/193/1 213/189/1
f 211/194/1 197/190/1 212/191/1
f 211/194/1 198/195/1 197/190/1
f 194/196/1 205/193/1 195/192/1
f 210/197/1 198/195/1 211/194/1
f 210/197/1 199/198/1 198/195/1
f 193/199/1 205/193/1 194/196/1
f 193/199/1 206/200/1 205/193/1
f 209/201/1 199/198/1 210/197/1
f 209/201/1 200/202/1 199/198/1
f 209/201/1 201/203/1 200/202/1
f 208/204/1 201/203/1 209/201/1
f 207/205/1 201/203/1 208/204/1
f 207/205/1 202/206/1 201/203/1
f 206/200/1 202/206/1 207/205/1
f 206/200/1 203/207/1 202/206/1
f 193/199/1 217/208/1 206/200/1
f 216/209/1 203/207/1 206/200/1
f 216/209/1 204/210/1 203/207/1
f 216/209/1 187/211/1 204/210/1
f 215/212/1 187/211/1 216/209/1
f 215/212/1 188/213/1 187/211/1
f 214/214/1 188/213/1 215/212/1
f 220/215/1 188/213/1 214/214/1
f 220/215/1 189/216/1 188/213/1
f 219/217/1 189/216/1 220/215/1
f 192/218/1 217/208/1 193/199/1
f 192/218/1 218/219/1 217/208/1
f 219/217/1 190/220/1 189/216/1
f 218/219/1 190/220/1 219/217/1
f 192/218/1 190/220/1 218/219/1
f 191/221/1 190/220/1 192/218/1
f 239/222/1 228/223/1 240/224/1
f 228/223/1 241/225/1 240/224/1
f 227/226/1 241/225/1 228/223/1
f 238/227/1 228/223/1 239/222/1
f 238/227/1 229/228/1 228/223/1
f 226/229/1 241/225/1 227/226/1
f 237/230/1 229/228/1 238/227/1
f 226/229/1 242/231/1 241/225/1
f 225/232/1 242/231/1 226/229/1
f 236/233/1 229/228/1 237/230/1
f 236/233/1 221/234/1 229/228/1
f 225/232/1 243/235/1 242/231/1
f 224/236/1 243/235/1 225/232/1
f 224/236/1 244/237/1 243/235/1
f 223/238/1 244/237/1 224/236/1
f 223/238/1 245/239/1 244/237/1
f 222/240/1 245/239/1 223/238/1
f 222/240/1 246/241/1 245/239/1
f 221/234/1 246/241/1 222/240/1
f 221/234/1 230/242/1 246/241/1
f 230/242/1 247/243/1 246/241/1
f 236/233/1 231/244/1 221/234/1
f 253/245/1 247/243/1 230/242/1
f 253/245/1 248/246/1 247/243/1
f 253/245/1 249/247/1 248/246/1
f 253/245/1 250/248/1 249/247/1
f 252/249/1 250/248/1 253/245/1
f 236/233/1 232/250/1 231/244/1
f 235/251/1 232/250/1 236/233/1
f 252/249/1 251/252/1 250/248/1
f 234/253/1 232/250/1 235/251/1
f 234/253/1 233/254/1 232/250/1
f 264/255/1 268/256/1 265/257/1
f 268/256/1 266/258/1 265/257/1
f 268/256/1 267/259/1 266/258/1
f 484/260/2 392/261/2 393/262/2
f 529/263/2 484/260/2 413/264/2
f 459/265/3 610/266/3 455/267/3
f 455/268/2 607/269/2 258/270/2
f 264/255/1 261/271/1 260/272/1
f 256/273/1 267/259/1 257/274/1
f 263/275/1 261/271/1 264/255/1
f 256/273/1 254/276/1 267/259/1
f 263/275/1 262/277/1 261/271/1
f 255/278/1 254/276/1 256/273/1
f 278/279/1 296/280/1 279/281/1
f 296/280/1 280/282/1 279/281/1
f 295/283/1 280/282/1 296/280/1
f 277/284/1 296/280/1 278/279/1
f 277/284/1 288/285/1 296/280/1
f 294/286/1 280/282/1 295/283/1
f 276/287/1 288/285/1 277/284/1
f 294/286/1 281/288/1 280/282/1
f 293/289/1 281/288/1 294/286/1
f 293/289/1 282/290/1 281/288/1
f 275/291/1 288/285/1 276/287/1
f 275/291/1 289/292/1 288/285/1
f 292/293/1 282/290/1 293/289/1
f 292/293/1 283/294/1 282/290/1
f 291/295/1 283/294/1 292/293/1
f 291/295/1 284/296/1 283/294/1
f 290/297/1 284/296/1 291/295/1
f 290/297/1 285/298/1 284/296/1
f 289/292/1 285/298/1 290/297/1
f 289/292/1 286/299/1 285/298/1
f 275/291/1 300/300/1 289/292/1
f 299/301/1 286/299/1 289/292/1
f 299/301/1 287/302/1 286/299/1
f 299/301/1 269/303/1 287/302/1
f 298/304/1 269/303/1 299/301/1
f 298/304/1 270/305/1 269/303/1
f 297/306/1 270/305/1 298/304/1
f 303/307/1 270/305/1 297/306/1
f 303/307/1 271/308/1 270/305/1
f 302/309/1 271/308/1 303/307/1
f 274/310/1 300/300/1 275/291/1
f 274/310/1 301/311/1 300/300/1
f 302/309/1 272/312/1 271/308/1
f 301/311/1 272/312/1 302/309/1
f 274/310/1 272/312/1 301/311/1
f 273/313/1 272/312/1 274/310/1
f 383/314/2 306/315/2 329/316/2
f 329/316/2 306/315/2 307/317/2
f 383/314/2 329/316/2 377/318/2
f 491/319/2 383/314/2 377/318/2
f 328/320/2 329/316/2 307/317/2
f 376/321/2 491/319/2 377/318/2
f 376/321/2 377/318/2 425/322/2
f 328/320/2 307/317/2 421/323/2
f 427/324/2 328/320/2 421/323/2
f 460/325/2 376/321/2 425/322/2
f 460/325/2 425/322/2 308/326/2
f 427/324/2 421/323/2 422/327/2
f 426/328/2 427/324/2 422/327/2
f 426/328/2 422/327/2 515/329/2
f 601/330/2 426/328/2 515/329/2
f 601/330/2 515/329/2 338/331/2
f 339/332/2 601/330/2 338/331/2
f 339/332/2 338/331/2 378/333/2
f 308/326/2 339/332/2 378/333/2
f 460/325/2 308/326/2 309/334/2
f 460/325/2 309/334/2 453/335/2
f 454/336/2 460/325/2 453/335/2
f 454/336/2 453/335/2 598/337/2
f 600/338/2 454/336/2 598/337/2
f 457/339/2 456/340/2 458/341/2
f 456/340/2 457/339/2 335/342/2
f 457/339/2 458/341/2 470/343/2
f 334/344/2 456/340/2 335/342/2
f 542/345/2 457/339/2 470/343/2
f 334/344/2 335/342/2 388/346/2
f 390/347/2 334/344/2 388/346/2
f 587/348/2 542/345/2 470/343/2
f 587/348/2 470/343/2 471/349/2
f 390/347/2 388/346/2 569/350/2
f 475/351/2 587/348/2 471/349/2
f 389/352/2 390/347/2 569/350/2
f 475/351/2 471/349/2 558/353/2
f 475/351/2 558/353/2 482/354/2
f 389/352/2 569/350/2 522/355/2
f 373/356/2 475/351/2 482/354/2
f 419/357/2 389/352/2 522/355/2
f 373/356/2 482/354/2 372/358/2
f 374/359/2 419/357/2 522/355/2
f 374/359/2 522/355/2 333/360/2
f 373/356/2 372/358/2 536/361/2
f 369/362/2 373/356/2 536/361/2
f 332/363/2 374/359/2 333/360/2
f 332/363/2 333/360/2 474/364/2
f 368/365/2 369/362/2 536/361/2
f 332/363/2 474/364/2 469/366/2
f 368/365/2 536/361/2 545/367/2
f 480/368/2 332/363/2 469/366/2
f 469/366/2 368/365/2 545/367/2
f 480/368/2 469/366/2 545/367/2
f 330/369/2 604/370/2 579/371/2
f 330/369/2 579/371/2 331/372/2
f 380/373/2 316/374/2 317/375/2
f 380/373/2 317/375/2 356/376/2
f 330/369/2 331/372/2 443/377/2
f 380/373/2 356/376/2 476/378/2
f 343/379/2 330/369/2 443/377/2
f 452/380/2 380/373/2 476/378/2
f 342/381/2 343/379/2 443/377/2
f 342/381/2 443/377/2 588/382/2
f 597/383/2 452/380/2 476/378/2
f 597/383/2 476/378/2 432/384/2
f 342/381/2 588/382/2 565/385/2
f 570/386/2 597/383/2 432/384/2
f 342/381/2 565/385/2 566/387/2
f 570/386/2 432/384/2 318/388/2
f 441/389/2 342/381/2 566/387/2
f 535/390/2 570/386/2 318/388/2
f 499/391/2 441/389/2 566/387/2
f 499/391/2 566/387/2 605/392/2
f 367/393/2 535/390/2 318/388/2
f 367/393/2 318/388/2 319/394/2
f 490/395/2 516/396/2 463/397/2
f 546/398/2 537/399/2 538/400/2
f 578/401/2 546/398/2 538/400/2
f 350/402/2 490/395/2 463/397/2
f 349/403/2 350/402/2 463/397/2
f 349/403/2 463/397/2 464/404/2
f 490/395/2 350/402/2 406/405/2
f 431/406/2 349/403/2 464/404/2
f 489/407/2 490/395/2 406/405/2
f 464/404/2 578/401/2 538/400/2
f 431/406/2 464/404/2 538/400/2
f 489/407/2 406/405/2 485/408/2
f 430/409/2 431/406/2 538/400/2
f 544/410/2 489/407/2 485/408/2
f 430/409/2 538/400/2 589/411/2
f 544/410/2 485/408/2 486/412/2
f 527/413/2 544/410/2 486/412/2
f 603/414/2 430/409/2 589/411/2
f 527/413/2 486/412/2 525/415/2
f 562/416/2 527/413/2 525/415/2
f 562/416/2 525/415/2 304/417/2
f 305/418/2 562/416/2 304/417/2
f 563/419/2 305/418/2 304/417/2
f 563/419/2 304/417/2 519/420/2
f 510/421/2 518/422/2 438/423/2
f 563/419/2 519/420/2 399/424/2
f 440/425/2 563/419/2 399/424/2
f 509/426/2 510/421/2 438/423/2
f 439/427/2 440/425/2 399/424/2
f 439/427/2 399/424/2 326/428/2
f 509/426/2 438/423/2 315/429/2
f 327/430/2 439/427/2 326/428/2
f 509/426/2 315/429/2 314/431/2
f 314/431/2 315/429/2 365/432/2
f 509/426/2 314/431/2 576/433/2
f 366/434/2 327/430/2 326/428/2
f 366/434/2 326/428/2 353/435/2
f 446/436/2 314/431/2 365/432/2
f 365/432/2 366/434/2 353/435/2
f 446/436/2 365/432/2 353/435/2
f 509/426/2 576/433/2 567/437/2
f 472/438/2 506/439/2 415/440/2
f 415/440/2 506/439/2 321/441/2
f 320/442/2 415/440/2 321/441/2
f 583/443/2 472/438/2 415/440/2
f 583/443/2 415/440/2 336/444/2
f 547/445/2 320/442/2 321/441/2
f 552/446/2 583/443/2 336/444/2
f 547/445/2 321/441/2 358/447/2
f 495/448/2 547/445/2 358/447/2
f 477/449/2 552/446/2 336/444/2
f 477/449/2 336/444/2 337/450/2
f 495/448/2 358/447/2 359/451/2
f 502/452/2 495/448/2 359/451/2
f 502/452/2 359/451/2 410/453/2
f 501/454/2 502/452/2 410/453/2
f 501/454/2 410/453/2 437/455/2
f 416/456/2 501/454/2 437/455/2
f 416/456/2 437/455/2 417/457/2
f 337/450/2 416/456/2 417/457/2
f 337/450/2 417/457/2 498/458/2
f 498/458/2 417/457/2 507/459/2
f 477/449/2 337/450/2 539/460/2
f 497/461/2 498/458/2 507/459/2
f 497/461/2 507/459/2 508/462/2
f 497/461/2 508/462/2 575/463/2
f 497/461/2 575/463/2 572/464/2
f 521/465/2 497/461/2 572/464/2
f 477/449/2 539/460/2 370/466/2
f 436/467/2 477/449/2 370/466/2
f 521/465/2 572/464/2 571/468/2
f 371/469/2 436/467/2 370/466/2
f 371/469/2 370/466/2 411/470/2
f 423/471/2 543/472/2 424/473/2
f 412/474/2 423/471/2 424/473/2
f 520/475/2 423/471/2 412/474/2
f 520/475/2 412/474/2 407/476/2
f 355/477/2 520/475/2 407/476/2
f 503/478/2 424/473/2 543/472/2
f 355/477/2 407/476/2 382/479/2
f 503/478/2 543/472/2 593/480/2
f 354/481/2 355/477/2 382/479/2
f 586/482/2 503/478/2 593/480/2
f 449/483/2 511/484/2 450/485/2
f 444/486/2 449/483/2 450/485/2
f 396/487/2 444/486/2 450/485/2
f 382/488/2 396/487/2 450/485/2
f 382/488/2 450/485/2 585/489/2
f 354/481/2 382/479/2 513/490/2
f 556/491/2 585/489/2 450/485/2
f 556/491/2 450/485/2 555/492/2
f 400/493/2 533/494/2 401/495/2
f 325/496/2 400/493/2 401/495/2
f 324/497/2 325/496/2 401/495/2
f 433/498/2 354/481/2 513/490/2
f 433/498/2 513/490/2 514/499/2
f 602/500/2 433/498/2 514/499/2
f 602/500/2 514/499/2 324/497/2
f 602/500/2 324/497/2 401/495/2
f 494/501/2 553/502/2 404/503/2
f 554/504/2 404/503/2 553/502/2
f 403/505/2 494/501/2 404/503/2
f 403/505/2 404/503/2 375/506/2
f 512/507/2 554/504/2 553/502/2
f 512/507/2 553/502/2 591/508/2
f 341/509/2 403/505/2 375/506/2
f 487/510/2 512/507/2 591/508/2
f 487/510/2 591/508/2 549/511/2
f 340/512/2 341/509/2 375/506/2
f 340/512/2 375/506/2 391/513/2
f 361/514/2 487/510/2 549/511/2
f 361/514/2 549/511/2 550/515/2
f 361/514/2 550/515/2 360/516/2
f 428/517/2 361/514/2 360/516/2
f 582/518/2 428/517/2 360/516/2
f 582/518/2 360/516/2 581/519/2
f 391/513/2 582/518/2 581/519/2
f 391/513/2 581/519/2 599/520/2
f 340/512/2 391/513/2 387/521/2
f 532/522/2 391/513/2 599/520/2
f 532/522/2 599/520/2 590/523/2
f 532/522/2 590/523/2 580/524/2
f 531/525/2 532/522/2 580/524/2
f 531/525/2 580/524/2 560/526/2
f 557/527/2 531/525/2 560/526/2
f 363/528/2 557/527/2 560/526/2
f 363/528/2 560/526/2 574/529/2
f 362/530/2 363/528/2 574/529/2
f 386/531/2 340/512/2 387/521/2
f 386/531/2 387/521/2 409/532/2
f 362/530/2 574/529/2 561/533/2
f 409/532/2 362/530/2 561/533/2
f 386/531/2 409/532/2 561/533/2
f 568/534/2 386/531/2 561/533/2
f 500/535/2 445/536/2 466/537/2
f 466/537/2 445/536/2 364/538/2
f 517/539/2 466/537/2 364/538/2
f 534/540/2 500/535/2 466/537/2
f 534/540/2 466/537/2 492/541/2
f 322/542/2 517/539/2 364/538/2
f 496/543/2 534/540/2 492/541/2
f 322/542/2 364/538/2 323/544/2
f 420/545/2 322/542/2 323/544/2
f 493/546/2 496/543/2 492/541/2
f 493/546/2 492/541/2 348/547/2
f 420/545/2 323/544/2 397/548/2
f 483/549/2 420/545/2 397/548/2
f 483/549/2 397/548/2 398/550/2
f 462/551/2 483/549/2 398/550/2
f 462/551/2 398/550/2 564/552/2
f 461/553/2 462/551/2 564/552/2
f 461/553/2 564/552/2 468/554/2
f 348/547/2 461/553/2 468/554/2
f 348/547/2 468/554/2 347/555/2
f 347/555/2 468/554/2 526/556/2
f 493/546/2 348/547/2 357/557/2
f 405/558/2 347/555/2 526/556/2
f 405/558/2 526/556/2 530/559/2
f 405/558/2 530/559/2 541/560/2
f 405/558/2 541/560/2 548/561/2
f 488/562/2 405/558/2 548/561/2
f 493/546/2 357/557/2 384/563/2
f 385/564/2 493/546/2 384/563/2
f 488/562/2 548/561/2 577/565/2
f 435/566/2 385/564/2 384/563/2
f 435/566/2 384/563/2 596/567/2
f 393/262/2 592/568/2 484/260/2
f 484/260/2 592/568/2 594/569/2
f 484/260/2 594/569/2 413/264/2
f 459/570/4 258/571/4 259/572/4
f 529/573/5 268/574/6 484/575/6
f 607/576/7 609/577/7 608/578/7
f 258/579/8 608/580/8 259/581/8
f 393/262/2 392/261/2 478/582/2
f 528/583/2 529/263/2 413/264/2
f 479/275/2 393/262/2 478/582/2
f 528/583/2 413/264/2 414/584/2
f 479/275/2 478/582/2 573/585/2
f 606/586/2 528/583/2 414/584/2
f 595/587/2 408/588/2 312/589/2
f 312/589/2 408/588/2 402/590/2
f 447/591/2 312/589/2 402/590/2
f 381/592/2 595/587/2 312/589/2
f 381/592/2 312/589/2 313/593/2
f 434/594/2 447/591/2 402/590/2
f 429/595/2 381/592/2 313/593/2
f 434/594/2 402/590/2 344/596/2
f 473/597/2 434/594/2 344/596/2
f 473/597/2 344/596/2 345/598/2
f 559/599/2 429/595/2 313/593/2
f 559/599/2 313/593/2 551/600/2
f 524/601/2 473/597/2 345/598/2
f 524/601/2 345/598/2 540/602/2
f 523/603/2 524/601/2 540/602/2
f 523/603/2 540/602/2 394/604/2
f 465/605/2 523/603/2 394/604/2
f 465/605/2 394/604/2 395/606/2
f 551/600/2 465/605/2 395/606/2
f 551/600/2 395/606/2 442/607/2
f 559/599/2 551/600/2 584/608/2
f 352/609/2 551/600/2 442/607/2
f 352/609/2 442/607/2 467/610/2
f 352/609/2 467/610/2 418/611/2
f 351/612/2 352/609/2 418/611/2
f 351/612/2 418/611/2 310/613/2
f 379/614/2 351/612/2 310/613/2
f 481/615/2 379/614/2 310/613/2
f 481/615/2 310/613/2 311/616/2
f 504/617/2 481/615/2 311/616/2
f 451/618/2 559/599/2 584/608/2
f 451/618/2 584/608/2 505/619/2
f 504/617/2 311/616/2 346/620/2
f 505/619/2 504/617/2 346/620/2
f 451/618/2 505/619/2 346/620/2
f 448/621/2 451/618/2 346/620/2
f 179/622/9 556/623/10 178/624/10
f 564/625/11 244/626/12 245/627/11
f 469/628/13 46/629/14 47/630/13
f 600/631/15 4/632/15 5/633/15
f 374/634/16 33/635/17 34/636/16
f 559/637/18 274/638/19 275/639/18
f 29/575/20 482/640/21 28/641/21
f 418/642/22 287/643/23 269/644/22
f 475/645/24 50/646/25 51/647/24
f 605/648/26 66/649/27 67/650/26
f 553/651/28 196/652/29 197/653/28
f 577/654/30 250/655/31 251/656/30
f 432/657/32 56/658/33 57/659/34
f 601/660/35 19/661/36 20/662/35
f 322/663/37 225/664/38 226/665/37
f 324/666/39 181/667/40 182/668/39
f 602/669/41 186/670/41 158/671/41
f 554/672/42 211/673/43 212/674/42
f 439/675/44 113/676/45 114/677/44
f 594/678/46 265/679/47 266/680/46
f 382/681/48 179/682/9 171/683/48
f 316/684/49 78/685/50 79/686/49
f 584/687/51 289/688/52 300/689/51
f 505/690/53 300/689/51 301/691/53
f 344/692/54 280/693/55 281/694/54
f 1/695/56 378/696/57 17/697/57
f 447/698/42 294/699/43 295/700/42
f 376/701/58 7/702/18 8/703/58
f 534/704/59 237/705/58 238/706/59
f 578/707/60 82/708/61 83/709/62
f 506/710/63 143/711/64 144/712/63
f 503/713/65 166/714/66 167/715/65
f 328/716/67 22/717/68 23/718/69
f 603/719/70 87/720/71 88/721/70
f 153/722/72 508/723/73 152/724/73
f 599/725/74 202/711/75 203/726/74
f 306/727/76 10/728/77 11/729/78
f 472/686/79 142/730/59 143/731/79
f 349/732/80 90/733/81 91/734/82
f 456/735/83 38/736/84 39/737/83
f 511/721/85 174/738/86 175/739/85
f 483/740/87 223/718/88 224/741/87
f 563/742/89 115/743/90 116/744/89
f 264/255/1 260/272/1 268/256/1
f 540/745/91 282/746/92 283/747/91
f 587/748/93 51/647/24 52/749/93
f 479/750/94 262/751/94 263/752/94
f 486/753/95 94/754/96 95/755/95
f 304/756/97 96/757/98 97/758/97
f 390/759/99 36/760/100 37/632/99
f 430/761/101 88/762/70 89/763/101
f 487/764/102 209/765/103 210/766/102
f 604/767/79 72/768/59 73/769/79
f 518/770/104 107/771/105 108/772/104
f 405/773/106 252/774/107 253/775/106
f 433/776/108 158/777/109 159/778/108
f 386/779/19 191/780/110 192/781/19
f 565/782/111 64/783/112 65/784/111
f 285/785/113 394/786/114 284/787/114
f 582/788/115 206/789/116 207/790/115
f 396/791/117 171/792/118 172/793/117
f 452/794/119 63/795/120 77/796/119
f 537/797/121 84/798/122 85/719/121
f 490/799/123 121/800/124 122/801/123
f 398/802/12 243/803/125 244/804/12
f 596/805/26 232/806/27 233/648/26
f 326/807/126 99/808/127 100/809/126
f 500/769/79 238/810/59 239/811/79
f 187/812/22 590/813/23 204/814/23
f 298/815/128 379/816/129 297/817/129
f 473/818/102 292/819/103 293/820/102
f 494/821/130 195/822/131 196/823/130
f 421/824/132 12/825/133 13/826/132
f 549/827/134 198/828/135 199/829/134
f 370/830/27 135/831/136 136/25/27
f 217/832/51 391/833/52 206/834/52
f 378/696/57 16/835/137 17/697/57
f 385/836/19 234/639/110 235/837/19
f 347/838/138 253/775/106 230/626/138
f 308/839/139 18/840/140 1/841/139
f 443/842/141 75/843/142 76/844/141
f 436/845/19 138/846/110 139/847/19
f 406/848/143 92/849/144 93/850/145
f 413/851/146 266/852/46 267/853/146
f 548/854/31 249/855/72 250/655/31
f 528/856/147 255/857/148 256/858/149
f 171/859/150 407/860/151 170/861/151
f 200/660/152 549/827/134 199/829/134
f 391/833/153 205/709/154 206/834/153
f 391/862/155 216/863/156 206/864/155
f 465/865/115 289/866/116 290/867/115
f 409/868/53 217/832/51 218/869/53
f 202/870/157 360/871/158 201/872/158
f 498/873/138 157/874/106 134/875/138
f 327/876/45 112/877/159 113/878/45
f 410/879/12 147/880/125 148/881/12
f 499/882/8 67/883/8 68/667/8
f 337/884/160 134/265/138 125/885/160
f 441/886/19 68/887/110 69/845/19
f 411/888/26 136/889/27 137/890/26
f 415/891/161 131/892/162 132/893/163
f 480/894/164 31/895/165 32/896/164
f 407/897/151 169/898/166 170/899/151
f 551/900/153 288/695/154 289/688/153
f 502/901/87 127/902/88 128/903/87
f 414/904/167 267/853/146 254/338/167
f 552/905/58 140/906/18 141/907/58
f 545/908/165 30/909/168 31/895/165
f 400/910/169 183/911/170 184/912/169
f 424/913/171 167/914/65 168/915/171
f 520/656/172 161/916/173 162/654/172
f 526/917/174 246/918/175 247/919/174
f 270/920/176 418/642/22 269/644/22
f 588/921/177 76/844/141 64/783/177
f 474/922/14 45/923/178 46/924/14
f 389/925/100 35/926/179 36/760/100
f 593/927/180 164/928/181 165/929/180
f 556/930/10 177/931/182 178/932/10
f 393/933/183 263/934/184 264/935/183
f 373/936/25 49/714/185 50/646/25
f 531/937/186 214/938/129 215/939/128
f 422/940/187 13/826/132 14/941/187
f 482/640/21 27/942/188 28/641/21
f 508/723/73 151/943/174 152/724/73
f 569/944/189 42/945/190 43/946/189
f 558/947/191 26/948/192 27/942/188
f 445/949/63 239/950/64 240/951/63
f 576/952/193 103/953/194 104/954/193
f 305/955/195 116/744/89 117/956/195
f 427/957/68 21/958/196 22/717/68
f 591/959/135 197/653/28 198/960/135
f 478/961/197 260/962/198 261/963/199
f 510/964/200 106/965/201 107/966/200
f 431/967/81 89/763/101 90/968/81
f 555/934/202 176/969/203 177/970/202
f 420/971/38 224/741/87 225/664/38
f 21/958/196 601/972/35 20/973/35
f 562/974/204 117/956/195 118/975/205
f 371/667/8 137/706/8 138/976/8
f 348/977/206 229/978/207 221/979/206
f 276/980/58 559/981/18 275/982/18
f 450/983/203 175/984/208 176/969/203
f 402/985/209 279/986/210 280/987/55
f 314/988/194 102/989/211 103/953/194
f 460/990/18 6/991/19 7/681/18
f 512/992/43 210/766/102 211/673/43
f 318/993/212 57/659/34 58/994/212
f 514/995/40 180/996/213 181/690/40
f 354/997/214 159/778/108 160/998/214
f 606/999/215 254/1000/215 255/1001/215
f 493/1002/18 235/837/19 236/1003/18
f 515/1004/216 14/941/187 15/1005/216
f 589/976/217 86/1006/218 87/667/217
f 504/1007/219 301/873/53 302/1008/219
f 388/1009/190 55/1010/220 42/1011/190
f 365/1012/221 110/1013/222 111/1014/221
f 379/816/129 303/1015/223 297/817/129
f 566/1016/27 65/784/111 66/1017/27
f 516/1018/224 122/801/123 123/1019/224
f 339/1020/36 1/1021/225 19/661/36
f 334/1022/84 37/1023/99 38/736/84
f 476/1024/226 81/963/227 56/658/33
f 523/1025/228 290/867/115 291/1026/228
f 438/1027/229 108/1021/104 109/1028/229
f 557/1029/129 220/1030/223 214/938/129
f 408/1031/210 278/881/230 279/986/210
f 360/871/158 200/1001/152 201/872/158
f 98/1032/231 304/756/97 97/758/97
f 315/1033/222 109/1028/229 110/1013/222
f 423/1034/232 162/1035/172 163/1002/232
f 440/1036/90 114/677/44 115/743/90
f 509/1037/201 105/1038/233 106/965/201
f 497/1039/106 156/860/107 157/874/106
f 403/1040/59 194/1041/58 195/1042/131
f 375/1043/154 213/1044/234 205/1045/154
f 507/648/174 150/1046/175 151/805/174
f 342/1045/18 69/845/19 70/1047/18
f 568/1048/235 190/1049/236 191/1050/235
f 286/1051/74 395/1052/75 285/1048/75
f 527/1053/237 118/975/205 119/1054/237
f 45/923/178 522/1055/238 44/1056/238
f 437/1057/11 148/1058/12 149/1059/11
f 425/1060/140 25/994/239 18/840/140
f 524/1061/103 291/1062/228 292/819/103
f 444/1063/240 172/793/117 173/1064/241
f 435/1065/8 233/976/8 234/706/8
f 241/652/242 445/949/63 240/951/63
f 307/747/133 11/729/78 12/745/133
f 489/1066/124 120/1067/243 121/1068/124
f 481/1069/223 302/1008/219 303/1070/223
f 96/757/98 486/753/95 95/755/95
f 384/25/27 231/1071/136 232/1072/27
f 551/878/155 299/1073/156 289/1074/155
f 309/1075/244 1/841/245 2/1076/244
f 536/1077/168 29/1078/20 30/909/168
f 271/1079/246 310/1080/176 270/920/176
f 434/1081/43 293/820/102 294/699/43
f 44/1056/238 569/944/189 43/946/189
f 446/1082/211 101/1083/247 102/989/211
f 461/1084/248 221/1085/249 222/1086/248
f 313/1087/154 296/1088/234 288/1043/154
f 64/1089/8 597/964/8 63/966/8
f 529/573/5 256/1090/149 257/1091/5
f 404/1092/234 212/1093/42 213/1044/234
f 530/1094/73 247/1095/174 248/1096/73
f 428/1000/228 207/790/115 208/866/228
f 317/1040/3 79/1097/3 80/1098/3
f 521/633/107 155/1099/250 156/631/107
f 338/1100/137 15/1101/216 16/835/137
f 419/1102/179 34/636/16 35/926/179
f 319/1103/251 58/1104/212 59/1105/251
f 532/1106/156 215/939/128 216/1015/156
f 586/1107/252 165/1108/180 166/770/66
f 597/1109/253 62/495/254 63/795/253
f 571/1110/30 154/1111/31 155/751/30
f 321/970/242 144/712/63 145/670/242
f 573/1062/255 261/1112/199 262/678/255
f 533/772/256 184/739/169 185/1113/256
f 448/1114/235 272/1115/236 273/733/235
f 325/1116/170 182/668/39 183/1117/170
f 561/1118/236 189/1119/257 190/1049/236
f 454/1120/19 5/1121/110 6/991/19
f 329/1122/258 23/1123/69 24/1124/258
f 542/1125/259 52/749/93 53/1126/259
f 381/1127/59 276/980/58 277/1040/131
f 535/1128/260 60/1129/261 61/1130/260
f 380/1131/50 77/796/119 78/1132/50
f 394/786/114 283/1133/91 284/787/114
f 496/1134/58 236/1135/18 237/705/58
f 416/1136/248 125/1137/249 126/1138/248
f 495/1139/38 128/903/87 129/1140/38
f 572/1141/31 153/722/72 154/1111/31
f 466/1142/161 227/1143/162 228/1144/163
f 501/1145/88 126/1138/248 127/1146/88
f 125/977/206 336/774/207 133/943/207
f 332/987/17 32/896/164 33/1147/17
f 567/1148/262 104/1149/193 105/270/262
f 86/1006/218 537/1150/263 85/1151/263
f 544/1152/243 119/1054/237 120/1067/243
f 539/1153/136 125/977/264 135/831/136
f 417/1154/265 149/1059/11 150/1155/265
f 477/1047/18 139/847/19 140/1156/18
f 194/1041/58 340/982/18 193/1157/18
f 453/574/266 2/1076/244 3/807/267
f 458/1158/268 39/737/83 40/1159/268
f 377/1160/269 24/1124/258 25/1073/239
f 343/1161/58 70/1162/18 71/1163/58
f 463/1164/270 123/1019/224 124/1165/270
f 488/1166/107 251/1167/250 252/1168/107
f 399/1169/127 98/1032/231 99/808/127
f 345/1170/92 281/694/54 282/746/92
f 546/1171/122 83/1172/62 84/1173/122
f 383/811/79 9/1162/59 10/1174/79
f 485/1175/271 93/869/145 94/754/96
f 346/1176/236 271/1177/246 272/1115/236
f 598/998/272 3/890/267 4/1046/272
f 336/1178/207 132/893/163 133/1143/207
f 462/1179/88 222/1086/248 223/1180/88
f 348/1181/160 230/1182/138 221/581/160
f 570/1183/273 61/1130/260 62/637/254
f 579/1042/3 73/813/3 74/1040/3
f 350/1184/144 91/734/82 92/849/144
f 492/1185/207 228/1144/163 229/892/207
f 361/1186/103 208/1187/228 209/765/103
f 547/1188/37 129/1140/38 130/1189/37
f 352/1155/156 298/815/128 299/1154/156
f 331/1190/142 74/1191/274 75/1192/142
f 340/1193/18 192/781/19 193/857/18
f 353/1194/247 100/1145/126 101/1083/247
f 560/1195/176 187/812/22 188/1196/176
f 451/1197/19 273/1003/110 274/638/19
f 312/1198/234 295/1199/42 296/1088/234
f 449/718/86 173/1200/241 174/997/86
f 464/1201/61 124/1165/270 82/708/61
f 368/1202/275 47/630/13 48/1203/275
f 161/916/173 354/906/214 160/1204/214
f 541/1205/72 248/1096/73 249/855/72
f 362/1206/219 218/1207/53 219/1208/219
f 356/1209/227 80/1192/276 81/1210/227
f 491/1211/59 8/703/58 9/883/59
f 397/1212/125 242/1213/277 243/803/125
f 231/1071/136 348/977/264 221/979/264
f 359/1214/125 146/1215/277 147/880/125
f 259/1216/1 609/584/1 459/269/1
f 330/1217/59 71/1163/58 72/1218/59
f 467/1219/23 286/1051/74 287/1220/23
f 595/1221/130 277/1222/131 278/1223/130
f 363/800/223 219/1208/219 220/1224/223
f 246/1225/265 564/625/11 245/627/11
f 358/1226/277 145/1227/242 146/1215/277
f 335/1228/220 54/1229/278 55/1010/220
f 457/1230/278 53/1231/259 54/1229/278
f 323/1232/277 241/1233/242 242/1213/277
f 543/968/279 163/1234/279 164/967/279
f 366/1235/159 111/1236/221 112/877/159
f 320/1237/162 130/1189/37 131/1238/162
f 471/1239/192 41/1240/280 26/948/192
f 367/1241/8 59/1132/8 60/1167/8
f 592/1242/47 264/1243/183 265/728/47
f 574/1244/246 188/1196/176 189/1245/257
f 517/1246/162 226/665/37 227/902/162
f 369/1247/185 48/1203/275 49/1095/185
f 590/1248/23 203/726/74 204/1249/23
f 180/996/213 382/1250/281 171/859/281
f 401/1251/282 185/1252/282 186/976/282
f 583/954/59 141/907/58 142/952/59
f 470/804/280 40/1159/268 41/802/280
f 412/1253/166 168/915/171 169/898/166
f 268/1254/283 392/1255/198 484/1180/283
f 257/274/1 267/259/1 268/256/1
f 459/265/3 609/1256/3 610/266/3
f 455/268/2 610/1216/2 607/269/2
f 459/570/4 455/669/4 258/571/4
f 529/573/5 257/1091/5 268/574/6
f 607/576/7 610/1257/7 609/577/7
f 258/579/8 607/995/8 608/580/8
f 179/622/9 585/973/9 556/623/10
f 564/625/11 398/838/12 244/626/12
f 469/628/13 474/1258/14 46/629/14
f 600/631/15 598/759/15 4/632/15
f 374/634/16 332/852/17 33/635/17
f 559/637/18 451/1197/19 274/638/19
f 29/575/20 372/1259/20 482/640/21
f 418/642/22 467/1260/23 287/643/23
f 475/645/24 373/936/25 50/646/25
f 605/648/26 566/1261/27 66/649/27
f 553/651/28 494/1262/29 196/652/29
f 577/654/30 548/854/31 250/655/31
f 432/657/32 476/1024/226 56/658/33
f 601/660/35 339/1020/36 19/661/36
f 322/663/37 420/971/38 225/664/38
f 324/666/39 514/882/40 181/667/40
f 602/669/41 401/843/41 186/670/41
f 554/672/42 512/992/43 211/673/43
f 439/675/44 327/1263/45 113/676/45
f 594/678/46 592/1264/47 265/679/47
f 382/681/48 585/1265/9 179/682/9
f 316/684/49 380/1266/50 78/685/50
f 584/687/51 551/900/52 289/688/52
f 505/690/53 584/687/51 300/689/51
f 344/692/54 402/1267/209 280/693/55
f 1/695/56 308/1268/56 378/696/57
f 447/698/42 434/1081/43 294/699/43
f 376/701/58 460/1269/18 7/702/18
f 534/704/59 496/1134/58 237/705/58
f 578/707/60 464/1201/61 82/708/61
f 506/710/63 472/1270/64 143/711/64
f 503/713/65 586/876/252 166/714/66
f 328/716/67 427/957/68 22/717/68
f 603/719/70 589/1271/71 87/720/71
f 153/722/72 575/1272/72 508/723/73
f 599/725/74 581/1273/75 202/711/75
f 306/727/76 383/1242/77 10/728/77
f 472/686/79 583/1274/59 142/730/59
f 349/732/80 431/1114/81 90/733/81
f 456/735/83 334/1022/84 38/736/84
f 511/721/85 449/1275/86 174/738/86
f 483/740/87 462/716/88 223/718/88
f 563/742/89 440/1036/90 115/743/90
f 540/745/91 345/1170/92 282/746/92
f 587/748/93 475/645/24 51/647/24
f 479/750/94 573/1110/94 262/751/94
f 486/753/95 485/1175/271 94/754/96
f 304/756/97 525/1276/98 96/757/98
f 390/759/99 389/925/100 36/760/100
f 430/761/101 603/1277/70 88/762/70
f 487/764/102 361/1186/103 209/765/103
f 604/767/79 330/821/59 72/768/59
f 518/770/104 510/1278/105 107/771/105
f 405/773/106 488/943/107 252/774/107
f 433/776/108 602/1279/109 158/777/109
f 386/779/19 568/1280/110 191/780/110
f 565/782/111 588/921/112 64/783/112
f 285/785/113 395/1089/113 394/786/114
f 582/788/115 391/1281/116 206/789/116
f 396/791/117 382/1282/118 171/792/118
f 452/794/119 597/1109/120 63/795/120
f 537/797/121 546/1283/122 84/798/122
f 490/799/123 489/1284/124 121/800/124
f 398/802/12 397/1212/125 243/803/125
f 596/805/26 384/1285/27 232/806/27
f 326/807/126 399/1169/127 99/808/127
f 500/769/79 534/768/59 238/810/59
f 187/812/22 580/1286/22 590/813/23
f 298/815/128 351/1287/128 379/816/129
f 473/818/102 524/1061/103 292/819/103
f 494/821/130 403/1288/59 195/822/131
f 421/824/132 307/1289/133 12/825/133
f 549/827/134 591/1290/135 198/828/135
f 370/830/27 539/1153/136 135/831/136
f 217/832/51 387/1291/51 391/833/52
f 378/696/57 338/1100/137 16/835/137
f 385/836/19 435/1292/110 234/639/110
f 347/838/138 405/773/106 253/775/106
f 308/839/139 425/1060/140 18/840/140
f 443/842/141 331/371/142 75/843/142
f 436/845/19 371/887/110 138/846/110
f 406/848/143 350/1184/144 92/849/144
f 413/851/146 594/635/46 266/852/46
f 548/854/31 541/1205/72 249/855/72
f 528/856/147 606/1293/148 255/857/148
f 171/859/150 382/1250/150 407/860/151
f 200/660/152 550/662/152 549/827/134
f 391/833/153 375/707/154 205/709/154
f 391/862/155 532/1005/156 216/863/156
f 465/865/115 551/910/116 289/866/116
f 409/868/53 387/1291/51 217/832/51
f 202/870/157 581/1294/157 360/871/158
f 498/873/138 497/1039/106 157/874/106
f 327/876/45 366/1235/159 112/877/159
f 410/879/12 359/1214/125 147/880/125
f 499/882/8 605/1211/8 67/883/8
f 337/884/160 498/682/138 134/265/138
f 441/886/19 499/1295/110 68/887/110
f 411/888/26 370/1296/27 136/889/27
f 415/891/161 320/1087/162 131/892/162
f 480/894/164 545/908/165 31/895/165
f 407/897/151 412/1253/166 169/898/166
f 551/900/153 313/1268/154 288/695/154
f 502/901/87 501/1246/88 127/902/88
f 414/904/167 413/851/146 267/853/146
f 552/905/58 477/266/18 140/906/18
f 545/908/165 536/1077/168 30/909/168
f 400/910/169 325/1297/170 183/911/170
f 424/913/171 503/1298/65 167/914/65
f 520/656/172 355/1299/173 161/916/173
f 526/917/174 468/1300/175 246/918/175
f 270/920/176 310/1080/176 418/642/22
f 588/921/177 443/842/141 76/844/141
f 474/922/14 333/1301/178 45/923/178
f 389/925/100 419/1102/179 35/926/179
f 593/927/180 543/1302/181 164/928/181
f 556/930/10 555/1303/182 177/931/182
f 393/933/183 479/1304/184 263/934/184
f 373/936/25 369/1305/185 49/714/185
f 531/937/186 557/1029/129 214/938/129
f 422/940/187 421/824/132 13/826/132
f 482/640/21 558/947/191 27/942/188
f 508/723/73 507/978/174 151/943/174
f 569/944/189 388/179/190 42/945/190
f 558/947/191 471/1239/192 26/948/192
f 445/949/63 500/1187/64 239/950/64
f 576/952/193 314/988/194 103/953/194
f 305/955/195 563/742/89 116/744/89
f 427/957/68 426/1306/196 21/958/196
f 591/959/135 553/651/28 197/653/28
f 478/961/197 392/1255/198 260/962/198
f 510/964/200 509/1037/201 106/965/201
f 431/967/81 430/761/101 89/763/101
f 555/934/202 450/983/203 176/969/203
f 420/971/38 483/740/87 224/741/87
f 21/958/196 426/1306/196 601/972/35
f 562/974/204 305/955/195 117/956/195
f 371/667/8 411/704/8 137/706/8
f 348/977/206 492/943/207 229/978/207
f 276/980/58 429/1307/58 559/981/18
f 450/983/203 511/1062/208 175/984/208
f 402/985/209 408/1031/210 279/986/210
f 314/988/194 446/1082/211 102/989/211
f 460/990/18 454/1120/19 6/991/19
f 512/992/43 487/764/102 210/766/102
f 318/993/212 432/657/32 57/659/34
f 514/995/40 513/1308/213 180/996/213
f 354/997/214 433/776/108 159/778/108
f 606/999/215 414/1259/215 254/1000/215
f 493/1002/18 385/836/19 235/837/19
f 515/1004/216 422/940/187 14/941/187
f 589/976/217 538/1309/218 86/1006/218
f 504/1007/219 505/1310/53 301/873/53
f 388/1009/190 335/1228/220 55/1010/220
f 365/1012/221 315/1033/222 110/1013/222
f 379/816/129 481/1106/223 303/1015/223
f 566/1016/27 565/782/111 65/784/111
f 516/1018/224 490/799/123 122/801/123
f 339/1020/36 308/1311/225 1/1021/225
f 334/1022/84 390/1312/99 37/1023/99
f 476/1024/226 356/961/227 81/963/227
f 523/1025/228 465/865/115 290/867/115
f 438/1027/229 518/1313/104 108/1021/104
f 557/1029/129 363/985/223 220/1030/223
f 408/1031/210 595/1314/230 278/881/230
f 360/871/158 550/999/152 200/1001/152
f 98/1032/231 519/1315/231 304/756/97
f 315/1033/222 438/1027/229 109/1028/229
f 423/1034/232 520/1316/172 162/1035/172
f 440/1036/90 439/675/44 114/677/44
f 509/1037/201 567/1023/233 105/1038/233
f 497/1039/106 521/861/107 156/860/107
f 403/1040/59 341/980/58 194/1041/58
f 375/1043/154 404/1092/234 213/1044/234
f 507/648/174 417/918/175 150/1046/175
f 342/1045/18 441/886/19 69/845/19
f 568/1048/235 561/1118/236 190/1049/236
f 286/1051/74 442/1317/74 395/1052/75
f 527/1053/237 562/974/204 118/975/205
f 45/923/178 333/1301/178 522/1055/238
f 437/1057/11 410/1318/12 148/1058/12
f 425/1060/140 377/993/269 25/994/239
f 524/1061/103 523/984/228 291/1062/228
f 444/1063/240 396/791/117 172/793/117
f 435/1065/8 596/1319/8 233/976/8
f 241/652/242 364/1262/284 445/949/63
f 307/747/133 306/727/76 11/729/78
f 489/1066/124 544/1152/243 120/1067/243
f 481/1069/223 504/1007/219 302/1008/219
f 96/757/98 525/1276/98 486/753/95
f 384/25/27 357/1320/136 231/1071/136
f 551/878/155 352/1321/156 299/1073/156
f 309/1075/244 308/839/245 1/841/245
f 536/1077/168 372/1322/20 29/1078/20
f 271/1079/246 311/1323/246 310/1080/176
f 434/1081/43 473/818/102 293/820/102
f 44/1056/238 522/1055/238 569/944/189
f 446/1082/211 353/1194/247 101/1083/247
f 461/1084/248 348/1324/249 221/1085/249
f 313/1087/154 312/1198/234 296/1088/234
f 64/1089/8 588/785/8 597/964/8
f 529/573/5 528/960/147 256/1090/149
f 404/1092/234 554/1199/42 212/1093/42
f 530/1094/73 526/1247/174 247/1095/174
f 428/1000/228 582/788/115 207/790/115
f 317/1040/3 316/1325/3 79/1097/3
f 521/633/107 571/1326/250 155/1099/250
f 338/1100/137 515/1231/216 15/1101/216
f 419/1102/179 374/634/16 34/636/16
f 319/1103/251 318/1327/212 58/1104/212
f 532/1106/156 531/937/186 215/939/128
f 586/1107/252 593/931/180 165/1108/180
f 597/1109/253 570/1328/273 62/495/254
f 571/1110/30 572/1141/31 154/1111/31
f 321/970/242 506/710/63 144/712/63
f 573/1062/255 478/1329/197 261/1112/199
f 533/772/256 400/1330/169 184/739/169
f 448/1114/235 346/1176/236 272/1115/236
f 325/1116/170 324/666/39 182/668/39
f 561/1118/236 574/676/246 189/1119/257
f 454/1120/19 600/1193/110 5/1121/110
f 329/1122/258 328/1063/67 23/1123/69
f 542/1125/259 587/748/93 52/749/93
f 381/1127/59 429/1307/58 276/980/58
f 535/1128/260 367/1331/261 60/1129/261
f 380/1131/50 452/794/119 77/796/119
f 394/786/114 540/1332/91 283/1133/91
f 496/1134/58 493/702/18 236/1135/18
f 416/1136/248 337/1333/249 125/1137/249
f 495/1139/38 502/901/87 128/903/87
f 572/1141/31 575/1272/72 153/722/72
f 466/1142/161 517/1269/162 227/1143/162
f 501/1145/88 416/1136/248 126/1138/248
f 125/977/206 337/1334/206 336/774/207
f 332/987/17 480/894/164 32/896/164
f 567/1148/262 576/1171/193 104/1149/193
f 86/1006/218 538/1309/218 537/1150/263
f 544/1152/243 527/1053/237 119/1054/237
f 539/1153/136 337/1334/264 125/977/264
f 417/1154/265 437/1057/11 149/1059/11
f 477/1047/18 436/845/19 139/847/19
f 194/1041/58 341/980/58 340/982/18
f 453/574/266 309/1075/244 2/1076/244
f 458/1158/268 456/735/83 39/737/83
f 377/1160/269 329/1122/258 24/1124/258
f 343/1161/58 342/1135/18 70/1162/18
f 463/1164/270 516/1018/224 123/1019/224
f 488/1166/107 577/1335/250 251/1167/250
f 399/1169/127 519/1315/231 98/1032/231
f 345/1170/92 344/692/54 281/694/54
f 546/1171/122 578/1336/60 83/1172/62
f 383/811/79 491/810/59 9/1162/59
f 485/1175/271 406/868/143 93/869/145
f 346/1176/236 311/79/246 271/1177/246
f 598/998/272 453/888/266 3/890/267
f 336/1178/207 415/891/161 132/893/163
f 462/1179/88 461/1084/248 222/1086/248
f 348/1181/160 347/1183/138 230/1182/138
f 570/1183/273 535/1128/260 61/1130/260
f 579/1042/3 604/814/3 73/813/3
f 350/1184/144 349/732/80 91/734/82
f 492/1185/207 466/1142/161 228/1144/163
f 361/1186/103 428/950/228 208/1187/228
f 547/1188/37 495/1139/38 129/1140/38
f 352/1155/156 351/1287/128 298/815/128
f 331/1190/142 579/1337/274 74/1191/274
f 340/1193/18 386/779/19 192/781/19
f 353/1194/247 326/1338/126 100/1145/126
f 560/1195/176 580/1286/22 187/812/22
f 451/1197/19 448/1339/110 273/1003/110
f 312/1198/234 447/1340/42 295/1199/42
f 449/718/86 444/1341/240 173/1200/241
f 464/1201/61 463/1164/270 124/1165/270
f 368/1202/275 469/628/13 47/630/13
f 161/916/173 355/1299/173 354/906/214
f 541/1205/72 530/1094/73 248/1096/73
f 362/1206/219 409/1342/53 218/1207/53
f 356/1209/227 317/1343/276 80/1192/276
f 491/1211/59 376/701/58 8/703/58
f 397/1212/125 323/1232/277 242/1213/277
f 231/1071/136 357/1320/136 348/977/264
f 359/1214/125 358/1226/277 146/1215/277
f 259/1216/1 608/1344/1 609/584/1
f 330/1217/59 343/1161/58 71/1163/58
f 467/1219/23 442/1317/74 286/1051/74
f 595/1221/130 381/1345/59 277/1222/131
f 363/800/223 362/1206/219 219/1208/219
f 246/1225/265 468/1346/265 564/625/11
f 358/1226/277 321/1347/242 145/1227/242
f 335/1228/220 457/1230/278 54/1229/278
f 457/1230/278 542/1101/259 53/1231/259
f 323/1232/277 364/1348/284 241/1233/242
f 543/968/279 423/1177/279 163/1234/279
f 366/1235/159 365/1349/221 111/1236/221
f 320/1237/162 547/1188/37 130/1189/37
f 471/1239/192 470/972/280 41/1240/280
f 367/1241/8 319/1350/8 59/1132/8
f 592/1242/47 393/993/183 264/1243/183
f 574/1244/246 560/1195/176 188/1196/176
f 517/1246/162 322/663/37 226/665/37
f 369/1247/185 368/1202/275 48/1203/275
f 590/1248/23 599/725/74 203/726/74
f 180/996/213 513/1308/213 382/1250/281
f 401/1251/282 533/1351/282 185/1252/282
f 583/954/59 552/905/58 141/907/58
f 470/804/280 458/1158/268 40/1159/268
f 412/1253/166 424/913/171 168/915/171
f 268/1254/283 260/962/198 392/1255/198
